{
	"asset":{
		"generator":"Khronos glTF Blender I/O v5.2.40",
		"version":"2.0"
	},
	"scene":0,
	"scenes":[
		{
			"name":"Scene",
			"nodes":[
				41
			]
		}
	],
	"nodes":[
		{
			"name":"BackFoot.L_end",
			"rotation":[
				-2.1134550109991324e-08,
				-4.547473508864641e-13,
				9.892966030796216e-14,
				1
			],
			"translation":[
				1.4695586969537544e-07,
				1.2919137477874756,
				-1.946992256307567e-08
			]
		},
		{
			"children":[
				0
			],
			"name":"BackFoot.L",
			"rotation":[
				0.7071067094802856,
				-1.6549646488783765e-06,
				-1.6549646488783765e-06,
				0.7071068286895752
			],
			"scale":[
				1,
				0.9999999403953552,
				0.9999999403953552
			],
			"translation":[
				2.0670225620269775,
				0.17234086990356445,
				-4.05841588973999
			]
		},
		{
			"name":"BackFoot.R_end",
			"rotation":[
				-2.1134550109991324e-08,
				-1.705302430298969e-13,
				7.877426738255727e-14,
				1
			],
			"translation":[
				-1.6552448300899414e-07,
				1.2919137477874756,
				-1.4243056511986651e-08
			]
		},
		{
			"children":[
				2
			],
			"name":"BackFoot.R",
			"rotation":[
				0.7071067094802856,
				-1.3177902928873664e-06,
				-1.3177901792005287e-06,
				0.7071068286895752
			],
			"scale":[
				1,
				0.9999999403953552,
				0.9999999403953552
			],
			"translation":[
				-2.0670218467712402,
				0.17234086990356445,
				-4.05841588973999
			]
		},
		{
			"name":"Tail5_end",
			"rotation":[
				1.1175870895385742e-07,
				9.769962616701378e-15,
				2.8418239983452054e-14,
				1
			],
			"translation":[
				-2.48405740421731e-10,
				1.5510531663894653,
				-4.775365027853695e-07
			]
		},
		{
			"children":[
				4
			],
			"name":"Tail5",
			"rotation":[
				0.1555987000465393,
				-1.916588970862776e-10,
				3.870834319741334e-08,
				0.9878203868865967
			],
			"scale":[
				1,
				0.9999998807907104,
				0.9999999403953552
			],
			"translation":[
				-3.6209257814334705e-11,
				2.285567283630371,
				-7.020588554951246e-10
			]
		},
		{
			"children":[
				5
			],
			"name":"Tail4",
			"rotation":[
				0.12260901927947998,
				1.2150537997968058e-07,
				4.215106930161028e-09,
				0.9924550652503967
			],
			"scale":[
				1,
				0.9999999403953552,
				0.9999998807907104
			],
			"translation":[
				1.0108180958923185e-10,
				1.347808837890625,
				2.3843966800995986e-07
			]
		},
		{
			"children":[
				6
			],
			"name":"Tail3",
			"rotation":[
				-0.06724195927381516,
				-1.214524019133023e-07,
				-5.068541697461626e-10,
				0.9977367520332336
			],
			"scale":[
				1,
				0.9999999403953552,
				0.9999999403953552
			],
			"translation":[
				-1.5938894648570567e-10,
				1.9256027936935425,
				4.761403431530198e-07
			]
		},
		{
			"children":[
				7
			],
			"name":"Tail2",
			"rotation":[
				-0.23008447885513306,
				1.1587810178070868e-07,
				-2.6154520327281716e-08,
				0.9731706976890564
			],
			"scale":[
				1,
				1.0000001192092896,
				1
			],
			"translation":[
				-6.3390950474917496e-12,
				2.2399001121520996,
				-1.7763568394002505e-15
			]
		},
		{
			"children":[
				8
			],
			"name":"Tail1",
			"rotation":[
				-0.07147550582885742,
				-7.134269708330976e-07,
				-5.1123382860396305e-08,
				0.997442364692688
			],
			"translation":[
				1.0419398677186109e-10,
				1.1781271696090698,
				3.236298198316945e-07
			]
		},
		{
			"children":[
				9
			],
			"name":"Back",
			"rotation":[
				-0.7285066246986389,
				4.899785608358798e-07,
				-5.210692961554741e-07,
				0.6850388050079346
			],
			"translation":[
				-0.06456542015075684,
				-2.407722234725952,
				-1.6616523265838623
			]
		},
		{
			"name":"BackLowLeg.L_end",
			"rotation":[
				4.470347647611561e-08,
				-5.201502517593326e-08,
				8.066433565545594e-08,
				1
			],
			"scale":[
				1,
				0.9999999403953552,
				1
			],
			"translation":[
				-4.8935596907995205e-08,
				2.9349260330200195,
				1.2937982774019474e-07
			]
		},
		{
			"children":[
				11
			],
			"name":"BackLowLeg.L",
			"rotation":[
				0.23027291893959045,
				-0.004923557862639427,
				-0.05018036067485809,
				0.9718189835548401
			],
			"scale":[
				1.0000001192092896,
				1,
				1
			],
			"translation":[
				-8.195638656616211e-08,
				3.245490550994873,
				-1.1175870895385742e-08
			]
		},
		{
			"children":[
				12
			],
			"name":"BackUpLeg.L",
			"rotation":[
				-0.00324574438855052,
				-0.012065703049302101,
				0.7415453791618347,
				0.6707863807678223
			],
			"scale":[
				1,
				1,
				0.9999999403953552
			],
			"translation":[
				-4.937318465181306e-08,
				1.886706829071045,
				1.942732268389591e-07
			]
		},
		{
			"children":[
				13
			],
			"name":"BackLeg.L",
			"rotation":[
				-0.7071067690849304,
				-0.7071067690849304,
				4.1031977815464415e-08,
				1.376787679419067e-07
			],
			"translation":[
				0.4319269359111786,
				-2.827075719833374,
				-2.7743847370147705
			]
		},
		{
			"name":"BackLowLeg.R_end",
			"rotation":[
				4.4703494239684005e-08,
				7.728564455078413e-10,
				2.6775799355505114e-09,
				1
			],
			"translation":[
				6.505632654807414e-08,
				2.934925079345703,
				5.367172661863151e-08
			]
		},
		{
			"children":[
				15
			],
			"name":"BackLowLeg.R",
			"rotation":[
				0.23075604438781738,
				0.014495686627924442,
				0.04790983721613884,
				0.9717233180999756
			],
			"scale":[
				0.9999998807907104,
				1,
				1
			],
			"translation":[
				9.12696123123169e-08,
				3.2454922199249268,
				7.450580596923828e-08
			]
		},
		{
			"children":[
				16
			],
			"name":"BackUpLeg.R",
			"rotation":[
				0.741477370262146,
				-0.6708727478981018,
				-0.010549341328442097,
				0.005457933992147446
			],
			"scale":[
				0.9999999403953552,
				1.0000003576278687,
				0.9999999403953552
			],
			"translation":[
				-2.0641682851874066e-07,
				1.886706829071045,
				-9.003616696645622e-08
			]
		},
		{
			"children":[
				17
			],
			"name":"BackLeg.R",
			"rotation":[
				-2.003416028628635e-07,
				2.1630858881849235e-08,
				0.7071067690849304,
				0.7071067690849304
			],
			"translation":[
				-0.5551919937133789,
				-2.827075719833374,
				-2.7743847370147705
			]
		},
		{
			"name":"FrontLowLeg.L_end",
			"rotation":[
				1.2293459406009788e-07,
				-8.695220099497192e-10,
				-1.0477171352718528e-09,
				1
			],
			"scale":[
				1,
				0.9999999403953552,
				0.9999999403953552
			],
			"translation":[
				-9.251510668661922e-10,
				1.844627022743225,
				-1.0962847341033921e-07
			]
		},
		{
			"children":[
				19
			],
			"name":"FrontLowLeg.L",
			"rotation":[
				-0.1976546198129654,
				0.004366109147667885,
				-0.04444434121251106,
				0.9792539477348328
			],
			"scale":[
				1.0000001192092896,
				1.0000001192092896,
				1
			],
			"translation":[
				-4.284083843231201e-08,
				2.8161075115203857,
				-3.259629011154175e-08
			]
		},
		{
			"children":[
				20
			],
			"name":"FrontUpLeg.L",
			"rotation":[
				0.060573384165763855,
				0.06150379404425621,
				0.7353339791297913,
				0.6721845269203186
			],
			"scale":[
				0.9999999403953552,
				1,
				1
			],
			"translation":[
				7.36914742560657e-08,
				1.4561654329299927,
				4.978261358701275e-08
			]
		},
		{
			"children":[
				21
			],
			"name":"FrontLeg.L",
			"rotation":[
				-0.7071067690849304,
				-0.7071067690849304,
				9.577312276576322e-09,
				2.2197245641564223e-07
			],
			"translation":[
				0.3192978799343109,
				-4.145453929901123,
				3.090663194656372
			]
		},
		{
			"name":"FrontLowLeg.R_end",
			"rotation":[
				1.564621925354004e-07,
				-4.090438920911765e-08,
				3.632161593714045e-08,
				1
			],
			"translation":[
				2.93410220564283e-08,
				1.8446279764175415,
				-1.7370211935485713e-08
			]
		},
		{
			"children":[
				23
			],
			"name":"FrontLowLeg.R",
			"rotation":[
				-0.19720745086669922,
				0.005279519595205784,
				0.046388912945985794,
				0.9792494177818298
			],
			"scale":[
				1,
				1.0000001192092896,
				1
			],
			"translation":[
				-5.587935447692871e-08,
				2.8161070346832275,
				-2.384185791015625e-07
			]
		},
		{
			"children":[
				24
			],
			"name":"FrontUpLeg.R",
			"rotation":[
				-0.7358949184417725,
				0.6715461611747742,
				-0.05332804098725319,
				0.06812181323766708
			],
			"scale":[
				0.9999999403953552,
				0.9999997615814209,
				0.9999999403953552
			],
			"translation":[
				1.1430271484869081e-07,
				1.456165075302124,
				-3.2182470022235066e-09
			]
		},
		{
			"children":[
				25
			],
			"name":"FrontLeg.R",
			"rotation":[
				-2.267611449724427e-07,
				-4.788686336354431e-09,
				0.7071067690849304,
				0.7071067690849304
			],
			"translation":[
				-0.4425630271434784,
				-4.145453929901123,
				3.090663194656372
			]
		},
		{
			"name":"Head_end",
			"rotation":[
				-8.68749339133501e-08,
				1.0775402188301086e-06,
				6.449408829212189e-08,
				1
			],
			"scale":[
				1,
				0.9999999403953552,
				1.0000001192092896
			],
			"translation":[
				1.5832483768463135e-07,
				1.7971450090408325,
				3.497116267681122e-07
			]
		},
		{
			"children":[
				27
			],
			"name":"Head",
			"rotation":[
				-0.1623058319091797,
				-0.2556254267692566,
				0.04198543727397919,
				0.9521290063858032
			],
			"scale":[
				1,
				0.9999998807907104,
				1
			],
			"translation":[
				-2.652450348250568e-08,
				1.8720365762710571,
				1.2261323263373924e-06
			]
		},
		{
			"children":[
				28
			],
			"name":"Neck",
			"rotation":[
				0.08628303557634354,
				-0.0029081450775265694,
				-0.022419625893235207,
				0.9960141777992249
			],
			"scale":[
				0.9999999403953552,
				0.9999997615814209,
				0.9999999403953552
			],
			"translation":[
				0.03300339728593826,
				2.5735971927642822,
				0.26744934916496277
			]
		},
		{
			"children":[
				29
			],
			"name":"Shoulders",
			"rotation":[
				0.1970754861831665,
				-0.019178086891770363,
				0.04890268296003342,
				0.9789800643920898
			],
			"scale":[
				1,
				0.9999998807907104,
				1.0000001192092896
			],
			"translation":[
				-2.9802322387695312e-08,
				1.8018888235092163,
				9.995419532060623e-07
			]
		},
		{
			"children":[
				30
			],
			"name":"Torso",
			"rotation":[
				-0.27289292216300964,
				0.013551433570683002,
				-0.02772406116127968,
				0.9615494012832642
			],
			"scale":[
				1,
				1,
				0.9999999403953552
			],
			"translation":[
				-1.5465184688423506e-10,
				1.3831067085266113,
				-1.4668142966911546e-06
			]
		},
		{
			"children":[
				31
			],
			"name":"Hips",
			"rotation":[
				4.5512354063248495e-07,
				0.7353138327598572,
				0.6777267456054688,
				4.937958237860585e-07
			],
			"scale":[
				1,
				0.9999997019767761,
				1
			],
			"translation":[
				-0.06456542015075684,
				-2.532615900039673,
				-1.2821284532546997
			]
		},
		{
			"children":[
				10,
				14,
				18,
				22,
				26,
				32
			],
			"name":"Body",
			"translation":[
				0.061632394790649414,
				8.87871265411377,
				-0.06999492645263672
			]
		},
		{
			"name":"FrontFoot.L_end",
			"rotation":[
				-2.3860970088662725e-08,
				0,
				1.3444757460123746e-13,
				1
			],
			"translation":[
				-1.7401623253476828e-08,
				1.071183443069458,
				-1.7219917936017737e-08
			]
		},
		{
			"children":[
				34
			],
			"name":"FrontFoot.L",
			"rotation":[
				0.7071067690849304,
				-1.9921401417377638e-06,
				-1.9921401417377638e-06,
				0.7071067690849304
			],
			"translation":[
				1.595333218574524,
				0.17234086990356445,
				2.9222164154052734
			]
		},
		{
			"name":"FrontFoot.R_end",
			"rotation":[
				-2.3860970088662725e-08,
				0,
				1.1169197348687848e-13,
				1
			],
			"translation":[
				2.7746203556944238e-08,
				1.071183443069458,
				-1.1330030247336254e-08
			]
		},
		{
			"children":[
				36
			],
			"name":"FrontFoot.R",
			"rotation":[
				0.7071067690849304,
				-1.654965217312565e-06,
				-1.654965217312565e-06,
				0.7071067690849304
			],
			"translation":[
				-1.5953327417373657,
				0.17234086990356445,
				2.9222164154052734
			]
		},
		{
			"children":[
				1,
				3,
				33,
				35,
				37
			],
			"name":"root",
			"rotation":[
				-7.049202110920305e-08,
				0,
				0,
				1
			],
			"translation":[
				0,
				2.964016587725382e-09,
				0.01819300651550293
			]
		},
		{
			"mesh":0,
			"name":"Triceratops",
			"skin":0
		},
		{
			"children":[
				39,
				38
			],
			"name":"Armature"
		},
		{
			"children":[
				40
			],
			"name":"triceratops"
		}
	],
	"meshes":[
		{
			"name":"Cylinder",
			"primitives":[
				{
					"attributes":{
						"POSITION":0,
						"NORMAL":1,
						"TEXCOORD_0":2,
						"JOINTS_0":3,
						"WEIGHTS_0":4
					},
					"indices":5
				}
			]
		}
	],
	"skins":[
		{
			"inverseBindMatrices":6,
			"joints":[
				38,
				1,
				0,
				3,
				2,
				33,
				10,
				9,
				8,
				7,
				6,
				5,
				4,
				14,
				13,
				12,
				11,
				18,
				17,
				16,
				15,
				22,
				21,
				20,
				19,
				26,
				25,
				24,
				23,
				32,
				31,
				30,
				29,
				28,
				27,
				35,
				34,
				37,
				36
			],
			"name":"Armature"
		}
	],
	"accessors":[
		{
			"bufferView":0,
			"componentType":5126,
			"count":785,
			"max":[
				2.922050714492798,
				9.339054107666016,
				9.0090913772583
			],
			"min":[
				-2.922051191329956,
				-0.09345933794975281,
				-11.331485748291016
			],
			"type":"VEC3"
		},
		{
			"bufferView":1,
			"componentType":5126,
			"count":785,
			"type":"VEC3"
		},
		{
			"bufferView":2,
			"componentType":5126,
			"count":785,
			"type":"VEC2"
		},
		{
			"bufferView":3,
			"componentType":5121,
			"count":785,
			"type":"VEC4"
		},
		{
			"bufferView":4,
			"componentType":5126,
			"count":785,
			"type":"VEC4"
		},
		{
			"bufferView":5,
			"componentType":5123,
			"count":4002,
			"type":"SCALAR"
		},
		{
			"bufferView":6,
			"componentType":5126,
			"count":39,
			"type":"MAT4"
		}
	],
	"bufferViews":[
		{
			"buffer":0,
			"byteLength":9420,
			"byteOffset":0,
			"target":34962
		},
		{
			"buffer":0,
			"byteLength":9420,
			"byteOffset":9420,
			"target":34962
		},
		{
			"buffer":0,
			"byteLength":6280,
			"byteOffset":18840,
			"target":34962
		},
		{
			"buffer":0,
			"byteLength":3140,
			"byteOffset":25120,
			"target":34962
		},
		{
			"buffer":0,
			"byteLength":12560,
			"byteOffset":28260,
			"target":34962
		},
		{
			"buffer":0,
			"byteLength":8004,
			"byteOffset":40820,
			"target":34963
		},
		{
			"buffer":0,
			"byteLength":2496,
			"byteOffset":48824
		}
	],
	"buffers":[
		{
			"byteLength":51320,
			"uri":"triceratops.bin"
		}
	]
}
