{
	"asset":{
		"generator":"Khronos glTF Blender I/O v4.1.63",
		"version":"2.0"
	},
	"scene":0,
	"scenes":[
		{
			"name":"Scene",
			"nodes":[
				41
			]
		}
	],
	"nodes":[
		{
			"name":"BackLowLeg.R_end",
			"rotation":[
				7.4505820180093e-08,
				7.728635509351989e-10,
				1.5134212771883426e-09,
				1
			],
			"translation":[
				-9.838277037488297e-08,
				2.934924840927124,
				2.115542656611069e-07
			]
		},
		{
			"children":[
				0
			],
			"name":"BackLowLeg.R",
			"rotation":[
				0.2307559698820114,
				0.014495685696601868,
				0.04790984466671944,
				0.9717233180999756
			],
			"scale":[
				0.9999998211860657,
				1,
				1
			],
			"translation":[
				1.2293457984924316e-07,
				3.2454922199249268,
				-9.033828973770142e-08
			]
		},
		{
			"children":[
				1
			],
			"name":"BackUpLeg.R",
			"rotation":[
				0.741477370262146,
				-0.6708727478981018,
				-0.010549306869506836,
				0.005457932595163584
			],
			"scale":[
				0.9999999403953552,
				1.0000003576278687,
				0.9999999403953552
			],
			"translation":[
				-8.307264209861387e-08,
				1.886706829071045,
				-8.946932439357624e-08
			]
		},
		{
			"children":[
				2
			],
			"name":"BackLeg.R",
			"rotation":[
				-2.003415886520088e-07,
				2.1630850000065038e-08,
				0.7071067690849304,
				0.7071067690849304
			],
			"translation":[
				-0.5551919937133789,
				-2.8270764350891113,
				-2.7743849754333496
			]
		},
		{
			"name":"BackLowLeg.L_end",
			"rotation":[
				5.960463766996327e-08,
				-5.20150180705059e-08,
				8.089718050996453e-08,
				1
			],
			"scale":[
				1,
				0.9999998807907104,
				1
			],
			"translation":[
				-2.210446936601329e-08,
				2.9349257946014404,
				-2.3297366169572342e-07
			]
		},
		{
			"children":[
				4
			],
			"name":"BackLowLeg.L",
			"rotation":[
				0.23027288913726807,
				-0.004923558793962002,
				-0.05018036067485809,
				0.9718189835548401
			],
			"scale":[
				1.0000001192092896,
				0.9999999403953552,
				1.0000001192092896
			],
			"translation":[
				-1.6763806343078613e-07,
				3.245490550994873,
				-1.1175870895385742e-07
			]
		},
		{
			"children":[
				5
			],
			"name":"BackUpLeg.L",
			"rotation":[
				-0.003245726227760315,
				-0.012065688148140907,
				0.7415453791618347,
				0.6707863807678223
			],
			"scale":[
				1,
				1,
				0.9999999403953552
			],
			"translation":[
				7.3970888081476e-08,
				1.886706829071045,
				1.9370578741018107e-07
			]
		},
		{
			"children":[
				6
			],
			"name":"BackLeg.L",
			"rotation":[
				-0.7071067690849304,
				-0.7071067690849304,
				4.1031977815464415e-08,
				1.376787679419067e-07
			],
			"translation":[
				0.4319269359111786,
				-2.8270764350891113,
				-2.7743849754333496
			]
		},
		{
			"name":"Tail5_end",
			"rotation":[
				8.195638656616211e-08,
				1.1324274851176597e-14,
				6.449701883681769e-15,
				1
			],
			"translation":[
				-2.4715518520679325e-10,
				1.5510531663894653,
				-2.39117923683807e-07
			]
		},
		{
			"children":[
				8
			],
			"name":"Tail5",
			"rotation":[
				0.1555987000465393,
				-1.9166383757873717e-10,
				3.870834319741334e-08,
				0.9878203868865967
			],
			"scale":[
				1,
				0.9999999403953552,
				1
			],
			"translation":[
				-3.501554601825774e-11,
				2.28556752204895,
				4.761351135584846e-07
			]
		},
		{
			"children":[
				9
			],
			"name":"Tail4",
			"rotation":[
				0.12260891497135162,
				1.2150540840139001e-07,
				4.215066962132141e-09,
				0.9924550652503967
			],
			"scale":[
				1,
				1.0000001192092896,
				1
			],
			"translation":[
				3.354543309797009e-10,
				1.347808599472046,
				-4.7681606929472764e-07
			]
		},
		{
			"children":[
				10
			],
			"name":"Tail3",
			"rotation":[
				-0.06724172830581665,
				-1.214524019133023e-07,
				-5.068145902953347e-10,
				0.9977367520332336
			],
			"scale":[
				1,
				1,
				0.9999999403953552
			],
			"translation":[
				-1.5796786101418547e-10,
				1.9256027936935425,
				1.1913961088794167e-06
			]
		},
		{
			"children":[
				11
			],
			"name":"Tail2",
			"rotation":[
				-0.2300846427679062,
				1.158780804644266e-07,
				-2.6154516774568037e-08,
				0.9731706380844116
			],
			"translation":[
				-5.506534464516655e-12,
				2.2398996353149414,
				-2.384185791015625e-07
			]
		},
		{
			"children":[
				12
			],
			"name":"Tail1",
			"rotation":[
				-0.07147525995969772,
				-7.134269139896787e-07,
				-5.1123205224712365e-08,
				0.997442364692688
			],
			"scale":[
				1,
				0.9999999403953552,
				0.9999998807907104
			],
			"translation":[
				-1.2670398064074107e-10,
				1.1781275272369385,
				-8.237595920945751e-07
			]
		},
		{
			"children":[
				13
			],
			"name":"Back",
			"rotation":[
				-0.7285068035125732,
				4.899783334622043e-07,
				-5.210692961554741e-07,
				0.6850386261940002
			],
			"translation":[
				-0.06456542015075684,
				-2.407721757888794,
				-1.6616523265838623
			]
		},
		{
			"name":"Head_end",
			"rotation":[
				-4.9796661016898724e-08,
				1.0700896382331848e-06,
				4.371395334601402e-08,
				1
			],
			"scale":[
				1,
				0.9999999403953552,
				0.9999999403953552
			],
			"translation":[
				-6.798654794692993e-08,
				1.7971423864364624,
				5.811452865600586e-07
			]
		},
		{
			"children":[
				15
			],
			"name":"Head",
			"rotation":[
				-0.1623060554265976,
				-0.2556254267692566,
				0.04198550432920456,
				0.9521290063858032
			],
			"translation":[
				-2.686510924831964e-08,
				1.8720356225967407,
				1.1665332522170502e-06
			]
		},
		{
			"children":[
				16
			],
			"name":"Neck",
			"rotation":[
				0.08628322929143906,
				-0.002908148802816868,
				-0.022419631481170654,
				0.9960141181945801
			],
			"scale":[
				1,
				0.9999997615814209,
				0.9999999403953552
			],
			"translation":[
				0.03300336003303528,
				2.5735957622528076,
				0.2674494683742523
			]
		},
		{
			"children":[
				17
			],
			"name":"Shoulders",
			"rotation":[
				0.19707563519477844,
				-0.01917809061706066,
				0.04890270158648491,
				0.9789800643920898
			],
			"scale":[
				1,
				1,
				0.9999999403953552
			],
			"translation":[
				0,
				1.8018876314163208,
				2.845190465450287e-07
			]
		},
		{
			"children":[
				18
			],
			"name":"Torso",
			"rotation":[
				-0.27289292216300964,
				0.01355142891407013,
				-0.027724072337150574,
				0.9615494012832642
			],
			"scale":[
				1,
				1.0000001192092896,
				1
			],
			"translation":[
				7.90367771230649e-11,
				1.3831067085266113,
				-1.505231352894043e-06
			]
		},
		{
			"children":[
				19
			],
			"name":"Hips",
			"rotation":[
				4.5512362589761324e-07,
				0.7353137731552124,
				0.6777269244194031,
				4.937957669426396e-07
			],
			"scale":[
				1,
				1.0000001192092896,
				1
			],
			"translation":[
				-0.06456542015075684,
				-2.5326154232025146,
				-1.2821284532546997
			]
		},
		{
			"name":"FrontLowLeg.R_end",
			"rotation":[
				1.6763806343078613e-07,
				-4.090440341997237e-08,
				4.4703526214107114e-08,
				1
			],
			"scale":[
				1,
				0.9999999403953552,
				1
			],
			"translation":[
				-9.903727971050102e-08,
				1.844627857208252,
				5.309362904881709e-08
			]
		},
		{
			"children":[
				21
			],
			"name":"FrontLowLeg.R",
			"rotation":[
				-0.19720745086669922,
				0.005279524251818657,
				0.046388912945985794,
				0.9792494177818298
			],
			"scale":[
				0.9999999403953552,
				1.0000001192092896,
				1
			],
			"translation":[
				-2.0489096641540527e-07,
				2.816107749938965,
				-1.9371509552001953e-07
			]
		},
		{
			"children":[
				22
			],
			"name":"FrontUpLeg.R",
			"rotation":[
				-0.7358949184417725,
				0.6715461611747742,
				-0.0533280149102211,
				0.06812181323766708
			],
			"scale":[
				0.9999998807907104,
				0.9999997615814209,
				0.9999998807907104
			],
			"translation":[
				-1.832298224258011e-08,
				1.456165075302124,
				-2.774640961433761e-09
			]
		},
		{
			"children":[
				23
			],
			"name":"FrontLeg.R",
			"rotation":[
				-2.267611449724427e-07,
				-4.788696550406257e-09,
				0.7071067690849304,
				0.7071067690849304
			],
			"translation":[
				-0.4425630271434784,
				-4.145453929901123,
				3.090663194656372
			]
		},
		{
			"name":"FrontLowLeg.L_end",
			"rotation":[
				1.2293459406009788e-07,
				-8.695219544385679e-10,
				2.9104034737770235e-09,
				1
			],
			"scale":[
				1,
				0.9999999403953552,
				0.9999999403953552
			],
			"translation":[
				-7.571451021703979e-09,
				1.844626784324646,
				-7.457711603819916e-08
			]
		},
		{
			"children":[
				25
			],
			"name":"FrontLowLeg.L",
			"rotation":[
				-0.197654590010643,
				0.004366105888038874,
				-0.04444434493780136,
				0.9792539477348328
			],
			"scale":[
				1.0000001192092896,
				1.0000001192092896,
				1
			],
			"translation":[
				-1.4901161193847656e-07,
				2.8161072731018066,
				-1.3131648302078247e-07
			]
		},
		{
			"children":[
				26
			],
			"name":"FrontUpLeg.L",
			"rotation":[
				0.06057337298989296,
				0.06150378659367561,
				0.7353339791297913,
				0.6721845269203186
			],
			"scale":[
				0.9999999403953552,
				1,
				1
			],
			"translation":[
				-5.893430810033351e-08,
				1.4561654329299927,
				4.933878017254756e-08
			]
		},
		{
			"children":[
				27
			],
			"name":"FrontLeg.L",
			"rotation":[
				-0.7071067690849304,
				-0.7071067690849304,
				9.577312276576322e-09,
				2.2197245641564223e-07
			],
			"translation":[
				0.3192978799343109,
				-4.145453929901123,
				3.090663194656372
			]
		},
		{
			"children":[
				3,
				7,
				14,
				20,
				24,
				28
			],
			"name":"Body",
			"translation":[
				0.061632394790649414,
				8.87871265411377,
				-0.06999492645263672
			]
		},
		{
			"name":"BackFoot.R_end",
			"rotation":[
				-5.255600399323157e-10,
				-1.1368683772161603e-13,
				1.9589089566760236e-15,
				1
			],
			"translation":[
				7.289404635457686e-08,
				1.2919137477874756,
				-7.781864042044617e-11
			]
		},
		{
			"children":[
				30
			],
			"name":"BackFoot.R",
			"rotation":[
				0.7071067690849304,
				-1.317790406574204e-06,
				-1.317790406574204e-06,
				0.7071067690849304
			],
			"translation":[
				-2.0670218467712402,
				0.17234086990356445,
				-4.05841588973999
			]
		},
		{
			"name":"BackFoot.L_end",
			"rotation":[
				-5.255600399323157e-10,
				-2.2737367544323206e-13,
				2.460106398379392e-15,
				1
			],
			"translation":[
				-9.146287283101628e-08,
				1.2919137477874756,
				-5.305594186211238e-09
			]
		},
		{
			"children":[
				32
			],
			"name":"BackFoot.L",
			"rotation":[
				0.7071067690849304,
				-1.654964876252052e-06,
				-1.654964876252052e-06,
				0.7071067690849304
			],
			"translation":[
				2.0670225620269775,
				0.17234086990356445,
				-4.05841588973999
			]
		},
		{
			"name":"FrontFoot.R_end",
			"rotation":[
				-1.050040054906276e-09,
				0,
				4.915211914238195e-15,
				1
			],
			"translation":[
				2.774622842593999e-08,
				1.071183443069458,
				-1.637658897379879e-10
			]
		},
		{
			"children":[
				34
			],
			"name":"FrontFoot.R",
			"rotation":[
				0.7071067690849304,
				-1.654965217312565e-06,
				-1.654965217312565e-06,
				0.7071067690849304
			],
			"translation":[
				-1.5953327417373657,
				0.17234086990356445,
				2.9222164154052734
			]
		},
		{
			"name":"FrontFoot.L_end",
			"rotation":[
				-1.050040054906276e-09,
				0,
				5.916631015689695e-15,
				1
			],
			"translation":[
				-1.7401546870132734e-08,
				1.071183443069458,
				-6.053653578419471e-09
			]
		},
		{
			"children":[
				36
			],
			"name":"FrontFoot.L",
			"rotation":[
				0.7071067690849304,
				-1.9921401417377638e-06,
				-1.9921401417377638e-06,
				0.7071067690849304
			],
			"translation":[
				1.595333218574524,
				0.17234086990356445,
				2.9222164154052734
			]
		},
		{
			"children":[
				29,
				31,
				33,
				35,
				37
			],
			"name":"root",
			"rotation":[
				-0.70710688829422,
				0,
				0,
				0.7071066498756409
			],
			"translation":[
				0,
				0.01819300651550293,
				-3.7592582380341355e-09
			]
		},
		{
			"mesh":0,
			"name":"Triceratops",
			"skin":0
		},
		{
			"children":[
				39,
				38
			],
			"name":"Armature",
			"rotation":[
				0.7071068286895752,
				0,
				0,
				0.7071068286895752
			]
		},
		{
			"children":[
				40
			],
			"name":"triceratops"
		}
	],
	"meshes":[
		{
			"name":"Cylinder",
			"primitives":[
				{
					"attributes":{
						"POSITION":0,
						"NORMAL":1,
						"TEXCOORD_0":2,
						"JOINTS_0":3,
						"WEIGHTS_0":4
					},
					"indices":5
				}
			]
		}
	],
	"skins":[
		{
			"inverseBindMatrices":6,
			"joints":[
				38,
				29,
				3,
				2,
				1,
				0,
				7,
				6,
				5,
				4,
				14,
				13,
				12,
				11,
				10,
				9,
				8,
				20,
				19,
				18,
				17,
				16,
				15,
				24,
				23,
				22,
				21,
				28,
				27,
				26,
				25,
				31,
				30,
				33,
				32,
				35,
				34,
				37,
				36
			],
			"name":"Armature"
		}
	],
	"accessors":[
		{
			"bufferView":0,
			"componentType":5126,
			"count":2558,
			"max":[
				2.922050714492798,
				9.339054107666016,
				9.009092330932617
			],
			"min":[
				-2.922051191329956,
				-0.09345899522304535,
				-11.331485748291016
			],
			"type":"VEC3"
		},
		{
			"bufferView":1,
			"componentType":5126,
			"count":2558,
			"type":"VEC3"
		},
		{
			"bufferView":2,
			"componentType":5126,
			"count":2558,
			"type":"VEC2"
		},
		{
			"bufferView":3,
			"componentType":5121,
			"count":2558,
			"type":"VEC4"
		},
		{
			"bufferView":4,
			"componentType":5126,
			"count":2558,
			"type":"VEC4"
		},
		{
			"bufferView":5,
			"componentType":5123,
			"count":4002,
			"type":"SCALAR"
		},
		{
			"bufferView":6,
			"componentType":5126,
			"count":39,
			"type":"MAT4"
		}
	],
	"bufferViews":[
		{
			"buffer":0,
			"byteLength":30696,
			"byteOffset":0,
			"target":34962
		},
		{
			"buffer":0,
			"byteLength":30696,
			"byteOffset":30696,
			"target":34962
		},
		{
			"buffer":0,
			"byteLength":20464,
			"byteOffset":61392,
			"target":34962
		},
		{
			"buffer":0,
			"byteLength":10232,
			"byteOffset":81856,
			"target":34962
		},
		{
			"buffer":0,
			"byteLength":40928,
			"byteOffset":92088,
			"target":34962
		},
		{
			"buffer":0,
			"byteLength":8004,
			"byteOffset":133016,
			"target":34963
		},
		{
			"buffer":0,
			"byteLength":2496,
			"byteOffset":141020
		}
	],
	"buffers":[
		{
			"byteLength":143516,
			"uri":"triceratops.bin"
		}
	]
}
