{
	"asset":{
		"generator":"Khronos glTF Blender I/O v4.5.48",
		"version":"2.0"
	},
	"scene":0,
	"scenes":[
		{
			"name":"Scene",
			"nodes":[
				3
			]
		}
	],
	"nodes":[
		{
			"name":"Bone"
		},
		{
			"mesh":0,
			"name":"wooden_club",
			"skin":0
		},
		{
			"children":[
				1,
				0
			],
			"name":"Armature"
		},
		{
			"children":[
				2
			],
			"name":"wooden_club"
		}
	],
	"meshes":[
		{
			"name":"Cube.003",
			"primitives":[
				{
					"attributes":{
						"POSITION":0,
						"NORMAL":1,
						"TEXCOORD_0":2,
						"TANGENT":3,
						"COLOR_0":4,
						"JOINTS_0":5,
						"WEIGHTS_0":6
					},
					"indices":7
				}
			]
		}
	],
	"skins":[
		{
			"inverseBindMatrices":8,
			"joints":[
				0
			],
			"name":"Armature"
		}
	],
	"accessors":[
		{
			"bufferView":0,
			"componentType":5126,
			"count":354,
			"max":[
				0.17888717353343964,
				1.0121418237686157,
				0.16816069185733795
			],
			"min":[
				-0.1667330414056778,
				-0.2250579595565796,
				-0.16243530809879303
			],
			"type":"VEC3"
		},
		{
			"bufferView":1,
			"componentType":5126,
			"count":354,
			"type":"VEC3"
		},
		{
			"bufferView":2,
			"componentType":5126,
			"count":354,
			"type":"VEC2"
		},
		{
			"bufferView":3,
			"componentType":5126,
			"count":354,
			"type":"VEC4"
		},
		{
			"bufferView":4,
			"componentType":5123,
			"count":354,
			"normalized":true,
			"type":"VEC4"
		},
		{
			"bufferView":5,
			"componentType":5121,
			"count":354,
			"type":"VEC4"
		},
		{
			"bufferView":6,
			"componentType":5126,
			"count":354,
			"type":"VEC4"
		},
		{
			"bufferView":7,
			"componentType":5123,
			"count":378,
			"type":"SCALAR"
		},
		{
			"bufferView":8,
			"componentType":5126,
			"count":1,
			"type":"MAT4"
		}
	],
	"bufferViews":[
		{
			"buffer":0,
			"byteLength":4248,
			"byteOffset":0,
			"target":34962
		},
		{
			"buffer":0,
			"byteLength":4248,
			"byteOffset":4248,
			"target":34962
		},
		{
			"buffer":0,
			"byteLength":2832,
			"byteOffset":8496,
			"target":34962
		},
		{
			"buffer":0,
			"byteLength":5664,
			"byteOffset":11328,
			"target":34962
		},
		{
			"buffer":0,
			"byteLength":2832,
			"byteOffset":16992,
			"target":34962
		},
		{
			"buffer":0,
			"byteLength":1416,
			"byteOffset":19824,
			"target":34962
		},
		{
			"buffer":0,
			"byteLength":5664,
			"byteOffset":21240,
			"target":34962
		},
		{
			"buffer":0,
			"byteLength":756,
			"byteOffset":26904,
			"target":34963
		},
		{
			"buffer":0,
			"byteLength":64,
			"byteOffset":27660
		}
	],
	"buffers":[
		{
			"byteLength":27724,
			"uri":"wooden_club.bin"
		}
	]
}
