{
	"asset":{
		"generator":"Khronos glTF Blender I/O v4.1.63",
		"version":"2.0"
	},
	"scene":0,
	"scenes":[
		{
			"name":"Scene",
			"nodes":[
				41
			]
		}
	],
	"nodes":[
		{
			"name":"BackLowLeg.R_end",
			"rotation":[
				4.4703497792397684e-08,
				7.728556128405728e-10,
				6.402859575871389e-09,
				1
			],
			"scale":[
				1,
				0.9999999403953552,
				0.9999999403953552
			],
			"translation":[
				-7.873873641983664e-08,
				1.4674625396728516,
				1.5363497141152038e-08
			]
		},
		{
			"children":[
				0
			],
			"name":"BackLowLeg.R",
			"rotation":[
				0.23075605928897858,
				0.014495695009827614,
				0.04790982976555824,
				0.9717233180999756
			],
			"scale":[
				0.9999999403953552,
				1,
				0.9999999403953552
			],
			"translation":[
				6.239861249923706e-08,
				1.6227459907531738,
				3.026798367500305e-08
			]
		},
		{
			"children":[
				1
			],
			"name":"BackUpLeg.R",
			"rotation":[
				0.741477370262146,
				-0.6708727478981018,
				-0.010549351572990417,
				0.005457933992147446
			],
			"scale":[
				0.9999999403953552,
				1.0000003576278687,
				0.9999999403953552
			],
			"translation":[
				-4.1440085141175587e-08,
				0.9433534145355225,
				-4.452832058632339e-08
			]
		},
		{
			"children":[
				2
			],
			"name":"BackLeg.R",
			"rotation":[
				-2.003416028628635e-07,
				2.1630858881849235e-08,
				0.7071067690849304,
				0.7071067690849304
			],
			"translation":[
				-0.27759599685668945,
				-1.4135379791259766,
				-1.3871923685073853
			]
		},
		{
			"name":"BackLowLeg.L_end",
			"rotation":[
				6.705521116145974e-08,
				-5.201502517593326e-08,
				7.693907377870346e-08,
				1
			],
			"scale":[
				1,
				1,
				1.0000001192092896
			],
			"translation":[
				-9.99428948489367e-08,
				1.4674632549285889,
				-9.734930017657462e-08
			]
		},
		{
			"children":[
				4
			],
			"name":"BackLowLeg.L",
			"rotation":[
				0.23027294874191284,
				-0.0049235625192523,
				-0.05018036440014839,
				0.9718189835548401
			],
			"scale":[
				1.0000001192092896,
				0.9999999403953552,
				1
			],
			"translation":[
				-5.774199962615967e-08,
				1.622745394706726,
				-3.725290298461914e-08
			]
		},
		{
			"children":[
				5
			],
			"name":"BackUpLeg.L",
			"rotation":[
				-0.00324574438855052,
				-0.012065713293850422,
				0.7415453791618347,
				0.6707863807678223
			],
			"scale":[
				1,
				1,
				0.9999999403953552
			],
			"translation":[
				3.708170126515142e-08,
				0.9433534145355225,
				9.664677236287389e-08
			]
		},
		{
			"children":[
				6
			],
			"name":"BackLeg.L",
			"rotation":[
				-0.7071067690849304,
				-0.7071067690849304,
				4.1031977815464415e-08,
				1.376787679419067e-07
			],
			"translation":[
				0.2159634679555893,
				-1.4135379791259766,
				-1.3871923685073853
			]
		},
		{
			"name":"Tail5_end",
			"rotation":[
				1.4156103134155273e-07,
				7.993605777301127e-15,
				2.968111867396317e-14,
				1
			],
			"translation":[
				-6.394884621840902e-12,
				0.7755265235900879,
				1.1885961725965899e-07
			]
		},
		{
			"children":[
				8
			],
			"name":"Tail5",
			"rotation":[
				0.15559867024421692,
				-1.9165080633598564e-10,
				3.870825793228505e-08,
				0.9878203868865967
			],
			"scale":[
				1,
				0.9999998211860657,
				0.9999998807907104
			],
			"translation":[
				-1.3233147910796106e-10,
				1.1427839994430542,
				1.1885826012303369e-07
			]
		},
		{
			"children":[
				9
			],
			"name":"Tail4",
			"rotation":[
				0.12260894477367401,
				1.2150540840139001e-07,
				4.215015447783799e-09,
				0.992455005645752
			],
			"scale":[
				1,
				0.9999998807907104,
				0.9999998807907104
			],
			"translation":[
				-6.338218838664034e-11,
				0.6739040613174438,
				-1.1919875220200993e-07
			]
		},
		{
			"children":[
				10
			],
			"name":"Tail3",
			"rotation":[
				-0.06724175065755844,
				-1.214524019133023e-07,
				-5.067825603610743e-10,
				0.9977366924285889
			],
			"translation":[
				-7.736389306955971e-11,
				0.962801456451416,
				2.380701715765099e-07
			]
		},
		{
			"children":[
				11
			],
			"name":"Tail2",
			"rotation":[
				-0.2300846427679062,
				1.1587809467528132e-07,
				-2.6154408416800834e-08,
				0.9731706380844116
			],
			"translation":[
				-1.1763738594350315e-10,
				1.1199499368667603,
				-5.960464477539063e-08
			]
		},
		{
			"children":[
				12
			],
			"name":"Tail1",
			"rotation":[
				-0.07147526741027832,
				-7.134268571462599e-07,
				-5.1123173250289256e-08,
				0.997442364692688
			],
			"scale":[
				1,
				0.9999998807907104,
				0.9999998807907104
			],
			"translation":[
				-6.149036835267907e-11,
				0.5890636444091797,
				-1.7346121694572503e-07
			]
		},
		{
			"children":[
				13
			],
			"name":"Back",
			"rotation":[
				-0.7285068035125732,
				4.899781060885289e-07,
				-5.210690687817987e-07,
				0.6850386261940002
			],
			"translation":[
				-0.03228271007537842,
				-1.203861117362976,
				-0.8308261632919312
			]
		},
		{
			"name":"Head_end",
			"rotation":[
				1.1496013030409813e-08,
				1.0603107511997223e-06,
				3.958120942115784e-09,
				1
			],
			"scale":[
				1,
				1,
				0.9999999403953552
			],
			"translation":[
				3.026798367500305e-09,
				0.8985724449157715,
				2.270098775625229e-07
			]
		},
		{
			"children":[
				15
			],
			"name":"Head",
			"rotation":[
				-0.1623057872056961,
				-0.2556254267692566,
				0.04198542982339859,
				0.9521290063858032
			],
			"scale":[
				1,
				0.9999999403953552,
				1
			],
			"translation":[
				-1.3266117093735375e-08,
				0.9360182285308838,
				9.111012104767724e-07
			]
		},
		{
			"children":[
				16
			],
			"name":"Neck",
			"rotation":[
				0.08628290146589279,
				-0.002908142516389489,
				-0.022419610992074013,
				0.9960141777992249
			],
			"scale":[
				0.9999999403953552,
				0.9999998807907104,
				0.9999998807907104
			],
			"translation":[
				0.016501707956194878,
				1.2867985963821411,
				0.13372454047203064
			]
		},
		{
			"children":[
				17
			],
			"name":"Shoulders",
			"rotation":[
				0.19707560539245605,
				-0.019178086891770363,
				0.04890267923474312,
				0.9789800643920898
			],
			"scale":[
				1,
				1,
				1.0000001192092896
			],
			"translation":[
				7.450580596923828e-09,
				0.9009445309638977,
				8.300412446260452e-08
			]
		},
		{
			"children":[
				18
			],
			"name":"Torso",
			"rotation":[
				-0.27289295196533203,
				0.013551438227295876,
				-0.027724064886569977,
				0.9615493416786194
			],
			"translation":[
				-7.732858797737663e-11,
				0.6915533542633057,
				-9.736883157529519e-07
			]
		},
		{
			"children":[
				19
			],
			"name":"Hips",
			"rotation":[
				4.5512354063248495e-07,
				0.7353138327598572,
				0.6777267456054688,
				4.937958237860585e-07
			],
			"scale":[
				1,
				0.9999997019767761,
				1
			],
			"translation":[
				-0.03228271007537842,
				-1.2663079500198364,
				-0.6410642266273499
			]
		},
		{
			"name":"FrontLowLeg.R_end",
			"rotation":[
				1.4156103134155273e-07,
				-4.090440341997237e-08,
				3.632161593714045e-08,
				1
			],
			"translation":[
				-3.6746619969107996e-08,
				0.9223140478134155,
				4.609198356320121e-08
			]
		},
		{
			"children":[
				21
			],
			"name":"FrontLowLeg.R",
			"rotation":[
				-0.1972074657678604,
				0.005279524251818657,
				0.046388912945985794,
				0.9792494177818298
			],
			"translation":[
				-3.725290298461914e-09,
				1.4080536365509033,
				5.960464477539063e-08
			]
		},
		{
			"children":[
				22
			],
			"name":"FrontUpLeg.R",
			"rotation":[
				-0.7358949184417725,
				0.6715461611747742,
				-0.05332804098725319,
				0.06812180578708649
			],
			"scale":[
				0.9999999403953552,
				0.9999997615814209,
				0.9999998807907104
			],
			"translation":[
				-9.265059830454447e-09,
				0.728082537651062,
				-1.2261125448276289e-09
			]
		},
		{
			"children":[
				23
			],
			"name":"FrontLeg.R",
			"rotation":[
				-2.267611449724427e-07,
				-4.788686336354431e-09,
				0.7071067690849304,
				0.7071067690849304
			],
			"translation":[
				-0.2212815135717392,
				-2.0727272033691406,
				1.545331597328186
			]
		},
		{
			"name":"FrontLowLeg.L_end",
			"rotation":[
				1.0803341865539551e-07,
				-8.695288378213206e-10,
				3.6088980692738915e-09,
				1
			],
			"translation":[
				-2.689226974439407e-08,
				0.9223137497901917,
				1.4001984993683436e-07
			]
		},
		{
			"children":[
				25
			],
			"name":"FrontLowLeg.L",
			"rotation":[
				-0.1976546198129654,
				0.004366110544651747,
				-0.04444434121251106,
				0.9792539477348328
			],
			"scale":[
				1.0000001192092896,
				1,
				1
			],
			"translation":[
				-2.60770320892334e-08,
				1.4080538749694824,
				-3.306195139884949e-08
			]
		},
		{
			"children":[
				26
			],
			"name":"FrontUpLeg.L",
			"rotation":[
				0.06057337671518326,
				0.0615038126707077,
				0.7353339791297913,
				0.6721845865249634
			],
			"scale":[
				0.9999999403953552,
				0.9999999403953552,
				1
			],
			"translation":[
				-2.957065170505757e-08,
				0.7280827164649963,
				2.4508153728675097e-08
			]
		},
		{
			"children":[
				27
			],
			"name":"FrontLeg.L",
			"rotation":[
				-0.7071067690849304,
				-0.7071067690849304,
				9.577312276576322e-09,
				2.2197245641564223e-07
			],
			"translation":[
				0.15964893996715546,
				-2.0727272033691406,
				1.545331597328186
			]
		},
		{
			"children":[
				3,
				7,
				14,
				20,
				24,
				28
			],
			"name":"Body",
			"translation":[
				0.030816197395324707,
				4.439356327056885,
				-0.03499746322631836
			]
		},
		{
			"name":"BackFoot.R_end",
			"rotation":[
				-1.0657726837290295e-14,
				-1.705302430298969e-13,
				2.710505431213761e-20,
				1
			],
			"translation":[
				-8.276226282077914e-08,
				0.6459568738937378,
				-7.58261364808277e-09
			]
		},
		{
			"children":[
				30
			],
			"name":"BackFoot.R",
			"rotation":[
				0.7071067094802856,
				-1.317790406574204e-06,
				-1.317790406574204e-06,
				0.7071068286895752
			],
			"scale":[
				1,
				0.9999999403953552,
				0.9999999403953552
			],
			"translation":[
				-1.0335109233856201,
				0.08617043495178223,
				-2.029207944869995
			]
		},
		{
			"name":"BackFoot.L_end",
			"rotation":[
				-1.065748797399917e-14,
				-4.547473237814098e-13,
				0,
				1
			],
			"translation":[
				7.347784958255943e-08,
				0.6459568738937378,
				-1.0197410915679939e-08
			]
		},
		{
			"children":[
				32
			],
			"name":"BackFoot.L",
			"rotation":[
				0.7071067094802856,
				-1.6549649899388896e-06,
				-1.6549649899388896e-06,
				0.7071068286895752
			],
			"scale":[
				1,
				0.9999999403953552,
				0.9999999403953552
			],
			"translation":[
				1.0335112810134888,
				0.08617043495178223,
				-2.029207944869995
			]
		},
		{
			"name":"FrontFoot.R_end",
			"translation":[
				1.3873114212969995e-08,
				0.535591721534729,
				5.474021236295812e-11
			]
		},
		{
			"children":[
				34
			],
			"name":"FrontFoot.R",
			"rotation":[
				0.7071067690849304,
				-1.654965217312565e-06,
				-1.654965217312565e-06,
				0.7071067690849304
			],
			"translation":[
				-0.7976663708686829,
				0.08617043495178223,
				1.4611082077026367
			]
		},
		{
			"name":"FrontFoot.L_end",
			"translation":[
				-8.700772546887947e-09,
				0.535591721534729,
				-2.8902036319777835e-09
			]
		},
		{
			"children":[
				36
			],
			"name":"FrontFoot.L",
			"rotation":[
				0.7071067690849304,
				-1.9921401417377638e-06,
				-1.9921401417377638e-06,
				0.7071067690849304
			],
			"translation":[
				0.797666609287262,
				0.08617043495178223,
				1.4611082077026367
			]
		},
		{
			"children":[
				29,
				31,
				33,
				35,
				37
			],
			"name":"root",
			"translation":[
				0,
				0,
				0.009096503257751465
			]
		},
		{
			"mesh":0,
			"name":"Triceratops",
			"skin":0
		},
		{
			"children":[
				39,
				38
			],
			"name":"Armature",
			"scale":[
				2,
				2,
				2
			]
		},
		{
			"children":[
				40
			],
			"name":"triceratops"
		}
	],
	"meshes":[
		{
			"name":"Cylinder",
			"primitives":[
				{
					"attributes":{
						"POSITION":0,
						"NORMAL":1,
						"TEXCOORD_0":2,
						"JOINTS_0":3,
						"WEIGHTS_0":4
					},
					"indices":5
				}
			]
		}
	],
	"skins":[
		{
			"inverseBindMatrices":6,
			"joints":[
				38,
				29,
				3,
				2,
				1,
				0,
				7,
				6,
				5,
				4,
				14,
				13,
				12,
				11,
				10,
				9,
				8,
				20,
				19,
				18,
				17,
				16,
				15,
				24,
				23,
				22,
				21,
				28,
				27,
				26,
				25,
				31,
				30,
				33,
				32,
				35,
				34,
				37,
				36
			],
			"name":"Armature"
		}
	],
	"accessors":[
		{
			"bufferView":0,
			"componentType":5126,
			"count":2558,
			"max":[
				2.922050952911377,
				9.339054107666016,
				9.009093284606934
			],
			"min":[
				-2.922051191329956,
				-0.09345889091491699,
				-11.331485748291016
			],
			"type":"VEC3"
		},
		{
			"bufferView":1,
			"componentType":5126,
			"count":2558,
			"type":"VEC3"
		},
		{
			"bufferView":2,
			"componentType":5126,
			"count":2558,
			"type":"VEC2"
		},
		{
			"bufferView":3,
			"componentType":5121,
			"count":2558,
			"type":"VEC4"
		},
		{
			"bufferView":4,
			"componentType":5126,
			"count":2558,
			"type":"VEC4"
		},
		{
			"bufferView":5,
			"componentType":5123,
			"count":4002,
			"type":"SCALAR"
		},
		{
			"bufferView":6,
			"componentType":5126,
			"count":39,
			"type":"MAT4"
		}
	],
	"bufferViews":[
		{
			"buffer":0,
			"byteLength":30696,
			"byteOffset":0,
			"target":34962
		},
		{
			"buffer":0,
			"byteLength":30696,
			"byteOffset":30696,
			"target":34962
		},
		{
			"buffer":0,
			"byteLength":20464,
			"byteOffset":61392,
			"target":34962
		},
		{
			"buffer":0,
			"byteLength":10232,
			"byteOffset":81856,
			"target":34962
		},
		{
			"buffer":0,
			"byteLength":40928,
			"byteOffset":92088,
			"target":34962
		},
		{
			"buffer":0,
			"byteLength":8004,
			"byteOffset":133016,
			"target":34963
		},
		{
			"buffer":0,
			"byteLength":2496,
			"byteOffset":141020
		}
	],
	"buffers":[
		{
			"byteLength":143516,
			"uri":"triceratops.bin"
		}
	]
}
