{
	"asset":{
		"generator":"Khronos glTF Blender I/O v4.0.44",
		"version":"2.0"
	},
	"scene":0,
	"scenes":[
		{
			"name":"Scene",
			"nodes":[
				0
			]
		}
	],
	"nodes":[
		{
			"mesh":0,
			"name":"cactus"
		}
	],
	"meshes":[
		{
			"name":"Cube.001",
			"primitives":[
				{
					"attributes":{
						"POSITION":0,
						"NORMAL":1,
						"TEXCOORD_0":2,
						"TANGENT":3
					},
					"indices":4
				}
			]
		}
	],
	"accessors":[
		{
			"bufferView":0,
			"componentType":5126,
			"count":276,
			"max":[
				1.6189968585968018,
				6.155852794647217,
				0.732725977897644
			],
			"min":[
				-1.8609075546264648,
				-0.00925004854798317,
				-0.6186977624893188
			],
			"type":"VEC3"
		},
		{
			"bufferView":1,
			"componentType":5126,
			"count":276,
			"type":"VEC3"
		},
		{
			"bufferView":2,
			"componentType":5126,
			"count":276,
			"type":"VEC2"
		},
		{
			"bufferView":3,
			"componentType":5126,
			"count":276,
			"type":"VEC4"
		},
		{
			"bufferView":4,
			"componentType":5123,
			"count":324,
			"type":"SCALAR"
		}
	],
	"bufferViews":[
		{
			"buffer":0,
			"byteLength":3312,
			"byteOffset":0,
			"target":34962
		},
		{
			"buffer":0,
			"byteLength":3312,
			"byteOffset":3312,
			"target":34962
		},
		{
			"buffer":0,
			"byteLength":2208,
			"byteOffset":6624,
			"target":34962
		},
		{
			"buffer":0,
			"byteLength":4416,
			"byteOffset":8832,
			"target":34962
		},
		{
			"buffer":0,
			"byteLength":648,
			"byteOffset":13248,
			"target":34963
		}
	],
	"buffers":[
		{
			"byteLength":13896,
			"uri":"cactus.bin"
		}
	]
}
