{
	"asset":{
		"generator":"Khronos glTF Blender I/O v4.0.44",
		"version":"2.0"
	},
	"scene":0,
	"scenes":[
		{
			"name":"Scene",
			"nodes":[
				0
			]
		}
	],
	"nodes":[
		{
			"mesh":0,
			"name":"cliff_grass"
		}
	],
	"meshes":[
		{
			"name":"cliff_grass",
			"primitives":[
				{
					"attributes":{
						"POSITION":0,
						"NORMAL":1,
						"TEXCOORD_0":2,
						"TANGENT":3
					},
					"indices":4
				}
			]
		}
	],
	"accessors":[
		{
			"bufferView":0,
			"componentType":5126,
			"count":852,
			"max":[
				1.1681699752807617,
				1.0415669679641724,
				1.1835739612579346
			],
			"min":[
				-1.3318300247192383,
				-1.0584330558776855,
				-1.3164260387420654
			],
			"type":"VEC3"
		},
		{
			"bufferView":1,
			"componentType":5126,
			"count":852,
			"type":"VEC3"
		},
		{
			"bufferView":2,
			"componentType":5126,
			"count":852,
			"type":"VEC2"
		},
		{
			"bufferView":3,
			"componentType":5126,
			"count":852,
			"type":"VEC4"
		},
		{
			"bufferView":4,
			"componentType":5123,
			"count":852,
			"type":"SCALAR"
		}
	],
	"bufferViews":[
		{
			"buffer":0,
			"byteLength":10224,
			"byteOffset":0,
			"target":34962
		},
		{
			"buffer":0,
			"byteLength":10224,
			"byteOffset":10224,
			"target":34962
		},
		{
			"buffer":0,
			"byteLength":6816,
			"byteOffset":20448,
			"target":34962
		},
		{
			"buffer":0,
			"byteLength":13632,
			"byteOffset":27264,
			"target":34962
		},
		{
			"buffer":0,
			"byteLength":1704,
			"byteOffset":40896,
			"target":34963
		}
	],
	"buffers":[
		{
			"byteLength":42600,
			"uri":"cliff_grass.bin"
		}
	]
}
