{
	"asset":{
		"generator":"Khronos glTF Blender I/O v4.0.44",
		"version":"2.0"
	},
	"scene":0,
	"scenes":[
		{
			"name":"Scene",
			"nodes":[
				0
			]
		}
	],
	"nodes":[
		{
			"mesh":0,
			"name":"cloud_00"
		}
	],
	"meshes":[
		{
			"name":"Cube.001",
			"primitives":[
				{
					"attributes":{
						"POSITION":0,
						"NORMAL":1,
						"TEXCOORD_0":2,
						"TANGENT":3
					},
					"indices":4
				}
			]
		}
	],
	"accessors":[
		{
			"bufferView":0,
			"componentType":5126,
			"count":274,
			"max":[
				2.445991039276123,
				1.1042331457138062,
				1.0116713047027588
			],
			"min":[
				-1.7927242517471313,
				-0.8677200675010681,
				-1.4910366535186768
			],
			"type":"VEC3"
		},
		{
			"bufferView":1,
			"componentType":5126,
			"count":274,
			"type":"VEC3"
		},
		{
			"bufferView":2,
			"componentType":5126,
			"count":274,
			"type":"VEC2"
		},
		{
			"bufferView":3,
			"componentType":5126,
			"count":274,
			"type":"VEC4"
		},
		{
			"bufferView":4,
			"componentType":5123,
			"count":276,
			"type":"SCALAR"
		}
	],
	"bufferViews":[
		{
			"buffer":0,
			"byteLength":3288,
			"byteOffset":0,
			"target":34962
		},
		{
			"buffer":0,
			"byteLength":3288,
			"byteOffset":3288,
			"target":34962
		},
		{
			"buffer":0,
			"byteLength":2192,
			"byteOffset":6576,
			"target":34962
		},
		{
			"buffer":0,
			"byteLength":4384,
			"byteOffset":8768,
			"target":34962
		},
		{
			"buffer":0,
			"byteLength":552,
			"byteOffset":13152,
			"target":34963
		}
	],
	"buffers":[
		{
			"byteLength":13704,
			"uri":"cloud_00.bin"
		}
	]
}
