{
	"asset":{
		"generator":"Khronos glTF Blender I/O v4.0.44",
		"version":"2.0"
	},
	"scene":0,
	"scenes":[
		{
			"name":"Scene",
			"nodes":[
				1
			]
		}
	],
	"nodes":[
		{
			"mesh":0,
			"name":"desert_ground"
		},
		{
			"children":[
				0
			],
			"name":"desert_ground"
		}
	],
	"meshes":[
		{
			"name":"Plane.002",
			"primitives":[
				{
					"attributes":{
						"COLOR_0":0,
						"POSITION":1,
						"NORMAL":2,
						"TEXCOORD_0":3,
						"TANGENT":4
					},
					"indices":5
				}
			]
		}
	],
	"accessors":[
		{
			"bufferView":0,
			"componentType":5123,
			"count":30306,
			"normalized":true,
			"type":"VEC4"
		},
		{
			"bufferView":1,
			"componentType":5126,
			"count":30306,
			"max":[
				99.98526000976562,
				15.271106719970703,
				57.36331558227539
			],
			"min":[
				-100.01475524902344,
				-0.039913177490234375,
				-51.44999313354492
			],
			"type":"VEC3"
		},
		{
			"bufferView":2,
			"componentType":5126,
			"count":30306,
			"type":"VEC3"
		},
		{
			"bufferView":3,
			"componentType":5126,
			"count":30306,
			"type":"VEC2"
		},
		{
			"bufferView":4,
			"componentType":5126,
			"count":30306,
			"type":"VEC4"
		},
		{
			"bufferView":5,
			"componentType":5123,
			"count":30948,
			"type":"SCALAR"
		}
	],
	"bufferViews":[
		{
			"buffer":0,
			"byteLength":242448,
			"byteOffset":0,
			"target":34962
		},
		{
			"buffer":0,
			"byteLength":363672,
			"byteOffset":242448,
			"target":34962
		},
		{
			"buffer":0,
			"byteLength":363672,
			"byteOffset":606120,
			"target":34962
		},
		{
			"buffer":0,
			"byteLength":242448,
			"byteOffset":969792,
			"target":34962
		},
		{
			"buffer":0,
			"byteLength":484896,
			"byteOffset":1212240,
			"target":34962
		},
		{
			"buffer":0,
			"byteLength":61896,
			"byteOffset":1697136,
			"target":34963
		}
	],
	"buffers":[
		{
			"byteLength":1759032,
			"uri":"desert_ground.bin"
		}
	]
}
