{
	"asset":{
		"generator":"Khronos glTF Blender I/O v4.0.44",
		"version":"2.0"
	},
	"scene":0,
	"scenes":[
		{
			"name":"Scene",
			"nodes":[
				1
			]
		}
	],
	"nodes":[
		{
			"mesh":0,
			"name":"landscape_00"
		},
		{
			"children":[
				0
			],
			"name":"landscape_00"
		}
	],
	"meshes":[
		{
			"name":"mountain",
			"primitives":[
				{
					"attributes":{
						"POSITION":0,
						"NORMAL":1,
						"TEXCOORD_0":2,
						"TANGENT":3
					},
					"indices":4
				}
			]
		}
	],
	"accessors":[
		{
			"bufferView":0,
			"componentType":5126,
			"count":38706,
			"max":[
				100.9805679321289,
				29.053815841674805,
				26.182540893554688
			],
			"min":[
				-100.98931884765625,
				-1.2740002870559692,
				-31.56768226623535
			],
			"type":"VEC3"
		},
		{
			"bufferView":1,
			"componentType":5126,
			"count":38706,
			"type":"VEC3"
		},
		{
			"bufferView":2,
			"componentType":5126,
			"count":38706,
			"type":"VEC2"
		},
		{
			"bufferView":3,
			"componentType":5126,
			"count":38706,
			"type":"VEC4"
		},
		{
			"bufferView":4,
			"componentType":5123,
			"count":38706,
			"type":"SCALAR"
		}
	],
	"bufferViews":[
		{
			"buffer":0,
			"byteLength":464472,
			"byteOffset":0,
			"target":34962
		},
		{
			"buffer":0,
			"byteLength":464472,
			"byteOffset":464472,
			"target":34962
		},
		{
			"buffer":0,
			"byteLength":309648,
			"byteOffset":928944,
			"target":34962
		},
		{
			"buffer":0,
			"byteLength":619296,
			"byteOffset":1238592,
			"target":34962
		},
		{
			"buffer":0,
			"byteLength":77412,
			"byteOffset":1857888,
			"target":34963
		}
	],
	"buffers":[
		{
			"byteLength":1935300,
			"uri":"landscape_00.bin"
		}
	]
}
