{
	"asset":{
		"generator":"Khronos glTF Blender I/O v4.0.44",
		"version":"2.0"
	},
	"scene":0,
	"scenes":[
		{
			"name":"Scene",
			"nodes":[
				0
			]
		}
	],
	"nodes":[
		{
			"mesh":0,
			"name":"ocean"
		}
	],
	"meshes":[
		{
			"name":"Plane",
			"primitives":[
				{
					"attributes":{
						"POSITION":0,
						"NORMAL":1,
						"TEXCOORD_0":2,
						"TANGENT":3
					},
					"indices":4
				}
			]
		}
	],
	"accessors":[
		{
			"bufferView":0,
			"componentType":5126,
			"count":2640,
			"max":[
				100.04916381835938,
				4.797664165496826,
				99.85794067382812
			],
			"min":[
				-99.95083618164062,
				-4.090870380401611,
				-100.1420669555664
			],
			"type":"VEC3"
		},
		{
			"bufferView":1,
			"componentType":5126,
			"count":2640,
			"type":"VEC3"
		},
		{
			"bufferView":2,
			"componentType":5126,
			"count":2640,
			"type":"VEC2"
		},
		{
			"bufferView":3,
			"componentType":5126,
			"count":2640,
			"type":"VEC4"
		},
		{
			"bufferView":4,
			"componentType":5123,
			"count":2868,
			"type":"SCALAR"
		}
	],
	"bufferViews":[
		{
			"buffer":0,
			"byteLength":31680,
			"byteOffset":0,
			"target":34962
		},
		{
			"buffer":0,
			"byteLength":31680,
			"byteOffset":31680,
			"target":34962
		},
		{
			"buffer":0,
			"byteLength":21120,
			"byteOffset":63360,
			"target":34962
		},
		{
			"buffer":0,
			"byteLength":42240,
			"byteOffset":84480,
			"target":34962
		},
		{
			"buffer":0,
			"byteLength":5736,
			"byteOffset":126720,
			"target":34963
		}
	],
	"buffers":[
		{
			"byteLength":132456,
			"uri":"ocean.bin"
		}
	]
}
