{
	"asset":{
		"generator":"Khronos glTF Blender I/O v4.4.56",
		"version":"2.0"
	},
	"scene":0,
	"scenes":[
		{
			"name":"Scene",
			"nodes":[
				50
			]
		}
	],
	"nodes":[
		{
			"name":"ToesEnd_L",
			"rotation":[
				-1.001171838765913e-07,
				-1.918524645816433e-07,
				-2.3352913558483124e-07,
				1
			],
			"scale":[
				1,
				1,
				0.9999999403953552
			],
			"translation":[
				-43.20777893066406,
				-5.2928924560546875e-05,
				-1.0967254638671875e-05
			]
		},
		{
			"children":[
				0
			],
			"name":"Toes_L",
			"rotation":[
				0.7211321592330933,
				0.690395176410675,
				-0.022028053179383278,
				0.05327029526233673
			],
			"scale":[
				1,
				0.9999998211860657,
				1
			],
			"translation":[
				-17.976787567138672,
				-30.222217559814453,
				6.67572021484375e-06
			]
		},
		{
			"children":[
				1
			],
			"name":"Ankle_L",
			"rotation":[
				-0.9669798016548157,
				-0.2169804722070694,
				0.08786049485206604,
				0.10074780136346817
			],
			"scale":[
				1.0000005960464478,
				1.0000001192092896,
				1.0000001192092896
			],
			"translation":[
				-90.15296936035156,
				4.863739013671875e-05,
				-2.384185791015625e-05
			]
		},
		{
			"children":[
				2
			],
			"name":"Knee_L",
			"rotation":[
				5.341410087567056e-07,
				-4.007695508789766e-07,
				-0.5623527765274048,
				0.8268974423408508
			],
			"scale":[
				0.9999999403953552,
				0.9999998211860657,
				1
			],
			"translation":[
				-132.42056274414062,
				-9.965896606445312e-05,
				-5.817413330078125e-05
			]
		},
		{
			"children":[
				3
			],
			"name":"Hip_L",
			"rotation":[
				0.17115451395511627,
				-0.21344181895256042,
				0.6017200946807861,
				0.7503876686096191
			],
			"translation":[
				-137.17523193359375,
				-1.1444091796875e-05,
				8.106231689453125e-05
			]
		},
		{
			"children":[
				4
			],
			"name":"Rump_L",
			"rotation":[
				-0.01123952679336071,
				0.1534513384103775,
				-0.7963557839393616,
				0.5849306583404541
			],
			"scale":[
				0.9999998211860657,
				0.9999998211860657,
				0.9999998807907104
			],
			"translation":[
				13.403704643249512,
				6.470954418182373,
				57.8778076171875
			]
		},
		{
			"name":"ToesEnd_R",
			"rotation":[
				-1.1688099021966991e-07,
				-1.210719347000122e-08,
				-8.800998330116272e-08,
				1
			],
			"scale":[
				1,
				0.9999999403953552,
				1
			],
			"translation":[
				43.20771026611328,
				1.1682510375976562e-05,
				1.9073486328125e-06
			]
		},
		{
			"children":[
				6
			],
			"name":"Toes_R",
			"rotation":[
				0.7211323380470276,
				0.6903949975967407,
				-0.02202858217060566,
				0.053270336240530014
			],
			"scale":[
				0.9999997615814209,
				0.9999998211860657,
				1
			],
			"translation":[
				17.97685432434082,
				30.22219467163086,
				-3.6716461181640625e-05
			]
		},
		{
			"children":[
				7
			],
			"name":"Ankle_R",
			"rotation":[
				-0.9669798612594604,
				-0.21698009967803955,
				0.08786072582006454,
				0.1007479727268219
			],
			"scale":[
				0.9999998211860657,
				1,
				0.9999999403953552
			],
			"translation":[
				90.1529541015625,
				-5.817413330078125e-05,
				8.58306884765625e-06
			]
		},
		{
			"children":[
				8
			],
			"name":"Knee_R",
			"rotation":[
				5.355488497116312e-07,
				-3.8696819615324785e-07,
				-0.5623527765274048,
				0.8268974423408508
			],
			"scale":[
				0.9999999403953552,
				0.9999998807907104,
				0.9999999403953552
			],
			"translation":[
				132.4205322265625,
				2.5272369384765625e-05,
				5.626678466796875e-05
			]
		},
		{
			"children":[
				9
			],
			"name":"Hip_R",
			"rotation":[
				0.1711544692516327,
				-0.2134418785572052,
				0.6017201542854309,
				0.7503876090049744
			],
			"scale":[
				1.0000001192092896,
				1.0000001192092896,
				1
			],
			"translation":[
				137.17514038085938,
				8.106231689453125e-06,
				-0.000118255615234375
			]
		},
		{
			"children":[
				10
			],
			"name":"Rump_R",
			"rotation":[
				-0.1534513533115387,
				-0.011239531449973583,
				0.5849305987358093,
				0.7963557839393616
			],
			"scale":[
				0.9999998807907104,
				1,
				0.9999998807907104
			],
			"translation":[
				13.403709411621094,
				6.4710693359375,
				-57.8777961730957
			]
		},
		{
			"name":"EyeEnd_L",
			"rotation":[
				0.50089031457901,
				0.500892698764801,
				-0.4991055428981781,
				0.4991082549095154
			],
			"scale":[
				1,
				0.9999998211860657,
				1
			],
			"translation":[
				3.901073455810547,
				-2.7198344469070435e-05,
				3.429129719734192e-06
			]
		},
		{
			"children":[
				12
			],
			"name":"Eye_L",
			"rotation":[
				9.357741510029882e-05,
				-0.0009179804474115372,
				-0.15603232383728027,
				0.9877514839172363
			],
			"scale":[
				1,
				1,
				0.9999998807907104
			],
			"translation":[
				60.73048782348633,
				-13.894944190979004,
				41.084373474121094
			]
		},
		{
			"name":"EyeEnd_R",
			"rotation":[
				-0.5008905529975891,
				-0.5008924007415771,
				-0.4991057813167572,
				0.49910813570022583
			],
			"scale":[
				1,
				0.9999997615814209,
				0.9999999403953552
			],
			"translation":[
				3.900937557220459,
				1.3336539268493652e-05,
				1.7834827303886414e-06
			]
		},
		{
			"children":[
				14
			],
			"name":"Eye_R",
			"rotation":[
				-9.45555730140768e-05,
				0.0009180784109048545,
				-0.15603210031986237,
				0.9877516031265259
			],
			"scale":[
				1,
				1.0000001192092896,
				0.9999998807907104
			],
			"translation":[
				60.730499267578125,
				-13.894909858703613,
				-41.084373474121094
			]
		},
		{
			"name":"HeadEnd_M",
			"rotation":[
				-1.554312446233456e-15,
				3.1086244689504383e-15,
				-1.1102224952295645e-16,
				1
			],
			"scale":[
				1,
				1.0000001192092896,
				1
			],
			"translation":[
				142.474609375,
				6.771087646484375e-05,
				-1.6892216763153556e-06
			]
		},
		{
			"name":"JawEnd_M",
			"rotation":[
				-8.881784197001252e-16,
				-3.0043729282169807e-08,
				-1.5265566588595902e-15,
				1
			],
			"translation":[
				146.9872589111328,
				-1.1444091796875e-05,
				-2.256162952107843e-05
			]
		},
		{
			"name":"joint5",
			"rotation":[
				-1.5987211554602254e-14,
				5.38215161327571e-08,
				-8.940696716308594e-08,
				1
			],
			"scale":[
				0.9999999403953552,
				1,
				0.9999998807907104
			],
			"translation":[
				10.088357925415039,
				1.4217281341552734,
				-1.4881550214340677e-06
			]
		},
		{
			"children":[
				18
			],
			"name":"joint4",
			"rotation":[
				-5.551116181916967e-16,
				1.2212454117909669e-14,
				-7.450581485102248e-09,
				1
			],
			"scale":[
				1,
				0.9999999403953552,
				0.9999998807907104
			],
			"translation":[
				9.677343368530273,
				-1.3165616989135742,
				-1.4275263993113185e-06
			]
		},
		{
			"children":[
				19
			],
			"name":"joint3",
			"rotation":[
				1.1435295459573218e-14,
				-1.2373416780064872e-07,
				2.7567148208618164e-07,
				1
			],
			"scale":[
				1,
				0.9999999403953552,
				1
			],
			"translation":[
				12.121150970458984,
				-0.8960976600646973,
				1.211584731208859e-06
			]
		},
		{
			"children":[
				20
			],
			"name":"joint2",
			"rotation":[
				-8.881784197001252e-15,
				7.019674796993058e-08,
				1.341104507446289e-07,
				1
			],
			"translation":[
				10.657828330993652,
				-3.996870517730713,
				-4.3097088564536534e-07
			]
		},
		{
			"children":[
				21
			],
			"name":"joint1",
			"rotation":[
				8.881784197001252e-15,
				5.65283286846352e-08,
				7.494005416219807e-16,
				1
			],
			"translation":[
				12.548240661621094,
				-13.394269943237305,
				-1.9260746739746537e-06
			]
		},
		{
			"children":[
				17,
				22
			],
			"name":"Jaw_M",
			"rotation":[
				3.080840826896747e-08,
				-6.57179413110498e-08,
				0.37264466285705566,
				0.9279741048812866
			],
			"scale":[
				1.0000001192092896,
				1,
				1
			],
			"translation":[
				2.6232857704162598,
				23.142837524414062,
				-3.110085344815161e-08
			]
		},
		{
			"children":[
				13,
				15,
				16,
				23
			],
			"name":"Head_M",
			"rotation":[
				1.6437031735705432e-09,
				-1.7285316511461701e-09,
				0.16267161071300507,
				0.986680269241333
			],
			"scale":[
				1.0000001192092896,
				1,
				1.0000001192092896
			],
			"translation":[
				42.23891067504883,
				-0.00010585784912109375,
				-3.5280390875414014e-07
			]
		},
		{
			"children":[
				24
			],
			"name":"Neck5_M",
			"rotation":[
				-1.2705529961465345e-09,
				-2.5214848875521056e-08,
				0.07503144443035126,
				0.9971811771392822
			],
			"translation":[
				31.833290100097656,
				0.0002498626708984375,
				1.3439896520139882e-06
			]
		},
		{
			"children":[
				25
			],
			"name":"Neck4_M",
			"rotation":[
				-1.3790554254100584e-09,
				2.5144927917608584e-08,
				0.08116141706705093,
				0.9967010021209717
			],
			"scale":[
				0.9999999403953552,
				1.0000001192092896,
				1
			],
			"translation":[
				26.236684799194336,
				-0.0002040863037109375,
				-2.1610162548313383e-07
			]
		},
		{
			"children":[
				26
			],
			"name":"Neck3_M",
			"rotation":[
				-3.5284095090126755e-10,
				-1.7232806293066005e-09,
				-0.05419258028268814,
				0.9985305070877075
			],
			"scale":[
				1,
				0.9999999403953552,
				1
			],
			"translation":[
				29.049402236938477,
				-0.0001811981201171875,
				-1.3900205431127688e-07
			]
		},
		{
			"children":[
				27
			],
			"name":"Neck2_M",
			"rotation":[
				-1.7203241053920237e-09,
				-3.217193622617742e-08,
				0.06267092376947403,
				0.9980342984199524
			],
			"translation":[
				27.790342330932617,
				0.00042724609375,
				1.6586800484219566e-06
			]
		},
		{
			"children":[
				28
			],
			"name":"Neck1_M",
			"rotation":[
				1.3528613784785648e-09,
				1.4000447912110303e-08,
				-0.0296170674264431,
				0.9995613098144531
			],
			"scale":[
				0.9999998807907104,
				0.9999998807907104,
				1
			],
			"translation":[
				32.04423141479492,
				-6.771087646484375e-05,
				1.014919689623639e-06
			]
		},
		{
			"children":[
				29
			],
			"name":"Neck0_M",
			"rotation":[
				2.04921657420698e-09,
				3.3029354806757283e-09,
				-0.0722552239894867,
				0.9973861575126648
			],
			"scale":[
				1.0000001192092896,
				1.0000001192092896,
				1
			],
			"translation":[
				28.763214111328125,
				8.177757263183594e-05,
				7.204969847407483e-07
			]
		},
		{
			"name":"Wrist_L",
			"rotation":[
				0.0077561913058161736,
				-0.02692313864827156,
				-0.1938299834728241,
				0.9806349873542786
			],
			"scale":[
				0.9999999403953552,
				0.9999999403953552,
				1.0000001192092896
			],
			"translation":[
				-60.03390121459961,
				0.0001392364501953125,
				0.000335693359375
			]
		},
		{
			"children":[
				31
			],
			"name":"Elbow_L",
			"rotation":[
				0.039415620267391205,
				0.10812470316886902,
				0.2236914336681366,
				0.9678417444229126
			],
			"scale":[
				0.9999998807907104,
				1.0000001192092896,
				0.9999999403953552
			],
			"translation":[
				-48.32754898071289,
				0.00016307830810546875,
				-0.000164031982421875
			]
		},
		{
			"children":[
				32
			],
			"name":"Shoulder_L",
			"rotation":[
				-0.7981924414634705,
				0.5992182493209839,
				0.011628751643002033,
				0.06075454503297806
			],
			"scale":[
				0.9999998807907104,
				0.9999995827674866,
				1
			],
			"translation":[
				48.45032501220703,
				30.16164779663086,
				68.16329193115234
			]
		},
		{
			"name":"Wrist_R",
			"rotation":[
				0.007756239268928766,
				-0.026923304423689842,
				-0.19383035600185394,
				0.9806349277496338
			],
			"scale":[
				0.9999998211860657,
				0.9999998211860657,
				1
			],
			"translation":[
				60.03375244140625,
				-0.00013637542724609375,
				-0.0003337860107421875
			]
		},
		{
			"children":[
				34
			],
			"name":"Elbow_R",
			"rotation":[
				0.03941561281681061,
				0.10812477767467499,
				0.22369158267974854,
				0.9678416848182678
			],
			"scale":[
				1.0000001192092896,
				1,
				1.0000001192092896
			],
			"translation":[
				48.32752990722656,
				-0.0001583099365234375,
				0.00018644332885742188
			]
		},
		{
			"children":[
				35
			],
			"name":"Shoulder_R",
			"rotation":[
				0.5992183089256287,
				0.7981924414634705,
				-0.06075451895594597,
				0.011628739535808563
			],
			"scale":[
				1.0000001192092896,
				1.0000001192092896,
				1
			],
			"translation":[
				48.4503059387207,
				30.16171646118164,
				-68.16328430175781
			]
		},
		{
			"children":[
				30,
				33,
				36
			],
			"name":"Chest_M",
			"rotation":[
				2.3172734842091813e-09,
				-2.09910346882225e-08,
				-0.05030223727226257,
				0.9987340569496155
			],
			"scale":[
				0.9999999403953552,
				0.9999999403953552,
				1
			],
			"translation":[
				60.249961853027344,
				-0.00030517578125,
				4.041837655677227e-06
			]
		},
		{
			"children":[
				37
			],
			"name":"Spine2_M",
			"rotation":[
				-9.659511214445311e-15,
				3.354225697194124e-08,
				-6.331454471819598e-08,
				1
			],
			"translation":[
				64.06456756591797,
				-5.340576171875e-05,
				4.547474593066814e-13
			]
		},
		{
			"children":[
				38
			],
			"name":"Spine1_M",
			"rotation":[
				3.552713678800501e-15,
				-1.7763566276420137e-15,
				2.9772282417184215e-08,
				1
			],
			"translation":[
				51.51542282104492,
				6.866455078125e-05,
				-4.547477845673331e-13
			]
		},
		{
			"name":"Tail6_M",
			"rotation":[
				1.7763568394002505e-15,
				2.6645356826168493e-15,
				4.470347647611561e-08,
				1
			],
			"scale":[
				1.0000001192092896,
				1.0000001192092896,
				0.9999998807907104
			],
			"translation":[
				70.39859771728516,
				4.00543212890625e-05,
				5.6004782891250215e-06
			]
		},
		{
			"children":[
				40
			],
			"name":"Tail5_M",
			"rotation":[
				1.4432899320127035e-14,
				1.906071744883775e-08,
				-1.7136335372924805e-07,
				1
			],
			"scale":[
				1,
				1.0000001192092896,
				1
			],
			"translation":[
				70.39851379394531,
				-6.29425048828125e-05,
				2.916777702921536e-06
			]
		},
		{
			"children":[
				41
			],
			"name":"Tail4_M",
			"rotation":[
				-5.833672434008008e-10,
				-6.954054754260142e-08,
				0.005256740842014551,
				0.9999861717224121
			],
			"scale":[
				0.9999999403953552,
				0.9999999403953552,
				1
			],
			"translation":[
				70.39877319335938,
				-9.918212890625e-05,
				1.270806842512684e-05
			]
		},
		{
			"children":[
				42
			],
			"name":"Tail3_M",
			"rotation":[
				4.761786520646183e-10,
				8.992768840698773e-08,
				-0.005256598815321922,
				0.9999861717224121
			],
			"scale":[
				1,
				0.9999999403953552,
				1
			],
			"translation":[
				70.39818572998047,
				9.5367431640625e-05,
				4.629148975254793e-08
			]
		},
		{
			"children":[
				43
			],
			"name":"Tail2_M",
			"rotation":[
				1.1241007065538526e-15,
				3.4152975558754406e-08,
				-1.4901160305669237e-08,
				1
			],
			"scale":[
				1.0000001192092896,
				1.0000001192092896,
				1
			],
			"translation":[
				70.39849853515625,
				3.814696810877649e-06,
				-4.762346179632004e-06
			]
		},
		{
			"children":[
				44
			],
			"name":"Tail1_M",
			"rotation":[
				-2.220446049250313e-15,
				9.887196839031276e-09,
				-1.4901159417490817e-08,
				1
			],
			"scale":[
				1.0000001192092896,
				1.0000001192092896,
				1
			],
			"translation":[
				70.39854431152344,
				-5.340576171875e-05,
				-6.154436505312333e-06
			]
		},
		{
			"children":[
				45
			],
			"name":"Tail0_M",
			"rotation":[
				-0.18105415999889374,
				0.9834731221199036,
				7.914123578700583e-09,
				4.298897238186328e-08
			],
			"scale":[
				1,
				1.0000001192092896,
				1
			],
			"translation":[
				-85.13874053955078,
				-2.2644119262695312,
				-1.4210854715202004e-14
			]
		},
		{
			"children":[
				5,
				11,
				39,
				46
			],
			"name":"root",
			"rotation":[
				-4.8676795927349303e-08,
				0,
				0,
				1
			],
			"translation":[
				6.887662211849341e-40,
				0,
				0
			]
		},
		{
			"mesh":0,
			"name":"trex",
			"skin":0
		},
		{
			"children":[
				48,
				47
			],
			"name":"Armature",
			"scale":[
				0.009999999776482582,
				0.009999999776482582,
				0.009999999776482582
			]
		},
		{
			"children":[
				49
			],
			"name":"base"
		}
	],
	"meshes":[
		{
			"name":"Scene",
			"primitives":[
				{
					"attributes":{
						"POSITION":0,
						"NORMAL":1,
						"TEXCOORD_0":2,
						"TANGENT":3,
						"JOINTS_0":4,
						"WEIGHTS_0":5
					},
					"indices":6
				}
			]
		}
	],
	"skins":[
		{
			"inverseBindMatrices":7,
			"joints":[
				47,
				5,
				4,
				3,
				2,
				1,
				0,
				11,
				10,
				9,
				8,
				7,
				6,
				39,
				38,
				37,
				30,
				29,
				28,
				27,
				26,
				25,
				24,
				13,
				12,
				15,
				14,
				16,
				23,
				17,
				22,
				21,
				20,
				19,
				18,
				33,
				32,
				31,
				36,
				35,
				34,
				46,
				45,
				44,
				43,
				42,
				41,
				40
			],
			"name":"Armature"
		}
	],
	"accessors":[
		{
			"bufferView":0,
			"componentType":5126,
			"count":3672,
			"max":[
				5.406257629394531,
				3.3709399700164795,
				1.1050207614898682
			],
			"min":[
				-5.527588367462158,
				-1.6109992265701294,
				-1.1050208806991577
			],
			"type":"VEC3"
		},
		{
			"bufferView":1,
			"componentType":5126,
			"count":3672,
			"type":"VEC3"
		},
		{
			"bufferView":2,
			"componentType":5126,
			"count":3672,
			"type":"VEC2"
		},
		{
			"bufferView":3,
			"componentType":5126,
			"count":3672,
			"type":"VEC4"
		},
		{
			"bufferView":4,
			"componentType":5121,
			"count":3672,
			"type":"VEC4"
		},
		{
			"bufferView":5,
			"componentType":5126,
			"count":3672,
			"type":"VEC4"
		},
		{
			"bufferView":6,
			"componentType":5123,
			"count":19080,
			"type":"SCALAR"
		},
		{
			"bufferView":7,
			"componentType":5126,
			"count":48,
			"type":"MAT4"
		}
	],
	"bufferViews":[
		{
			"buffer":0,
			"byteLength":44064,
			"byteOffset":0,
			"target":34962
		},
		{
			"buffer":0,
			"byteLength":44064,
			"byteOffset":44064,
			"target":34962
		},
		{
			"buffer":0,
			"byteLength":29376,
			"byteOffset":88128,
			"target":34962
		},
		{
			"buffer":0,
			"byteLength":58752,
			"byteOffset":117504,
			"target":34962
		},
		{
			"buffer":0,
			"byteLength":14688,
			"byteOffset":176256,
			"target":34962
		},
		{
			"buffer":0,
			"byteLength":58752,
			"byteOffset":190944,
			"target":34962
		},
		{
			"buffer":0,
			"byteLength":38160,
			"byteOffset":249696,
			"target":34963
		},
		{
			"buffer":0,
			"byteLength":3072,
			"byteOffset":287856
		}
	],
	"buffers":[
		{
			"byteLength":290928,
			"uri":"base.bin"
		}
	]
}
