{
	"asset":{
		"generator":"Khronos glTF Blender I/O v4.5.47",
		"version":"2.0"
	},
	"scene":0,
	"scenes":[
		{
			"name":"Scene",
			"nodes":[
				67
			]
		}
	],
	"nodes":[
		{
			"name":"mixamorig:HeadTop_End",
			"rotation":[
				-7.105427357601002e-15,
				0,
				0,
				1
			],
			"translation":[
				0,
				1.2023557424545288,
				0.23106446862220764
			]
		},
		{
			"children":[
				0
			],
			"name":"mixamorig:Head",
			"rotation":[
				-9.127951727805339e-09,
				0,
				0,
				1
			],
			"translation":[
				0,
				0.4154057502746582,
				0.0798310935497284
			]
		},
		{
			"children":[
				1
			],
			"name":"mixamorig:Neck",
			"rotation":[
				0.06910542398691177,
				0,
				0,
				0.9976093769073486
			],
			"scale":[
				1,
				0.9999998807907104,
				0.9999999403953552
			],
			"translation":[
				2.3283064365386963e-10,
				0.7053083777427673,
				3.725290298461914e-08
			]
		},
		{
			"name":"mixamorig:LeftHandThumb4",
			"rotation":[
				3.3527612686157227e-08,
				-2.2817403078079224e-08,
				1.30385160446167e-08,
				1
			],
			"scale":[
				1,
				1,
				0.9999999403953552
			],
			"translation":[
				0.014893526211380959,
				0.16568364202976227,
				-4.172325134277344e-07
			]
		},
		{
			"children":[
				3
			],
			"name":"mixamorig:LeftHandThumb3",
			"rotation":[
				0.006709402892738581,
				3.1060307037478196e-07,
				3.2783293590910034e-07,
				0.9999774694442749
			],
			"translation":[
				-0.015648728236556053,
				0.20889127254486084,
				1.043081283569336e-07
			]
		},
		{
			"children":[
				4
			],
			"name":"mixamorig:LeftHandThumb2",
			"rotation":[
				0.13467706739902496,
				-1.4991171326528274e-07,
				-8.851370694173966e-07,
				0.9908895492553711
			],
			"translation":[
				0.0007544078398495913,
				0.19965775310993195,
				-1.7136335372924805e-07
			]
		},
		{
			"children":[
				5
			],
			"name":"mixamorig:LeftHandThumb1",
			"rotation":[
				0.13104087114334106,
				0.04625334218144417,
				0.32961466908454895,
				0.9338325262069702
			],
			"translation":[
				-0.14987985789775848,
				0.18736347556114197,
				0.06869053840637207
			]
		},
		{
			"name":"mixamorig:LeftHandIndex4",
			"rotation":[
				1.2945383787155151e-07,
				1.30385160446167e-08,
				-2.3283069916502086e-10,
				1
			],
			"scale":[
				1,
				0.9999999403953552,
				1
			],
			"translation":[
				-0.0012893951497972012,
				0.12287335842847824,
				5.21540641784668e-07
			]
		},
		{
			"children":[
				7
			],
			"name":"mixamorig:LeftHandIndex3",
			"rotation":[
				0.0683695524930954,
				2.613819560792763e-07,
				2.840194781583705e-07,
				0.9976601004600525
			],
			"scale":[
				1,
				1,
				0.9999999403953552
			],
			"translation":[
				4.8755668103694916e-05,
				0.1651090383529663,
				2.5331974029541016e-07
			]
		},
		{
			"children":[
				8
			],
			"name":"mixamorig:LeftHandIndex2",
			"rotation":[
				0.04468328505754471,
				-2.9179540206314414e-07,
				3.447008509738225e-07,
				0.9990012049674988
			],
			"scale":[
				1,
				0.9999998807907104,
				1
			],
			"translation":[
				0.0012397563550621271,
				0.17601090669631958,
				-1.2665987014770508e-07
			]
		},
		{
			"children":[
				9
			],
			"name":"mixamorig:LeftHandIndex1",
			"rotation":[
				0.09916407614946365,
				0.015788374468684196,
				0.15643860399723053,
				0.982570230960846
			],
			"translation":[
				-0.25323793292045593,
				0.5407888293266296,
				-0.01142821554094553
			]
		},
		{
			"name":"mixamorig:LeftHandMiddle4",
			"rotation":[
				3.492460765031069e-10,
				1.1874363536890087e-07,
				9.313227966600834e-10,
				1
			],
			"scale":[
				1,
				0.9999999403953552,
				0.9999999403953552
			],
			"translation":[
				0.00020448770374059677,
				0.10339342057704926,
				-7.450580596923828e-08
			]
		},
		{
			"children":[
				11
			],
			"name":"mixamorig:LeftHandMiddle3",
			"rotation":[
				-0.09499215334653854,
				-2.5259931035748195e-08,
				-6.357083179864276e-07,
				0.9954780340194702
			],
			"scale":[
				1,
				0.9999999403953552,
				0.9999999403953552
			],
			"translation":[
				-0.00020144227892160416,
				0.15874189138412476,
				1.6391277313232422e-07
			]
		},
		{
			"children":[
				12
			],
			"name":"mixamorig:LeftHandMiddle2",
			"rotation":[
				0.03358006477355957,
				1.9568810571968243e-08,
				-1.257995023706826e-07,
				0.9994360208511353
			],
			"scale":[
				1,
				1,
				0.9999999403953552
			],
			"translation":[
				-3.0454248189926147e-06,
				0.16448010504245758,
				1.4156103134155273e-07
			]
		},
		{
			"children":[
				13
			],
			"name":"mixamorig:LeftHandMiddle1",
			"rotation":[
				0.1516655832529068,
				0.011688322760164738,
				0.07594779133796692,
				0.9854404926300049
			],
			"translation":[
				-0.07333824783563614,
				0.6436514258384705,
				-0.022659029811620712
			]
		},
		{
			"name":"mixamorig:LeftHandRing4",
			"rotation":[
				1.6135163605213165e-07,
				1.0151416063308716e-07,
				-2.2617168724536896e-06,
				1
			],
			"scale":[
				1,
				1.0000001192092896,
				1
			],
			"translation":[
				-0.0006931331008672714,
				0.10447975993156433,
				1.4901161193847656e-07
			]
		},
		{
			"children":[
				15
			],
			"name":"mixamorig:LeftHandRing3",
			"rotation":[
				-0.1123519241809845,
				2.303308690443373e-07,
				3.2803988414542573e-09,
				0.9936684966087341
			],
			"translation":[
				0.00028983596712350845,
				0.15145762264728546,
				1.2665987014770508e-07
			]
		},
		{
			"children":[
				16
			],
			"name":"mixamorig:LeftHandRing2",
			"rotation":[
				-0.007079925388097763,
				-2.1444239450829627e-07,
				1.79982589543215e-06,
				0.9999749660491943
			],
			"translation":[
				0.00040424661710858345,
				0.15924495458602905,
				1.1175870895385742e-08
			]
		},
		{
			"children":[
				17
			],
			"name":"mixamorig:LeftHandRing1",
			"rotation":[
				0.15390487015247345,
				-0.0006460126605816185,
				-0.004149636719375849,
				0.9880767464637756
			],
			"scale":[
				1,
				1.0000001192092896,
				1
			],
			"translation":[
				0.09071678668260574,
				0.6661754846572876,
				-0.019155286252498627
			]
		},
		{
			"name":"mixamorig:LeftHandPinky4",
			"rotation":[
				4.563480615615845e-08,
				1.1874362826347351e-08,
				-3.0006340239197016e-06,
				1
			],
			"translation":[
				-0.0024902550503611565,
				0.07767215371131897,
				-5.364418029785156e-07
			]
		},
		{
			"children":[
				19
			],
			"name":"mixamorig:LeftHandPinky3",
			"rotation":[
				-0.2838439345359802,
				2.7462670004752e-07,
				5.214963039179565e-07,
				0.958870530128479
			],
			"scale":[
				1,
				1,
				0.9999999403953552
			],
			"translation":[
				0.0010181870311498642,
				0.14132638275623322,
				5.811452865600586e-07
			]
		},
		{
			"children":[
				20
			],
			"name":"mixamorig:LeftHandPinky2",
			"rotation":[
				-0.015884729102253914,
				-6.520080120253624e-08,
				1.9290123418613803e-06,
				0.9998738765716553
			],
			"scale":[
				1,
				0.9999999403953552,
				1
			],
			"translation":[
				0.0014726566150784492,
				0.1559796929359436,
				1.7508864402770996e-07
			]
		},
		{
			"children":[
				21
			],
			"name":"mixamorig:LeftHandPinky1",
			"rotation":[
				0.24782909452915192,
				-0.011516563594341278,
				-0.04496918246150017,
				0.9676910042762756
			],
			"scale":[
				1,
				1.0000001192092896,
				1
			],
			"translation":[
				0.235859677195549,
				0.6495301127433777,
				-0.03363799303770065
			]
		},
		{
			"children":[
				6,
				10,
				14,
				18,
				22
			],
			"name":"mixamorig:LeftHand",
			"rotation":[
				0.07178475707769394,
				-0.6303524374961853,
				0.021274950355291367,
				0.7726902365684509
			],
			"scale":[
				0.9999999403953552,
				0.9999998807907104,
				0.9999999403953552
			],
			"translation":[
				1.4528632164001465e-07,
				1.0288583040237427,
				-1.30385160446167e-08
			]
		},
		{
			"children":[
				23
			],
			"name":"mixamorig:LeftForeArm",
			"rotation":[
				-0.11202973127365112,
				-0.0018207503017038107,
				0.016146764159202576,
				0.9935719966888428
			],
			"scale":[
				0.9999998807907104,
				0.9999999403953552,
				1
			],
			"translation":[
				5.21540641784668e-08,
				1.3679380416870117,
				1.8533319234848022e-07
			]
		},
		{
			"children":[
				24
			],
			"name":"mixamorig:LeftArm",
			"rotation":[
				0.027181563898921013,
				-0.0002861714456230402,
				-0.010530272498726845,
				0.9995750188827515
			],
			"scale":[
				0.9999999403953552,
				1,
				0.9999999403953552
			],
			"translation":[
				3.166496753692627e-08,
				0.9177407026290894,
				-2.8405338525772095e-08
			]
		},
		{
			"children":[
				25
			],
			"name":"mixamorig:LeftShoulder",
			"rotation":[
				0.5418505072593689,
				0.4507721960544586,
				-0.5574433207511902,
				0.438701868057251
			],
			"scale":[
				1,
				1,
				0.9999999403953552
			],
			"translation":[
				0.4282941222190857,
				0.6105653643608093,
				-0.012310989201068878
			]
		},
		{
			"name":"mixamorig:RightHandThumb4",
			"rotation":[
				7.078051567077637e-08,
				-4.656612873077393e-10,
				-7.450580596923828e-09,
				1
			],
			"translation":[
				-0.01610327512025833,
				0.1526240110397339,
				1.4901161193847656e-07
			]
		},
		{
			"children":[
				27
			],
			"name":"mixamorig:RightHandThumb3",
			"rotation":[
				-0.08235005289316177,
				-3.7800393215547956e-07,
				-9.99444068838784e-07,
				0.9966034889221191
			],
			"scale":[
				0.9999999403953552,
				1,
				0.9999999403953552
			],
			"translation":[
				0.014896457083523273,
				0.21106112003326416,
				-3.5762786865234375e-07
			]
		},
		{
			"children":[
				28
			],
			"name":"mixamorig:RightHandThumb2",
			"rotation":[
				0.15246902406215668,
				1.0789795368282284e-07,
				2.798750529109384e-07,
				0.9883082509040833
			],
			"scale":[
				1,
				1.0000001192092896,
				1
			],
			"translation":[
				0.001207231543958187,
				0.20093923807144165,
				-9.685754776000977e-08
			]
		},
		{
			"children":[
				29
			],
			"name":"mixamorig:RightHandThumb1",
			"rotation":[
				0.1213567703962326,
				-0.04266255721449852,
				-0.3288944363594055,
				0.9355644583702087
			],
			"scale":[
				0.9999998807907104,
				1,
				1
			],
			"translation":[
				0.15315037965774536,
				0.18849122524261475,
				0.06408415734767914
			]
		},
		{
			"name":"mixamorig:RightHandIndex4",
			"rotation":[
				5.085021257400513e-07,
				2.0349396834262734e-07,
				4.138331860303879e-06,
				1
			],
			"scale":[
				1,
				0.9999999403953552,
				1.0000001192092896
			],
			"translation":[
				0.0020686015486717224,
				0.11335286498069763,
				6.109476089477539e-07
			]
		},
		{
			"children":[
				31
			],
			"name":"mixamorig:RightHandIndex3",
			"rotation":[
				0.13590985536575317,
				9.193640266857983e-07,
				-1.6260429447356728e-06,
				0.9907212257385254
			],
			"translation":[
				-0.0002275272272527218,
				0.16481474041938782,
				-3.129243850708008e-07
			]
		},
		{
			"children":[
				32
			],
			"name":"mixamorig:RightHandIndex2",
			"rotation":[
				0.06418441981077194,
				-3.485677382286667e-07,
				-1.246234660357004e-06,
				0.9979380369186401
			],
			"translation":[
				-0.0018425689777359366,
				0.17267674207687378,
				1.564621925354004e-07
			]
		},
		{
			"children":[
				33
			],
			"name":"mixamorig:RightHandIndex1",
			"rotation":[
				0.09263920783996582,
				-0.012906963005661964,
				-0.13738787174224854,
				0.9860912561416626
			],
			"scale":[
				1,
				0.9999998807907104,
				0.9999998807907104
			],
			"translation":[
				0.2558763921260834,
				0.5474862456321716,
				-0.010753674432635307
			]
		},
		{
			"name":"mixamorig:RightHandMiddle4",
			"rotation":[
				1.3853424185583663e-08,
				-1.7695128917694092e-08,
				-1.3969839729455202e-09,
				1
			],
			"scale":[
				1,
				0.9999999403953552,
				1
			],
			"translation":[
				9.312015026807785e-05,
				0.12450651824474335,
				4.917383193969727e-07
			]
		},
		{
			"children":[
				35
			],
			"name":"mixamorig:RightHandMiddle3",
			"rotation":[
				-0.012424599379301071,
				-5.8677855463429296e-08,
				-8.987956903183658e-07,
				0.9999228119850159
			],
			"translation":[
				0.0002139420248568058,
				0.15974070131778717,
				-6.854534149169922e-07
			]
		},
		{
			"children":[
				36
			],
			"name":"mixamorig:RightHandMiddle2",
			"rotation":[
				0.05980825796723366,
				-6.717547051948713e-08,
				-6.607920681744872e-07,
				0.9982098937034607
			],
			"scale":[
				0.9999999403953552,
				1,
				1
			],
			"translation":[
				-0.00030776835046708584,
				0.16715456545352936,
				2.7567148208618164e-07
			]
		},
		{
			"children":[
				37
			],
			"name":"mixamorig:RightHandMiddle1",
			"rotation":[
				0.12745867669582367,
				-0.009533716365695,
				-0.07397758960723877,
				0.9890352487564087
			],
			"scale":[
				0.9999999403953552,
				0.9999999403953552,
				0.9999999403953552
			],
			"translation":[
				0.07236234098672867,
				0.6317276358604431,
				-0.021674349904060364
			]
		},
		{
			"name":"mixamorig:RightHandRing4",
			"rotation":[
				-6.2515027821064e-08,
				-3.5390257835388184e-08,
				3.958120942115784e-09,
				1
			],
			"scale":[
				1,
				1,
				0.9999999403953552
			],
			"translation":[
				0.0006727511063218117,
				0.10023106634616852,
				-1.1920928955078125e-07
			]
		},
		{
			"children":[
				39
			],
			"name":"mixamorig:RightHandRing3",
			"rotation":[
				-0.11319611221551895,
				2.322277623534319e-07,
				1.9058611542277504e-06,
				0.9935726523399353
			],
			"scale":[
				1,
				1,
				0.9999999403953552
			],
			"translation":[
				-0.00022838450968265533,
				0.14891807734966278,
				1.4901161193847656e-07
			]
		},
		{
			"children":[
				40
			],
			"name":"mixamorig:RightHandRing2",
			"rotation":[
				0.03100057691335678,
				3.1051249038682727e-07,
				8.558311606066127e-07,
				0.9995193481445312
			],
			"translation":[
				-0.0004440741613507271,
				0.15102608501911163,
				-3.3527612686157227e-08
			]
		},
		{
			"children":[
				41
			],
			"name":"mixamorig:RightHandRing1",
			"rotation":[
				0.10790275782346725,
				0.0007997837383300066,
				0.007368347607553005,
				0.9941338300704956
			],
			"scale":[
				0.9999999403953552,
				0.9999999403953552,
				0.9999998807907104
			],
			"translation":[
				-0.0865001529455185,
				0.6652851104736328,
				-0.010250098071992397
			]
		},
		{
			"name":"mixamorig:RightHandPinky4",
			"rotation":[
				3.175809979438782e-07,
				-1.9883736968040466e-07,
				-2.682209014892578e-06,
				1
			],
			"scale":[
				1,
				0.9999999403953552,
				1
			],
			"translation":[
				0.0011056512594223022,
				0.08854007720947266,
				8.940696716308594e-08
			]
		},
		{
			"children":[
				43
			],
			"name":"mixamorig:RightHandPinky3",
			"rotation":[
				-0.18750455975532532,
				1.5407259468247503e-07,
				2.725899719280278e-07,
				0.9822637438774109
			],
			"scale":[
				1,
				1,
				0.9999999403953552
			],
			"translation":[
				-0.0005701137706637383,
				0.13730594515800476,
				-7.450580596923828e-08
			]
		},
		{
			"children":[
				44
			],
			"name":"mixamorig:RightHandPinky2",
			"rotation":[
				0.012807406485080719,
				-6.277629154283204e-07,
				1.806914013968708e-07,
				0.9999179840087891
			],
			"translation":[
				-0.0005347593687474728,
				0.15411324799060822,
				1.0803341865539551e-07
			]
		},
		{
			"children":[
				45
			],
			"name":"mixamorig:RightHandPinky1",
			"rotation":[
				0.2396833896636963,
				0.005465690046548843,
				0.022130638360977173,
				0.9705834984779358
			],
			"translation":[
				-0.24173881113529205,
				0.6526798605918884,
				-0.03386494517326355
			]
		},
		{
			"children":[
				30,
				34,
				38,
				42,
				46
			],
			"name":"mixamorig:RightHand",
			"rotation":[
				0.07267473638057709,
				0.6302745938301086,
				-0.021717997267842293,
				0.7726582288742065
			],
			"scale":[
				0.9999999403953552,
				1,
				1
			],
			"translation":[
				7.450580596923828e-09,
				1.0288015604019165,
				-3.473833203315735e-07
			]
		},
		{
			"children":[
				47
			],
			"name":"mixamorig:RightForeArm",
			"rotation":[
				-0.1112598329782486,
				0.002400909783318639,
				-0.021440139040350914,
				0.9935572147369385
			],
			"scale":[
				0.9999998211860657,
				0.9999998807907104,
				1
			],
			"translation":[
				-1.862645149230957e-08,
				1.3679883480072021,
				-5.62518835067749e-07
			]
		},
		{
			"children":[
				48
			],
			"name":"mixamorig:RightArm",
			"rotation":[
				0.02723635546863079,
				0.0002751543070189655,
				0.010099099017679691,
				0.9995779991149902
			],
			"scale":[
				0.9999999403953552,
				0.9999998211860657,
				0.9999999403953552
			],
			"translation":[
				-6.332993507385254e-08,
				0.9177407622337341,
				2.3515895009040833e-07
			]
		},
		{
			"children":[
				49
			],
			"name":"mixamorig:RightShoulder",
			"rotation":[
				0.5406317114830017,
				-0.45173734426498413,
				0.5583917498588562,
				0.43800628185272217
			],
			"scale":[
				0.9999999403953552,
				0.9999998807907104,
				0.9999998807907104
			],
			"translation":[
				-0.4282941222190857,
				0.6108056902885437,
				-0.01403382420539856
			]
		},
		{
			"children":[
				2,
				26,
				50
			],
			"name":"mixamorig:Spine2",
			"rotation":[
				4.097820038850841e-08,
				0,
				0,
				1
			],
			"scale":[
				1,
				0.9999999403953552,
				0.9999999403953552
			],
			"translation":[
				2.3283064365386963e-10,
				0.6269406676292419,
				5.960464477539063e-08
			]
		},
		{
			"children":[
				51
			],
			"name":"mixamorig:Spine1",
			"rotation":[
				4.4703490686970326e-08,
				0,
				0,
				1
			],
			"scale":[
				1,
				0.9999999403953552,
				0.9999999403953552
			],
			"translation":[
				0,
				0.5485726594924927,
				5.960464477539063e-08
			]
		},
		{
			"children":[
				52
			],
			"name":"mixamorig:Spine",
			"rotation":[
				-0.06910550594329834,
				0,
				0,
				0.9976093769073486
			],
			"scale":[
				1,
				0.9999999403953552,
				0.9999999403953552
			],
			"translation":[
				0,
				0.46571439504623413,
				-0.06483212858438492
			]
		},
		{
			"name":"mixamorig:LeftToe_End",
			"rotation":[
				-4.05909275968952e-07,
				1.4432589523494244e-07,
				-1.8433843251841608e-07,
				1
			],
			"scale":[
				1,
				1,
				1.0000001192092896
			],
			"translation":[
				7.310882210731506e-08,
				0.3271951675415039,
				1.0360963642597198e-08
			]
		},
		{
			"children":[
				54
			],
			"name":"mixamorig:LeftToeBase",
			"rotation":[
				0.33998313546180725,
				-0.050521284341812134,
				0.018296044319868088,
				0.9388952851295471
			],
			"scale":[
				0.9999997615814209,
				1,
				0.9999998807907104
			],
			"translation":[
				-8.381903171539307e-09,
				0.7866069078445435,
				1.1175870895385742e-07
			]
		},
		{
			"children":[
				55
			],
			"name":"mixamorig:LeftFoot",
			"rotation":[
				0.410158634185791,
				-0.04273385927081108,
				0.019245803356170654,
				0.9108091592788696
			],
			"scale":[
				0.9999999403953552,
				1,
				0.9999999403953552
			],
			"translation":[
				-1.7951242625713348e-07,
				1.5754374265670776,
				-1.257285475730896e-08
			]
		},
		{
			"children":[
				56
			],
			"name":"mixamorig:LeftLeg",
			"rotation":[
				-0.022005246952176094,
				0.00014301692135632038,
				-0.006602839101105928,
				0.9997360110282898
			],
			"scale":[
				1,
				1,
				0.9999999403953552
			],
			"translation":[
				-1.4668330550193787e-08,
				1.754804253578186,
				-1.7270394891966134e-08
			]
		},
		{
			"children":[
				57
			],
			"name":"mixamorig:LeftUpLeg",
			"rotation":[
				-0.002078854711726308,
				-0.026091143488883972,
				-0.9964835047721863,
				0.07959592342376709
			],
			"scale":[
				1.000003695487976,
				1.0000001192092896,
				1.0000003576278687
			],
			"translation":[
				0.5901394486427307,
				-0.25916340947151184,
				-0.12226240336894989
			]
		},
		{
			"name":"mixamorig:RightToe_End",
			"rotation":[
				4.046196409035474e-07,
				1.5865372233747621e-06,
				8.69238192535704e-08,
				1
			],
			"scale":[
				0.9999999403953552,
				1,
				1
			],
			"translation":[
				7.078051567077637e-08,
				0.32619622349739075,
				8.731149137020111e-11
			]
		},
		{
			"children":[
				59
			],
			"name":"mixamorig:RightToeBase",
			"rotation":[
				0.3394368588924408,
				0.051341861486434937,
				-0.018557347357273102,
				0.9390432834625244
			],
			"translation":[
				-1.1455267667770386e-07,
				0.7876248359680176,
				-3.725290298461914e-09
			]
		},
		{
			"children":[
				60
			],
			"name":"mixamorig:RightFoot",
			"rotation":[
				0.41197654604911804,
				0.04283524677157402,
				-0.019390631467103958,
				0.9099805355072021
			],
			"scale":[
				1,
				1,
				0.9999999403953552
			],
			"translation":[
				1.5133991837501526e-08,
				1.5754061937332153,
				-2.3515895009040833e-08
			]
		},
		{
			"children":[
				61
			],
			"name":"mixamorig:RightLeg",
			"rotation":[
				-0.02070424146950245,
				-0.00014051987091079354,
				0.006630233023315668,
				0.9997636675834656
			],
			"scale":[
				0.9999998807907104,
				0.9999998807907104,
				1
			],
			"translation":[
				-2.0023435354232788e-08,
				1.754335641860962,
				-3.631248546298593e-08
			]
		},
		{
			"children":[
				62
			],
			"name":"mixamorig:RightUpLeg",
			"rotation":[
				-0.001872326945886016,
				0.023342013359069824,
				0.9965499639511108,
				0.07962290197610855
			],
			"scale":[
				0.9999940395355225,
				0.9999999403953552,
				0.9999994039535522
			],
			"translation":[
				-0.5901394486427307,
				-0.25916340947151184,
				-0.11357559263706207
			]
		},
		{
			"children":[
				53,
				58,
				63
			],
			"name":"mixamorig:Hips",
			"rotation":[
				-1.0981335663018399e-07,
				0,
				0,
				1
			],
			"translation":[
				-0.0026960372924804688,
				4.115738868713379,
				0.29139044880867004
			]
		},
		{
			"mesh":0,
			"name":"jack",
			"skin":0
		},
		{
			"children":[
				65,
				64
			],
			"name":"Armature"
		},
		{
			"children":[
				66
			],
			"name":"jack"
		}
	],
	"meshes":[
		{
			"name":"LowPolymesh",
			"primitives":[
				{
					"attributes":{
						"POSITION":0,
						"NORMAL":1,
						"TEXCOORD_0":2,
						"TANGENT":3,
						"JOINTS_0":4,
						"WEIGHTS_0":5
					},
					"indices":6
				}
			]
		}
	],
	"skins":[
		{
			"inverseBindMatrices":7,
			"joints":[
				64,
				53,
				52,
				51,
				2,
				1,
				0,
				26,
				25,
				24,
				23,
				6,
				5,
				4,
				3,
				10,
				9,
				8,
				7,
				14,
				13,
				12,
				11,
				18,
				17,
				16,
				15,
				22,
				21,
				20,
				19,
				50,
				49,
				48,
				47,
				30,
				29,
				28,
				27,
				34,
				33,
				32,
				31,
				38,
				37,
				36,
				35,
				42,
				41,
				40,
				39,
				46,
				45,
				44,
				43,
				58,
				57,
				56,
				55,
				54,
				63,
				62,
				61,
				60,
				59
			],
			"name":"Armature"
		}
	],
	"accessors":[
		{
			"bufferView":0,
			"componentType":5126,
			"count":6436,
			"max":[
				4.710022449493408,
				8.11671257019043,
				1.3130428791046143
			],
			"min":[
				-4.715414524078369,
				-0.03934669494628906,
				-0.7442221641540527
			],
			"type":"VEC3"
		},
		{
			"bufferView":1,
			"componentType":5126,
			"count":6436,
			"type":"VEC3"
		},
		{
			"bufferView":2,
			"componentType":5126,
			"count":6436,
			"type":"VEC2"
		},
		{
			"bufferView":3,
			"componentType":5126,
			"count":6436,
			"type":"VEC4"
		},
		{
			"bufferView":4,
			"componentType":5121,
			"count":6436,
			"type":"VEC4"
		},
		{
			"bufferView":5,
			"componentType":5126,
			"count":6436,
			"type":"VEC4"
		},
		{
			"bufferView":6,
			"componentType":5123,
			"count":25986,
			"type":"SCALAR"
		},
		{
			"bufferView":7,
			"componentType":5126,
			"count":65,
			"type":"MAT4"
		}
	],
	"bufferViews":[
		{
			"buffer":0,
			"byteLength":77232,
			"byteOffset":0,
			"target":34962
		},
		{
			"buffer":0,
			"byteLength":77232,
			"byteOffset":77232,
			"target":34962
		},
		{
			"buffer":0,
			"byteLength":51488,
			"byteOffset":154464,
			"target":34962
		},
		{
			"buffer":0,
			"byteLength":102976,
			"byteOffset":205952,
			"target":34962
		},
		{
			"buffer":0,
			"byteLength":25744,
			"byteOffset":308928,
			"target":34962
		},
		{
			"buffer":0,
			"byteLength":102976,
			"byteOffset":334672,
			"target":34962
		},
		{
			"buffer":0,
			"byteLength":51972,
			"byteOffset":437648,
			"target":34963
		},
		{
			"buffer":0,
			"byteLength":4160,
			"byteOffset":489620
		}
	],
	"buffers":[
		{
			"byteLength":493780,
			"uri":"jack.bin"
		}
	]
}
