{
	"asset":{
		"generator":"Khronos glTF Blender I/O v4.5.47",
		"version":"2.0"
	},
	"scene":0,
	"scenes":[
		{
			"name":"Scene",
			"nodes":[
				56
			]
		}
	],
	"nodes":[
		{
			"name":"backToes3_L",
			"rotation":[
				3.763738209983103e-09,
				-1.1780236519598475e-07,
				0.16377557814121246,
				0.9864976406097412
			],
			"scale":[
				0.9999999403953552,
				1.0000001192092896,
				0.9999998807907104
			],
			"translation":[
				-33.287540435791016,
				4.376320066512562e-05,
				-2.1663683583028615e-05
			]
		},
		{
			"children":[
				0
			],
			"name":"backToes2_L",
			"rotation":[
				-1.840949437337258e-08,
				-2.1164365815451447e-09,
				0.18673156201839447,
				0.9824109673500061
			],
			"translation":[
				-33.22434997558594,
				6.406864486052655e-06,
				1.2643448826565873e-05
			]
		},
		{
			"children":[
				1
			],
			"name":"backToes1_L",
			"rotation":[
				-6.280652087298222e-08,
				-1.569827112746225e-08,
				0.36402231454849243,
				0.9313902258872986
			],
			"scale":[
				1,
				1.0000001192092896,
				1
			],
			"translation":[
				-55.577667236328125,
				-8.979973063105717e-05,
				-1.068341953214258e-05
			]
		},
		{
			"children":[
				2
			],
			"name":"backAnkle_L",
			"rotation":[
				0.03973732888698578,
				0.04057888314127922,
				0.19909384846687317,
				0.9783332943916321
			],
			"scale":[
				0.9999999403953552,
				1,
				1
			],
			"translation":[
				-142.9658966064453,
				4.76837158203125e-05,
				8.106231689453125e-06
			]
		},
		{
			"children":[
				3
			],
			"name":"backKnee_L",
			"rotation":[
				1.5241292672385498e-08,
				1.642984059913033e-08,
				-0.4779491722583771,
				0.8783875107765198
			],
			"translation":[
				-244.32435607910156,
				-6.29425048828125e-05,
				-1.0013580322265625e-05
			]
		},
		{
			"children":[
				4
			],
			"name":"backHip_L",
			"rotation":[
				0.7591029405593872,
				-0.6484882831573486,
				-0.03689059615135193,
				0.04318311810493469
			],
			"scale":[
				1,
				1,
				1.0000001192092896
			],
			"translation":[
				-62.06454086303711,
				105.33267974853516,
				147.15390014648438
			]
		},
		{
			"name":"backToes3_R",
			"rotation":[
				-2.0928899857608485e-07,
				-3.3277160582656506e-08,
				0.1637759506702423,
				0.9864975810050964
			],
			"scale":[
				1,
				1,
				0.9999999403953552
			],
			"translation":[
				33.28750228881836,
				3.3853975764941424e-05,
				2.0076035070815124e-05
			]
		},
		{
			"children":[
				6
			],
			"name":"backToes2_R",
			"rotation":[
				2.1192949617443446e-08,
				6.4024168189291686e-09,
				0.18673214316368103,
				0.9824108481407166
			],
			"scale":[
				1,
				1,
				0.9999999403953552
			],
			"translation":[
				33.22437286376953,
				2.5554945750627667e-05,
				-4.23885285272263e-05
			]
		},
		{
			"children":[
				7
			],
			"name":"backToes1_R",
			"rotation":[
				4.278320275830083e-08,
				7.922182909680942e-09,
				0.36402201652526855,
				0.9313903450965881
			],
			"scale":[
				0.9999998807907104,
				0.9999999403953552,
				1
			],
			"translation":[
				55.57769012451172,
				-5.714059079764411e-05,
				-2.3210619474411942e-05
			]
		},
		{
			"children":[
				8
			],
			"name":"backAnkle_R",
			"rotation":[
				0.03973729908466339,
				0.04057876393198967,
				0.1990942507982254,
				0.9783331751823425
			],
			"scale":[
				0.9999999403953552,
				1,
				1
			],
			"translation":[
				142.96583557128906,
				-6.67572021484375e-06,
				4.0531158447265625e-05
			]
		},
		{
			"children":[
				9
			],
			"name":"backKnee_R",
			"rotation":[
				-3.23380504596571e-08,
				2.6768566030455077e-08,
				-0.4779492914676666,
				0.878387451171875
			],
			"scale":[
				1,
				1,
				1.0000001192092896
			],
			"translation":[
				244.3243865966797,
				5.14984130859375e-05,
				8.58306884765625e-06
			]
		},
		{
			"children":[
				10
			],
			"name":"backHip_R",
			"rotation":[
				0.6484883427619934,
				0.7591029405593872,
				0.043183065950870514,
				0.03689057007431984
			],
			"scale":[
				1,
				1.0000001192092896,
				1
			],
			"translation":[
				-62.064544677734375,
				105.33261108398438,
				-147.15391540527344
			]
		},
		{
			"name":"joint15_L",
			"rotation":[
				2.0512238574355024e-09,
				1.188529274998018e-08,
				0.05713843181729317,
				0.9983662962913513
			],
			"scale":[
				0.9999999403953552,
				1,
				1.0000001192092896
			],
			"translation":[
				-25.462217330932617,
				1.0231055966869462e-05,
				-1.3930305158282863e-06
			]
		},
		{
			"children":[
				12
			],
			"name":"joint14_L",
			"rotation":[
				1.769211088742395e-08,
				3.352275257384463e-08,
				0.21540820598602295,
				0.9765241146087646
			],
			"scale":[
				0.9999999403953552,
				1,
				1
			],
			"translation":[
				-13.160957336425781,
				-5.725053415517323e-05,
				-1.3744353054789826e-05
			]
		},
		{
			"children":[
				13
			],
			"name":"joint13Part2_L",
			"rotation":[
				-1.3966434887942303e-13,
				-1.716404796070492e-13,
				-1.0505318641662598e-06,
				1
			],
			"scale":[
				1,
				0.9999998807907104,
				1
			],
			"translation":[
				-13.160959243774414,
				3.811686474364251e-05,
				3.0499026252073236e-05
			]
		},
		{
			"children":[
				14
			],
			"name":"joint13Part1_L",
			"rotation":[
				1.3898574673966435e-13,
				9.459099492179976e-14,
				8.717179298400879e-07,
				1
			],
			"scale":[
				1,
				1,
				1.0000001192092896
			],
			"translation":[
				-13.161087036132812,
				-4.580644235829823e-05,
				-1.680993227637373e-05
			]
		},
		{
			"children":[
				15
			],
			"name":"joint13_L",
			"rotation":[
				3.95676869047179e-09,
				-9.808497480889855e-08,
				0.2725718915462494,
				0.9621354341506958
			],
			"scale":[
				1.0000001192092896,
				1.0000001192092896,
				1
			],
			"translation":[
				-206.42576599121094,
				1.585436075401958e-05,
				5.7585690228734165e-05
			]
		},
		{
			"children":[
				16
			],
			"name":"joint12_L",
			"rotation":[
				3.869776676879155e-08,
				7.804704438285626e-08,
				0.21219538152217865,
				0.9772272706031799
			],
			"scale":[
				1.0000001192092896,
				0.9999998807907104,
				1.0000001192092896
			],
			"translation":[
				-181.7776336669922,
				3.3317173802061006e-06,
				4.7452467697439715e-05
			]
		},
		{
			"children":[
				17
			],
			"name":"joint11_L",
			"rotation":[
				-0.045103561133146286,
				0.19152410328388214,
				0.2247466742992401,
				0.9543443322181702
			],
			"scale":[
				1,
				1,
				0.9999999403953552
			],
			"translation":[
				-141.10313415527344,
				-5.340576171875e-05,
				0.0001068115234375
			]
		},
		{
			"children":[
				18
			],
			"name":"joint10_L",
			"rotation":[
				-0.8848996758460999,
				0.4221809506416321,
				0.12111592292785645,
				0.1550702154636383
			],
			"scale":[
				1.0000001192092896,
				1,
				1
			],
			"translation":[
				184.54640197753906,
				150.865478515625,
				98.43302154541016
			]
		},
		{
			"name":"joint15_R",
			"rotation":[
				-1.588750286884988e-08,
				1.7228429793902933e-09,
				0.05713777244091034,
				0.9983663558959961
			],
			"scale":[
				1,
				1,
				0.9999999403953552
			],
			"translation":[
				25.46204376220703,
				5.822266757604666e-06,
				5.062065611127764e-07
			]
		},
		{
			"children":[
				20
			],
			"name":"joint14_R",
			"rotation":[
				-3.2334799726640995e-08,
				1.2325864418016863e-07,
				0.21540847420692444,
				0.9765240550041199
			],
			"scale":[
				0.9999999403953552,
				1,
				1
			],
			"translation":[
				13.161051750183105,
				1.249770139111206e-05,
				1.5959065422066487e-05
			]
		},
		{
			"children":[
				21
			],
			"name":"joint13Part2_R",
			"rotation":[
				6.62833503362048e-14,
				7.216450718854702e-16,
				-5.289912223815918e-07,
				1
			],
			"scale":[
				1,
				0.9999998807907104,
				0.9999998807907104
			],
			"translation":[
				13.161015510559082,
				-6.57581040286459e-06,
				-3.0131690436974168e-05
			]
		},
		{
			"children":[
				22
			],
			"name":"joint13Part1_R",
			"rotation":[
				6.33127990139204e-14,
				-6.716849298982197e-15,
				-5.997716243655304e-07,
				1
			],
			"scale":[
				1,
				1.000000238418579,
				1
			],
			"translation":[
				13.161055564880371,
				-5.2352210332173854e-05,
				7.151288627937902e-08
			]
		},
		{
			"children":[
				23
			],
			"name":"joint13_R",
			"rotation":[
				-3.335480869282037e-08,
				4.084106919322039e-08,
				0.27257296442985535,
				0.9621351361274719
			],
			"scale":[
				0.9999999403953552,
				0.9999998807907104,
				1
			],
			"translation":[
				206.42588806152344,
				1.1622490092122462e-05,
				2.183234300900949e-06
			]
		},
		{
			"children":[
				24
			],
			"name":"joint12_R",
			"rotation":[
				-7.940920454529987e-08,
				-4.672025966101501e-08,
				0.2121954709291458,
				0.9772272706031799
			],
			"translation":[
				181.77764892578125,
				8.600286673754454e-05,
				8.800804062047973e-05
			]
		},
		{
			"children":[
				25
			],
			"name":"joint11_R",
			"rotation":[
				-0.04510357603430748,
				0.19152407348155975,
				0.2247467041015625,
				0.9543443322181702
			],
			"scale":[
				1,
				1.0000001192092896,
				1.0000001192092896
			],
			"translation":[
				141.103271484375,
				0.000125885009765625,
				-3.814697265625e-05
			]
		},
		{
			"children":[
				26
			],
			"name":"joint10_R",
			"rotation":[
				0.42218077182769775,
				0.8848997950553894,
				-0.15507014095783234,
				0.12111576646566391
			],
			"scale":[
				1.0000001192092896,
				0.9999999403953552,
				1
			],
			"translation":[
				184.54652404785156,
				150.86550903320312,
				-98.43299102783203
			]
		},
		{
			"name":"JawEnd_M",
			"rotation":[
				5.920690782090787e-08,
				7.295372483895335e-08,
				5.9604619906394873e-08,
				1
			],
			"scale":[
				1,
				1,
				0.9999999403953552
			],
			"translation":[
				82.11842346191406,
				0.00019836424326058477,
				-5.597939889412373e-10
			]
		},
		{
			"children":[
				28
			],
			"name":"Jaw_M",
			"rotation":[
				7.517951416957658e-08,
				9.26108754129018e-08,
				0.6243157982826233,
				0.7811720967292786
			],
			"scale":[
				0.9999999403953552,
				0.9999999403953552,
				0.9999999403953552
			],
			"translation":[
				-16.96099853515625,
				16.574295043945312,
				1.6867707017809153e-06
			]
		},
		{
			"children":[
				29
			],
			"name":"Head_M",
			"rotation":[
				-5.445513693302928e-07,
				1.2191048881504685e-06,
				-0.31848958134651184,
				0.9479263424873352
			],
			"scale":[
				1,
				1,
				0.9999998807907104
			],
			"translation":[
				46.40418243408203,
				7.207745511550456e-11,
				-6.548361852765083e-11
			]
		},
		{
			"children":[
				30
			],
			"name":"Neck4_M",
			"rotation":[
				6.794920892616574e-08,
				7.684187863787884e-08,
				0.23178298771381378,
				0.9727675318717957
			],
			"scale":[
				0.9999999403953552,
				0.9999998807907104,
				1
			],
			"translation":[
				61.79456329345703,
				5.34058126504533e-05,
				-2.837623469531536e-10
			]
		},
		{
			"children":[
				31
			],
			"name":"joint6_M",
			"rotation":[
				7.037136384724363e-08,
				9.150648594413724e-08,
				0.05346737429499626,
				0.9985696077346802
			],
			"translation":[
				81.86266326904297,
				0.00022888187959324569,
				-1.000444171950221e-10
			]
		},
		{
			"children":[
				32
			],
			"name":"joint5_M",
			"rotation":[
				9.314247506608808e-08,
				4.2154123747195626e-08,
				0.1363818347454071,
				0.9906563758850098
			],
			"scale":[
				0.9999998807907104,
				0.9999998807907104,
				0.9999999403953552
			],
			"translation":[
				88.92048645019531,
				-0.00027465817402116954,
				3.2378011383116245e-10
			]
		},
		{
			"children":[
				33
			],
			"name":"joint4_M",
			"rotation":[
				1.0067206801522843e-07,
				6.336964020192681e-08,
				0.10651470720767975,
				0.9943111538887024
			],
			"scale":[
				0.9999999403953552,
				1,
				0.9999999403953552
			],
			"translation":[
				86.02812194824219,
				-7.629390893271193e-05,
				2.9103830456733704e-11
			]
		},
		{
			"children":[
				34
			],
			"name":"joint3_M",
			"rotation":[
				9.256439170712838e-08,
				7.311204797133541e-08,
				-0.0066249780356884,
				0.9999780654907227
			],
			"scale":[
				1,
				1,
				1.0000001192092896
			],
			"translation":[
				126.55409240722656,
				9.155276347883046e-05,
				2.1827872842550278e-11
			]
		},
		{
			"children":[
				35
			],
			"name":"joint2_M",
			"rotation":[
				8.989005095827451e-08,
				7.003766455682126e-08,
				-0.026166118681430817,
				0.9996576309204102
			],
			"scale":[
				0.9999998807907104,
				0.9999999403953552,
				0.9999999403953552
			],
			"translation":[
				134.3500518798828,
				5.340577627066523e-05,
				1.6189005691558123e-10
			]
		},
		{
			"children":[
				36
			],
			"name":"joint1_M",
			"rotation":[
				3.1020160662365015e-08,
				3.589022128380748e-07,
				-0.1384614109992981,
				0.9903678297996521
			],
			"scale":[
				1,
				1,
				1.0000001192092896
			],
			"translation":[
				106.43321990966797,
				-0.000102996826171875,
				-1.2960299500264227e-10
			]
		},
		{
			"children":[
				37
			],
			"name":"Neck3_M",
			"rotation":[
				-8.908961249113907e-15,
				-4.03509631041743e-07,
				-0.07805005460977554,
				0.9969494342803955
			],
			"scale":[
				1,
				0.9999998211860657,
				0.9999998807907104
			],
			"translation":[
				92.46121215820312,
				9.918212890625e-05,
				9.058559458097193e-12
			]
		},
		{
			"children":[
				38
			],
			"name":"Neck2_M",
			"rotation":[
				1.1422352796139172e-14,
				-1.1311938663332785e-14,
				0.009790197014808655,
				0.9999520778656006
			],
			"scale":[
				1,
				1,
				0.9999999403953552
			],
			"translation":[
				75.48487854003906,
				1.52587890625e-05,
				-5.733915078853791e-12
			]
		},
		{
			"children":[
				39
			],
			"name":"Neck1_M",
			"rotation":[
				1.1246650422549608e-15,
				3.0381026233444134e-15,
				-0.18167702853679657,
				0.9833582639694214
			],
			"scale":[
				1,
				1,
				1.0000001192092896
			],
			"translation":[
				56.641319274902344,
				-6.0558319091796875e-05,
				-1.1277399370249186e-12
			]
		},
		{
			"children":[
				40
			],
			"name":"Neck_M",
			"rotation":[
				6.156758503489184e-16,
				-4.081223274371611e-15,
				-0.2540222108364105,
				0.967198371887207
			],
			"scale":[
				1.0000001192092896,
				0.9999999403953552,
				1
			],
			"translation":[
				133.167236328125,
				-6.866455078125e-05,
				5.827449633954984e-12
			]
		},
		{
			"children":[
				19,
				27,
				41
			],
			"name":"Chest_M",
			"rotation":[
				7.932093397638573e-15,
				-5.920686185924675e-15,
				0.18148484826087952,
				0.9833937287330627
			],
			"scale":[
				1,
				1.0000001192092896,
				1.0000001192092896
			],
			"translation":[
				171.6685791015625,
				3.0517578125e-05,
				-7.032147000124445e-12
			]
		},
		{
			"children":[
				42
			],
			"name":"Spine1_M",
			"rotation":[
				-3.564313371496675e-15,
				4.848068459542294e-15,
				0.0806111991405487,
				0.9967456459999084
			],
			"scale":[
				1,
				1,
				1.0000001192092896
			],
			"translation":[
				154.52647399902344,
				-1.52587890625e-05,
				6.366463346091367e-12
			]
		},
		{
			"name":"joint8_M",
			"rotation":[
				4.8939918784185465e-09,
				-8.895733770851347e-16,
				-0.05598060041666031,
				0.9984318614006042
			],
			"scale":[
				0.9999999403953552,
				0.9999998807907104,
				0.9999999403953552
			],
			"translation":[
				46.68552780151367,
				-3.814697720372351e-06,
				4.0813893065205775e-06
			]
		},
		{
			"children":[
				44
			],
			"name":"joint7_M",
			"rotation":[
				0,
				8.738979317968187e-08,
				-0.02747376263141632,
				0.9996225237846375
			],
			"translation":[
				65.59207916259766,
				8.0108642578125e-05,
				-5.7342440413776785e-06
			]
		},
		{
			"children":[
				45
			],
			"name":"Tail6_M",
			"rotation":[
				-3.608625900132284e-15,
				-8.741307766513273e-08,
				-0.014904552139341831,
				0.9998888969421387
			],
			"scale":[
				1.0000001192092896,
				1,
				0.9999999403953552
			],
			"translation":[
				77.53668975830078,
				-1.9073486328125e-05,
				6.778475835744757e-06
			]
		},
		{
			"children":[
				46
			],
			"name":"Tail5_M",
			"rotation":[
				4.07518285783226e-09,
				-5.807228240222329e-15,
				-0.046614717692136765,
				0.9989129304885864
			],
			"scale":[
				1.0000001192092896,
				1,
				0.9999999403953552
			],
			"translation":[
				84.17742156982422,
				1.52587890625e-05,
				7.359008577623172e-06
			]
		},
		{
			"children":[
				47
			],
			"name":"Tail4_M",
			"rotation":[
				7.521915998864783e-15,
				8.742100021663646e-08,
				-0.006411226931959391,
				0.9999794363975525
			],
			"scale":[
				1,
				0.9999999403953552,
				1
			],
			"translation":[
				84.42178344726562,
				2.47955322265625e-05,
				-7.380365332210204e-06
			]
		},
		{
			"children":[
				48
			],
			"name":"Tail3_M",
			"rotation":[
				4.443286025367804e-16,
				-8.73756604846676e-08,
				-0.032822385430336,
				0.9994612336158752
			],
			"scale":[
				1,
				1.0000001192092896,
				0.9999999403953552
			],
			"translation":[
				81.56989288330078,
				-7.629394076502649e-06,
				7.131047368602594e-06
			]
		},
		{
			"children":[
				49
			],
			"name":"Tail2_M",
			"rotation":[
				6.661344500498044e-16,
				8.742273394091171e-08,
				0.0013307291083037853,
				0.9999991059303284
			],
			"scale":[
				0.9999998807907104,
				0.9999999403953552,
				0.9999999403953552
			],
			"translation":[
				92.90171813964844,
				-2.288818359375e-05,
				-8.121716746245511e-06
			]
		},
		{
			"children":[
				50
			],
			"name":"Tail1_M",
			"rotation":[
				-2.1686421547428836e-09,
				3.178124075020605e-08,
				-0.01819176971912384,
				0.9998345375061035
			],
			"scale":[
				0.9999999403953552,
				0.9999998807907104,
				0.9999998807907104
			],
			"translation":[
				95.04072570800781,
				4.38690185546875e-05,
				-1.4350741366797592e-05
			]
		},
		{
			"children":[
				51
			],
			"name":"Tail0_M",
			"rotation":[
				-0.03881846368312836,
				0.9992462992668152,
				2.9307030136038748e-09,
				7.544100100176365e-08
			],
			"scale":[
				1.0000001192092896,
				1.0000003576278687,
				1.0000001192092896
			],
			"translation":[
				-197.2946014404297,
				66.36551666259766,
				1.2732925824820995e-11
			]
		},
		{
			"children":[
				5,
				11,
				43,
				52
			],
			"name":"root",
			"rotation":[
				-4.867679948006298e-08,
				0,
				0,
				1
			],
			"scale":[
				1,
				1,
				1.0000001192092896
			]
		},
		{
			"mesh":0,
			"name":"brachiosaurus",
			"skin":0
		},
		{
			"children":[
				54,
				53
			],
			"name":"Armature",
			"scale":[
				0.009999999776482582,
				0.009999999776482582,
				0.009999998845160007
			]
		},
		{
			"children":[
				55
			],
			"name":"brachiosaurus"
		}
	],
	"meshes":[
		{
			"name":"Scene",
			"primitives":[
				{
					"attributes":{
						"POSITION":0,
						"NORMAL":1,
						"TEXCOORD_0":2,
						"TANGENT":3,
						"JOINTS_0":4,
						"WEIGHTS_0":5
					},
					"indices":6
				}
			]
		}
	],
	"skins":[
		{
			"inverseBindMatrices":7,
			"joints":[
				53,
				5,
				4,
				3,
				2,
				1,
				0,
				11,
				10,
				9,
				8,
				7,
				6,
				43,
				42,
				19,
				18,
				17,
				16,
				15,
				14,
				13,
				12,
				27,
				26,
				25,
				24,
				23,
				22,
				21,
				20,
				41,
				40,
				39,
				38,
				37,
				36,
				35,
				34,
				33,
				32,
				31,
				30,
				29,
				28,
				52,
				51,
				50,
				49,
				48,
				47,
				46,
				45,
				44
			],
			"name":"Armature"
		}
	],
	"accessors":[
		{
			"bufferView":0,
			"componentType":5126,
			"count":6030,
			"max":[
				13.212980270385742,
				7.1309027671813965,
				2.0930612087249756
			],
			"min":[
				-8.547276496887207,
				-3.870718002319336,
				-2.093062162399292
			],
			"type":"VEC3"
		},
		{
			"bufferView":1,
			"componentType":5126,
			"count":6030,
			"type":"VEC3"
		},
		{
			"bufferView":2,
			"componentType":5126,
			"count":6030,
			"type":"VEC2"
		},
		{
			"bufferView":3,
			"componentType":5126,
			"count":6030,
			"type":"VEC4"
		},
		{
			"bufferView":4,
			"componentType":5121,
			"count":6030,
			"type":"VEC4"
		},
		{
			"bufferView":5,
			"componentType":5126,
			"count":6030,
			"type":"VEC4"
		},
		{
			"bufferView":6,
			"componentType":5123,
			"count":30960,
			"type":"SCALAR"
		},
		{
			"bufferView":7,
			"componentType":5126,
			"count":54,
			"type":"MAT4"
		}
	],
	"bufferViews":[
		{
			"buffer":0,
			"byteLength":72360,
			"byteOffset":0,
			"target":34962
		},
		{
			"buffer":0,
			"byteLength":72360,
			"byteOffset":72360,
			"target":34962
		},
		{
			"buffer":0,
			"byteLength":48240,
			"byteOffset":144720,
			"target":34962
		},
		{
			"buffer":0,
			"byteLength":96480,
			"byteOffset":192960,
			"target":34962
		},
		{
			"buffer":0,
			"byteLength":24120,
			"byteOffset":289440,
			"target":34962
		},
		{
			"buffer":0,
			"byteLength":96480,
			"byteOffset":313560,
			"target":34962
		},
		{
			"buffer":0,
			"byteLength":61920,
			"byteOffset":410040,
			"target":34963
		},
		{
			"buffer":0,
			"byteLength":3456,
			"byteOffset":471960
		}
	],
	"buffers":[
		{
			"byteLength":475416,
			"uri":"brachiosaurus.bin"
		}
	]
}
