{
	"asset":{
		"generator":"Khronos glTF Blender I/O v4.1.63",
		"version":"2.0"
	},
	"scene":0,
	"scenes":[
		{
			"name":"Scene",
			"nodes":[
				1
			]
		}
	],
	"nodes":[
		{
			"mesh":0,
			"name":"meat_mesh"
		},
		{
			"children":[
				0
			],
			"name":"meat"
		}
	],
	"meshes":[
		{
			"name":"Cube.001",
			"primitives":[
				{
					"attributes":{
						"POSITION":0,
						"NORMAL":1,
						"TEXCOORD_0":2,
						"TANGENT":3
					},
					"indices":4
				}
			]
		}
	],
	"accessors":[
		{
			"bufferView":0,
			"componentType":5126,
			"count":1616,
			"max":[
				0.5742449760437012,
				0.26538506150245667,
				0.3054293394088745
			],
			"min":[
				-0.5718255639076233,
				-0.26801180839538574,
				-0.2616071105003357
			],
			"type":"VEC3"
		},
		{
			"bufferView":1,
			"componentType":5126,
			"count":1616,
			"type":"VEC3"
		},
		{
			"bufferView":2,
			"componentType":5126,
			"count":1616,
			"type":"VEC2"
		},
		{
			"bufferView":3,
			"componentType":5126,
			"count":1616,
			"type":"VEC4"
		},
		{
			"bufferView":4,
			"componentType":5123,
			"count":1632,
			"type":"SCALAR"
		}
	],
	"bufferViews":[
		{
			"buffer":0,
			"byteLength":19392,
			"byteOffset":0,
			"target":34962
		},
		{
			"buffer":0,
			"byteLength":19392,
			"byteOffset":19392,
			"target":34962
		},
		{
			"buffer":0,
			"byteLength":12928,
			"byteOffset":38784,
			"target":34962
		},
		{
			"buffer":0,
			"byteLength":25856,
			"byteOffset":51712,
			"target":34962
		},
		{
			"buffer":0,
			"byteLength":3264,
			"byteOffset":77568,
			"target":34963
		}
	],
	"buffers":[
		{
			"byteLength":80832,
			"uri":"meat.bin"
		}
	]
}
