{
	"asset":{
		"generator":"Khronos glTF Blender I/O v4.5.48",
		"version":"2.0"
	},
	"scene":0,
	"scenes":[
		{
			"name":"Scene",
			"nodes":[
				1
			]
		}
	],
	"nodes":[
		{
			"mesh":0,
			"name":"SM_Bld_Ruins_Column_02"
		},
		{
			"children":[
				0
			],
			"name":"SM_Bld_Ruins_Column_02"
		}
	],
	"meshes":[
		{
			"name":"Mesh",
			"primitives":[
				{
					"attributes":{
						"POSITION":0,
						"NORMAL":1,
						"TEXCOORD_0":2,
						"TANGENT":3
					},
					"indices":4
				}
			]
		}
	],
	"accessors":[
		{
			"bufferView":0,
			"componentType":5126,
			"count":1102,
			"max":[
				0.7912524342536926,
				5.000050067901611,
				0.7529248595237732
			],
			"min":[
				-0.7912524342536926,
				-0.44917500019073486,
				-0.7529247403144836
			],
			"type":"VEC3"
		},
		{
			"bufferView":1,
			"componentType":5126,
			"count":1102,
			"type":"VEC3"
		},
		{
			"bufferView":2,
			"componentType":5126,
			"count":1102,
			"type":"VEC2"
		},
		{
			"bufferView":3,
			"componentType":5126,
			"count":1102,
			"type":"VEC4"
		},
		{
			"bufferView":4,
			"componentType":5123,
			"count":1452,
			"type":"SCALAR"
		}
	],
	"bufferViews":[
		{
			"buffer":0,
			"byteLength":13224,
			"byteOffset":0,
			"target":34962
		},
		{
			"buffer":0,
			"byteLength":13224,
			"byteOffset":13224,
			"target":34962
		},
		{
			"buffer":0,
			"byteLength":8816,
			"byteOffset":26448,
			"target":34962
		},
		{
			"buffer":0,
			"byteLength":17632,
			"byteOffset":35264,
			"target":34962
		},
		{
			"buffer":0,
			"byteLength":2904,
			"byteOffset":52896,
			"target":34963
		}
	],
	"buffers":[
		{
			"byteLength":55800,
			"uri":"SM_Bld_Ruins_Column_02.bin"
		}
	]
}
