{
	"asset":{
		"generator":"Khronos glTF Blender I/O v4.5.47",
		"version":"2.0"
	},
	"scene":0,
	"scenes":[
		{
			"name":"Scene",
			"nodes":[
				1
			]
		}
	],
	"nodes":[
		{
			"mesh":0,
			"name":"SM_Bld_RopeBridge_01"
		},
		{
			"children":[
				0
			],
			"name":"SM_Bld_RopeBridge_01"
		}
	],
	"meshes":[
		{
			"name":"Mesh",
			"primitives":[
				{
					"attributes":{
						"POSITION":0,
						"NORMAL":1,
						"TEXCOORD_0":2,
						"COLOR_0":3
					},
					"indices":4
				}
			]
		}
	],
	"accessors":[
		{
			"bufferView":0,
			"componentType":5126,
			"count":14286,
			"max":[
				0.9302592277526855,
				1.396079659461975,
				7.733065605163574
			],
			"min":[
				-1.0244425535202026,
				-1.035493016242981,
				-7.822333812713623
			],
			"type":"VEC3"
		},
		{
			"bufferView":1,
			"componentType":5126,
			"count":14286,
			"type":"VEC3"
		},
		{
			"bufferView":2,
			"componentType":5126,
			"count":14286,
			"type":"VEC2"
		},
		{
			"bufferView":3,
			"componentType":5123,
			"count":14286,
			"normalized":true,
			"type":"VEC4"
		},
		{
			"bufferView":4,
			"componentType":5123,
			"count":21624,
			"type":"SCALAR"
		}
	],
	"bufferViews":[
		{
			"buffer":0,
			"byteLength":171432,
			"byteOffset":0,
			"target":34962
		},
		{
			"buffer":0,
			"byteLength":171432,
			"byteOffset":171432,
			"target":34962
		},
		{
			"buffer":0,
			"byteLength":114288,
			"byteOffset":342864,
			"target":34962
		},
		{
			"buffer":0,
			"byteLength":114288,
			"byteOffset":457152,
			"target":34962
		},
		{
			"buffer":0,
			"byteLength":43248,
			"byteOffset":571440,
			"target":34963
		}
	],
	"buffers":[
		{
			"byteLength":614688,
			"uri":"SM_Bld_RopeBridge_01.bin"
		}
	]
}
