{
	"asset":{
		"generator":"Khronos glTF Blender I/O v4.5.47",
		"version":"2.0"
	},
	"scene":0,
	"scenes":[
		{
			"name":"Scene",
			"nodes":[
				1
			]
		}
	],
	"nodes":[
		{
			"mesh":0,
			"name":"SM_Bld_Giant_Column_01"
		},
		{
			"children":[
				0
			],
			"name":"SM_Bld_Giant_Column_01"
		}
	],
	"meshes":[
		{
			"name":"Mesh",
			"primitives":[
				{
					"attributes":{
						"POSITION":0,
						"NORMAL":1,
						"TEXCOORD_0":2,
						"TANGENT":3
					},
					"indices":4
				}
			]
		}
	],
	"accessors":[
		{
			"bufferView":0,
			"componentType":5126,
			"count":11185,
			"max":[
				4.078347206115723,
				11.563520431518555,
				2.717266082763672
			],
			"min":[
				-4.255760192871094,
				-0.053903453052043915,
				-2.4903008937835693
			],
			"type":"VEC3"
		},
		{
			"bufferView":1,
			"componentType":5126,
			"count":11185,
			"type":"VEC3"
		},
		{
			"bufferView":2,
			"componentType":5126,
			"count":11185,
			"type":"VEC2"
		},
		{
			"bufferView":3,
			"componentType":5126,
			"count":11185,
			"type":"VEC4"
		},
		{
			"bufferView":4,
			"componentType":5123,
			"count":11205,
			"type":"SCALAR"
		}
	],
	"bufferViews":[
		{
			"buffer":0,
			"byteLength":134220,
			"byteOffset":0,
			"target":34962
		},
		{
			"buffer":0,
			"byteLength":134220,
			"byteOffset":134220,
			"target":34962
		},
		{
			"buffer":0,
			"byteLength":89480,
			"byteOffset":268440,
			"target":34962
		},
		{
			"buffer":0,
			"byteLength":178960,
			"byteOffset":357920,
			"target":34962
		},
		{
			"buffer":0,
			"byteLength":22410,
			"byteOffset":536880,
			"target":34963
		}
	],
	"buffers":[
		{
			"byteLength":559292,
			"uri":"SM_Bld_Giant_Column_01.bin"
		}
	]
}
