{
	"asset":{
		"generator":"Khronos glTF Blender I/O v4.5.48",
		"version":"2.0"
	},
	"scene":0,
	"scenes":[
		{
			"name":"Scene",
			"nodes":[
				1
			]
		}
	],
	"nodes":[
		{
			"mesh":0,
			"name":"SM_Bld_Ruins_Column_03"
		},
		{
			"children":[
				0
			],
			"name":"SM_Bld_Ruins_Column_03"
		}
	],
	"meshes":[
		{
			"name":"Mesh",
			"primitives":[
				{
					"attributes":{
						"POSITION":0,
						"NORMAL":1,
						"TEXCOORD_0":2,
						"TANGENT":3
					},
					"indices":4
				}
			]
		}
	],
	"accessors":[
		{
			"bufferView":0,
			"componentType":5126,
			"count":2430,
			"max":[
				0.8829370141029358,
				1.758689284324646,
				2.0069127082824707
			],
			"min":[
				-0.8843725323677063,
				-0.01346984039992094,
				-2.007859945297241
			],
			"type":"VEC3"
		},
		{
			"bufferView":1,
			"componentType":5126,
			"count":2430,
			"type":"VEC3"
		},
		{
			"bufferView":2,
			"componentType":5126,
			"count":2430,
			"type":"VEC2"
		},
		{
			"bufferView":3,
			"componentType":5126,
			"count":2430,
			"type":"VEC4"
		},
		{
			"bufferView":4,
			"componentType":5123,
			"count":2430,
			"type":"SCALAR"
		}
	],
	"bufferViews":[
		{
			"buffer":0,
			"byteLength":29160,
			"byteOffset":0,
			"target":34962
		},
		{
			"buffer":0,
			"byteLength":29160,
			"byteOffset":29160,
			"target":34962
		},
		{
			"buffer":0,
			"byteLength":19440,
			"byteOffset":58320,
			"target":34962
		},
		{
			"buffer":0,
			"byteLength":38880,
			"byteOffset":77760,
			"target":34962
		},
		{
			"buffer":0,
			"byteLength":4860,
			"byteOffset":116640,
			"target":34963
		}
	],
	"buffers":[
		{
			"byteLength":121500,
			"uri":"SM_Bld_Ruins_Column_03.bin"
		}
	]
}
