{
	"asset":{
		"generator":"Khronos glTF Blender I/O v4.5.48",
		"version":"2.0"
	},
	"scene":0,
	"scenes":[
		{
			"name":"Scene",
			"nodes":[
				1
			]
		}
	],
	"nodes":[
		{
			"mesh":0,
			"name":"SM_Bld_Ruins_Archway_01"
		},
		{
			"children":[
				0
			],
			"name":"SM_Bld_Ruins_Archway_01"
		}
	],
	"meshes":[
		{
			"name":"Mesh",
			"primitives":[
				{
					"attributes":{
						"POSITION":0,
						"NORMAL":1,
						"TEXCOORD_0":2,
						"TANGENT":3
					},
					"indices":4
				}
			]
		}
	],
	"accessors":[
		{
			"bufferView":0,
			"componentType":5126,
			"count":7674,
			"max":[
				3.262308359146118,
				8.855916976928711,
				0.9714094996452332
			],
			"min":[
				-3.266960382461548,
				-4.809497866631318e-08,
				-0.9714099168777466
			],
			"type":"VEC3"
		},
		{
			"bufferView":1,
			"componentType":5126,
			"count":7674,
			"type":"VEC3"
		},
		{
			"bufferView":2,
			"componentType":5126,
			"count":7674,
			"type":"VEC2"
		},
		{
			"bufferView":3,
			"componentType":5126,
			"count":7674,
			"type":"VEC4"
		},
		{
			"bufferView":4,
			"componentType":5123,
			"count":7680,
			"type":"SCALAR"
		}
	],
	"bufferViews":[
		{
			"buffer":0,
			"byteLength":92088,
			"byteOffset":0,
			"target":34962
		},
		{
			"buffer":0,
			"byteLength":92088,
			"byteOffset":92088,
			"target":34962
		},
		{
			"buffer":0,
			"byteLength":61392,
			"byteOffset":184176,
			"target":34962
		},
		{
			"buffer":0,
			"byteLength":122784,
			"byteOffset":245568,
			"target":34962
		},
		{
			"buffer":0,
			"byteLength":15360,
			"byteOffset":368352,
			"target":34963
		}
	],
	"buffers":[
		{
			"byteLength":383712,
			"uri":"SM_Bld_Ruins_Archway_01.bin"
		}
	]
}
