{
	"asset":{
		"generator":"Khronos glTF Blender I/O v4.5.47",
		"version":"2.0"
	},
	"scene":0,
	"scenes":[
		{
			"name":"Scene",
			"nodes":[
				1
			]
		}
	],
	"nodes":[
		{
			"mesh":0,
			"name":"SM_Bld_Ruins_Wall_01"
		},
		{
			"children":[
				0
			],
			"name":"SM_Bld_Ruins_Wall_01"
		}
	],
	"meshes":[
		{
			"name":"Mesh",
			"primitives":[
				{
					"attributes":{
						"POSITION":0,
						"NORMAL":1,
						"TEXCOORD_0":2,
						"TANGENT":3
					},
					"indices":4
				}
			]
		}
	],
	"accessors":[
		{
			"bufferView":0,
			"componentType":5126,
			"count":7241,
			"max":[
				4.359728813171387,
				4.808304786682129,
				0.5805355906486511
			],
			"min":[
				-4.360064506530762,
				-0.0005739714833907783,
				-0.5743129849433899
			],
			"type":"VEC3"
		},
		{
			"bufferView":1,
			"componentType":5126,
			"count":7241,
			"type":"VEC3"
		},
		{
			"bufferView":2,
			"componentType":5126,
			"count":7241,
			"type":"VEC2"
		},
		{
			"bufferView":3,
			"componentType":5126,
			"count":7241,
			"type":"VEC4"
		},
		{
			"bufferView":4,
			"componentType":5123,
			"count":7257,
			"type":"SCALAR"
		}
	],
	"bufferViews":[
		{
			"buffer":0,
			"byteLength":86892,
			"byteOffset":0,
			"target":34962
		},
		{
			"buffer":0,
			"byteLength":86892,
			"byteOffset":86892,
			"target":34962
		},
		{
			"buffer":0,
			"byteLength":57928,
			"byteOffset":173784,
			"target":34962
		},
		{
			"buffer":0,
			"byteLength":115856,
			"byteOffset":231712,
			"target":34962
		},
		{
			"buffer":0,
			"byteLength":14514,
			"byteOffset":347568,
			"target":34963
		}
	],
	"buffers":[
		{
			"byteLength":362084,
			"uri":"SM_Bld_Ruins_Wall_01.bin"
		}
	]
}
