{
	"asset":{
		"generator":"Khronos glTF Blender I/O v4.5.47",
		"version":"2.0"
	},
	"scene":0,
	"scenes":[
		{
			"name":"Scene",
			"nodes":[
				1
			]
		}
	],
	"nodes":[
		{
			"mesh":0,
			"name":"SM_Bld_Ruins_Wall_02"
		},
		{
			"children":[
				0
			],
			"name":"SM_Bld_Ruins_Wall_02"
		}
	],
	"meshes":[
		{
			"name":"Mesh",
			"primitives":[
				{
					"attributes":{
						"POSITION":0,
						"NORMAL":1,
						"TEXCOORD_0":2,
						"TANGENT":3
					},
					"indices":4
				}
			]
		}
	],
	"accessors":[
		{
			"bufferView":0,
			"componentType":5126,
			"count":12308,
			"max":[
				5.783267498016357,
				5.557376384735107,
				0.931079089641571
			],
			"min":[
				-5.795203685760498,
				-0.13728587329387665,
				-0.931441605091095
			],
			"type":"VEC3"
		},
		{
			"bufferView":1,
			"componentType":5126,
			"count":12308,
			"type":"VEC3"
		},
		{
			"bufferView":2,
			"componentType":5126,
			"count":12308,
			"type":"VEC2"
		},
		{
			"bufferView":3,
			"componentType":5126,
			"count":12308,
			"type":"VEC4"
		},
		{
			"bufferView":4,
			"componentType":5123,
			"count":12624,
			"type":"SCALAR"
		}
	],
	"bufferViews":[
		{
			"buffer":0,
			"byteLength":147696,
			"byteOffset":0,
			"target":34962
		},
		{
			"buffer":0,
			"byteLength":147696,
			"byteOffset":147696,
			"target":34962
		},
		{
			"buffer":0,
			"byteLength":98464,
			"byteOffset":295392,
			"target":34962
		},
		{
			"buffer":0,
			"byteLength":196928,
			"byteOffset":393856,
			"target":34962
		},
		{
			"buffer":0,
			"byteLength":25248,
			"byteOffset":590784,
			"target":34963
		}
	],
	"buffers":[
		{
			"byteLength":616032,
			"uri":"SM_Bld_Ruins_Wall_02.bin"
		}
	]
}
