{
	"asset":{
		"generator":"Khronos glTF Blender I/O v4.5.47",
		"version":"2.0"
	},
	"scene":0,
	"scenes":[
		{
			"name":"Scene",
			"nodes":[
				1
			]
		}
	],
	"nodes":[
		{
			"mesh":0,
			"name":"SM_Bld_Ruins_Archway_02"
		},
		{
			"children":[
				0
			],
			"name":"SM_Bld_Ruins_Archway_02"
		}
	],
	"meshes":[
		{
			"name":"Mesh",
			"primitives":[
				{
					"attributes":{
						"POSITION":0,
						"NORMAL":1,
						"TEXCOORD_0":2,
						"TANGENT":3
					},
					"indices":4
				}
			]
		}
	],
	"accessors":[
		{
			"bufferView":0,
			"componentType":5126,
			"count":6270,
			"max":[
				4.427516460418701,
				9.230927467346191,
				1.4883744716644287
			],
			"min":[
				-4.4262895584106445,
				-0.00028484873473644257,
				-1.4884222745895386
			],
			"type":"VEC3"
		},
		{
			"bufferView":1,
			"componentType":5126,
			"count":6270,
			"type":"VEC3"
		},
		{
			"bufferView":2,
			"componentType":5126,
			"count":6270,
			"type":"VEC2"
		},
		{
			"bufferView":3,
			"componentType":5126,
			"count":6270,
			"type":"VEC4"
		},
		{
			"bufferView":4,
			"componentType":5123,
			"count":6282,
			"type":"SCALAR"
		}
	],
	"bufferViews":[
		{
			"buffer":0,
			"byteLength":75240,
			"byteOffset":0,
			"target":34962
		},
		{
			"buffer":0,
			"byteLength":75240,
			"byteOffset":75240,
			"target":34962
		},
		{
			"buffer":0,
			"byteLength":50160,
			"byteOffset":150480,
			"target":34962
		},
		{
			"buffer":0,
			"byteLength":100320,
			"byteOffset":200640,
			"target":34962
		},
		{
			"buffer":0,
			"byteLength":12564,
			"byteOffset":300960,
			"target":34963
		}
	],
	"buffers":[
		{
			"byteLength":313524,
			"uri":"SM_Bld_Ruins_Archway_02.bin"
		}
	]
}
