{
	"asset":{
		"generator":"Khronos glTF Blender I/O v4.5.47",
		"version":"2.0"
	},
	"scene":0,
	"scenes":[
		{
			"name":"Scene",
			"nodes":[
				1
			]
		}
	],
	"nodes":[
		{
			"mesh":0,
			"name":"SM_Bld_Shack_Pirate_01"
		},
		{
			"children":[
				0
			],
			"name":"SM_Bld_Shack_Pirate_01"
		}
	],
	"meshes":[
		{
			"name":"Mesh",
			"primitives":[
				{
					"attributes":{
						"POSITION":0,
						"NORMAL":1,
						"TEXCOORD_0":2,
						"TEXCOORD_1":3,
						"TANGENT":4
					},
					"indices":5
				}
			]
		}
	],
	"accessors":[
		{
			"bufferView":0,
			"componentType":5126,
			"count":23014,
			"max":[
				4.919990539550781,
				5.032021999359131,
				5.278515338897705
			],
			"min":[
				-4.919990539550781,
				-0.4562475085258484,
				-5.278515338897705
			],
			"type":"VEC3"
		},
		{
			"bufferView":1,
			"componentType":5126,
			"count":23014,
			"type":"VEC3"
		},
		{
			"bufferView":2,
			"componentType":5126,
			"count":23014,
			"type":"VEC2"
		},
		{
			"bufferView":3,
			"componentType":5126,
			"count":23014,
			"type":"VEC2"
		},
		{
			"bufferView":4,
			"componentType":5126,
			"count":23014,
			"type":"VEC4"
		},
		{
			"bufferView":5,
			"componentType":5123,
			"count":33774,
			"type":"SCALAR"
		}
	],
	"bufferViews":[
		{
			"buffer":0,
			"byteLength":276168,
			"byteOffset":0,
			"target":34962
		},
		{
			"buffer":0,
			"byteLength":276168,
			"byteOffset":276168,
			"target":34962
		},
		{
			"buffer":0,
			"byteLength":184112,
			"byteOffset":552336,
			"target":34962
		},
		{
			"buffer":0,
			"byteLength":184112,
			"byteOffset":736448,
			"target":34962
		},
		{
			"buffer":0,
			"byteLength":368224,
			"byteOffset":920560,
			"target":34962
		},
		{
			"buffer":0,
			"byteLength":67548,
			"byteOffset":1288784,
			"target":34963
		}
	],
	"buffers":[
		{
			"byteLength":1356332,
			"uri":"SM_Bld_Shack_Pirate_01.bin"
		}
	]
}
