{
	"asset":{
		"generator":"Khronos glTF Blender I/O v4.5.48",
		"version":"2.0"
	},
	"scene":0,
	"scenes":[
		{
			"name":"Scene",
			"nodes":[
				1
			]
		}
	],
	"nodes":[
		{
			"mesh":0,
			"name":"SM_Env_Bush_01_LOD0"
		},
		{
			"children":[
				0
			],
			"name":"SM_Env_Bush_01"
		}
	],
	"meshes":[
		{
			"name":"Mesh",
			"primitives":[
				{
					"attributes":{
						"POSITION":0,
						"NORMAL":1,
						"TEXCOORD_0":2,
						"TANGENT":3,
						"COLOR_0":4
					},
					"indices":5
				}
			]
		}
	],
	"accessors":[
		{
			"bufferView":0,
			"componentType":5126,
			"count":4586,
			"max":[
				1.2397754192352295,
				2.847999095916748,
				1.133466362953186
			],
			"min":[
				-1.4365402460098267,
				-0.03624563291668892,
				-1.3048917055130005
			],
			"type":"VEC3"
		},
		{
			"bufferView":1,
			"componentType":5126,
			"count":4586,
			"type":"VEC3"
		},
		{
			"bufferView":2,
			"componentType":5126,
			"count":4586,
			"type":"VEC2"
		},
		{
			"bufferView":3,
			"componentType":5126,
			"count":4586,
			"type":"VEC4"
		},
		{
			"bufferView":4,
			"componentType":5123,
			"count":4586,
			"normalized":true,
			"type":"VEC4"
		},
		{
			"bufferView":5,
			"componentType":5123,
			"count":6828,
			"type":"SCALAR"
		}
	],
	"bufferViews":[
		{
			"buffer":0,
			"byteLength":55032,
			"byteOffset":0,
			"target":34962
		},
		{
			"buffer":0,
			"byteLength":55032,
			"byteOffset":55032,
			"target":34962
		},
		{
			"buffer":0,
			"byteLength":36688,
			"byteOffset":110064,
			"target":34962
		},
		{
			"buffer":0,
			"byteLength":73376,
			"byteOffset":146752,
			"target":34962
		},
		{
			"buffer":0,
			"byteLength":36688,
			"byteOffset":220128,
			"target":34962
		},
		{
			"buffer":0,
			"byteLength":13656,
			"byteOffset":256816,
			"target":34963
		}
	],
	"buffers":[
		{
			"byteLength":270472,
			"uri":"SM_Env_Bush_01.bin"
		}
	]
}
