{
	"asset":{
		"generator":"Khronos glTF Blender I/O v4.5.47",
		"version":"2.0"
	},
	"scene":0,
	"scenes":[
		{
			"name":"Scene",
			"nodes":[
				1
			]
		}
	],
	"nodes":[
		{
			"mesh":0,
			"name":"SM_Env_Vines_04"
		},
		{
			"children":[
				0
			],
			"name":"SM_Env_Vines_04"
		}
	],
	"meshes":[
		{
			"name":"Mesh",
			"primitives":[
				{
					"attributes":{
						"POSITION":0,
						"NORMAL":1,
						"TEXCOORD_0":2,
						"TANGENT":3,
						"COLOR_0":4
					},
					"indices":5
				}
			]
		}
	],
	"accessors":[
		{
			"bufferView":0,
			"componentType":5126,
			"count":300,
			"max":[
				0.12602540850639343,
				0.10802184790372849,
				0.24160316586494446
			],
			"min":[
				-0.1125071719288826,
				-4.805488586425781,
				-0.11111502349376678
			],
			"type":"VEC3"
		},
		{
			"bufferView":1,
			"componentType":5126,
			"count":300,
			"type":"VEC3"
		},
		{
			"bufferView":2,
			"componentType":5126,
			"count":300,
			"type":"VEC2"
		},
		{
			"bufferView":3,
			"componentType":5126,
			"count":300,
			"type":"VEC4"
		},
		{
			"bufferView":4,
			"componentType":5123,
			"count":300,
			"normalized":true,
			"type":"VEC4"
		},
		{
			"bufferView":5,
			"componentType":5123,
			"count":432,
			"type":"SCALAR"
		}
	],
	"bufferViews":[
		{
			"buffer":0,
			"byteLength":3600,
			"byteOffset":0,
			"target":34962
		},
		{
			"buffer":0,
			"byteLength":3600,
			"byteOffset":3600,
			"target":34962
		},
		{
			"buffer":0,
			"byteLength":2400,
			"byteOffset":7200,
			"target":34962
		},
		{
			"buffer":0,
			"byteLength":4800,
			"byteOffset":9600,
			"target":34962
		},
		{
			"buffer":0,
			"byteLength":2400,
			"byteOffset":14400,
			"target":34962
		},
		{
			"buffer":0,
			"byteLength":864,
			"byteOffset":16800,
			"target":34963
		}
	],
	"buffers":[
		{
			"byteLength":17664,
			"uri":"SM_Env_Vines_04.bin"
		}
	]
}
