{
	"asset":{
		"generator":"Khronos glTF Blender I/O v4.5.48",
		"version":"2.0"
	},
	"scene":0,
	"scenes":[
		{
			"name":"Scene",
			"nodes":[
				1
			]
		}
	],
	"nodes":[
		{
			"mesh":0,
			"name":"SM_Env_Rock_Ramp_01"
		},
		{
			"children":[
				0
			],
			"name":"SM_Env_Rock_Ramp_01"
		}
	],
	"meshes":[
		{
			"name":"Mesh",
			"primitives":[
				{
					"attributes":{
						"POSITION":0,
						"NORMAL":1,
						"TEXCOORD_0":2,
						"TANGENT":3
					},
					"indices":4
				}
			]
		}
	],
	"accessors":[
		{
			"bufferView":0,
			"componentType":5126,
			"count":3954,
			"max":[
				4.268691539764404,
				4.235477924346924,
				2.9844579696655273
			],
			"min":[
				-4.362871170043945,
				-1.3563791513442993,
				-3.07373046875
			],
			"type":"VEC3"
		},
		{
			"bufferView":1,
			"componentType":5126,
			"count":3954,
			"type":"VEC3"
		},
		{
			"bufferView":2,
			"componentType":5126,
			"count":3954,
			"type":"VEC2"
		},
		{
			"bufferView":3,
			"componentType":5126,
			"count":3954,
			"type":"VEC4"
		},
		{
			"bufferView":4,
			"componentType":5123,
			"count":3954,
			"type":"SCALAR"
		}
	],
	"bufferViews":[
		{
			"buffer":0,
			"byteLength":47448,
			"byteOffset":0,
			"target":34962
		},
		{
			"buffer":0,
			"byteLength":47448,
			"byteOffset":47448,
			"target":34962
		},
		{
			"buffer":0,
			"byteLength":31632,
			"byteOffset":94896,
			"target":34962
		},
		{
			"buffer":0,
			"byteLength":63264,
			"byteOffset":126528,
			"target":34962
		},
		{
			"buffer":0,
			"byteLength":7908,
			"byteOffset":189792,
			"target":34963
		}
	],
	"buffers":[
		{
			"byteLength":197700,
			"uri":"SM_Env_Rock_Ramp_01.bin"
		}
	]
}
