{
	"asset":{
		"generator":"Khronos glTF Blender I/O v4.5.47",
		"version":"2.0"
	},
	"scene":0,
	"scenes":[
		{
			"name":"Scene",
			"nodes":[
				1
			]
		}
	],
	"nodes":[
		{
			"mesh":0,
			"name":"SM_Env_Volcano_01"
		},
		{
			"children":[
				0
			],
			"name":"SM_Env_Volcano_01"
		}
	],
	"meshes":[
		{
			"name":"Mesh",
			"primitives":[
				{
					"attributes":{
						"POSITION":0,
						"NORMAL":1,
						"TEXCOORD_0":2,
						"TANGENT":3
					},
					"indices":4
				}
			]
		}
	],
	"accessors":[
		{
			"bufferView":0,
			"componentType":5126,
			"count":1716,
			"max":[
				8.334648132324219,
				11.964509010314941,
				8.362375259399414
			],
			"min":[
				-8.428828239440918,
				-5.452330112457275,
				-8.451642990112305
			],
			"type":"VEC3"
		},
		{
			"bufferView":1,
			"componentType":5126,
			"count":1716,
			"type":"VEC3"
		},
		{
			"bufferView":2,
			"componentType":5126,
			"count":1716,
			"type":"VEC2"
		},
		{
			"bufferView":3,
			"componentType":5126,
			"count":1716,
			"type":"VEC4"
		},
		{
			"bufferView":4,
			"componentType":5123,
			"count":1758,
			"type":"SCALAR"
		}
	],
	"bufferViews":[
		{
			"buffer":0,
			"byteLength":20592,
			"byteOffset":0,
			"target":34962
		},
		{
			"buffer":0,
			"byteLength":20592,
			"byteOffset":20592,
			"target":34962
		},
		{
			"buffer":0,
			"byteLength":13728,
			"byteOffset":41184,
			"target":34962
		},
		{
			"buffer":0,
			"byteLength":27456,
			"byteOffset":54912,
			"target":34962
		},
		{
			"buffer":0,
			"byteLength":3516,
			"byteOffset":82368,
			"target":34963
		}
	],
	"buffers":[
		{
			"byteLength":85884,
			"uri":"SM_Env_Volcano_01.bin"
		}
	]
}
