{
	"asset":{
		"generator":"Khronos glTF Blender I/O v4.5.47",
		"version":"2.0"
	},
	"scene":0,
	"scenes":[
		{
			"name":"Scene",
			"nodes":[
				1
			]
		}
	],
	"nodes":[
		{
			"mesh":0,
			"name":"SM_Env_Fern_Part_01_LOD0"
		},
		{
			"children":[
				0
			],
			"name":"SM_Env_Fern_Part_01"
		}
	],
	"meshes":[
		{
			"name":"Mesh",
			"primitives":[
				{
					"attributes":{
						"POSITION":0,
						"NORMAL":1,
						"TEXCOORD_0":2,
						"TANGENT":3,
						"COLOR_0":4
					},
					"indices":5
				}
			]
		}
	],
	"accessors":[
		{
			"bufferView":0,
			"componentType":5126,
			"count":216,
			"max":[
				1.3959401845932007,
				0.9606623649597168,
				1.1797165870666504
			],
			"min":[
				-1.1519633531570435,
				-0.1962193250656128,
				-0.422059029340744
			],
			"type":"VEC3"
		},
		{
			"bufferView":1,
			"componentType":5126,
			"count":216,
			"type":"VEC3"
		},
		{
			"bufferView":2,
			"componentType":5126,
			"count":216,
			"type":"VEC2"
		},
		{
			"bufferView":3,
			"componentType":5126,
			"count":216,
			"type":"VEC4"
		},
		{
			"bufferView":4,
			"componentType":5123,
			"count":216,
			"normalized":true,
			"type":"VEC4"
		},
		{
			"bufferView":5,
			"componentType":5123,
			"count":312,
			"type":"SCALAR"
		}
	],
	"bufferViews":[
		{
			"buffer":0,
			"byteLength":2592,
			"byteOffset":0,
			"target":34962
		},
		{
			"buffer":0,
			"byteLength":2592,
			"byteOffset":2592,
			"target":34962
		},
		{
			"buffer":0,
			"byteLength":1728,
			"byteOffset":5184,
			"target":34962
		},
		{
			"buffer":0,
			"byteLength":3456,
			"byteOffset":6912,
			"target":34962
		},
		{
			"buffer":0,
			"byteLength":1728,
			"byteOffset":10368,
			"target":34962
		},
		{
			"buffer":0,
			"byteLength":624,
			"byteOffset":12096,
			"target":34963
		}
	],
	"buffers":[
		{
			"byteLength":12720,
			"uri":"SM_Env_Fern_Part_01.bin"
		}
	]
}
