{
	"asset":{
		"generator":"Khronos glTF Blender I/O v4.5.47",
		"version":"2.0"
	},
	"scene":0,
	"scenes":[
		{
			"name":"Scene",
			"nodes":[
				1
			]
		}
	],
	"nodes":[
		{
			"mesh":0,
			"name":"SM_Env_Bush_Tropical_03_LOD0"
		},
		{
			"children":[
				0
			],
			"name":"SM_Env_Bush_Tropical_03"
		}
	],
	"meshes":[
		{
			"name":"Mesh",
			"primitives":[
				{
					"attributes":{
						"POSITION":0,
						"NORMAL":1,
						"TEXCOORD_0":2,
						"TANGENT":3,
						"COLOR_0":4
					},
					"indices":5
				}
			]
		}
	],
	"accessors":[
		{
			"bufferView":0,
			"componentType":5126,
			"count":6640,
			"max":[
				2.0192205905914307,
				1.066074252128601,
				1.9803422689437866
			],
			"min":[
				-2.2132620811462402,
				-0.33499690890312195,
				-2.2074131965637207
			],
			"type":"VEC3"
		},
		{
			"bufferView":1,
			"componentType":5126,
			"count":6640,
			"type":"VEC3"
		},
		{
			"bufferView":2,
			"componentType":5126,
			"count":6640,
			"type":"VEC2"
		},
		{
			"bufferView":3,
			"componentType":5126,
			"count":6640,
			"type":"VEC4"
		},
		{
			"bufferView":4,
			"componentType":5123,
			"count":6640,
			"normalized":true,
			"type":"VEC4"
		},
		{
			"bufferView":5,
			"componentType":5123,
			"count":7968,
			"type":"SCALAR"
		}
	],
	"bufferViews":[
		{
			"buffer":0,
			"byteLength":79680,
			"byteOffset":0,
			"target":34962
		},
		{
			"buffer":0,
			"byteLength":79680,
			"byteOffset":79680,
			"target":34962
		},
		{
			"buffer":0,
			"byteLength":53120,
			"byteOffset":159360,
			"target":34962
		},
		{
			"buffer":0,
			"byteLength":106240,
			"byteOffset":212480,
			"target":34962
		},
		{
			"buffer":0,
			"byteLength":53120,
			"byteOffset":318720,
			"target":34962
		},
		{
			"buffer":0,
			"byteLength":15936,
			"byteOffset":371840,
			"target":34963
		}
	],
	"buffers":[
		{
			"byteLength":387776,
			"uri":"SM_Env_Bush_Tropical_03.bin"
		}
	]
}
