{
	"asset":{
		"generator":"Khronos glTF Blender I/O v4.5.48",
		"version":"2.0"
	},
	"scene":0,
	"scenes":[
		{
			"name":"Scene",
			"nodes":[
				2
			]
		}
	],
	"nodes":[
		{
			"mesh":0,
			"name":"SM_Env_Tree_Pohutukawa_02_Branches_LOD0"
		},
		{
			"mesh":1,
			"name":"SM_Env_Tree_Pohutukawa_02_LOD0"
		},
		{
			"children":[
				0,
				1
			],
			"name":"SM_Env_Tree_Pohutukawa_02"
		}
	],
	"meshes":[
		{
			"name":"Mesh",
			"primitives":[
				{
					"attributes":{
						"POSITION":0,
						"NORMAL":1,
						"TEXCOORD_0":2,
						"TANGENT":3,
						"COLOR_0":4
					},
					"indices":5
				}
			]
		},
		{
			"name":"Mesh.002",
			"primitives":[
				{
					"attributes":{
						"POSITION":6,
						"NORMAL":7,
						"TEXCOORD_0":8,
						"COLOR_0":9
					},
					"indices":10
				}
			]
		}
	],
	"accessors":[
		{
			"bufferView":0,
			"componentType":5126,
			"count":630,
			"max":[
				3.4443187713623047,
				4.736454486846924,
				3.830254077911377
			],
			"min":[
				-2.946868896484375,
				1.800180435180664,
				-2.722026824951172
			],
			"type":"VEC3"
		},
		{
			"bufferView":1,
			"componentType":5126,
			"count":630,
			"type":"VEC3"
		},
		{
			"bufferView":2,
			"componentType":5126,
			"count":630,
			"type":"VEC2"
		},
		{
			"bufferView":3,
			"componentType":5126,
			"count":630,
			"type":"VEC4"
		},
		{
			"bufferView":4,
			"componentType":5123,
			"count":630,
			"normalized":true,
			"type":"VEC4"
		},
		{
			"bufferView":5,
			"componentType":5123,
			"count":630,
			"type":"SCALAR"
		},
		{
			"bufferView":6,
			"componentType":5126,
			"count":18952,
			"max":[
				4.353274345397949,
				5.567488670349121,
				4.389311790466309
			],
			"min":[
				-4.287874221801758,
				-0.401626855134964,
				-3.6377015113830566
			],
			"type":"VEC3"
		},
		{
			"bufferView":7,
			"componentType":5126,
			"count":18952,
			"type":"VEC3"
		},
		{
			"bufferView":8,
			"componentType":5126,
			"count":18952,
			"type":"VEC2"
		},
		{
			"bufferView":9,
			"componentType":5123,
			"count":18952,
			"normalized":true,
			"type":"VEC4"
		},
		{
			"bufferView":10,
			"componentType":5123,
			"count":34104,
			"type":"SCALAR"
		}
	],
	"bufferViews":[
		{
			"buffer":0,
			"byteLength":7560,
			"byteOffset":0,
			"target":34962
		},
		{
			"buffer":0,
			"byteLength":7560,
			"byteOffset":7560,
			"target":34962
		},
		{
			"buffer":0,
			"byteLength":5040,
			"byteOffset":15120,
			"target":34962
		},
		{
			"buffer":0,
			"byteLength":10080,
			"byteOffset":20160,
			"target":34962
		},
		{
			"buffer":0,
			"byteLength":5040,
			"byteOffset":30240,
			"target":34962
		},
		{
			"buffer":0,
			"byteLength":1260,
			"byteOffset":35280,
			"target":34963
		},
		{
			"buffer":0,
			"byteLength":227424,
			"byteOffset":36540,
			"target":34962
		},
		{
			"buffer":0,
			"byteLength":227424,
			"byteOffset":263964,
			"target":34962
		},
		{
			"buffer":0,
			"byteLength":151616,
			"byteOffset":491388,
			"target":34962
		},
		{
			"buffer":0,
			"byteLength":151616,
			"byteOffset":643004,
			"target":34962
		},
		{
			"buffer":0,
			"byteLength":68208,
			"byteOffset":794620,
			"target":34963
		}
	],
	"buffers":[
		{
			"byteLength":862828,
			"uri":"SM_Env_Tree_Pohutukawa_02.bin"
		}
	]
}
