{
	"asset":{
		"generator":"Khronos glTF Blender I/O v4.5.48",
		"version":"2.0"
	},
	"scene":0,
	"scenes":[
		{
			"name":"Scene",
			"nodes":[
				1
			]
		}
	],
	"nodes":[
		{
			"mesh":0,
			"name":"SM_Env_Tree_Pohutukawa_03_LOD0"
		},
		{
			"children":[
				0
			],
			"name":"SM_Env_Tree_Pohutukawa_03"
		}
	],
	"meshes":[
		{
			"name":"Mesh",
			"primitives":[
				{
					"attributes":{
						"POSITION":0,
						"NORMAL":1,
						"TEXCOORD_0":2,
						"COLOR_0":3
					},
					"indices":4
				}
			]
		}
	],
	"accessors":[
		{
			"bufferView":0,
			"componentType":5126,
			"count":3684,
			"max":[
				2.0907058715820312,
				4.501965045928955,
				1.6560068130493164
			],
			"min":[
				-2.1056230068206787,
				-0.3919253349304199,
				-2.213752508163452
			],
			"type":"VEC3"
		},
		{
			"bufferView":1,
			"componentType":5126,
			"count":3684,
			"type":"VEC3"
		},
		{
			"bufferView":2,
			"componentType":5126,
			"count":3684,
			"type":"VEC2"
		},
		{
			"bufferView":3,
			"componentType":5123,
			"count":3684,
			"normalized":true,
			"type":"VEC4"
		},
		{
			"bufferView":4,
			"componentType":5123,
			"count":8832,
			"type":"SCALAR"
		}
	],
	"bufferViews":[
		{
			"buffer":0,
			"byteLength":44208,
			"byteOffset":0,
			"target":34962
		},
		{
			"buffer":0,
			"byteLength":44208,
			"byteOffset":44208,
			"target":34962
		},
		{
			"buffer":0,
			"byteLength":29472,
			"byteOffset":88416,
			"target":34962
		},
		{
			"buffer":0,
			"byteLength":29472,
			"byteOffset":117888,
			"target":34962
		},
		{
			"buffer":0,
			"byteLength":17664,
			"byteOffset":147360,
			"target":34963
		}
	],
	"buffers":[
		{
			"byteLength":165024,
			"uri":"SM_Env_Tree_Pohutukawa_03.bin"
		}
	]
}
