{
	"asset":{
		"generator":"Khronos glTF Blender I/O v4.5.47",
		"version":"2.0"
	},
	"scene":0,
	"scenes":[
		{
			"name":"Scene",
			"nodes":[
				1
			]
		}
	],
	"nodes":[
		{
			"mesh":0,
			"name":"SM_Env_Bush_Palm_02_LOD0"
		},
		{
			"children":[
				0
			],
			"name":"SM_Env_Bush_Palm_02"
		}
	],
	"meshes":[
		{
			"name":"Mesh",
			"primitives":[
				{
					"attributes":{
						"POSITION":0,
						"NORMAL":1,
						"TEXCOORD_0":2,
						"COLOR_0":3
					},
					"indices":4
				}
			]
		}
	],
	"accessors":[
		{
			"bufferView":0,
			"componentType":5126,
			"count":1295,
			"max":[
				1.9371519088745117,
				3.449486017227173,
				1.9567979574203491
			],
			"min":[
				-1.584511637687683,
				-0.20645061135292053,
				-1.6650439500808716
			],
			"type":"VEC3"
		},
		{
			"bufferView":1,
			"componentType":5126,
			"count":1295,
			"type":"VEC3"
		},
		{
			"bufferView":2,
			"componentType":5126,
			"count":1295,
			"type":"VEC2"
		},
		{
			"bufferView":3,
			"componentType":5123,
			"count":1295,
			"normalized":true,
			"type":"VEC4"
		},
		{
			"bufferView":4,
			"componentType":5123,
			"count":1800,
			"type":"SCALAR"
		}
	],
	"bufferViews":[
		{
			"buffer":0,
			"byteLength":15540,
			"byteOffset":0,
			"target":34962
		},
		{
			"buffer":0,
			"byteLength":15540,
			"byteOffset":15540,
			"target":34962
		},
		{
			"buffer":0,
			"byteLength":10360,
			"byteOffset":31080,
			"target":34962
		},
		{
			"buffer":0,
			"byteLength":10360,
			"byteOffset":41440,
			"target":34962
		},
		{
			"buffer":0,
			"byteLength":3600,
			"byteOffset":51800,
			"target":34963
		}
	],
	"buffers":[
		{
			"byteLength":55400,
			"uri":"SM_Env_Bush_Palm_02.bin"
		}
	]
}
