{
	"asset":{
		"generator":"Khronos glTF Blender I/O v4.5.47",
		"version":"2.0"
	},
	"scene":0,
	"scenes":[
		{
			"name":"Scene",
			"nodes":[
				1
			]
		}
	],
	"nodes":[
		{
			"mesh":0,
			"name":"SM_Env_Monolith_01"
		},
		{
			"children":[
				0
			],
			"name":"SM_Env_Monolith_01"
		}
	],
	"meshes":[
		{
			"name":"Mesh",
			"primitives":[
				{
					"attributes":{
						"POSITION":0,
						"NORMAL":1,
						"TEXCOORD_0":2,
						"TANGENT":3
					},
					"indices":4
				}
			]
		}
	],
	"accessors":[
		{
			"bufferView":0,
			"componentType":5126,
			"count":7946,
			"max":[
				1.898608922958374,
				8.322752952575684,
				1.8982677459716797
			],
			"min":[
				-1.898608922958374,
				6.803362734286722e-11,
				-1.8982677459716797
			],
			"type":"VEC3"
		},
		{
			"bufferView":1,
			"componentType":5126,
			"count":7946,
			"type":"VEC3"
		},
		{
			"bufferView":2,
			"componentType":5126,
			"count":7946,
			"type":"VEC2"
		},
		{
			"bufferView":3,
			"componentType":5126,
			"count":7946,
			"type":"VEC4"
		},
		{
			"bufferView":4,
			"componentType":5123,
			"count":7962,
			"type":"SCALAR"
		}
	],
	"bufferViews":[
		{
			"buffer":0,
			"byteLength":95352,
			"byteOffset":0,
			"target":34962
		},
		{
			"buffer":0,
			"byteLength":95352,
			"byteOffset":95352,
			"target":34962
		},
		{
			"buffer":0,
			"byteLength":63568,
			"byteOffset":190704,
			"target":34962
		},
		{
			"buffer":0,
			"byteLength":127136,
			"byteOffset":254272,
			"target":34962
		},
		{
			"buffer":0,
			"byteLength":15924,
			"byteOffset":381408,
			"target":34963
		}
	],
	"buffers":[
		{
			"byteLength":397332,
			"uri":"SM_Env_Monolith_01.bin"
		}
	]
}
