{
	"asset":{
		"generator":"Khronos glTF Blender I/O v4.5.48",
		"version":"2.0"
	},
	"scene":0,
	"scenes":[
		{
			"name":"Scene",
			"nodes":[
				1
			]
		}
	],
	"nodes":[
		{
			"mesh":0,
			"name":"SM_Env_Tree_Palm_04_LOD0"
		},
		{
			"children":[
				0
			],
			"name":"SM_Env_Tree_Palm_04"
		}
	],
	"meshes":[
		{
			"name":"Mesh",
			"primitives":[
				{
					"attributes":{
						"POSITION":0,
						"NORMAL":1,
						"TEXCOORD_0":2,
						"TANGENT":3,
						"COLOR_0":4
					},
					"indices":5
				}
			]
		}
	],
	"accessors":[
		{
			"bufferView":0,
			"componentType":5126,
			"count":958,
			"max":[
				2.5417661666870117,
				6.284390926361084,
				6.026404857635498
			],
			"min":[
				-2.7756402492523193,
				-0.40849679708480835,
				-0.49910643696784973
			],
			"type":"VEC3"
		},
		{
			"bufferView":1,
			"componentType":5126,
			"count":958,
			"type":"VEC3"
		},
		{
			"bufferView":2,
			"componentType":5126,
			"count":958,
			"type":"VEC2"
		},
		{
			"bufferView":3,
			"componentType":5126,
			"count":958,
			"type":"VEC4"
		},
		{
			"bufferView":4,
			"componentType":5123,
			"count":958,
			"normalized":true,
			"type":"VEC4"
		},
		{
			"bufferView":5,
			"componentType":5123,
			"count":1956,
			"type":"SCALAR"
		}
	],
	"bufferViews":[
		{
			"buffer":0,
			"byteLength":11496,
			"byteOffset":0,
			"target":34962
		},
		{
			"buffer":0,
			"byteLength":11496,
			"byteOffset":11496,
			"target":34962
		},
		{
			"buffer":0,
			"byteLength":7664,
			"byteOffset":22992,
			"target":34962
		},
		{
			"buffer":0,
			"byteLength":15328,
			"byteOffset":30656,
			"target":34962
		},
		{
			"buffer":0,
			"byteLength":7664,
			"byteOffset":45984,
			"target":34962
		},
		{
			"buffer":0,
			"byteLength":3912,
			"byteOffset":53648,
			"target":34963
		}
	],
	"buffers":[
		{
			"byteLength":57560,
			"uri":"SM_Env_Tree_Palm_04.bin"
		}
	]
}
