{
	"asset":{
		"generator":"Khronos glTF Blender I/O v4.5.47",
		"version":"2.0"
	},
	"scene":0,
	"scenes":[
		{
			"name":"Scene",
			"nodes":[
				1
			]
		}
	],
	"nodes":[
		{
			"mesh":0,
			"name":"SM_Env_Rock_Arch_01"
		},
		{
			"children":[
				0
			],
			"name":"SM_Env_Rock_Arch_01"
		}
	],
	"meshes":[
		{
			"name":"Mesh",
			"primitives":[
				{
					"attributes":{
						"POSITION":0,
						"NORMAL":1,
						"TEXCOORD_0":2,
						"TANGENT":3
					},
					"indices":4
				}
			]
		}
	],
	"accessors":[
		{
			"bufferView":0,
			"componentType":5126,
			"count":4580,
			"max":[
				14.39949893951416,
				11.587442398071289,
				6.9162917137146
			],
			"min":[
				-14.402141571044922,
				-1.6358251571655273,
				-7.727169513702393
			],
			"type":"VEC3"
		},
		{
			"bufferView":1,
			"componentType":5126,
			"count":4580,
			"type":"VEC3"
		},
		{
			"bufferView":2,
			"componentType":5126,
			"count":4580,
			"type":"VEC2"
		},
		{
			"bufferView":3,
			"componentType":5126,
			"count":4580,
			"type":"VEC4"
		},
		{
			"bufferView":4,
			"componentType":5123,
			"count":4608,
			"type":"SCALAR"
		}
	],
	"bufferViews":[
		{
			"buffer":0,
			"byteLength":54960,
			"byteOffset":0,
			"target":34962
		},
		{
			"buffer":0,
			"byteLength":54960,
			"byteOffset":54960,
			"target":34962
		},
		{
			"buffer":0,
			"byteLength":36640,
			"byteOffset":109920,
			"target":34962
		},
		{
			"buffer":0,
			"byteLength":73280,
			"byteOffset":146560,
			"target":34962
		},
		{
			"buffer":0,
			"byteLength":9216,
			"byteOffset":219840,
			"target":34963
		}
	],
	"buffers":[
		{
			"byteLength":229056,
			"uri":"SM_Env_Rock_Arch_01.bin"
		}
	]
}
