{
	"asset":{
		"generator":"Khronos glTF Blender I/O v4.5.47",
		"version":"2.0"
	},
	"scene":0,
	"scenes":[
		{
			"name":"Scene",
			"nodes":[
				1
			]
		}
	],
	"nodes":[
		{
			"mesh":0,
			"name":"SM_Env_Fern_Part_03_LOD0"
		},
		{
			"children":[
				0
			],
			"name":"SM_Env_Fern_Part_03"
		}
	],
	"meshes":[
		{
			"name":"Mesh",
			"primitives":[
				{
					"attributes":{
						"POSITION":0,
						"NORMAL":1,
						"TEXCOORD_0":2,
						"TANGENT":3,
						"COLOR_0":4
					},
					"indices":5
				}
			]
		}
	],
	"accessors":[
		{
			"bufferView":0,
			"componentType":5126,
			"count":162,
			"max":[
				1.0387976169586182,
				1.17574942111969,
				1.5107688903808594
			],
			"min":[
				-1.0913453102111816,
				-0.20409522950649261,
				-0.4530758261680603
			],
			"type":"VEC3"
		},
		{
			"bufferView":1,
			"componentType":5126,
			"count":162,
			"type":"VEC3"
		},
		{
			"bufferView":2,
			"componentType":5126,
			"count":162,
			"type":"VEC2"
		},
		{
			"bufferView":3,
			"componentType":5126,
			"count":162,
			"type":"VEC4"
		},
		{
			"bufferView":4,
			"componentType":5123,
			"count":162,
			"normalized":true,
			"type":"VEC4"
		},
		{
			"bufferView":5,
			"componentType":5123,
			"count":234,
			"type":"SCALAR"
		}
	],
	"bufferViews":[
		{
			"buffer":0,
			"byteLength":1944,
			"byteOffset":0,
			"target":34962
		},
		{
			"buffer":0,
			"byteLength":1944,
			"byteOffset":1944,
			"target":34962
		},
		{
			"buffer":0,
			"byteLength":1296,
			"byteOffset":3888,
			"target":34962
		},
		{
			"buffer":0,
			"byteLength":2592,
			"byteOffset":5184,
			"target":34962
		},
		{
			"buffer":0,
			"byteLength":1296,
			"byteOffset":7776,
			"target":34962
		},
		{
			"buffer":0,
			"byteLength":468,
			"byteOffset":9072,
			"target":34963
		}
	],
	"buffers":[
		{
			"byteLength":9540,
			"uri":"SM_Env_Fern_Part_03.bin"
		}
	]
}
