{
	"asset":{
		"generator":"Khronos glTF Blender I/O v4.5.47",
		"version":"2.0"
	},
	"scene":0,
	"scenes":[
		{
			"name":"Scene",
			"nodes":[
				1
			]
		}
	],
	"nodes":[
		{
			"mesh":0,
			"name":"SM_Env_Tubes_01_LOD0"
		},
		{
			"children":[
				0
			],
			"name":"SM_Env_Tubes_01"
		}
	],
	"meshes":[
		{
			"name":"Mesh",
			"primitives":[
				{
					"attributes":{
						"POSITION":0,
						"NORMAL":1,
						"TEXCOORD_0":2,
						"TANGENT":3,
						"COLOR_0":4
					},
					"indices":5
				}
			]
		}
	],
	"accessors":[
		{
			"bufferView":0,
			"componentType":5126,
			"count":659,
			"max":[
				0.7391588687896729,
				1.2591478824615479,
				0.5646241307258606
			],
			"min":[
				-0.7755465507507324,
				-0.07628695666790009,
				-0.6331681609153748
			],
			"type":"VEC3"
		},
		{
			"bufferView":1,
			"componentType":5126,
			"count":659,
			"type":"VEC3"
		},
		{
			"bufferView":2,
			"componentType":5126,
			"count":659,
			"type":"VEC2"
		},
		{
			"bufferView":3,
			"componentType":5126,
			"count":659,
			"type":"VEC4"
		},
		{
			"bufferView":4,
			"componentType":5123,
			"count":659,
			"normalized":true,
			"type":"VEC4"
		},
		{
			"bufferView":5,
			"componentType":5123,
			"count":1344,
			"type":"SCALAR"
		}
	],
	"bufferViews":[
		{
			"buffer":0,
			"byteLength":7908,
			"byteOffset":0,
			"target":34962
		},
		{
			"buffer":0,
			"byteLength":7908,
			"byteOffset":7908,
			"target":34962
		},
		{
			"buffer":0,
			"byteLength":5272,
			"byteOffset":15816,
			"target":34962
		},
		{
			"buffer":0,
			"byteLength":10544,
			"byteOffset":21088,
			"target":34962
		},
		{
			"buffer":0,
			"byteLength":5272,
			"byteOffset":31632,
			"target":34962
		},
		{
			"buffer":0,
			"byteLength":2688,
			"byteOffset":36904,
			"target":34963
		}
	],
	"buffers":[
		{
			"byteLength":39592,
			"uri":"SM_Env_Tubes_01.bin"
		}
	]
}
