{
	"asset":{
		"generator":"Khronos glTF Blender I/O v4.5.47",
		"version":"2.0"
	},
	"scene":0,
	"scenes":[
		{
			"name":"Scene",
			"nodes":[
				1
			]
		}
	],
	"nodes":[
		{
			"mesh":0,
			"name":"SM_Env_Dock_01"
		},
		{
			"children":[
				0
			],
			"name":"SM_Env_Dock_01"
		}
	],
	"meshes":[
		{
			"name":"Mesh",
			"primitives":[
				{
					"attributes":{
						"POSITION":0,
						"NORMAL":1,
						"TEXCOORD_0":2,
						"TEXCOORD_1":3
					},
					"indices":4
				}
			]
		}
	],
	"accessors":[
		{
			"bufferView":0,
			"componentType":5126,
			"count":914,
			"max":[
				1.8626147508621216,
				3.8289780616760254,
				1.735419750213623
			],
			"min":[
				-1.9567980766296387,
				-3.8446364402770996,
				-1.8246877193450928
			],
			"type":"VEC3"
		},
		{
			"bufferView":1,
			"componentType":5126,
			"count":914,
			"type":"VEC3"
		},
		{
			"bufferView":2,
			"componentType":5126,
			"count":914,
			"type":"VEC2"
		},
		{
			"bufferView":3,
			"componentType":5126,
			"count":914,
			"type":"VEC2"
		},
		{
			"bufferView":4,
			"componentType":5123,
			"count":1536,
			"type":"SCALAR"
		}
	],
	"bufferViews":[
		{
			"buffer":0,
			"byteLength":10968,
			"byteOffset":0,
			"target":34962
		},
		{
			"buffer":0,
			"byteLength":10968,
			"byteOffset":10968,
			"target":34962
		},
		{
			"buffer":0,
			"byteLength":7312,
			"byteOffset":21936,
			"target":34962
		},
		{
			"buffer":0,
			"byteLength":7312,
			"byteOffset":29248,
			"target":34962
		},
		{
			"buffer":0,
			"byteLength":3072,
			"byteOffset":36560,
			"target":34963
		}
	],
	"buffers":[
		{
			"byteLength":39632,
			"uri":"SM_Env_Dock_01.bin"
		}
	]
}
