{
	"asset":{
		"generator":"Khronos glTF Blender I/O v4.5.47",
		"version":"2.0"
	},
	"scene":0,
	"scenes":[
		{
			"name":"Scene",
			"nodes":[
				1
			]
		}
	],
	"nodes":[
		{
			"mesh":0,
			"name":"SM_Env_Rock_Spikes_02"
		},
		{
			"children":[
				0
			],
			"name":"SM_Env_Rock_Spikes_02"
		}
	],
	"meshes":[
		{
			"name":"Mesh",
			"primitives":[
				{
					"attributes":{
						"POSITION":0,
						"NORMAL":1,
						"TEXCOORD_0":2,
						"TANGENT":3
					},
					"indices":4
				}
			]
		}
	],
	"accessors":[
		{
			"bufferView":0,
			"componentType":5126,
			"count":5735,
			"max":[
				8.033793449401855,
				13.2180757522583,
				5.626132488250732
			],
			"min":[
				-8.127978324890137,
				-1.4627900123596191,
				-5.715400695800781
			],
			"type":"VEC3"
		},
		{
			"bufferView":1,
			"componentType":5126,
			"count":5735,
			"type":"VEC3"
		},
		{
			"bufferView":2,
			"componentType":5126,
			"count":5735,
			"type":"VEC2"
		},
		{
			"bufferView":3,
			"componentType":5126,
			"count":5735,
			"type":"VEC4"
		},
		{
			"bufferView":4,
			"componentType":5123,
			"count":5760,
			"type":"SCALAR"
		}
	],
	"bufferViews":[
		{
			"buffer":0,
			"byteLength":68820,
			"byteOffset":0,
			"target":34962
		},
		{
			"buffer":0,
			"byteLength":68820,
			"byteOffset":68820,
			"target":34962
		},
		{
			"buffer":0,
			"byteLength":45880,
			"byteOffset":137640,
			"target":34962
		},
		{
			"buffer":0,
			"byteLength":91760,
			"byteOffset":183520,
			"target":34962
		},
		{
			"buffer":0,
			"byteLength":11520,
			"byteOffset":275280,
			"target":34963
		}
	],
	"buffers":[
		{
			"byteLength":286800,
			"uri":"SM_Env_Rock_Spikes_02.bin"
		}
	]
}
