{
	"asset":{
		"generator":"Khronos glTF Blender I/O v4.5.48",
		"version":"2.0"
	},
	"scene":0,
	"scenes":[
		{
			"name":"Scene",
			"nodes":[
				1
			]
		}
	],
	"nodes":[
		{
			"mesh":0,
			"name":"SM_Env_Bush_Palm_01_LOD0"
		},
		{
			"children":[
				0
			],
			"name":"SM_Env_Bush_Palm_01"
		}
	],
	"meshes":[
		{
			"name":"Mesh",
			"primitives":[
				{
					"attributes":{
						"POSITION":0,
						"NORMAL":1,
						"TEXCOORD_0":2,
						"COLOR_0":3
					},
					"indices":4
				}
			]
		}
	],
	"accessors":[
		{
			"bufferView":0,
			"componentType":5126,
			"count":1283,
			"max":[
				1.3279168605804443,
				3.8324084281921387,
				1.3413844108581543
			],
			"min":[
				-1.0861822366714478,
				-0.1503165066242218,
				-1.124809980392456
			],
			"type":"VEC3"
		},
		{
			"bufferView":1,
			"componentType":5126,
			"count":1283,
			"type":"VEC3"
		},
		{
			"bufferView":2,
			"componentType":5126,
			"count":1283,
			"type":"VEC2"
		},
		{
			"bufferView":3,
			"componentType":5123,
			"count":1283,
			"normalized":true,
			"type":"VEC4"
		},
		{
			"bufferView":4,
			"componentType":5123,
			"count":1878,
			"type":"SCALAR"
		}
	],
	"bufferViews":[
		{
			"buffer":0,
			"byteLength":15396,
			"byteOffset":0,
			"target":34962
		},
		{
			"buffer":0,
			"byteLength":15396,
			"byteOffset":15396,
			"target":34962
		},
		{
			"buffer":0,
			"byteLength":10264,
			"byteOffset":30792,
			"target":34962
		},
		{
			"buffer":0,
			"byteLength":10264,
			"byteOffset":41056,
			"target":34962
		},
		{
			"buffer":0,
			"byteLength":3756,
			"byteOffset":51320,
			"target":34963
		}
	],
	"buffers":[
		{
			"byteLength":55076,
			"uri":"SM_Env_Bush_Palm_01.bin"
		}
	]
}
