{
	"asset":{
		"generator":"Khronos glTF Blender I/O v4.5.48",
		"version":"2.0"
	},
	"scene":0,
	"scenes":[
		{
			"name":"Scene",
			"nodes":[
				1
			]
		}
	],
	"nodes":[
		{
			"mesh":0,
			"name":"SM_Env_Tree_Palm_01_Coconuts_01"
		},
		{
			"children":[
				0
			],
			"name":"SM_Env_Tree_Palm_01_Coconuts_01"
		}
	],
	"meshes":[
		{
			"name":"Mesh",
			"primitives":[
				{
					"attributes":{
						"POSITION":0,
						"NORMAL":1,
						"TEXCOORD_0":2,
						"TANGENT":3,
						"COLOR_0":4
					},
					"indices":5
				}
			]
		}
	],
	"accessors":[
		{
			"bufferView":0,
			"componentType":5126,
			"count":603,
			"max":[
				0.4390000104904175,
				0.27518606185913086,
				0.4155385494232178
			],
			"min":[
				-0.42503851652145386,
				-0.4000835418701172,
				-0.40176111459732056
			],
			"type":"VEC3"
		},
		{
			"bufferView":1,
			"componentType":5126,
			"count":603,
			"type":"VEC3"
		},
		{
			"bufferView":2,
			"componentType":5126,
			"count":603,
			"type":"VEC2"
		},
		{
			"bufferView":3,
			"componentType":5126,
			"count":603,
			"type":"VEC4"
		},
		{
			"bufferView":4,
			"componentType":5123,
			"count":603,
			"normalized":true,
			"type":"VEC4"
		},
		{
			"bufferView":5,
			"componentType":5123,
			"count":2052,
			"type":"SCALAR"
		}
	],
	"bufferViews":[
		{
			"buffer":0,
			"byteLength":7236,
			"byteOffset":0,
			"target":34962
		},
		{
			"buffer":0,
			"byteLength":7236,
			"byteOffset":7236,
			"target":34962
		},
		{
			"buffer":0,
			"byteLength":4824,
			"byteOffset":14472,
			"target":34962
		},
		{
			"buffer":0,
			"byteLength":9648,
			"byteOffset":19296,
			"target":34962
		},
		{
			"buffer":0,
			"byteLength":4824,
			"byteOffset":28944,
			"target":34962
		},
		{
			"buffer":0,
			"byteLength":4104,
			"byteOffset":33768,
			"target":34963
		}
	],
	"buffers":[
		{
			"byteLength":37872,
			"uri":"SM_Env_Tree_Palm_01_Coconuts_01.bin"
		}
	]
}
