{
	"asset":{
		"generator":"Khronos glTF Blender I/O v4.5.48",
		"version":"2.0"
	},
	"scene":0,
	"scenes":[
		{
			"name":"Scene",
			"nodes":[
				1
			]
		}
	],
	"nodes":[
		{
			"mesh":0,
			"name":"SM_Env_Monolith_02"
		},
		{
			"children":[
				0
			],
			"name":"SM_Env_Monolith_02"
		}
	],
	"meshes":[
		{
			"name":"Mesh",
			"primitives":[
				{
					"attributes":{
						"POSITION":0,
						"NORMAL":1,
						"TEXCOORD_0":2,
						"TANGENT":3
					},
					"indices":4
				}
			]
		}
	],
	"accessors":[
		{
			"bufferView":0,
			"componentType":5126,
			"count":4340,
			"max":[
				6.144106864929199,
				20.954111099243164,
				1.5724455118179321
			],
			"min":[
				-6.144106864929199,
				-2.1054249543794867e-07,
				-1.5724459886550903
			],
			"type":"VEC3"
		},
		{
			"bufferView":1,
			"componentType":5126,
			"count":4340,
			"type":"VEC3"
		},
		{
			"bufferView":2,
			"componentType":5126,
			"count":4340,
			"type":"VEC2"
		},
		{
			"bufferView":3,
			"componentType":5126,
			"count":4340,
			"type":"VEC4"
		},
		{
			"bufferView":4,
			"componentType":5123,
			"count":4530,
			"type":"SCALAR"
		}
	],
	"bufferViews":[
		{
			"buffer":0,
			"byteLength":52080,
			"byteOffset":0,
			"target":34962
		},
		{
			"buffer":0,
			"byteLength":52080,
			"byteOffset":52080,
			"target":34962
		},
		{
			"buffer":0,
			"byteLength":34720,
			"byteOffset":104160,
			"target":34962
		},
		{
			"buffer":0,
			"byteLength":69440,
			"byteOffset":138880,
			"target":34962
		},
		{
			"buffer":0,
			"byteLength":9060,
			"byteOffset":208320,
			"target":34963
		}
	],
	"buffers":[
		{
			"byteLength":217380,
			"uri":"SM_Env_Monolith_02.bin"
		}
	]
}
