{
	"asset":{
		"generator":"Khronos glTF Blender I/O v4.5.48",
		"version":"2.0"
	},
	"scene":0,
	"scenes":[
		{
			"name":"Scene",
			"nodes":[
				1
			]
		}
	],
	"nodes":[
		{
			"mesh":0,
			"name":"SM_Env_DriftWood_05"
		},
		{
			"children":[
				0
			],
			"name":"SM_Env_DriftWood_05"
		}
	],
	"meshes":[
		{
			"name":"Mesh",
			"primitives":[
				{
					"attributes":{
						"POSITION":0,
						"NORMAL":1,
						"TEXCOORD_0":2,
						"TANGENT":3,
						"COLOR_0":4
					},
					"indices":5
				}
			]
		}
	],
	"accessors":[
		{
			"bufferView":0,
			"componentType":5126,
			"count":742,
			"max":[
				1.8978021144866943,
				1.3386428356170654,
				0.9924510717391968
			],
			"min":[
				-1.9428356885910034,
				-0.8908984065055847,
				-1.0817186832427979
			],
			"type":"VEC3"
		},
		{
			"bufferView":1,
			"componentType":5126,
			"count":742,
			"type":"VEC3"
		},
		{
			"bufferView":2,
			"componentType":5126,
			"count":742,
			"type":"VEC2"
		},
		{
			"bufferView":3,
			"componentType":5126,
			"count":742,
			"type":"VEC4"
		},
		{
			"bufferView":4,
			"componentType":5123,
			"count":742,
			"normalized":true,
			"type":"VEC4"
		},
		{
			"bufferView":5,
			"componentType":5123,
			"count":1002,
			"type":"SCALAR"
		}
	],
	"bufferViews":[
		{
			"buffer":0,
			"byteLength":8904,
			"byteOffset":0,
			"target":34962
		},
		{
			"buffer":0,
			"byteLength":8904,
			"byteOffset":8904,
			"target":34962
		},
		{
			"buffer":0,
			"byteLength":5936,
			"byteOffset":17808,
			"target":34962
		},
		{
			"buffer":0,
			"byteLength":11872,
			"byteOffset":23744,
			"target":34962
		},
		{
			"buffer":0,
			"byteLength":5936,
			"byteOffset":35616,
			"target":34962
		},
		{
			"buffer":0,
			"byteLength":2004,
			"byteOffset":41552,
			"target":34963
		}
	],
	"buffers":[
		{
			"byteLength":43556,
			"uri":"SM_Env_DriftWood_05.bin"
		}
	]
}
