{
	"asset":{
		"generator":"Khronos glTF Blender I/O v4.5.48",
		"version":"2.0"
	},
	"scene":0,
	"scenes":[
		{
			"name":"Scene",
			"nodes":[
				1
			]
		}
	],
	"nodes":[
		{
			"mesh":0,
			"name":"SM_Env_Flowers_01_LOD0"
		},
		{
			"children":[
				0
			],
			"name":"SM_Env_Flowers_01"
		}
	],
	"meshes":[
		{
			"name":"Mesh",
			"primitives":[
				{
					"attributes":{
						"POSITION":0,
						"NORMAL":1,
						"TEXCOORD_0":2,
						"TANGENT":3,
						"COLOR_0":4
					},
					"indices":5
				}
			]
		}
	],
	"accessors":[
		{
			"bufferView":0,
			"componentType":5126,
			"count":679,
			"max":[
				0.3017518222332001,
				0.7303169369697571,
				0.35752272605895996
			],
			"min":[
				-0.2542003393173218,
				-0.15246881544589996,
				-0.20006616413593292
			],
			"type":"VEC3"
		},
		{
			"bufferView":1,
			"componentType":5126,
			"count":679,
			"type":"VEC3"
		},
		{
			"bufferView":2,
			"componentType":5126,
			"count":679,
			"type":"VEC2"
		},
		{
			"bufferView":3,
			"componentType":5126,
			"count":679,
			"type":"VEC4"
		},
		{
			"bufferView":4,
			"componentType":5123,
			"count":679,
			"normalized":true,
			"type":"VEC4"
		},
		{
			"bufferView":5,
			"componentType":5123,
			"count":1290,
			"type":"SCALAR"
		}
	],
	"bufferViews":[
		{
			"buffer":0,
			"byteLength":8148,
			"byteOffset":0,
			"target":34962
		},
		{
			"buffer":0,
			"byteLength":8148,
			"byteOffset":8148,
			"target":34962
		},
		{
			"buffer":0,
			"byteLength":5432,
			"byteOffset":16296,
			"target":34962
		},
		{
			"buffer":0,
			"byteLength":10864,
			"byteOffset":21728,
			"target":34962
		},
		{
			"buffer":0,
			"byteLength":5432,
			"byteOffset":32592,
			"target":34962
		},
		{
			"buffer":0,
			"byteLength":2580,
			"byteOffset":38024,
			"target":34963
		}
	],
	"buffers":[
		{
			"byteLength":40604,
			"uri":"SM_Env_Flowers_01.bin"
		}
	]
}
