{
	"asset":{
		"generator":"Khronos glTF Blender I/O v4.5.47",
		"version":"2.0"
	},
	"scene":0,
	"scenes":[
		{
			"name":"Scene",
			"nodes":[
				1
			]
		}
	],
	"nodes":[
		{
			"mesh":0,
			"name":"SM_Env_Vines_05"
		},
		{
			"children":[
				0
			],
			"name":"SM_Env_Vines_05"
		}
	],
	"meshes":[
		{
			"name":"Mesh",
			"primitives":[
				{
					"attributes":{
						"POSITION":0,
						"NORMAL":1,
						"TEXCOORD_0":2,
						"TANGENT":3,
						"COLOR_0":4
					},
					"indices":5
				}
			]
		}
	],
	"accessors":[
		{
			"bufferView":0,
			"componentType":5126,
			"count":974,
			"max":[
				0.12849517166614532,
				0.0656193196773529,
				4.906802177429199
			],
			"min":[
				-0.1261521726846695,
				-1.151808500289917,
				-0.035177648067474365
			],
			"type":"VEC3"
		},
		{
			"bufferView":1,
			"componentType":5126,
			"count":974,
			"type":"VEC3"
		},
		{
			"bufferView":2,
			"componentType":5126,
			"count":974,
			"type":"VEC2"
		},
		{
			"bufferView":3,
			"componentType":5126,
			"count":974,
			"type":"VEC4"
		},
		{
			"bufferView":4,
			"componentType":5123,
			"count":974,
			"normalized":true,
			"type":"VEC4"
		},
		{
			"bufferView":5,
			"componentType":5123,
			"count":1422,
			"type":"SCALAR"
		}
	],
	"bufferViews":[
		{
			"buffer":0,
			"byteLength":11688,
			"byteOffset":0,
			"target":34962
		},
		{
			"buffer":0,
			"byteLength":11688,
			"byteOffset":11688,
			"target":34962
		},
		{
			"buffer":0,
			"byteLength":7792,
			"byteOffset":23376,
			"target":34962
		},
		{
			"buffer":0,
			"byteLength":15584,
			"byteOffset":31168,
			"target":34962
		},
		{
			"buffer":0,
			"byteLength":7792,
			"byteOffset":46752,
			"target":34962
		},
		{
			"buffer":0,
			"byteLength":2844,
			"byteOffset":54544,
			"target":34963
		}
	],
	"buffers":[
		{
			"byteLength":57388,
			"uri":"SM_Env_Vines_05.bin"
		}
	]
}
