{
	"asset":{
		"generator":"Khronos glTF Blender I/O v4.5.47",
		"version":"2.0"
	},
	"scene":0,
	"scenes":[
		{
			"name":"Scene",
			"nodes":[
				1
			]
		}
	],
	"nodes":[
		{
			"mesh":0,
			"name":"SM_Env_Rock_Spikes_01"
		},
		{
			"children":[
				0
			],
			"name":"SM_Env_Rock_Spikes_01"
		}
	],
	"meshes":[
		{
			"name":"Mesh",
			"primitives":[
				{
					"attributes":{
						"POSITION":0,
						"NORMAL":1,
						"TEXCOORD_0":2,
						"TANGENT":3
					},
					"indices":4
				}
			]
		}
	],
	"accessors":[
		{
			"bufferView":0,
			"componentType":5126,
			"count":4014,
			"max":[
				4.73391580581665,
				6.5385308265686035,
				4.040053844451904
			],
			"min":[
				-4.828100681304932,
				-1.524977445602417,
				-4.129325866699219
			],
			"type":"VEC3"
		},
		{
			"bufferView":1,
			"componentType":5126,
			"count":4014,
			"type":"VEC3"
		},
		{
			"bufferView":2,
			"componentType":5126,
			"count":4014,
			"type":"VEC2"
		},
		{
			"bufferView":3,
			"componentType":5126,
			"count":4014,
			"type":"VEC4"
		},
		{
			"bufferView":4,
			"componentType":5123,
			"count":4032,
			"type":"SCALAR"
		}
	],
	"bufferViews":[
		{
			"buffer":0,
			"byteLength":48168,
			"byteOffset":0,
			"target":34962
		},
		{
			"buffer":0,
			"byteLength":48168,
			"byteOffset":48168,
			"target":34962
		},
		{
			"buffer":0,
			"byteLength":32112,
			"byteOffset":96336,
			"target":34962
		},
		{
			"buffer":0,
			"byteLength":64224,
			"byteOffset":128448,
			"target":34962
		},
		{
			"buffer":0,
			"byteLength":8064,
			"byteOffset":192672,
			"target":34963
		}
	],
	"buffers":[
		{
			"byteLength":200736,
			"uri":"SM_Env_Rock_Spikes_01.bin"
		}
	]
}
