{
	"asset":{
		"generator":"Khronos glTF Blender I/O v4.5.48",
		"version":"2.0"
	},
	"scene":0,
	"scenes":[
		{
			"name":"Scene",
			"nodes":[
				1
			]
		}
	],
	"nodes":[
		{
			"mesh":0,
			"name":"SM_Env_Vines_03"
		},
		{
			"children":[
				0
			],
			"name":"SM_Env_Vines_03"
		}
	],
	"meshes":[
		{
			"name":"Mesh",
			"primitives":[
				{
					"attributes":{
						"POSITION":0,
						"NORMAL":1,
						"TEXCOORD_0":2,
						"TANGENT":3,
						"COLOR_0":4
					},
					"indices":5
				}
			]
		}
	],
	"accessors":[
		{
			"bufferView":0,
			"componentType":5126,
			"count":1320,
			"max":[
				0.26362186670303345,
				0.09459144622087479,
				0.21208351850509644
			],
			"min":[
				-0.20018230378627777,
				-6.4504218101501465,
				-0.24492016434669495
			],
			"type":"VEC3"
		},
		{
			"bufferView":1,
			"componentType":5126,
			"count":1320,
			"type":"VEC3"
		},
		{
			"bufferView":2,
			"componentType":5126,
			"count":1320,
			"type":"VEC2"
		},
		{
			"bufferView":3,
			"componentType":5126,
			"count":1320,
			"type":"VEC4"
		},
		{
			"bufferView":4,
			"componentType":5123,
			"count":1320,
			"normalized":true,
			"type":"VEC4"
		},
		{
			"bufferView":5,
			"componentType":5123,
			"count":1920,
			"type":"SCALAR"
		}
	],
	"bufferViews":[
		{
			"buffer":0,
			"byteLength":15840,
			"byteOffset":0,
			"target":34962
		},
		{
			"buffer":0,
			"byteLength":15840,
			"byteOffset":15840,
			"target":34962
		},
		{
			"buffer":0,
			"byteLength":10560,
			"byteOffset":31680,
			"target":34962
		},
		{
			"buffer":0,
			"byteLength":21120,
			"byteOffset":42240,
			"target":34962
		},
		{
			"buffer":0,
			"byteLength":10560,
			"byteOffset":63360,
			"target":34962
		},
		{
			"buffer":0,
			"byteLength":3840,
			"byteOffset":73920,
			"target":34963
		}
	],
	"buffers":[
		{
			"byteLength":77760,
			"uri":"SM_Env_Vines_03.bin"
		}
	]
}
