{
	"asset":{
		"generator":"Khronos glTF Blender I/O v4.5.47",
		"version":"2.0"
	},
	"scene":0,
	"scenes":[
		{
			"name":"Scene",
			"nodes":[
				1
			]
		}
	],
	"nodes":[
		{
			"mesh":0,
			"name":"SM_Env_Flower_Pitcher_02_LOD0"
		},
		{
			"children":[
				0
			],
			"name":"SM_Env_Flower_Pitcher_02"
		}
	],
	"meshes":[
		{
			"name":"Mesh",
			"primitives":[
				{
					"attributes":{
						"POSITION":0,
						"NORMAL":1,
						"TEXCOORD_0":2,
						"TANGENT":3,
						"COLOR_0":4
					},
					"indices":5
				}
			]
		}
	],
	"accessors":[
		{
			"bufferView":0,
			"componentType":5126,
			"count":1673,
			"max":[
				0.8954536318778992,
				0.41939777135849,
				0.9749684929847717
			],
			"min":[
				-0.8948915600776672,
				-1.1355948448181152,
				-0.5338835120201111
			],
			"type":"VEC3"
		},
		{
			"bufferView":1,
			"componentType":5126,
			"count":1673,
			"type":"VEC3"
		},
		{
			"bufferView":2,
			"componentType":5126,
			"count":1673,
			"type":"VEC2"
		},
		{
			"bufferView":3,
			"componentType":5126,
			"count":1673,
			"type":"VEC4"
		},
		{
			"bufferView":4,
			"componentType":5123,
			"count":1673,
			"normalized":true,
			"type":"VEC4"
		},
		{
			"bufferView":5,
			"componentType":5123,
			"count":2484,
			"type":"SCALAR"
		}
	],
	"bufferViews":[
		{
			"buffer":0,
			"byteLength":20076,
			"byteOffset":0,
			"target":34962
		},
		{
			"buffer":0,
			"byteLength":20076,
			"byteOffset":20076,
			"target":34962
		},
		{
			"buffer":0,
			"byteLength":13384,
			"byteOffset":40152,
			"target":34962
		},
		{
			"buffer":0,
			"byteLength":26768,
			"byteOffset":53536,
			"target":34962
		},
		{
			"buffer":0,
			"byteLength":13384,
			"byteOffset":80304,
			"target":34962
		},
		{
			"buffer":0,
			"byteLength":4968,
			"byteOffset":93688,
			"target":34963
		}
	],
	"buffers":[
		{
			"byteLength":98656,
			"uri":"SM_Env_Flower_Pitcher_02.bin"
		}
	]
}
