{
	"asset":{
		"generator":"Khronos glTF Blender I/O v4.5.48",
		"version":"2.0"
	},
	"scene":0,
	"scenes":[
		{
			"name":"Scene",
			"nodes":[
				1
			]
		}
	],
	"nodes":[
		{
			"mesh":0,
			"name":"SM_Env_Flowers_02_LOD0"
		},
		{
			"children":[
				0
			],
			"name":"SM_Env_Flowers_02"
		}
	],
	"meshes":[
		{
			"name":"Mesh",
			"primitives":[
				{
					"attributes":{
						"POSITION":0,
						"NORMAL":1,
						"TEXCOORD_0":2,
						"TANGENT":3,
						"COLOR_0":4
					},
					"indices":5
				}
			]
		}
	],
	"accessors":[
		{
			"bufferView":0,
			"componentType":5126,
			"count":707,
			"max":[
				0.4282706379890442,
				1.0683220624923706,
				0.4128998816013336
			],
			"min":[
				-0.2847975492477417,
				-0.08190793544054031,
				-0.33539414405822754
			],
			"type":"VEC3"
		},
		{
			"bufferView":1,
			"componentType":5126,
			"count":707,
			"type":"VEC3"
		},
		{
			"bufferView":2,
			"componentType":5126,
			"count":707,
			"type":"VEC2"
		},
		{
			"bufferView":3,
			"componentType":5126,
			"count":707,
			"type":"VEC4"
		},
		{
			"bufferView":4,
			"componentType":5123,
			"count":707,
			"normalized":true,
			"type":"VEC4"
		},
		{
			"bufferView":5,
			"componentType":5123,
			"count":1410,
			"type":"SCALAR"
		}
	],
	"bufferViews":[
		{
			"buffer":0,
			"byteLength":8484,
			"byteOffset":0,
			"target":34962
		},
		{
			"buffer":0,
			"byteLength":8484,
			"byteOffset":8484,
			"target":34962
		},
		{
			"buffer":0,
			"byteLength":5656,
			"byteOffset":16968,
			"target":34962
		},
		{
			"buffer":0,
			"byteLength":11312,
			"byteOffset":22624,
			"target":34962
		},
		{
			"buffer":0,
			"byteLength":5656,
			"byteOffset":33936,
			"target":34962
		},
		{
			"buffer":0,
			"byteLength":2820,
			"byteOffset":39592,
			"target":34963
		}
	],
	"buffers":[
		{
			"byteLength":42412,
			"uri":"SM_Env_Flowers_02.bin"
		}
	]
}
