{
	"asset":{
		"generator":"Khronos glTF Blender I/O v4.5.48",
		"version":"2.0"
	},
	"scene":0,
	"scenes":[
		{
			"name":"Scene",
			"nodes":[
				1
			]
		}
	],
	"nodes":[
		{
			"mesh":0,
			"name":"SM_Env_Rock_Ramp_03"
		},
		{
			"children":[
				0
			],
			"name":"SM_Env_Rock_Ramp_03"
		}
	],
	"meshes":[
		{
			"name":"Mesh",
			"primitives":[
				{
					"attributes":{
						"POSITION":0,
						"NORMAL":1,
						"TEXCOORD_0":2,
						"TANGENT":3
					},
					"indices":4
				}
			]
		}
	],
	"accessors":[
		{
			"bufferView":0,
			"componentType":5126,
			"count":3418,
			"max":[
				9.792187690734863,
				9.74527645111084,
				5.303930759429932
			],
			"min":[
				-9.886366844177246,
				-2.85683274269104,
				-5.393198013305664
			],
			"type":"VEC3"
		},
		{
			"bufferView":1,
			"componentType":5126,
			"count":3418,
			"type":"VEC3"
		},
		{
			"bufferView":2,
			"componentType":5126,
			"count":3418,
			"type":"VEC2"
		},
		{
			"bufferView":3,
			"componentType":5126,
			"count":3418,
			"type":"VEC4"
		},
		{
			"bufferView":4,
			"componentType":5123,
			"count":3432,
			"type":"SCALAR"
		}
	],
	"bufferViews":[
		{
			"buffer":0,
			"byteLength":41016,
			"byteOffset":0,
			"target":34962
		},
		{
			"buffer":0,
			"byteLength":41016,
			"byteOffset":41016,
			"target":34962
		},
		{
			"buffer":0,
			"byteLength":27344,
			"byteOffset":82032,
			"target":34962
		},
		{
			"buffer":0,
			"byteLength":54688,
			"byteOffset":109376,
			"target":34962
		},
		{
			"buffer":0,
			"byteLength":6864,
			"byteOffset":164064,
			"target":34963
		}
	],
	"buffers":[
		{
			"byteLength":170928,
			"uri":"SM_Env_Rock_Ramp_03.bin"
		}
	]
}
