{
	"asset":{
		"generator":"Khronos glTF Blender I/O v4.5.47",
		"version":"2.0"
	},
	"scene":0,
	"scenes":[
		{
			"name":"Scene",
			"nodes":[
				1
			]
		}
	],
	"nodes":[
		{
			"mesh":0,
			"name":"SM_Env_Rock_Flat_02"
		},
		{
			"children":[
				0
			],
			"name":"SM_Env_Rock_Flat_02"
		}
	],
	"meshes":[
		{
			"name":"Mesh",
			"primitives":[
				{
					"attributes":{
						"POSITION":0,
						"NORMAL":1,
						"TEXCOORD_0":2,
						"TANGENT":3
					},
					"indices":4
				}
			]
		}
	],
	"accessors":[
		{
			"bufferView":0,
			"componentType":5126,
			"count":1666,
			"max":[
				1.3546435832977295,
				4.631831169128418,
				1.009831428527832
			],
			"min":[
				-1.448828101158142,
				-0.2560652494430542,
				-1.2309547662734985
			],
			"type":"VEC3"
		},
		{
			"bufferView":1,
			"componentType":5126,
			"count":1666,
			"type":"VEC3"
		},
		{
			"bufferView":2,
			"componentType":5126,
			"count":1666,
			"type":"VEC2"
		},
		{
			"bufferView":3,
			"componentType":5126,
			"count":1666,
			"type":"VEC4"
		},
		{
			"bufferView":4,
			"componentType":5123,
			"count":1668,
			"type":"SCALAR"
		}
	],
	"bufferViews":[
		{
			"buffer":0,
			"byteLength":19992,
			"byteOffset":0,
			"target":34962
		},
		{
			"buffer":0,
			"byteLength":19992,
			"byteOffset":19992,
			"target":34962
		},
		{
			"buffer":0,
			"byteLength":13328,
			"byteOffset":39984,
			"target":34962
		},
		{
			"buffer":0,
			"byteLength":26656,
			"byteOffset":53312,
			"target":34962
		},
		{
			"buffer":0,
			"byteLength":3336,
			"byteOffset":79968,
			"target":34963
		}
	],
	"buffers":[
		{
			"byteLength":83304,
			"uri":"SM_Env_Rock_Flat_02.bin"
		}
	]
}
