{
	"asset":{
		"generator":"Khronos glTF Blender I/O v4.5.48",
		"version":"2.0"
	},
	"scene":0,
	"scenes":[
		{
			"name":"Scene",
			"nodes":[
				1
			]
		}
	],
	"nodes":[
		{
			"mesh":0,
			"name":"SM_Env_Dock_02"
		},
		{
			"children":[
				0
			],
			"name":"SM_Env_Dock_02"
		}
	],
	"meshes":[
		{
			"name":"Mesh",
			"primitives":[
				{
					"attributes":{
						"POSITION":0,
						"NORMAL":1,
						"TEXCOORD_0":2,
						"TEXCOORD_1":3
					},
					"indices":4
				}
			]
		}
	],
	"accessors":[
		{
			"bufferView":0,
			"componentType":5126,
			"count":585,
			"max":[
				1.8634886741638184,
				3.801053047180176,
				1.7227047681808472
			],
			"min":[
				-1.957672119140625,
				-3.8446364402770996,
				-1.8119728565216064
			],
			"type":"VEC3"
		},
		{
			"bufferView":1,
			"componentType":5126,
			"count":585,
			"type":"VEC3"
		},
		{
			"bufferView":2,
			"componentType":5126,
			"count":585,
			"type":"VEC2"
		},
		{
			"bufferView":3,
			"componentType":5126,
			"count":585,
			"type":"VEC2"
		},
		{
			"bufferView":4,
			"componentType":5123,
			"count":1020,
			"type":"SCALAR"
		}
	],
	"bufferViews":[
		{
			"buffer":0,
			"byteLength":7020,
			"byteOffset":0,
			"target":34962
		},
		{
			"buffer":0,
			"byteLength":7020,
			"byteOffset":7020,
			"target":34962
		},
		{
			"buffer":0,
			"byteLength":4680,
			"byteOffset":14040,
			"target":34962
		},
		{
			"buffer":0,
			"byteLength":4680,
			"byteOffset":18720,
			"target":34962
		},
		{
			"buffer":0,
			"byteLength":2040,
			"byteOffset":23400,
			"target":34963
		}
	],
	"buffers":[
		{
			"byteLength":25440,
			"uri":"SM_Env_Dock_02.bin"
		}
	]
}
