{
	"asset":{
		"generator":"Khronos glTF Blender I/O v4.5.48",
		"version":"2.0"
	},
	"scene":0,
	"scenes":[
		{
			"name":"Scene",
			"nodes":[
				2
			]
		}
	],
	"nodes":[
		{
			"mesh":0,
			"name":"SM_Env_Tree_Pohutukawa_01_Branches_LOD0"
		},
		{
			"mesh":1,
			"name":"SM_Env_Tree_Pohutukawa_01_LOD0"
		},
		{
			"children":[
				0,
				1
			],
			"name":"SM_Env_Tree_Pohutukawa_01"
		}
	],
	"meshes":[
		{
			"name":"Mesh",
			"primitives":[
				{
					"attributes":{
						"POSITION":0,
						"NORMAL":1,
						"TEXCOORD_0":2,
						"TANGENT":3,
						"COLOR_0":4
					},
					"indices":5
				}
			]
		},
		{
			"name":"Mesh.002",
			"primitives":[
				{
					"attributes":{
						"POSITION":6,
						"NORMAL":7,
						"TEXCOORD_0":8,
						"COLOR_0":9
					},
					"indices":10
				}
			]
		}
	],
	"accessors":[
		{
			"bufferView":0,
			"componentType":5126,
			"count":189,
			"max":[
				3.726151704788208,
				6.072497367858887,
				2.9036898612976074
			],
			"min":[
				-4.064962387084961,
				2.4662277698516846,
				-2.8431241512298584
			],
			"type":"VEC3"
		},
		{
			"bufferView":1,
			"componentType":5126,
			"count":189,
			"type":"VEC3"
		},
		{
			"bufferView":2,
			"componentType":5126,
			"count":189,
			"type":"VEC2"
		},
		{
			"bufferView":3,
			"componentType":5126,
			"count":189,
			"type":"VEC4"
		},
		{
			"bufferView":4,
			"componentType":5123,
			"count":189,
			"normalized":true,
			"type":"VEC4"
		},
		{
			"bufferView":5,
			"componentType":5123,
			"count":630,
			"type":"SCALAR"
		},
		{
			"bufferView":6,
			"componentType":5126,
			"count":20224,
			"max":[
				4.502196788787842,
				6.910682201385498,
				3.8951878547668457
			],
			"min":[
				-4.935171127319336,
				-0.41494378447532654,
				-3.4922492504119873
			],
			"type":"VEC3"
		},
		{
			"bufferView":7,
			"componentType":5126,
			"count":20224,
			"type":"VEC3"
		},
		{
			"bufferView":8,
			"componentType":5126,
			"count":20224,
			"type":"VEC2"
		},
		{
			"bufferView":9,
			"componentType":5123,
			"count":20224,
			"normalized":true,
			"type":"VEC4"
		},
		{
			"bufferView":10,
			"componentType":5123,
			"count":35949,
			"type":"SCALAR"
		}
	],
	"bufferViews":[
		{
			"buffer":0,
			"byteLength":2268,
			"byteOffset":0,
			"target":34962
		},
		{
			"buffer":0,
			"byteLength":2268,
			"byteOffset":2268,
			"target":34962
		},
		{
			"buffer":0,
			"byteLength":1512,
			"byteOffset":4536,
			"target":34962
		},
		{
			"buffer":0,
			"byteLength":3024,
			"byteOffset":6048,
			"target":34962
		},
		{
			"buffer":0,
			"byteLength":1512,
			"byteOffset":9072,
			"target":34962
		},
		{
			"buffer":0,
			"byteLength":1260,
			"byteOffset":10584,
			"target":34963
		},
		{
			"buffer":0,
			"byteLength":242688,
			"byteOffset":11844,
			"target":34962
		},
		{
			"buffer":0,
			"byteLength":242688,
			"byteOffset":254532,
			"target":34962
		},
		{
			"buffer":0,
			"byteLength":161792,
			"byteOffset":497220,
			"target":34962
		},
		{
			"buffer":0,
			"byteLength":161792,
			"byteOffset":659012,
			"target":34962
		},
		{
			"buffer":0,
			"byteLength":71898,
			"byteOffset":820804,
			"target":34963
		}
	],
	"buffers":[
		{
			"byteLength":892704,
			"uri":"SM_Env_Tree_Pohutukawa_01.bin"
		}
	]
}
