{
	"asset":{
		"generator":"Khronos glTF Blender I/O v4.5.48",
		"version":"2.0"
	},
	"scene":0,
	"scenes":[
		{
			"name":"Scene",
			"nodes":[
				1
			]
		}
	],
	"nodes":[
		{
			"mesh":0,
			"name":"SM_Env_Seaweed_02_LOD0"
		},
		{
			"children":[
				0
			],
			"name":"SM_Env_Seaweed_02"
		}
	],
	"meshes":[
		{
			"name":"Mesh",
			"primitives":[
				{
					"attributes":{
						"POSITION":0,
						"NORMAL":1,
						"TEXCOORD_0":2,
						"TANGENT":3,
						"COLOR_0":4
					},
					"indices":5
				}
			]
		}
	],
	"accessors":[
		{
			"bufferView":0,
			"componentType":5126,
			"count":294,
			"max":[
				0.9061113595962524,
				2.1949706077575684,
				0.8652744889259338
			],
			"min":[
				-1.2290416955947876,
				-0.007829050533473492,
				-0.7610149383544922
			],
			"type":"VEC3"
		},
		{
			"bufferView":1,
			"componentType":5126,
			"count":294,
			"type":"VEC3"
		},
		{
			"bufferView":2,
			"componentType":5126,
			"count":294,
			"type":"VEC2"
		},
		{
			"bufferView":3,
			"componentType":5126,
			"count":294,
			"type":"VEC4"
		},
		{
			"bufferView":4,
			"componentType":5123,
			"count":294,
			"normalized":true,
			"type":"VEC4"
		},
		{
			"bufferView":5,
			"componentType":5123,
			"count":900,
			"type":"SCALAR"
		}
	],
	"bufferViews":[
		{
			"buffer":0,
			"byteLength":3528,
			"byteOffset":0,
			"target":34962
		},
		{
			"buffer":0,
			"byteLength":3528,
			"byteOffset":3528,
			"target":34962
		},
		{
			"buffer":0,
			"byteLength":2352,
			"byteOffset":7056,
			"target":34962
		},
		{
			"buffer":0,
			"byteLength":4704,
			"byteOffset":9408,
			"target":34962
		},
		{
			"buffer":0,
			"byteLength":2352,
			"byteOffset":14112,
			"target":34962
		},
		{
			"buffer":0,
			"byteLength":1800,
			"byteOffset":16464,
			"target":34963
		}
	],
	"buffers":[
		{
			"byteLength":18264,
			"uri":"SM_Env_Seaweed_02.bin"
		}
	]
}
