{
	"asset":{
		"generator":"Khronos glTF Blender I/O v4.5.48",
		"version":"2.0"
	},
	"scene":0,
	"scenes":[
		{
			"name":"Scene",
			"nodes":[
				1
			]
		}
	],
	"nodes":[
		{
			"mesh":0,
			"name":"SM_Env_Fern_Part_02_LOD0"
		},
		{
			"children":[
				0
			],
			"name":"SM_Env_Fern_Part_02"
		}
	],
	"meshes":[
		{
			"name":"Mesh",
			"primitives":[
				{
					"attributes":{
						"POSITION":0,
						"NORMAL":1,
						"TEXCOORD_0":2,
						"TANGENT":3,
						"COLOR_0":4
					},
					"indices":5
				}
			]
		}
	],
	"accessors":[
		{
			"bufferView":0,
			"componentType":5126,
			"count":378,
			"max":[
				2.150449514389038,
				1.1757495403289795,
				1.8452807664871216
			],
			"min":[
				-1.698944330215454,
				-0.2058103084564209,
				-0.5864779949188232
			],
			"type":"VEC3"
		},
		{
			"bufferView":1,
			"componentType":5126,
			"count":378,
			"type":"VEC3"
		},
		{
			"bufferView":2,
			"componentType":5126,
			"count":378,
			"type":"VEC2"
		},
		{
			"bufferView":3,
			"componentType":5126,
			"count":378,
			"type":"VEC4"
		},
		{
			"bufferView":4,
			"componentType":5123,
			"count":378,
			"normalized":true,
			"type":"VEC4"
		},
		{
			"bufferView":5,
			"componentType":5123,
			"count":546,
			"type":"SCALAR"
		}
	],
	"bufferViews":[
		{
			"buffer":0,
			"byteLength":4536,
			"byteOffset":0,
			"target":34962
		},
		{
			"buffer":0,
			"byteLength":4536,
			"byteOffset":4536,
			"target":34962
		},
		{
			"buffer":0,
			"byteLength":3024,
			"byteOffset":9072,
			"target":34962
		},
		{
			"buffer":0,
			"byteLength":6048,
			"byteOffset":12096,
			"target":34962
		},
		{
			"buffer":0,
			"byteLength":3024,
			"byteOffset":18144,
			"target":34962
		},
		{
			"buffer":0,
			"byteLength":1092,
			"byteOffset":21168,
			"target":34963
		}
	],
	"buffers":[
		{
			"byteLength":22260,
			"uri":"SM_Env_Fern_Part_02.bin"
		}
	]
}
