{
	"asset":{
		"generator":"Khronos glTF Blender I/O v4.5.47",
		"version":"2.0"
	},
	"scene":0,
	"scenes":[
		{
			"name":"Scene",
			"nodes":[
				1
			]
		}
	],
	"nodes":[
		{
			"mesh":0,
			"name":"SM_Env_Tree_Palm_01_LOD0"
		},
		{
			"children":[
				0
			],
			"name":"SM_Env_Tree_Palm_01"
		}
	],
	"meshes":[
		{
			"name":"Mesh",
			"primitives":[
				{
					"attributes":{
						"POSITION":0,
						"NORMAL":1,
						"TEXCOORD_0":2,
						"TANGENT":3,
						"COLOR_0":4
					},
					"indices":5
				}
			]
		}
	],
	"accessors":[
		{
			"bufferView":0,
			"componentType":5126,
			"count":1368,
			"max":[
				3.966747760772705,
				7.49331521987915,
				2.7756400108337402
			],
			"min":[
				-1.497684121131897,
				-0.40849679708480835,
				-2.541766881942749
			],
			"type":"VEC3"
		},
		{
			"bufferView":1,
			"componentType":5126,
			"count":1368,
			"type":"VEC3"
		},
		{
			"bufferView":2,
			"componentType":5126,
			"count":1368,
			"type":"VEC2"
		},
		{
			"bufferView":3,
			"componentType":5126,
			"count":1368,
			"type":"VEC4"
		},
		{
			"bufferView":4,
			"componentType":5123,
			"count":1368,
			"normalized":true,
			"type":"VEC4"
		},
		{
			"bufferView":5,
			"componentType":5123,
			"count":1956,
			"type":"SCALAR"
		}
	],
	"bufferViews":[
		{
			"buffer":0,
			"byteLength":16416,
			"byteOffset":0,
			"target":34962
		},
		{
			"buffer":0,
			"byteLength":16416,
			"byteOffset":16416,
			"target":34962
		},
		{
			"buffer":0,
			"byteLength":10944,
			"byteOffset":32832,
			"target":34962
		},
		{
			"buffer":0,
			"byteLength":21888,
			"byteOffset":43776,
			"target":34962
		},
		{
			"buffer":0,
			"byteLength":10944,
			"byteOffset":65664,
			"target":34962
		},
		{
			"buffer":0,
			"byteLength":3912,
			"byteOffset":76608,
			"target":34963
		}
	],
	"buffers":[
		{
			"byteLength":80520,
			"uri":"SM_Env_Tree_Palm_01.bin"
		}
	]
}
