{
	"asset":{
		"generator":"Khronos glTF Blender I/O v4.5.48",
		"version":"2.0"
	},
	"scene":0,
	"scenes":[
		{
			"name":"Scene",
			"nodes":[
				2
			]
		}
	],
	"nodes":[
		{
			"mesh":0,
			"name":"SM_Env_Bush_Tropical_04_Branches_LOD0"
		},
		{
			"mesh":1,
			"name":"SM_Env_Bush_Tropical_04_Leaves_LOD0"
		},
		{
			"children":[
				0,
				1
			],
			"name":"SM_Env_Bush_Tropical_04"
		}
	],
	"meshes":[
		{
			"name":"Mesh",
			"primitives":[
				{
					"attributes":{
						"POSITION":0,
						"NORMAL":1,
						"TEXCOORD_0":2,
						"TANGENT":3,
						"COLOR_0":4
					},
					"indices":5
				}
			]
		},
		{
			"name":"Mesh.001",
			"primitives":[
				{
					"attributes":{
						"POSITION":6,
						"NORMAL":7,
						"TEXCOORD_0":8,
						"TANGENT":9,
						"COLOR_0":10
					},
					"indices":11
				}
			]
		}
	],
	"accessors":[
		{
			"bufferView":0,
			"componentType":5126,
			"count":144,
			"max":[
				2.4964711666107178,
				1.667175054550171,
				2.4799842834472656
			],
			"min":[
				-2.8397111892700195,
				-0.2554433345794678,
				-2.3531441688537598
			],
			"type":"VEC3"
		},
		{
			"bufferView":1,
			"componentType":5126,
			"count":144,
			"type":"VEC3"
		},
		{
			"bufferView":2,
			"componentType":5126,
			"count":144,
			"type":"VEC2"
		},
		{
			"bufferView":3,
			"componentType":5126,
			"count":144,
			"type":"VEC4"
		},
		{
			"bufferView":4,
			"componentType":5123,
			"count":144,
			"normalized":true,
			"type":"VEC4"
		},
		{
			"bufferView":5,
			"componentType":5123,
			"count":288,
			"type":"SCALAR"
		},
		{
			"bufferView":6,
			"componentType":5126,
			"count":19900,
			"max":[
				4.053613662719727,
				2.1641290187835693,
				3.1989150047302246
			],
			"min":[
				-3.714547634124756,
				-0.542495608329773,
				-3.4144792556762695
			],
			"type":"VEC3"
		},
		{
			"bufferView":7,
			"componentType":5126,
			"count":19900,
			"type":"VEC3"
		},
		{
			"bufferView":8,
			"componentType":5126,
			"count":19900,
			"type":"VEC2"
		},
		{
			"bufferView":9,
			"componentType":5126,
			"count":19900,
			"type":"VEC4"
		},
		{
			"bufferView":10,
			"componentType":5123,
			"count":19900,
			"normalized":true,
			"type":"VEC4"
		},
		{
			"bufferView":11,
			"componentType":5123,
			"count":23880,
			"type":"SCALAR"
		}
	],
	"bufferViews":[
		{
			"buffer":0,
			"byteLength":1728,
			"byteOffset":0,
			"target":34962
		},
		{
			"buffer":0,
			"byteLength":1728,
			"byteOffset":1728,
			"target":34962
		},
		{
			"buffer":0,
			"byteLength":1152,
			"byteOffset":3456,
			"target":34962
		},
		{
			"buffer":0,
			"byteLength":2304,
			"byteOffset":4608,
			"target":34962
		},
		{
			"buffer":0,
			"byteLength":1152,
			"byteOffset":6912,
			"target":34962
		},
		{
			"buffer":0,
			"byteLength":576,
			"byteOffset":8064,
			"target":34963
		},
		{
			"buffer":0,
			"byteLength":238800,
			"byteOffset":8640,
			"target":34962
		},
		{
			"buffer":0,
			"byteLength":238800,
			"byteOffset":247440,
			"target":34962
		},
		{
			"buffer":0,
			"byteLength":159200,
			"byteOffset":486240,
			"target":34962
		},
		{
			"buffer":0,
			"byteLength":318400,
			"byteOffset":645440,
			"target":34962
		},
		{
			"buffer":0,
			"byteLength":159200,
			"byteOffset":963840,
			"target":34962
		},
		{
			"buffer":0,
			"byteLength":47760,
			"byteOffset":1123040,
			"target":34963
		}
	],
	"buffers":[
		{
			"byteLength":1170800,
			"uri":"SM_Env_Bush_Tropical_04.bin"
		}
	]
}
