{
	"asset":{
		"generator":"Khronos glTF Blender I/O v4.5.47",
		"version":"2.0"
	},
	"scene":0,
	"scenes":[
		{
			"name":"Scene",
			"nodes":[
				1
			]
		}
	],
	"nodes":[
		{
			"mesh":0,
			"name":"SM_Env_Bush_Palm_04_LOD0"
		},
		{
			"children":[
				0
			],
			"name":"SM_Env_Bush_Palm_04"
		}
	],
	"meshes":[
		{
			"name":"Mesh",
			"primitives":[
				{
					"attributes":{
						"POSITION":0,
						"NORMAL":1,
						"TEXCOORD_0":2,
						"COLOR_0":3
					},
					"indices":4
				}
			]
		}
	],
	"accessors":[
		{
			"bufferView":0,
			"componentType":5126,
			"count":1198,
			"max":[
				1.55641508102417,
				2.8029234409332275,
				1.3000221252441406
			],
			"min":[
				-1.3583074808120728,
				-0.13588131964206696,
				-1.341731071472168
			],
			"type":"VEC3"
		},
		{
			"bufferView":1,
			"componentType":5126,
			"count":1198,
			"type":"VEC3"
		},
		{
			"bufferView":2,
			"componentType":5126,
			"count":1198,
			"type":"VEC2"
		},
		{
			"bufferView":3,
			"componentType":5123,
			"count":1198,
			"normalized":true,
			"type":"VEC4"
		},
		{
			"bufferView":4,
			"componentType":5123,
			"count":2100,
			"type":"SCALAR"
		}
	],
	"bufferViews":[
		{
			"buffer":0,
			"byteLength":14376,
			"byteOffset":0,
			"target":34962
		},
		{
			"buffer":0,
			"byteLength":14376,
			"byteOffset":14376,
			"target":34962
		},
		{
			"buffer":0,
			"byteLength":9584,
			"byteOffset":28752,
			"target":34962
		},
		{
			"buffer":0,
			"byteLength":9584,
			"byteOffset":38336,
			"target":34962
		},
		{
			"buffer":0,
			"byteLength":4200,
			"byteOffset":47920,
			"target":34963
		}
	],
	"buffers":[
		{
			"byteLength":52120,
			"uri":"SM_Env_Bush_Palm_04.bin"
		}
	]
}
