{
	"asset":{
		"generator":"Khronos glTF Blender I/O v4.5.48",
		"version":"2.0"
	},
	"scene":0,
	"scenes":[
		{
			"name":"Scene",
			"nodes":[
				1
			]
		}
	],
	"nodes":[
		{
			"mesh":0,
			"name":"SM_Env_Grass_Bush_01_LOD0"
		},
		{
			"children":[
				0
			],
			"name":"SM_Env_Grass_Bush_01"
		}
	],
	"meshes":[
		{
			"name":"Mesh",
			"primitives":[
				{
					"attributes":{
						"POSITION":0,
						"NORMAL":1,
						"TEXCOORD_0":2,
						"TANGENT":3,
						"COLOR_0":4
					},
					"indices":5
				}
			]
		}
	],
	"accessors":[
		{
			"bufferView":0,
			"componentType":5126,
			"count":106,
			"max":[
				1.177137017250061,
				0.9698642492294312,
				1.1248931884765625
			],
			"min":[
				-1.0985556840896606,
				-0.2321237325668335,
				-1.1820502281188965
			],
			"type":"VEC3"
		},
		{
			"bufferView":1,
			"componentType":5126,
			"count":106,
			"type":"VEC3"
		},
		{
			"bufferView":2,
			"componentType":5126,
			"count":106,
			"type":"VEC2"
		},
		{
			"bufferView":3,
			"componentType":5126,
			"count":106,
			"type":"VEC4"
		},
		{
			"bufferView":4,
			"componentType":5123,
			"count":106,
			"normalized":true,
			"type":"VEC4"
		},
		{
			"bufferView":5,
			"componentType":5123,
			"count":234,
			"type":"SCALAR"
		}
	],
	"bufferViews":[
		{
			"buffer":0,
			"byteLength":1272,
			"byteOffset":0,
			"target":34962
		},
		{
			"buffer":0,
			"byteLength":1272,
			"byteOffset":1272,
			"target":34962
		},
		{
			"buffer":0,
			"byteLength":848,
			"byteOffset":2544,
			"target":34962
		},
		{
			"buffer":0,
			"byteLength":1696,
			"byteOffset":3392,
			"target":34962
		},
		{
			"buffer":0,
			"byteLength":848,
			"byteOffset":5088,
			"target":34962
		},
		{
			"buffer":0,
			"byteLength":468,
			"byteOffset":5936,
			"target":34963
		}
	],
	"buffers":[
		{
			"byteLength":6404,
			"uri":"SM_Env_Grass_Bush_01.bin"
		}
	]
}
