{
	"asset":{
		"generator":"Khronos glTF Blender I/O v4.5.48",
		"version":"2.0"
	},
	"scene":0,
	"scenes":[
		{
			"name":"Scene",
			"nodes":[
				1
			]
		}
	],
	"nodes":[
		{
			"mesh":0,
			"name":"SM_Env_Rock_06"
		},
		{
			"children":[
				0
			],
			"name":"SM_Env_Rock_06"
		}
	],
	"meshes":[
		{
			"name":"Mesh",
			"primitives":[
				{
					"attributes":{
						"POSITION":0,
						"NORMAL":1,
						"TEXCOORD_0":2,
						"TANGENT":3
					},
					"indices":4
				}
			]
		}
	],
	"accessors":[
		{
			"bufferView":0,
			"componentType":5126,
			"count":1846,
			"max":[
				1.6260302066802979,
				4.312661647796631,
				1.6553539037704468
			],
			"min":[
				-1.6146191358566284,
				-0.46499937772750854,
				-1.535151481628418
			],
			"type":"VEC3"
		},
		{
			"bufferView":1,
			"componentType":5126,
			"count":1846,
			"type":"VEC3"
		},
		{
			"bufferView":2,
			"componentType":5126,
			"count":1846,
			"type":"VEC2"
		},
		{
			"bufferView":3,
			"componentType":5126,
			"count":1846,
			"type":"VEC4"
		},
		{
			"bufferView":4,
			"componentType":5123,
			"count":1848,
			"type":"SCALAR"
		}
	],
	"bufferViews":[
		{
			"buffer":0,
			"byteLength":22152,
			"byteOffset":0,
			"target":34962
		},
		{
			"buffer":0,
			"byteLength":22152,
			"byteOffset":22152,
			"target":34962
		},
		{
			"buffer":0,
			"byteLength":14768,
			"byteOffset":44304,
			"target":34962
		},
		{
			"buffer":0,
			"byteLength":29536,
			"byteOffset":59072,
			"target":34962
		},
		{
			"buffer":0,
			"byteLength":3696,
			"byteOffset":88608,
			"target":34963
		}
	],
	"buffers":[
		{
			"byteLength":92304,
			"uri":"SM_Env_Rock_06.bin"
		}
	]
}
