{
	"asset":{
		"generator":"Khronos glTF Blender I/O v4.5.48",
		"version":"2.0"
	},
	"scene":0,
	"scenes":[
		{
			"name":"Scene",
			"nodes":[
				1
			]
		}
	],
	"nodes":[
		{
			"mesh":0,
			"name":"SM_Env_Flowers_04_LOD0"
		},
		{
			"children":[
				0
			],
			"name":"SM_Env_Flowers_04"
		}
	],
	"meshes":[
		{
			"name":"Mesh",
			"primitives":[
				{
					"attributes":{
						"POSITION":0,
						"NORMAL":1,
						"TEXCOORD_0":2,
						"TANGENT":3,
						"COLOR_0":4
					},
					"indices":5
				}
			]
		}
	],
	"accessors":[
		{
			"bufferView":0,
			"componentType":5126,
			"count":2760,
			"max":[
				0.6852625608444214,
				1.7751238346099854,
				0.6017686724662781
			],
			"min":[
				-0.5465042591094971,
				-0.042283155024051666,
				-0.721299946308136
			],
			"type":"VEC3"
		},
		{
			"bufferView":1,
			"componentType":5126,
			"count":2760,
			"type":"VEC3"
		},
		{
			"bufferView":2,
			"componentType":5126,
			"count":2760,
			"type":"VEC2"
		},
		{
			"bufferView":3,
			"componentType":5126,
			"count":2760,
			"type":"VEC4"
		},
		{
			"bufferView":4,
			"componentType":5123,
			"count":2760,
			"normalized":true,
			"type":"VEC4"
		},
		{
			"bufferView":5,
			"componentType":5123,
			"count":3960,
			"type":"SCALAR"
		}
	],
	"bufferViews":[
		{
			"buffer":0,
			"byteLength":33120,
			"byteOffset":0,
			"target":34962
		},
		{
			"buffer":0,
			"byteLength":33120,
			"byteOffset":33120,
			"target":34962
		},
		{
			"buffer":0,
			"byteLength":22080,
			"byteOffset":66240,
			"target":34962
		},
		{
			"buffer":0,
			"byteLength":44160,
			"byteOffset":88320,
			"target":34962
		},
		{
			"buffer":0,
			"byteLength":22080,
			"byteOffset":132480,
			"target":34962
		},
		{
			"buffer":0,
			"byteLength":7920,
			"byteOffset":154560,
			"target":34963
		}
	],
	"buffers":[
		{
			"byteLength":162480,
			"uri":"SM_Env_Flowers_04.bin"
		}
	]
}
