{
	"asset":{
		"generator":"Khronos glTF Blender I/O v4.5.47",
		"version":"2.0"
	},
	"scene":0,
	"scenes":[
		{
			"name":"Scene",
			"nodes":[
				1
			]
		}
	],
	"nodes":[
		{
			"mesh":0,
			"name":"SM_Env_Fern_04_LOD0"
		},
		{
			"children":[
				0
			],
			"name":"SM_Env_Fern_04"
		}
	],
	"meshes":[
		{
			"name":"Mesh",
			"primitives":[
				{
					"attributes":{
						"POSITION":0,
						"NORMAL":1,
						"TEXCOORD_0":2,
						"TANGENT":3,
						"COLOR_0":4
					},
					"indices":5
				}
			]
		}
	],
	"accessors":[
		{
			"bufferView":0,
			"componentType":5126,
			"count":470,
			"max":[
				1.0759856700897217,
				3.030587911605835,
				1.5255355834960938
			],
			"min":[
				-1.3137731552124023,
				-0.1903717815876007,
				-1.5207005739212036
			],
			"type":"VEC3"
		},
		{
			"bufferView":1,
			"componentType":5126,
			"count":470,
			"type":"VEC3"
		},
		{
			"bufferView":2,
			"componentType":5126,
			"count":470,
			"type":"VEC2"
		},
		{
			"bufferView":3,
			"componentType":5126,
			"count":470,
			"type":"VEC4"
		},
		{
			"bufferView":4,
			"componentType":5123,
			"count":470,
			"normalized":true,
			"type":"VEC4"
		},
		{
			"bufferView":5,
			"componentType":5123,
			"count":690,
			"type":"SCALAR"
		}
	],
	"bufferViews":[
		{
			"buffer":0,
			"byteLength":5640,
			"byteOffset":0,
			"target":34962
		},
		{
			"buffer":0,
			"byteLength":5640,
			"byteOffset":5640,
			"target":34962
		},
		{
			"buffer":0,
			"byteLength":3760,
			"byteOffset":11280,
			"target":34962
		},
		{
			"buffer":0,
			"byteLength":7520,
			"byteOffset":15040,
			"target":34962
		},
		{
			"buffer":0,
			"byteLength":3760,
			"byteOffset":22560,
			"target":34962
		},
		{
			"buffer":0,
			"byteLength":1380,
			"byteOffset":26320,
			"target":34963
		}
	],
	"buffers":[
		{
			"byteLength":27700,
			"uri":"SM_Env_Fern_04.bin"
		}
	]
}
