{
	"asset":{
		"generator":"Khronos glTF Blender I/O v4.5.47",
		"version":"2.0"
	},
	"scene":0,
	"scenes":[
		{
			"name":"Scene",
			"nodes":[
				1
			]
		}
	],
	"nodes":[
		{
			"mesh":0,
			"name":"SM_Env_Flowers_05_LOD0"
		},
		{
			"children":[
				0
			],
			"name":"SM_Env_Flowers_05"
		}
	],
	"meshes":[
		{
			"name":"Mesh",
			"primitives":[
				{
					"attributes":{
						"POSITION":0,
						"NORMAL":1,
						"TEXCOORD_0":2,
						"TANGENT":3,
						"COLOR_0":4
					},
					"indices":5
				}
			]
		}
	],
	"accessors":[
		{
			"bufferView":0,
			"componentType":5126,
			"count":2207,
			"max":[
				0.37612536549568176,
				1.6627943515777588,
				0.4070951044559479
			],
			"min":[
				-0.3371923267841339,
				-0.11855824291706085,
				-0.4434909224510193
			],
			"type":"VEC3"
		},
		{
			"bufferView":1,
			"componentType":5126,
			"count":2207,
			"type":"VEC3"
		},
		{
			"bufferView":2,
			"componentType":5126,
			"count":2207,
			"type":"VEC2"
		},
		{
			"bufferView":3,
			"componentType":5126,
			"count":2207,
			"type":"VEC4"
		},
		{
			"bufferView":4,
			"componentType":5123,
			"count":2207,
			"normalized":true,
			"type":"VEC4"
		},
		{
			"bufferView":5,
			"componentType":5123,
			"count":3408,
			"type":"SCALAR"
		}
	],
	"bufferViews":[
		{
			"buffer":0,
			"byteLength":26484,
			"byteOffset":0,
			"target":34962
		},
		{
			"buffer":0,
			"byteLength":26484,
			"byteOffset":26484,
			"target":34962
		},
		{
			"buffer":0,
			"byteLength":17656,
			"byteOffset":52968,
			"target":34962
		},
		{
			"buffer":0,
			"byteLength":35312,
			"byteOffset":70624,
			"target":34962
		},
		{
			"buffer":0,
			"byteLength":17656,
			"byteOffset":105936,
			"target":34962
		},
		{
			"buffer":0,
			"byteLength":6816,
			"byteOffset":123592,
			"target":34963
		}
	],
	"buffers":[
		{
			"byteLength":130408,
			"uri":"SM_Env_Flowers_05.bin"
		}
	]
}
