{
	"asset":{
		"generator":"Khronos glTF Blender I/O v4.5.48",
		"version":"2.0"
	},
	"scene":0,
	"scenes":[
		{
			"name":"Scene",
			"nodes":[
				1
			]
		}
	],
	"nodes":[
		{
			"mesh":0,
			"name":"SM_Env_Bush_Tropical_01_LOD0"
		},
		{
			"children":[
				0
			],
			"name":"SM_Env_Bush_Tropical_01"
		}
	],
	"meshes":[
		{
			"name":"Mesh",
			"primitives":[
				{
					"attributes":{
						"POSITION":0,
						"NORMAL":1,
						"TEXCOORD_0":2,
						"TANGENT":3,
						"COLOR_0":4
					},
					"indices":5
				}
			]
		}
	],
	"accessors":[
		{
			"bufferView":0,
			"componentType":5126,
			"count":3008,
			"max":[
				1.1482000350952148,
				1.8508394956588745,
				1.0602874755859375
			],
			"min":[
				-1.0962101221084595,
				-0.08600526303052902,
				-0.931696891784668
			],
			"type":"VEC3"
		},
		{
			"bufferView":1,
			"componentType":5126,
			"count":3008,
			"type":"VEC3"
		},
		{
			"bufferView":2,
			"componentType":5126,
			"count":3008,
			"type":"VEC2"
		},
		{
			"bufferView":3,
			"componentType":5126,
			"count":3008,
			"type":"VEC4"
		},
		{
			"bufferView":4,
			"componentType":5123,
			"count":3008,
			"normalized":true,
			"type":"VEC4"
		},
		{
			"bufferView":5,
			"componentType":5123,
			"count":4152,
			"type":"SCALAR"
		}
	],
	"bufferViews":[
		{
			"buffer":0,
			"byteLength":36096,
			"byteOffset":0,
			"target":34962
		},
		{
			"buffer":0,
			"byteLength":36096,
			"byteOffset":36096,
			"target":34962
		},
		{
			"buffer":0,
			"byteLength":24064,
			"byteOffset":72192,
			"target":34962
		},
		{
			"buffer":0,
			"byteLength":48128,
			"byteOffset":96256,
			"target":34962
		},
		{
			"buffer":0,
			"byteLength":24064,
			"byteOffset":144384,
			"target":34962
		},
		{
			"buffer":0,
			"byteLength":8304,
			"byteOffset":168448,
			"target":34963
		}
	],
	"buffers":[
		{
			"byteLength":176752,
			"uri":"SM_Env_Bush_Tropical_01.bin"
		}
	]
}
