{
	"asset":{
		"generator":"Khronos glTF Blender I/O v4.5.47",
		"version":"2.0"
	},
	"scene":0,
	"scenes":[
		{
			"name":"Scene",
			"nodes":[
				1
			]
		}
	],
	"nodes":[
		{
			"mesh":0,
			"name":"SM_Env_Flower_Pitcher_01_LOD0"
		},
		{
			"children":[
				0
			],
			"name":"SM_Env_Flower_Pitcher_01"
		}
	],
	"meshes":[
		{
			"name":"Mesh",
			"primitives":[
				{
					"attributes":{
						"POSITION":0,
						"NORMAL":1,
						"TEXCOORD_0":2,
						"TANGENT":3,
						"COLOR_0":4
					},
					"indices":5
				}
			]
		}
	],
	"accessors":[
		{
			"bufferView":0,
			"componentType":5126,
			"count":1747,
			"max":[
				0.9015282988548279,
				2.398334264755249,
				1.0719050168991089
			],
			"min":[
				-0.8888168931007385,
				-0.15498748421669006,
				-0.43694692850112915
			],
			"type":"VEC3"
		},
		{
			"bufferView":1,
			"componentType":5126,
			"count":1747,
			"type":"VEC3"
		},
		{
			"bufferView":2,
			"componentType":5126,
			"count":1747,
			"type":"VEC2"
		},
		{
			"bufferView":3,
			"componentType":5126,
			"count":1747,
			"type":"VEC4"
		},
		{
			"bufferView":4,
			"componentType":5123,
			"count":1747,
			"normalized":true,
			"type":"VEC4"
		},
		{
			"bufferView":5,
			"componentType":5123,
			"count":2574,
			"type":"SCALAR"
		}
	],
	"bufferViews":[
		{
			"buffer":0,
			"byteLength":20964,
			"byteOffset":0,
			"target":34962
		},
		{
			"buffer":0,
			"byteLength":20964,
			"byteOffset":20964,
			"target":34962
		},
		{
			"buffer":0,
			"byteLength":13976,
			"byteOffset":41928,
			"target":34962
		},
		{
			"buffer":0,
			"byteLength":27952,
			"byteOffset":55904,
			"target":34962
		},
		{
			"buffer":0,
			"byteLength":13976,
			"byteOffset":83856,
			"target":34962
		},
		{
			"buffer":0,
			"byteLength":5148,
			"byteOffset":97832,
			"target":34963
		}
	],
	"buffers":[
		{
			"byteLength":102980,
			"uri":"SM_Env_Flower_Pitcher_01.bin"
		}
	]
}
