{
	"asset":{
		"generator":"Khronos glTF Blender I/O v4.5.47",
		"version":"2.0"
	},
	"scene":0,
	"scenes":[
		{
			"name":"Scene",
			"nodes":[
				1
			]
		}
	],
	"nodes":[
		{
			"mesh":0,
			"name":"SM_Env_Tree_Banana_03_LOD0"
		},
		{
			"children":[
				0
			],
			"name":"SM_Env_Tree_Banana_03"
		}
	],
	"meshes":[
		{
			"name":"Mesh",
			"primitives":[
				{
					"attributes":{
						"POSITION":0,
						"NORMAL":1,
						"TEXCOORD_0":2,
						"TEXCOORD_1":3,
						"TANGENT":4,
						"COLOR_0":5
					},
					"indices":6
				}
			]
		}
	],
	"accessors":[
		{
			"bufferView":0,
			"componentType":5126,
			"count":1116,
			"max":[
				2.8881773948669434,
				7.358042240142822,
				2.3212051391601562
			],
			"min":[
				-2.0500431060791016,
				-0.3290586769580841,
				-2.7355175018310547
			],
			"type":"VEC3"
		},
		{
			"bufferView":1,
			"componentType":5126,
			"count":1116,
			"type":"VEC3"
		},
		{
			"bufferView":2,
			"componentType":5126,
			"count":1116,
			"type":"VEC2"
		},
		{
			"bufferView":3,
			"componentType":5126,
			"count":1116,
			"type":"VEC2"
		},
		{
			"bufferView":4,
			"componentType":5126,
			"count":1116,
			"type":"VEC4"
		},
		{
			"bufferView":5,
			"componentType":5123,
			"count":1116,
			"normalized":true,
			"type":"VEC4"
		},
		{
			"bufferView":6,
			"componentType":5123,
			"count":1548,
			"type":"SCALAR"
		}
	],
	"bufferViews":[
		{
			"buffer":0,
			"byteLength":13392,
			"byteOffset":0,
			"target":34962
		},
		{
			"buffer":0,
			"byteLength":13392,
			"byteOffset":13392,
			"target":34962
		},
		{
			"buffer":0,
			"byteLength":8928,
			"byteOffset":26784,
			"target":34962
		},
		{
			"buffer":0,
			"byteLength":8928,
			"byteOffset":35712,
			"target":34962
		},
		{
			"buffer":0,
			"byteLength":17856,
			"byteOffset":44640,
			"target":34962
		},
		{
			"buffer":0,
			"byteLength":8928,
			"byteOffset":62496,
			"target":34962
		},
		{
			"buffer":0,
			"byteLength":3096,
			"byteOffset":71424,
			"target":34963
		}
	],
	"buffers":[
		{
			"byteLength":74520,
			"uri":"SM_Env_Tree_Banana_03.bin"
		}
	]
}
