{
	"asset":{
		"generator":"Khronos glTF Blender I/O v4.5.48",
		"version":"2.0"
	},
	"scene":0,
	"scenes":[
		{
			"name":"Scene",
			"nodes":[
				1
			]
		}
	],
	"nodes":[
		{
			"mesh":0,
			"name":"SM_Env_Vines_01"
		},
		{
			"children":[
				0
			],
			"name":"SM_Env_Vines_01"
		}
	],
	"meshes":[
		{
			"name":"Mesh",
			"primitives":[
				{
					"attributes":{
						"POSITION":0,
						"NORMAL":1,
						"TEXCOORD_0":2,
						"TANGENT":3,
						"COLOR_0":4
					},
					"indices":5
				}
			]
		}
	],
	"accessors":[
		{
			"bufferView":0,
			"componentType":5126,
			"count":810,
			"max":[
				0.7791862487792969,
				0.252685010433197,
				0.22164970636367798
			],
			"min":[
				-0.6555111408233643,
				-1.8890386819839478,
				-0.2086770385503769
			],
			"type":"VEC3"
		},
		{
			"bufferView":1,
			"componentType":5126,
			"count":810,
			"type":"VEC3"
		},
		{
			"bufferView":2,
			"componentType":5126,
			"count":810,
			"type":"VEC2"
		},
		{
			"bufferView":3,
			"componentType":5126,
			"count":810,
			"type":"VEC4"
		},
		{
			"bufferView":4,
			"componentType":5123,
			"count":810,
			"normalized":true,
			"type":"VEC4"
		},
		{
			"bufferView":5,
			"componentType":5123,
			"count":1176,
			"type":"SCALAR"
		}
	],
	"bufferViews":[
		{
			"buffer":0,
			"byteLength":9720,
			"byteOffset":0,
			"target":34962
		},
		{
			"buffer":0,
			"byteLength":9720,
			"byteOffset":9720,
			"target":34962
		},
		{
			"buffer":0,
			"byteLength":6480,
			"byteOffset":19440,
			"target":34962
		},
		{
			"buffer":0,
			"byteLength":12960,
			"byteOffset":25920,
			"target":34962
		},
		{
			"buffer":0,
			"byteLength":6480,
			"byteOffset":38880,
			"target":34962
		},
		{
			"buffer":0,
			"byteLength":2352,
			"byteOffset":45360,
			"target":34963
		}
	],
	"buffers":[
		{
			"byteLength":47712,
			"uri":"SM_Env_Vines_01.bin"
		}
	]
}
