{
	"asset":{
		"generator":"Khronos glTF Blender I/O v4.5.48",
		"version":"2.0"
	},
	"scene":0,
	"scenes":[
		{
			"name":"Scene",
			"nodes":[
				1
			]
		}
	],
	"nodes":[
		{
			"mesh":0,
			"name":"SM_Env_Rock_Pile_02"
		},
		{
			"children":[
				0
			],
			"name":"SM_Env_Rock_Pile_02"
		}
	],
	"meshes":[
		{
			"name":"Mesh",
			"primitives":[
				{
					"attributes":{
						"POSITION":0,
						"NORMAL":1,
						"TEXCOORD_0":2,
						"TANGENT":3
					},
					"indices":4
				}
			]
		}
	],
	"accessors":[
		{
			"bufferView":0,
			"componentType":5126,
			"count":2880,
			"max":[
				4.341786861419678,
				2.4922311305999756,
				3.6643896102905273
			],
			"min":[
				-4.435966491699219,
				-0.10779117792844772,
				-3.753662109375
			],
			"type":"VEC3"
		},
		{
			"bufferView":1,
			"componentType":5126,
			"count":2880,
			"type":"VEC3"
		},
		{
			"bufferView":2,
			"componentType":5126,
			"count":2880,
			"type":"VEC2"
		},
		{
			"bufferView":3,
			"componentType":5126,
			"count":2880,
			"type":"VEC4"
		},
		{
			"bufferView":4,
			"componentType":5123,
			"count":2904,
			"type":"SCALAR"
		}
	],
	"bufferViews":[
		{
			"buffer":0,
			"byteLength":34560,
			"byteOffset":0,
			"target":34962
		},
		{
			"buffer":0,
			"byteLength":34560,
			"byteOffset":34560,
			"target":34962
		},
		{
			"buffer":0,
			"byteLength":23040,
			"byteOffset":69120,
			"target":34962
		},
		{
			"buffer":0,
			"byteLength":46080,
			"byteOffset":92160,
			"target":34962
		},
		{
			"buffer":0,
			"byteLength":5808,
			"byteOffset":138240,
			"target":34963
		}
	],
	"buffers":[
		{
			"byteLength":144048,
			"uri":"SM_Env_Rock_Pile_02.bin"
		}
	]
}
