{
	"asset":{
		"generator":"Khronos glTF Blender I/O v4.5.47",
		"version":"2.0"
	},
	"scene":0,
	"scenes":[
		{
			"name":"Scene",
			"nodes":[
				1
			]
		}
	],
	"nodes":[
		{
			"mesh":0,
			"name":"SM_Env_Rock_Flat_01"
		},
		{
			"children":[
				0
			],
			"name":"SM_Env_Rock_Flat_01"
		}
	],
	"meshes":[
		{
			"name":"Mesh",
			"primitives":[
				{
					"attributes":{
						"POSITION":0,
						"NORMAL":1,
						"TEXCOORD_0":2,
						"TANGENT":3
					},
					"indices":4
				}
			]
		}
	],
	"accessors":[
		{
			"bufferView":0,
			"componentType":5126,
			"count":1764,
			"max":[
				1.3393065929412842,
				1.0692702531814575,
				2.714494466781616
			],
			"min":[
				-1.4515588283538818,
				-0.2617412507534027,
				-2.773564338684082
			],
			"type":"VEC3"
		},
		{
			"bufferView":1,
			"componentType":5126,
			"count":1764,
			"type":"VEC3"
		},
		{
			"bufferView":2,
			"componentType":5126,
			"count":1764,
			"type":"VEC2"
		},
		{
			"bufferView":3,
			"componentType":5126,
			"count":1764,
			"type":"VEC4"
		},
		{
			"bufferView":4,
			"componentType":5123,
			"count":1764,
			"type":"SCALAR"
		}
	],
	"bufferViews":[
		{
			"buffer":0,
			"byteLength":21168,
			"byteOffset":0,
			"target":34962
		},
		{
			"buffer":0,
			"byteLength":21168,
			"byteOffset":21168,
			"target":34962
		},
		{
			"buffer":0,
			"byteLength":14112,
			"byteOffset":42336,
			"target":34962
		},
		{
			"buffer":0,
			"byteLength":28224,
			"byteOffset":56448,
			"target":34962
		},
		{
			"buffer":0,
			"byteLength":3528,
			"byteOffset":84672,
			"target":34963
		}
	],
	"buffers":[
		{
			"byteLength":88200,
			"uri":"SM_Env_Rock_Flat_01.bin"
		}
	]
}
