{
	"asset":{
		"generator":"Khronos glTF Blender I/O v4.5.47",
		"version":"2.0"
	},
	"scene":0,
	"scenes":[
		{
			"name":"Scene",
			"nodes":[
				1
			]
		}
	],
	"nodes":[
		{
			"mesh":0,
			"name":"SM_Env_Seaweed_03_LOD0"
		},
		{
			"children":[
				0
			],
			"name":"SM_Env_Seaweed_03"
		}
	],
	"meshes":[
		{
			"name":"Mesh.002",
			"primitives":[
				{
					"attributes":{
						"POSITION":0,
						"NORMAL":1,
						"TEXCOORD_0":2,
						"TANGENT":3,
						"COLOR_0":4
					},
					"indices":5
				}
			]
		}
	],
	"accessors":[
		{
			"bufferView":0,
			"componentType":5126,
			"count":730,
			"max":[
				2.0128746032714844,
				2.1949706077575684,
				1.4971489906311035
			],
			"min":[
				-1.6902852058410645,
				-0.007829098030924797,
				-1.4917097091674805
			],
			"type":"VEC3"
		},
		{
			"bufferView":1,
			"componentType":5126,
			"count":730,
			"type":"VEC3"
		},
		{
			"bufferView":2,
			"componentType":5126,
			"count":730,
			"type":"VEC2"
		},
		{
			"bufferView":3,
			"componentType":5126,
			"count":730,
			"type":"VEC4"
		},
		{
			"bufferView":4,
			"componentType":5123,
			"count":730,
			"normalized":true,
			"type":"VEC4"
		},
		{
			"bufferView":5,
			"componentType":5123,
			"count":2340,
			"type":"SCALAR"
		}
	],
	"bufferViews":[
		{
			"buffer":0,
			"byteLength":8760,
			"byteOffset":0,
			"target":34962
		},
		{
			"buffer":0,
			"byteLength":8760,
			"byteOffset":8760,
			"target":34962
		},
		{
			"buffer":0,
			"byteLength":5840,
			"byteOffset":17520,
			"target":34962
		},
		{
			"buffer":0,
			"byteLength":11680,
			"byteOffset":23360,
			"target":34962
		},
		{
			"buffer":0,
			"byteLength":5840,
			"byteOffset":35040,
			"target":34962
		},
		{
			"buffer":0,
			"byteLength":4680,
			"byteOffset":40880,
			"target":34963
		}
	],
	"buffers":[
		{
			"byteLength":45560,
			"uri":"SM_Env_Seaweed_03.bin"
		}
	]
}
