{
	"asset":{
		"generator":"Khronos glTF Blender I/O v4.5.47",
		"version":"2.0"
	},
	"scene":0,
	"scenes":[
		{
			"name":"Scene",
			"nodes":[
				1
			]
		}
	],
	"nodes":[
		{
			"mesh":0,
			"name":"SM_Env_Creeper_Vine_01"
		},
		{
			"children":[
				0
			],
			"name":"SM_Env_Creeper_Vine_01"
		}
	],
	"meshes":[
		{
			"name":"Mesh",
			"primitives":[
				{
					"attributes":{
						"POSITION":0,
						"NORMAL":1,
						"TEXCOORD_0":2,
						"TANGENT":3
					},
					"indices":4
				}
			]
		}
	],
	"accessors":[
		{
			"bufferView":0,
			"componentType":5126,
			"count":409,
			"max":[
				0.21101154386997223,
				0.16585049033164978,
				2.9226763248443604
			],
			"min":[
				-0.28497782349586487,
				-0.009210747666656971,
				-0.014415739104151726
			],
			"type":"VEC3"
		},
		{
			"bufferView":1,
			"componentType":5126,
			"count":409,
			"type":"VEC3"
		},
		{
			"bufferView":2,
			"componentType":5126,
			"count":409,
			"type":"VEC2"
		},
		{
			"bufferView":3,
			"componentType":5126,
			"count":409,
			"type":"VEC4"
		},
		{
			"bufferView":4,
			"componentType":5123,
			"count":552,
			"type":"SCALAR"
		}
	],
	"bufferViews":[
		{
			"buffer":0,
			"byteLength":4908,
			"byteOffset":0,
			"target":34962
		},
		{
			"buffer":0,
			"byteLength":4908,
			"byteOffset":4908,
			"target":34962
		},
		{
			"buffer":0,
			"byteLength":3272,
			"byteOffset":9816,
			"target":34962
		},
		{
			"buffer":0,
			"byteLength":6544,
			"byteOffset":13088,
			"target":34962
		},
		{
			"buffer":0,
			"byteLength":1104,
			"byteOffset":19632,
			"target":34963
		}
	],
	"buffers":[
		{
			"byteLength":20736,
			"uri":"SM_Env_Creeper_Vine_01.bin"
		}
	]
}
