{
	"asset":{
		"generator":"Khronos glTF Blender I/O v4.5.47",
		"version":"2.0"
	},
	"scene":0,
	"scenes":[
		{
			"name":"Scene",
			"nodes":[
				1
			]
		}
	],
	"nodes":[
		{
			"mesh":0,
			"name":"SM_Env_Tree_Palm_03_LOD0"
		},
		{
			"children":[
				0
			],
			"name":"SM_Env_Tree_Palm_03"
		}
	],
	"meshes":[
		{
			"name":"Mesh",
			"primitives":[
				{
					"attributes":{
						"POSITION":0,
						"NORMAL":1,
						"TEXCOORD_0":2,
						"TANGENT":3,
						"COLOR_0":4
					},
					"indices":5
				}
			]
		}
	],
	"accessors":[
		{
			"bufferView":0,
			"componentType":5126,
			"count":1360,
			"max":[
				2.7837817668914795,
				11.553864479064941,
				2.646821975708008
			],
			"min":[
				-2.415889263153076,
				-0.40849679708480835,
				-2.412949323654175
			],
			"type":"VEC3"
		},
		{
			"bufferView":1,
			"componentType":5126,
			"count":1360,
			"type":"VEC3"
		},
		{
			"bufferView":2,
			"componentType":5126,
			"count":1360,
			"type":"VEC2"
		},
		{
			"bufferView":3,
			"componentType":5126,
			"count":1360,
			"type":"VEC4"
		},
		{
			"bufferView":4,
			"componentType":5123,
			"count":1360,
			"normalized":true,
			"type":"VEC4"
		},
		{
			"bufferView":5,
			"componentType":5123,
			"count":1956,
			"type":"SCALAR"
		}
	],
	"bufferViews":[
		{
			"buffer":0,
			"byteLength":16320,
			"byteOffset":0,
			"target":34962
		},
		{
			"buffer":0,
			"byteLength":16320,
			"byteOffset":16320,
			"target":34962
		},
		{
			"buffer":0,
			"byteLength":10880,
			"byteOffset":32640,
			"target":34962
		},
		{
			"buffer":0,
			"byteLength":21760,
			"byteOffset":43520,
			"target":34962
		},
		{
			"buffer":0,
			"byteLength":10880,
			"byteOffset":65280,
			"target":34962
		},
		{
			"buffer":0,
			"byteLength":3912,
			"byteOffset":76160,
			"target":34963
		}
	],
	"buffers":[
		{
			"byteLength":80072,
			"uri":"SM_Env_Tree_Palm_03.bin"
		}
	]
}
