{
	"asset":{
		"generator":"Khronos glTF Blender I/O v4.5.48",
		"version":"2.0"
	},
	"scene":0,
	"scenes":[
		{
			"name":"Scene",
			"nodes":[
				1
			]
		}
	],
	"nodes":[
		{
			"mesh":0,
			"name":"SM_Env_DriftWood_04"
		},
		{
			"children":[
				0
			],
			"name":"SM_Env_DriftWood_04"
		}
	],
	"meshes":[
		{
			"name":"Mesh",
			"primitives":[
				{
					"attributes":{
						"POSITION":0,
						"NORMAL":1,
						"TEXCOORD_0":2,
						"TANGENT":3,
						"COLOR_0":4
					},
					"indices":5
				}
			]
		}
	],
	"accessors":[
		{
			"bufferView":0,
			"componentType":5126,
			"count":280,
			"max":[
				0.888323962688446,
				0.25575152039527893,
				0.4541650414466858
			],
			"min":[
				-0.7197241187095642,
				-0.05151248350739479,
				-0.6103662252426147
			],
			"type":"VEC3"
		},
		{
			"bufferView":1,
			"componentType":5126,
			"count":280,
			"type":"VEC3"
		},
		{
			"bufferView":2,
			"componentType":5126,
			"count":280,
			"type":"VEC2"
		},
		{
			"bufferView":3,
			"componentType":5126,
			"count":280,
			"type":"VEC4"
		},
		{
			"bufferView":4,
			"componentType":5123,
			"count":280,
			"normalized":true,
			"type":"VEC4"
		},
		{
			"bufferView":5,
			"componentType":5123,
			"count":372,
			"type":"SCALAR"
		}
	],
	"bufferViews":[
		{
			"buffer":0,
			"byteLength":3360,
			"byteOffset":0,
			"target":34962
		},
		{
			"buffer":0,
			"byteLength":3360,
			"byteOffset":3360,
			"target":34962
		},
		{
			"buffer":0,
			"byteLength":2240,
			"byteOffset":6720,
			"target":34962
		},
		{
			"buffer":0,
			"byteLength":4480,
			"byteOffset":8960,
			"target":34962
		},
		{
			"buffer":0,
			"byteLength":2240,
			"byteOffset":13440,
			"target":34962
		},
		{
			"buffer":0,
			"byteLength":744,
			"byteOffset":15680,
			"target":34963
		}
	],
	"buffers":[
		{
			"byteLength":16424,
			"uri":"SM_Env_DriftWood_04.bin"
		}
	]
}
