{
	"asset":{
		"generator":"Khronos glTF Blender I/O v4.5.48",
		"version":"2.0"
	},
	"scene":0,
	"scenes":[
		{
			"name":"Scene",
			"nodes":[
				1
			]
		}
	],
	"nodes":[
		{
			"mesh":0,
			"name":"SM_Env_Rock_Spike_01"
		},
		{
			"children":[
				0
			],
			"name":"SM_Env_Rock_Spike_01"
		}
	],
	"meshes":[
		{
			"name":"Mesh",
			"primitives":[
				{
					"attributes":{
						"POSITION":0,
						"NORMAL":1,
						"TEXCOORD_0":2,
						"TANGENT":3
					},
					"indices":4
				}
			]
		}
	],
	"accessors":[
		{
			"bufferView":0,
			"componentType":5126,
			"count":600,
			"max":[
				0.8569775223731995,
				2.4477038383483887,
				0.9577196836471558
			],
			"min":[
				-0.9511669874191284,
				-0.20686562359333038,
				-1.0469874143600464
			],
			"type":"VEC3"
		},
		{
			"bufferView":1,
			"componentType":5126,
			"count":600,
			"type":"VEC3"
		},
		{
			"bufferView":2,
			"componentType":5126,
			"count":600,
			"type":"VEC2"
		},
		{
			"bufferView":3,
			"componentType":5126,
			"count":600,
			"type":"VEC4"
		},
		{
			"bufferView":4,
			"componentType":5123,
			"count":600,
			"type":"SCALAR"
		}
	],
	"bufferViews":[
		{
			"buffer":0,
			"byteLength":7200,
			"byteOffset":0,
			"target":34962
		},
		{
			"buffer":0,
			"byteLength":7200,
			"byteOffset":7200,
			"target":34962
		},
		{
			"buffer":0,
			"byteLength":4800,
			"byteOffset":14400,
			"target":34962
		},
		{
			"buffer":0,
			"byteLength":9600,
			"byteOffset":19200,
			"target":34962
		},
		{
			"buffer":0,
			"byteLength":1200,
			"byteOffset":28800,
			"target":34963
		}
	],
	"buffers":[
		{
			"byteLength":30000,
			"uri":"SM_Env_Rock_Spike_01.bin"
		}
	]
}
