{
	"asset":{
		"generator":"Khronos glTF Blender I/O v4.5.48",
		"version":"2.0"
	},
	"scene":0,
	"scenes":[
		{
			"name":"Scene",
			"nodes":[
				1
			]
		}
	],
	"nodes":[
		{
			"mesh":0,
			"name":"SM_Env_Rock_Pile_07"
		},
		{
			"children":[
				0
			],
			"name":"SM_Env_Rock_Pile_07"
		}
	],
	"meshes":[
		{
			"name":"Mesh",
			"primitives":[
				{
					"attributes":{
						"POSITION":0,
						"NORMAL":1,
						"TEXCOORD_0":2,
						"TANGENT":3
					},
					"indices":4
				}
			]
		}
	],
	"accessors":[
		{
			"bufferView":0,
			"componentType":5126,
			"count":5365,
			"max":[
				4.91311502456665,
				6.652595520019531,
				2.89898419380188
			],
			"min":[
				-5.007304668426514,
				-0.7049407362937927,
				-2.9882566928863525
			],
			"type":"VEC3"
		},
		{
			"bufferView":1,
			"componentType":5126,
			"count":5365,
			"type":"VEC3"
		},
		{
			"bufferView":2,
			"componentType":5126,
			"count":5365,
			"type":"VEC2"
		},
		{
			"bufferView":3,
			"componentType":5126,
			"count":5365,
			"type":"VEC4"
		},
		{
			"bufferView":4,
			"componentType":5123,
			"count":5376,
			"type":"SCALAR"
		}
	],
	"bufferViews":[
		{
			"buffer":0,
			"byteLength":64380,
			"byteOffset":0,
			"target":34962
		},
		{
			"buffer":0,
			"byteLength":64380,
			"byteOffset":64380,
			"target":34962
		},
		{
			"buffer":0,
			"byteLength":42920,
			"byteOffset":128760,
			"target":34962
		},
		{
			"buffer":0,
			"byteLength":85840,
			"byteOffset":171680,
			"target":34962
		},
		{
			"buffer":0,
			"byteLength":10752,
			"byteOffset":257520,
			"target":34963
		}
	],
	"buffers":[
		{
			"byteLength":268272,
			"uri":"SM_Env_Rock_Pile_07.bin"
		}
	]
}
