{
	"asset":{
		"generator":"Khronos glTF Blender I/O v4.5.48",
		"version":"2.0"
	},
	"scene":0,
	"scenes":[
		{
			"name":"Scene",
			"nodes":[
				1
			]
		}
	],
	"nodes":[
		{
			"mesh":0,
			"name":"SM_Env_Rock_Ramp_02"
		},
		{
			"children":[
				0
			],
			"name":"SM_Env_Rock_Ramp_02"
		}
	],
	"meshes":[
		{
			"name":"Mesh",
			"primitives":[
				{
					"attributes":{
						"POSITION":0,
						"NORMAL":1,
						"TEXCOORD_0":2,
						"TANGENT":3
					},
					"indices":4
				}
			]
		}
	],
	"accessors":[
		{
			"bufferView":0,
			"componentType":5126,
			"count":5511,
			"max":[
				10.09585952758789,
				6.281601905822754,
				4.679462909698486
			],
			"min":[
				-10.190048217773438,
				-2.9310786724090576,
				-4.768735408782959
			],
			"type":"VEC3"
		},
		{
			"bufferView":1,
			"componentType":5126,
			"count":5511,
			"type":"VEC3"
		},
		{
			"bufferView":2,
			"componentType":5126,
			"count":5511,
			"type":"VEC2"
		},
		{
			"bufferView":3,
			"componentType":5126,
			"count":5511,
			"type":"VEC4"
		},
		{
			"bufferView":4,
			"componentType":5123,
			"count":5550,
			"type":"SCALAR"
		}
	],
	"bufferViews":[
		{
			"buffer":0,
			"byteLength":66132,
			"byteOffset":0,
			"target":34962
		},
		{
			"buffer":0,
			"byteLength":66132,
			"byteOffset":66132,
			"target":34962
		},
		{
			"buffer":0,
			"byteLength":44088,
			"byteOffset":132264,
			"target":34962
		},
		{
			"buffer":0,
			"byteLength":88176,
			"byteOffset":176352,
			"target":34962
		},
		{
			"buffer":0,
			"byteLength":11100,
			"byteOffset":264528,
			"target":34963
		}
	],
	"buffers":[
		{
			"byteLength":275628,
			"uri":"SM_Env_Rock_Ramp_02.bin"
		}
	]
}
