{
	"asset":{
		"generator":"Khronos glTF Blender I/O v4.5.47",
		"version":"2.0"
	},
	"scene":0,
	"scenes":[
		{
			"name":"Scene",
			"nodes":[
				1
			]
		}
	],
	"nodes":[
		{
			"mesh":0,
			"name":"SM_Env_Rock_Cliff_01"
		},
		{
			"children":[
				0
			],
			"name":"SM_Env_Rock_Cliff_01"
		}
	],
	"meshes":[
		{
			"name":"Mesh",
			"primitives":[
				{
					"attributes":{
						"POSITION":0,
						"NORMAL":1,
						"TEXCOORD_0":2,
						"TANGENT":3
					},
					"indices":4
				}
			]
		}
	],
	"accessors":[
		{
			"bufferView":0,
			"componentType":5126,
			"count":1372,
			"max":[
				2.3821191787719727,
				7.144730091094971,
				2.585935115814209
			],
			"min":[
				-2.6133105754852295,
				-0.977264940738678,
				-2.479775905609131
			],
			"type":"VEC3"
		},
		{
			"bufferView":1,
			"componentType":5126,
			"count":1372,
			"type":"VEC3"
		},
		{
			"bufferView":2,
			"componentType":5126,
			"count":1372,
			"type":"VEC2"
		},
		{
			"bufferView":3,
			"componentType":5126,
			"count":1372,
			"type":"VEC4"
		},
		{
			"bufferView":4,
			"componentType":5123,
			"count":1380,
			"type":"SCALAR"
		}
	],
	"bufferViews":[
		{
			"buffer":0,
			"byteLength":16464,
			"byteOffset":0,
			"target":34962
		},
		{
			"buffer":0,
			"byteLength":16464,
			"byteOffset":16464,
			"target":34962
		},
		{
			"buffer":0,
			"byteLength":10976,
			"byteOffset":32928,
			"target":34962
		},
		{
			"buffer":0,
			"byteLength":21952,
			"byteOffset":43904,
			"target":34962
		},
		{
			"buffer":0,
			"byteLength":2760,
			"byteOffset":65856,
			"target":34963
		}
	],
	"buffers":[
		{
			"byteLength":68616,
			"uri":"SM_Env_Rock_Cliff_01.bin"
		}
	]
}
