{
	"asset":{
		"generator":"Khronos glTF Blender I/O v4.5.47",
		"version":"2.0"
	},
	"scene":0,
	"scenes":[
		{
			"name":"Scene",
			"nodes":[
				1
			]
		}
	],
	"nodes":[
		{
			"mesh":0,
			"name":"SM_Env_Rock_Cliff_02"
		},
		{
			"children":[
				0
			],
			"name":"SM_Env_Rock_Cliff_02"
		}
	],
	"meshes":[
		{
			"name":"Mesh",
			"primitives":[
				{
					"attributes":{
						"POSITION":0,
						"NORMAL":1,
						"TEXCOORD_0":2,
						"TANGENT":3
					},
					"indices":4
				}
			]
		}
	],
	"accessors":[
		{
			"bufferView":0,
			"componentType":5126,
			"count":3763,
			"max":[
				5.876279354095459,
				7.034722328186035,
				3.9521822929382324
			],
			"min":[
				-5.970468521118164,
				-1.1436362266540527,
				-4.041450500488281
			],
			"type":"VEC3"
		},
		{
			"bufferView":1,
			"componentType":5126,
			"count":3763,
			"type":"VEC3"
		},
		{
			"bufferView":2,
			"componentType":5126,
			"count":3763,
			"type":"VEC2"
		},
		{
			"bufferView":3,
			"componentType":5126,
			"count":3763,
			"type":"VEC4"
		},
		{
			"bufferView":4,
			"componentType":5123,
			"count":3786,
			"type":"SCALAR"
		}
	],
	"bufferViews":[
		{
			"buffer":0,
			"byteLength":45156,
			"byteOffset":0,
			"target":34962
		},
		{
			"buffer":0,
			"byteLength":45156,
			"byteOffset":45156,
			"target":34962
		},
		{
			"buffer":0,
			"byteLength":30104,
			"byteOffset":90312,
			"target":34962
		},
		{
			"buffer":0,
			"byteLength":60208,
			"byteOffset":120416,
			"target":34962
		},
		{
			"buffer":0,
			"byteLength":7572,
			"byteOffset":180624,
			"target":34963
		}
	],
	"buffers":[
		{
			"byteLength":188196,
			"uri":"SM_Env_Rock_Cliff_02.bin"
		}
	]
}
