{
	"asset":{
		"generator":"Khronos glTF Blender I/O v4.5.47",
		"version":"2.0"
	},
	"scene":0,
	"scenes":[
		{
			"name":"Scene",
			"nodes":[
				1
			]
		}
	],
	"nodes":[
		{
			"mesh":0,
			"name":"SM_Env_Tree_Palm_02_LOD0"
		},
		{
			"children":[
				0
			],
			"name":"SM_Env_Tree_Palm_02"
		}
	],
	"meshes":[
		{
			"name":"Mesh",
			"primitives":[
				{
					"attributes":{
						"POSITION":0,
						"NORMAL":1,
						"TEXCOORD_0":2,
						"TANGENT":3,
						"COLOR_0":4
					},
					"indices":5
				}
			]
		}
	],
	"accessors":[
		{
			"bufferView":0,
			"componentType":5126,
			"count":1315,
			"max":[
				2.5597360134124756,
				3.648474931716919,
				7.291404724121094
			],
			"min":[
				-2.708724021911621,
				-0.40849679708480835,
				-0.5007330775260925
			],
			"type":"VEC3"
		},
		{
			"bufferView":1,
			"componentType":5126,
			"count":1315,
			"type":"VEC3"
		},
		{
			"bufferView":2,
			"componentType":5126,
			"count":1315,
			"type":"VEC2"
		},
		{
			"bufferView":3,
			"componentType":5126,
			"count":1315,
			"type":"VEC4"
		},
		{
			"bufferView":4,
			"componentType":5123,
			"count":1315,
			"normalized":true,
			"type":"VEC4"
		},
		{
			"bufferView":5,
			"componentType":5123,
			"count":1878,
			"type":"SCALAR"
		}
	],
	"bufferViews":[
		{
			"buffer":0,
			"byteLength":15780,
			"byteOffset":0,
			"target":34962
		},
		{
			"buffer":0,
			"byteLength":15780,
			"byteOffset":15780,
			"target":34962
		},
		{
			"buffer":0,
			"byteLength":10520,
			"byteOffset":31560,
			"target":34962
		},
		{
			"buffer":0,
			"byteLength":21040,
			"byteOffset":42080,
			"target":34962
		},
		{
			"buffer":0,
			"byteLength":10520,
			"byteOffset":63120,
			"target":34962
		},
		{
			"buffer":0,
			"byteLength":3756,
			"byteOffset":73640,
			"target":34963
		}
	],
	"buffers":[
		{
			"byteLength":77396,
			"uri":"SM_Env_Tree_Palm_02.bin"
		}
	]
}
