{
	"asset":{
		"generator":"Khronos glTF Blender I/O v4.5.47",
		"version":"2.0"
	},
	"scene":0,
	"scenes":[
		{
			"name":"Scene",
			"nodes":[
				1
			]
		}
	],
	"nodes":[
		{
			"mesh":0,
			"name":"SM_Env_Rock_Ground_01"
		},
		{
			"children":[
				0
			],
			"name":"SM_Env_Rock_Ground_01"
		}
	],
	"meshes":[
		{
			"name":"Mesh",
			"primitives":[
				{
					"attributes":{
						"POSITION":0,
						"NORMAL":1,
						"TEXCOORD_0":2,
						"TANGENT":3
					},
					"indices":4
				}
			]
		}
	],
	"accessors":[
		{
			"bufferView":0,
			"componentType":5126,
			"count":6657,
			"max":[
				11.054227828979492,
				1.163199543952942,
				9.384699821472168
			],
			"min":[
				-10.157079696655273,
				-2.8572945594787598,
				-10.960688591003418
			],
			"type":"VEC3"
		},
		{
			"bufferView":1,
			"componentType":5126,
			"count":6657,
			"type":"VEC3"
		},
		{
			"bufferView":2,
			"componentType":5126,
			"count":6657,
			"type":"VEC2"
		},
		{
			"bufferView":3,
			"componentType":5126,
			"count":6657,
			"type":"VEC4"
		},
		{
			"bufferView":4,
			"componentType":5123,
			"count":6657,
			"type":"SCALAR"
		}
	],
	"bufferViews":[
		{
			"buffer":0,
			"byteLength":79884,
			"byteOffset":0,
			"target":34962
		},
		{
			"buffer":0,
			"byteLength":79884,
			"byteOffset":79884,
			"target":34962
		},
		{
			"buffer":0,
			"byteLength":53256,
			"byteOffset":159768,
			"target":34962
		},
		{
			"buffer":0,
			"byteLength":106512,
			"byteOffset":213024,
			"target":34962
		},
		{
			"buffer":0,
			"byteLength":13314,
			"byteOffset":319536,
			"target":34963
		}
	],
	"buffers":[
		{
			"byteLength":332852,
			"uri":"SM_Env_Rock_Ground_01.bin"
		}
	]
}
