{
	"asset":{
		"generator":"Khronos glTF Blender I/O v4.5.48",
		"version":"2.0"
	},
	"scene":0,
	"scenes":[
		{
			"name":"Scene",
			"nodes":[
				2
			]
		}
	],
	"nodes":[
		{
			"mesh":0,
			"name":"SM_Env_Tree_Forest_03_Branches_LOD0"
		},
		{
			"mesh":1,
			"name":"SM_Env_Tree_Forest_03_LOD0"
		},
		{
			"children":[
				0,
				1
			],
			"name":"SM_Env_Tree_Forest_03"
		}
	],
	"meshes":[
		{
			"name":"Mesh",
			"primitives":[
				{
					"attributes":{
						"POSITION":0,
						"NORMAL":1,
						"TEXCOORD_0":2,
						"TANGENT":3,
						"COLOR_0":4
					},
					"indices":5
				}
			]
		},
		{
			"name":"Mesh.002",
			"primitives":[
				{
					"attributes":{
						"POSITION":6,
						"NORMAL":7,
						"TEXCOORD_0":8,
						"TANGENT":9,
						"COLOR_0":10
					},
					"indices":11
				}
			]
		}
	],
	"accessors":[
		{
			"bufferView":0,
			"componentType":5126,
			"count":2430,
			"max":[
				4.411253452301025,
				8.35628604888916,
				3.534519910812378
			],
			"min":[
				-3.290194034576416,
				4.189294815063477,
				-3.584836721420288
			],
			"type":"VEC3"
		},
		{
			"bufferView":1,
			"componentType":5126,
			"count":2430,
			"type":"VEC3"
		},
		{
			"bufferView":2,
			"componentType":5126,
			"count":2430,
			"type":"VEC2"
		},
		{
			"bufferView":3,
			"componentType":5126,
			"count":2430,
			"type":"VEC4"
		},
		{
			"bufferView":4,
			"componentType":5123,
			"count":2430,
			"normalized":true,
			"type":"VEC4"
		},
		{
			"bufferView":5,
			"componentType":5123,
			"count":3078,
			"type":"SCALAR"
		},
		{
			"bufferView":6,
			"componentType":5126,
			"count":24857,
			"max":[
				5.242591381072998,
				9.29251766204834,
				4.000734806060791
			],
			"min":[
				-4.401114463806152,
				-0.8134952783584595,
				-4.664436340332031
			],
			"type":"VEC3"
		},
		{
			"bufferView":7,
			"componentType":5126,
			"count":24857,
			"type":"VEC3"
		},
		{
			"bufferView":8,
			"componentType":5126,
			"count":24857,
			"type":"VEC2"
		},
		{
			"bufferView":9,
			"componentType":5126,
			"count":24857,
			"type":"VEC4"
		},
		{
			"bufferView":10,
			"componentType":5123,
			"count":24857,
			"normalized":true,
			"type":"VEC4"
		},
		{
			"bufferView":11,
			"componentType":5123,
			"count":39984,
			"type":"SCALAR"
		}
	],
	"bufferViews":[
		{
			"buffer":0,
			"byteLength":29160,
			"byteOffset":0,
			"target":34962
		},
		{
			"buffer":0,
			"byteLength":29160,
			"byteOffset":29160,
			"target":34962
		},
		{
			"buffer":0,
			"byteLength":19440,
			"byteOffset":58320,
			"target":34962
		},
		{
			"buffer":0,
			"byteLength":38880,
			"byteOffset":77760,
			"target":34962
		},
		{
			"buffer":0,
			"byteLength":19440,
			"byteOffset":116640,
			"target":34962
		},
		{
			"buffer":0,
			"byteLength":6156,
			"byteOffset":136080,
			"target":34963
		},
		{
			"buffer":0,
			"byteLength":298284,
			"byteOffset":142236,
			"target":34962
		},
		{
			"buffer":0,
			"byteLength":298284,
			"byteOffset":440520,
			"target":34962
		},
		{
			"buffer":0,
			"byteLength":198856,
			"byteOffset":738804,
			"target":34962
		},
		{
			"buffer":0,
			"byteLength":397712,
			"byteOffset":937660,
			"target":34962
		},
		{
			"buffer":0,
			"byteLength":198856,
			"byteOffset":1335372,
			"target":34962
		},
		{
			"buffer":0,
			"byteLength":79968,
			"byteOffset":1534228,
			"target":34963
		}
	],
	"buffers":[
		{
			"byteLength":1614196,
			"uri":"SM_Env_Tree_Forest_03.bin"
		}
	]
}
