{
	"asset":{
		"generator":"Khronos glTF Blender I/O v4.5.47",
		"version":"2.0"
	},
	"scene":0,
	"scenes":[
		{
			"name":"Scene",
			"nodes":[
				1
			]
		}
	],
	"nodes":[
		{
			"mesh":0,
			"name":"SM_Env_Rock_04"
		},
		{
			"children":[
				0
			],
			"name":"SM_Env_Rock_04"
		}
	],
	"meshes":[
		{
			"name":"Mesh",
			"primitives":[
				{
					"attributes":{
						"POSITION":0,
						"NORMAL":1,
						"TEXCOORD_0":2,
						"TANGENT":3
					},
					"indices":4
				}
			]
		}
	],
	"accessors":[
		{
			"bufferView":0,
			"componentType":5126,
			"count":1612,
			"max":[
				1.8057323694229126,
				2.5743563175201416,
				2.0758299827575684
			],
			"min":[
				-1.4808398485183716,
				-0.6924465298652649,
				-1.4064501523971558
			],
			"type":"VEC3"
		},
		{
			"bufferView":1,
			"componentType":5126,
			"count":1612,
			"type":"VEC3"
		},
		{
			"bufferView":2,
			"componentType":5126,
			"count":1612,
			"type":"VEC2"
		},
		{
			"bufferView":3,
			"componentType":5126,
			"count":1612,
			"type":"VEC4"
		},
		{
			"bufferView":4,
			"componentType":5123,
			"count":1614,
			"type":"SCALAR"
		}
	],
	"bufferViews":[
		{
			"buffer":0,
			"byteLength":19344,
			"byteOffset":0,
			"target":34962
		},
		{
			"buffer":0,
			"byteLength":19344,
			"byteOffset":19344,
			"target":34962
		},
		{
			"buffer":0,
			"byteLength":12896,
			"byteOffset":38688,
			"target":34962
		},
		{
			"buffer":0,
			"byteLength":25792,
			"byteOffset":51584,
			"target":34962
		},
		{
			"buffer":0,
			"byteLength":3228,
			"byteOffset":77376,
			"target":34963
		}
	],
	"buffers":[
		{
			"byteLength":80604,
			"uri":"SM_Env_Rock_04.bin"
		}
	]
}
