{
	"asset":{
		"generator":"Khronos glTF Blender I/O v4.5.48",
		"version":"2.0"
	},
	"scene":0,
	"scenes":[
		{
			"name":"Scene",
			"nodes":[
				1
			]
		}
	],
	"nodes":[
		{
			"mesh":0,
			"name":"SM_Env_Rock_05"
		},
		{
			"children":[
				0
			],
			"name":"SM_Env_Rock_05"
		}
	],
	"meshes":[
		{
			"name":"Mesh",
			"primitives":[
				{
					"attributes":{
						"POSITION":0,
						"NORMAL":1,
						"TEXCOORD_0":2,
						"TANGENT":3
					},
					"indices":4
				}
			]
		}
	],
	"accessors":[
		{
			"bufferView":0,
			"componentType":5126,
			"count":1715,
			"max":[
				1.726666808128357,
				2.454017162322998,
				1.8380639553070068
			],
			"min":[
				-1.8253289461135864,
				-0.08092942088842392,
				-1.896289348602295
			],
			"type":"VEC3"
		},
		{
			"bufferView":1,
			"componentType":5126,
			"count":1715,
			"type":"VEC3"
		},
		{
			"bufferView":2,
			"componentType":5126,
			"count":1715,
			"type":"VEC2"
		},
		{
			"bufferView":3,
			"componentType":5126,
			"count":1715,
			"type":"VEC4"
		},
		{
			"bufferView":4,
			"componentType":5123,
			"count":1716,
			"type":"SCALAR"
		}
	],
	"bufferViews":[
		{
			"buffer":0,
			"byteLength":20580,
			"byteOffset":0,
			"target":34962
		},
		{
			"buffer":0,
			"byteLength":20580,
			"byteOffset":20580,
			"target":34962
		},
		{
			"buffer":0,
			"byteLength":13720,
			"byteOffset":41160,
			"target":34962
		},
		{
			"buffer":0,
			"byteLength":27440,
			"byteOffset":54880,
			"target":34962
		},
		{
			"buffer":0,
			"byteLength":3432,
			"byteOffset":82320,
			"target":34963
		}
	],
	"buffers":[
		{
			"byteLength":85752,
			"uri":"SM_Env_Rock_05.bin"
		}
	]
}
