{
	"asset":{
		"generator":"Khronos glTF Blender I/O v4.5.47",
		"version":"2.0"
	},
	"scene":0,
	"scenes":[
		{
			"name":"Scene",
			"nodes":[
				1
			]
		}
	],
	"nodes":[
		{
			"mesh":0,
			"name":"SM_Env_Bush_Tropical_02_LOD0"
		},
		{
			"children":[
				0
			],
			"name":"SM_Env_Bush_Tropical_02"
		}
	],
	"meshes":[
		{
			"name":"Mesh",
			"primitives":[
				{
					"attributes":{
						"POSITION":0,
						"NORMAL":1,
						"TEXCOORD_0":2,
						"TANGENT":3,
						"COLOR_0":4
					},
					"indices":5
				}
			]
		}
	],
	"accessors":[
		{
			"bufferView":0,
			"componentType":5126,
			"count":8584,
			"max":[
				1.9119242429733276,
				1.9967269897460938,
				1.611558198928833
			],
			"min":[
				-1.6720585823059082,
				-0.11130845546722412,
				-1.4258253574371338
			],
			"type":"VEC3"
		},
		{
			"bufferView":1,
			"componentType":5126,
			"count":8584,
			"type":"VEC3"
		},
		{
			"bufferView":2,
			"componentType":5126,
			"count":8584,
			"type":"VEC2"
		},
		{
			"bufferView":3,
			"componentType":5126,
			"count":8584,
			"type":"VEC4"
		},
		{
			"bufferView":4,
			"componentType":5123,
			"count":8584,
			"normalized":true,
			"type":"VEC4"
		},
		{
			"bufferView":5,
			"componentType":5123,
			"count":11844,
			"type":"SCALAR"
		}
	],
	"bufferViews":[
		{
			"buffer":0,
			"byteLength":103008,
			"byteOffset":0,
			"target":34962
		},
		{
			"buffer":0,
			"byteLength":103008,
			"byteOffset":103008,
			"target":34962
		},
		{
			"buffer":0,
			"byteLength":68672,
			"byteOffset":206016,
			"target":34962
		},
		{
			"buffer":0,
			"byteLength":137344,
			"byteOffset":274688,
			"target":34962
		},
		{
			"buffer":0,
			"byteLength":68672,
			"byteOffset":412032,
			"target":34962
		},
		{
			"buffer":0,
			"byteLength":23688,
			"byteOffset":480704,
			"target":34963
		}
	],
	"buffers":[
		{
			"byteLength":504392,
			"uri":"SM_Env_Bush_Tropical_02.bin"
		}
	]
}
