{
	"asset":{
		"generator":"Khronos glTF Blender I/O v4.5.47",
		"version":"2.0"
	},
	"scene":0,
	"scenes":[
		{
			"name":"Scene",
			"nodes":[
				1
			]
		}
	],
	"nodes":[
		{
			"mesh":0,
			"name":"SM_Env_Rock_Pile_04"
		},
		{
			"children":[
				0
			],
			"name":"SM_Env_Rock_Pile_04"
		}
	],
	"meshes":[
		{
			"name":"Mesh",
			"primitives":[
				{
					"attributes":{
						"POSITION":0,
						"NORMAL":1,
						"TEXCOORD_0":2,
						"TANGENT":3
					},
					"indices":4
				}
			]
		}
	],
	"accessors":[
		{
			"bufferView":0,
			"componentType":5126,
			"count":1905,
			"max":[
				3.0303611755371094,
				1.4226056337356567,
				2.272660970687866
			],
			"min":[
				-3.1245410442352295,
				-0.3727167844772339,
				-2.361928701400757
			],
			"type":"VEC3"
		},
		{
			"bufferView":1,
			"componentType":5126,
			"count":1905,
			"type":"VEC3"
		},
		{
			"bufferView":2,
			"componentType":5126,
			"count":1905,
			"type":"VEC2"
		},
		{
			"bufferView":3,
			"componentType":5126,
			"count":1905,
			"type":"VEC4"
		},
		{
			"bufferView":4,
			"componentType":5123,
			"count":1914,
			"type":"SCALAR"
		}
	],
	"bufferViews":[
		{
			"buffer":0,
			"byteLength":22860,
			"byteOffset":0,
			"target":34962
		},
		{
			"buffer":0,
			"byteLength":22860,
			"byteOffset":22860,
			"target":34962
		},
		{
			"buffer":0,
			"byteLength":15240,
			"byteOffset":45720,
			"target":34962
		},
		{
			"buffer":0,
			"byteLength":30480,
			"byteOffset":60960,
			"target":34962
		},
		{
			"buffer":0,
			"byteLength":3828,
			"byteOffset":91440,
			"target":34963
		}
	],
	"buffers":[
		{
			"byteLength":95268,
			"uri":"SM_Env_Rock_Pile_04.bin"
		}
	]
}
