{
	"asset":{
		"generator":"Khronos glTF Blender I/O v4.5.47",
		"version":"2.0"
	},
	"scene":0,
	"scenes":[
		{
			"name":"Scene",
			"nodes":[
				2
			]
		}
	],
	"nodes":[
		{
			"mesh":0,
			"name":"SM_Env_Tree_Forest_02_Branches_LOD0"
		},
		{
			"mesh":1,
			"name":"SM_Env_Tree_Forest_02_LOD0"
		},
		{
			"children":[
				0,
				1
			],
			"name":"SM_Env_Tree_Forest_02"
		}
	],
	"meshes":[
		{
			"name":"Mesh",
			"primitives":[
				{
					"attributes":{
						"POSITION":0,
						"NORMAL":1,
						"TEXCOORD_0":2,
						"TANGENT":3,
						"COLOR_0":4
					},
					"indices":5
				}
			]
		},
		{
			"name":"Mesh.002",
			"primitives":[
				{
					"attributes":{
						"POSITION":6,
						"NORMAL":7,
						"TEXCOORD_0":8,
						"COLOR_0":9
					},
					"indices":10
				}
			]
		}
	],
	"accessors":[
		{
			"bufferView":0,
			"componentType":5126,
			"count":5274,
			"max":[
				3.3009228706359863,
				10.587983131408691,
				3.987849712371826
			],
			"min":[
				-4.865818977355957,
				4.9899725914001465,
				-3.9133763313293457
			],
			"type":"VEC3"
		},
		{
			"bufferView":1,
			"componentType":5126,
			"count":5274,
			"type":"VEC3"
		},
		{
			"bufferView":2,
			"componentType":5126,
			"count":5274,
			"type":"VEC2"
		},
		{
			"bufferView":3,
			"componentType":5126,
			"count":5274,
			"type":"VEC4"
		},
		{
			"bufferView":4,
			"componentType":5123,
			"count":5274,
			"normalized":true,
			"type":"VEC4"
		},
		{
			"bufferView":5,
			"componentType":5123,
			"count":6786,
			"type":"SCALAR"
		},
		{
			"bufferView":6,
			"componentType":5126,
			"count":23566,
			"max":[
				4.731363296508789,
				11.079582214355469,
				4.915881633758545
			],
			"min":[
				-5.699607849121094,
				-1.4493306875228882,
				-4.583113193511963
			],
			"type":"VEC3"
		},
		{
			"bufferView":7,
			"componentType":5126,
			"count":23566,
			"type":"VEC3"
		},
		{
			"bufferView":8,
			"componentType":5126,
			"count":23566,
			"type":"VEC2"
		},
		{
			"bufferView":9,
			"componentType":5123,
			"count":23566,
			"normalized":true,
			"type":"VEC4"
		},
		{
			"bufferView":10,
			"componentType":5123,
			"count":35172,
			"type":"SCALAR"
		}
	],
	"bufferViews":[
		{
			"buffer":0,
			"byteLength":63288,
			"byteOffset":0,
			"target":34962
		},
		{
			"buffer":0,
			"byteLength":63288,
			"byteOffset":63288,
			"target":34962
		},
		{
			"buffer":0,
			"byteLength":42192,
			"byteOffset":126576,
			"target":34962
		},
		{
			"buffer":0,
			"byteLength":84384,
			"byteOffset":168768,
			"target":34962
		},
		{
			"buffer":0,
			"byteLength":42192,
			"byteOffset":253152,
			"target":34962
		},
		{
			"buffer":0,
			"byteLength":13572,
			"byteOffset":295344,
			"target":34963
		},
		{
			"buffer":0,
			"byteLength":282792,
			"byteOffset":308916,
			"target":34962
		},
		{
			"buffer":0,
			"byteLength":282792,
			"byteOffset":591708,
			"target":34962
		},
		{
			"buffer":0,
			"byteLength":188528,
			"byteOffset":874500,
			"target":34962
		},
		{
			"buffer":0,
			"byteLength":188528,
			"byteOffset":1063028,
			"target":34962
		},
		{
			"buffer":0,
			"byteLength":70344,
			"byteOffset":1251556,
			"target":34963
		}
	],
	"buffers":[
		{
			"byteLength":1321900,
			"uri":"SM_Env_Tree_Forest_02.bin"
		}
	]
}
