{
	"asset":{
		"generator":"Khronos glTF Blender I/O v4.5.48",
		"version":"2.0"
	},
	"scene":0,
	"scenes":[
		{
			"name":"Scene",
			"nodes":[
				1
			]
		}
	],
	"nodes":[
		{
			"mesh":0,
			"name":"SM_Env_Rock_Pile_06"
		},
		{
			"children":[
				0
			],
			"name":"SM_Env_Rock_Pile_06"
		}
	],
	"meshes":[
		{
			"name":"Mesh",
			"primitives":[
				{
					"attributes":{
						"POSITION":0,
						"NORMAL":1,
						"TEXCOORD_0":2,
						"TANGENT":3
					},
					"indices":4
				}
			]
		}
	],
	"accessors":[
		{
			"bufferView":0,
			"componentType":5126,
			"count":3354,
			"max":[
				3.912797689437866,
				2.323904275894165,
				2.2677831649780273
			],
			"min":[
				-4.006982326507568,
				-1.3206121921539307,
				-2.3570556640625
			],
			"type":"VEC3"
		},
		{
			"bufferView":1,
			"componentType":5126,
			"count":3354,
			"type":"VEC3"
		},
		{
			"bufferView":2,
			"componentType":5126,
			"count":3354,
			"type":"VEC2"
		},
		{
			"bufferView":3,
			"componentType":5126,
			"count":3354,
			"type":"VEC4"
		},
		{
			"bufferView":4,
			"componentType":5123,
			"count":3354,
			"type":"SCALAR"
		}
	],
	"bufferViews":[
		{
			"buffer":0,
			"byteLength":40248,
			"byteOffset":0,
			"target":34962
		},
		{
			"buffer":0,
			"byteLength":40248,
			"byteOffset":40248,
			"target":34962
		},
		{
			"buffer":0,
			"byteLength":26832,
			"byteOffset":80496,
			"target":34962
		},
		{
			"buffer":0,
			"byteLength":53664,
			"byteOffset":107328,
			"target":34962
		},
		{
			"buffer":0,
			"byteLength":6708,
			"byteOffset":160992,
			"target":34963
		}
	],
	"buffers":[
		{
			"byteLength":167700,
			"uri":"SM_Env_Rock_Pile_06.bin"
		}
	]
}
