{
	"asset":{
		"generator":"Khronos glTF Blender I/O v4.5.48",
		"version":"2.0"
	},
	"scene":0,
	"scenes":[
		{
			"name":"Scene",
			"nodes":[
				1
			]
		}
	],
	"nodes":[
		{
			"mesh":0,
			"name":"SM_Env_Tree_Pohutukawa_04_LOD0"
		},
		{
			"children":[
				0
			],
			"name":"SM_Env_Tree_Pohutukawa_04"
		}
	],
	"meshes":[
		{
			"name":"Mesh",
			"primitives":[
				{
					"attributes":{
						"POSITION":0,
						"NORMAL":1,
						"TEXCOORD_0":2,
						"COLOR_0":3
					},
					"indices":4
				}
			]
		}
	],
	"accessors":[
		{
			"bufferView":0,
			"componentType":5126,
			"count":6753,
			"max":[
				2.3781192302703857,
				3.4701831340789795,
				3.8132479190826416
			],
			"min":[
				-2.537426710128784,
				-0.501029908657074,
				-0.5074099898338318
			],
			"type":"VEC3"
		},
		{
			"bufferView":1,
			"componentType":5126,
			"count":6753,
			"type":"VEC3"
		},
		{
			"bufferView":2,
			"componentType":5126,
			"count":6753,
			"type":"VEC2"
		},
		{
			"bufferView":3,
			"componentType":5123,
			"count":6753,
			"normalized":true,
			"type":"VEC4"
		},
		{
			"bufferView":4,
			"componentType":5123,
			"count":12102,
			"type":"SCALAR"
		}
	],
	"bufferViews":[
		{
			"buffer":0,
			"byteLength":81036,
			"byteOffset":0,
			"target":34962
		},
		{
			"buffer":0,
			"byteLength":81036,
			"byteOffset":81036,
			"target":34962
		},
		{
			"buffer":0,
			"byteLength":54024,
			"byteOffset":162072,
			"target":34962
		},
		{
			"buffer":0,
			"byteLength":54024,
			"byteOffset":216096,
			"target":34962
		},
		{
			"buffer":0,
			"byteLength":24204,
			"byteOffset":270120,
			"target":34963
		}
	],
	"buffers":[
		{
			"byteLength":294324,
			"uri":"SM_Env_Tree_Pohutukawa_04.bin"
		}
	]
}
