{
	"asset":{
		"generator":"Khronos glTF Blender I/O v4.5.48",
		"version":"2.0"
	},
	"scene":0,
	"scenes":[
		{
			"name":"Scene",
			"nodes":[
				1
			]
		}
	],
	"nodes":[
		{
			"mesh":0,
			"name":"SM_Env_Fern_01_LOD0"
		},
		{
			"children":[
				0
			],
			"name":"SM_Env_Fern_01"
		}
	],
	"meshes":[
		{
			"name":"Mesh",
			"primitives":[
				{
					"attributes":{
						"POSITION":0,
						"NORMAL":1,
						"TEXCOORD_0":2,
						"TANGENT":3,
						"COLOR_0":4
					},
					"indices":5
				}
			]
		}
	],
	"accessors":[
		{
			"bufferView":0,
			"componentType":5126,
			"count":594,
			"max":[
				1.4093186855316162,
				0.9606624245643616,
				1.2733206748962402
			],
			"min":[
				-1.2210453748703003,
				-0.1973189115524292,
				-1.1435410976409912
			],
			"type":"VEC3"
		},
		{
			"bufferView":1,
			"componentType":5126,
			"count":594,
			"type":"VEC3"
		},
		{
			"bufferView":2,
			"componentType":5126,
			"count":594,
			"type":"VEC2"
		},
		{
			"bufferView":3,
			"componentType":5126,
			"count":594,
			"type":"VEC4"
		},
		{
			"bufferView":4,
			"componentType":5123,
			"count":594,
			"normalized":true,
			"type":"VEC4"
		},
		{
			"bufferView":5,
			"componentType":5123,
			"count":858,
			"type":"SCALAR"
		}
	],
	"bufferViews":[
		{
			"buffer":0,
			"byteLength":7128,
			"byteOffset":0,
			"target":34962
		},
		{
			"buffer":0,
			"byteLength":7128,
			"byteOffset":7128,
			"target":34962
		},
		{
			"buffer":0,
			"byteLength":4752,
			"byteOffset":14256,
			"target":34962
		},
		{
			"buffer":0,
			"byteLength":9504,
			"byteOffset":19008,
			"target":34962
		},
		{
			"buffer":0,
			"byteLength":4752,
			"byteOffset":28512,
			"target":34962
		},
		{
			"buffer":0,
			"byteLength":1716,
			"byteOffset":33264,
			"target":34963
		}
	],
	"buffers":[
		{
			"byteLength":34980,
			"uri":"SM_Env_Fern_01.bin"
		}
	]
}
