{
	"asset":{
		"generator":"Khronos glTF Blender I/O v4.5.47",
		"version":"2.0"
	},
	"scene":0,
	"scenes":[
		{
			"name":"Scene",
			"nodes":[
				1
			]
		}
	],
	"nodes":[
		{
			"mesh":0,
			"name":"SM_Env_Tree_Palm_01_Coconuts_01"
		},
		{
			"children":[
				0
			],
			"name":"SM_Env_Tree_Palm_01_Coconuts_01"
		}
	],
	"meshes":[
		{
			"name":"Mesh",
			"primitives":[
				{
					"attributes":{
						"POSITION":0,
						"NORMAL":1,
						"TEXCOORD_0":2,
						"TANGENT":3,
						"COLOR_0":4
					},
					"indices":5
				}
			]
		}
	],
	"accessors":[
		{
			"bufferView":0,
			"componentType":5126,
			"count":1548,
			"max":[
				1.4735368490219116,
				6.387877464294434,
				0.42676597833633423
			],
			"min":[
				0.6094983220100403,
				5.7126078605651855,
				-0.3905336856842041
			],
			"type":"VEC3"
		},
		{
			"bufferView":1,
			"componentType":5126,
			"count":1548,
			"type":"VEC3"
		},
		{
			"bufferView":2,
			"componentType":5126,
			"count":1548,
			"type":"VEC2"
		},
		{
			"bufferView":3,
			"componentType":5126,
			"count":1548,
			"type":"VEC4"
		},
		{
			"bufferView":4,
			"componentType":5123,
			"count":1548,
			"normalized":true,
			"type":"VEC4"
		},
		{
			"bufferView":5,
			"componentType":5123,
			"count":2052,
			"type":"SCALAR"
		}
	],
	"bufferViews":[
		{
			"buffer":0,
			"byteLength":18576,
			"byteOffset":0,
			"target":34962
		},
		{
			"buffer":0,
			"byteLength":18576,
			"byteOffset":18576,
			"target":34962
		},
		{
			"buffer":0,
			"byteLength":12384,
			"byteOffset":37152,
			"target":34962
		},
		{
			"buffer":0,
			"byteLength":24768,
			"byteOffset":49536,
			"target":34962
		},
		{
			"buffer":0,
			"byteLength":12384,
			"byteOffset":74304,
			"target":34962
		},
		{
			"buffer":0,
			"byteLength":4104,
			"byteOffset":86688,
			"target":34963
		}
	],
	"buffers":[
		{
			"byteLength":90792,
			"uri":"SM_Env_Tree_Palm_01_Coconuts_01.bin"
		}
	]
}
