{
	"asset":{
		"generator":"Khronos glTF Blender I/O v4.5.47",
		"version":"2.0"
	},
	"scene":0,
	"scenes":[
		{
			"name":"Scene",
			"nodes":[
				1
			]
		}
	],
	"nodes":[
		{
			"mesh":0,
			"name":"SM_Env_Rock_02"
		},
		{
			"children":[
				0
			],
			"name":"SM_Env_Rock_02"
		}
	],
	"meshes":[
		{
			"name":"Mesh",
			"primitives":[
				{
					"attributes":{
						"POSITION":0,
						"NORMAL":1,
						"TEXCOORD_0":2,
						"TANGENT":3
					},
					"indices":4
				}
			]
		}
	],
	"accessors":[
		{
			"bufferView":0,
			"componentType":5126,
			"count":642,
			"max":[
				1.1866406202316284,
				1.354400873184204,
				0.9524548053741455
			],
			"min":[
				-1.256191372871399,
				-0.13466215133666992,
				-1.0462816953659058
			],
			"type":"VEC3"
		},
		{
			"bufferView":1,
			"componentType":5126,
			"count":642,
			"type":"VEC3"
		},
		{
			"bufferView":2,
			"componentType":5126,
			"count":642,
			"type":"VEC2"
		},
		{
			"bufferView":3,
			"componentType":5126,
			"count":642,
			"type":"VEC4"
		},
		{
			"bufferView":4,
			"componentType":5123,
			"count":642,
			"type":"SCALAR"
		}
	],
	"bufferViews":[
		{
			"buffer":0,
			"byteLength":7704,
			"byteOffset":0,
			"target":34962
		},
		{
			"buffer":0,
			"byteLength":7704,
			"byteOffset":7704,
			"target":34962
		},
		{
			"buffer":0,
			"byteLength":5136,
			"byteOffset":15408,
			"target":34962
		},
		{
			"buffer":0,
			"byteLength":10272,
			"byteOffset":20544,
			"target":34962
		},
		{
			"buffer":0,
			"byteLength":1284,
			"byteOffset":30816,
			"target":34963
		}
	],
	"buffers":[
		{
			"byteLength":32100,
			"uri":"SM_Env_Rock_02.bin"
		}
	]
}
