{
	"asset":{
		"generator":"Khronos glTF Blender I/O v4.5.47",
		"version":"2.0"
	},
	"scene":0,
	"scenes":[
		{
			"name":"Scene",
			"nodes":[
				1
			]
		}
	],
	"nodes":[
		{
			"mesh":0,
			"name":"SM_Env_Rock_Cliff_03"
		},
		{
			"children":[
				0
			],
			"name":"SM_Env_Rock_Cliff_03"
		}
	],
	"meshes":[
		{
			"name":"Mesh",
			"primitives":[
				{
					"attributes":{
						"POSITION":0,
						"NORMAL":1,
						"TEXCOORD_0":2,
						"TANGENT":3
					},
					"indices":4
				}
			]
		}
	],
	"accessors":[
		{
			"bufferView":0,
			"componentType":5126,
			"count":9553,
			"max":[
				11.090048789978027,
				8.693620681762695,
				4.526196002960205
			],
			"min":[
				-11.18422794342041,
				-1.5330491065979004,
				-4.615464210510254
			],
			"type":"VEC3"
		},
		{
			"bufferView":1,
			"componentType":5126,
			"count":9553,
			"type":"VEC3"
		},
		{
			"bufferView":2,
			"componentType":5126,
			"count":9553,
			"type":"VEC2"
		},
		{
			"bufferView":3,
			"componentType":5126,
			"count":9553,
			"type":"VEC4"
		},
		{
			"bufferView":4,
			"componentType":5123,
			"count":9588,
			"type":"SCALAR"
		}
	],
	"bufferViews":[
		{
			"buffer":0,
			"byteLength":114636,
			"byteOffset":0,
			"target":34962
		},
		{
			"buffer":0,
			"byteLength":114636,
			"byteOffset":114636,
			"target":34962
		},
		{
			"buffer":0,
			"byteLength":76424,
			"byteOffset":229272,
			"target":34962
		},
		{
			"buffer":0,
			"byteLength":152848,
			"byteOffset":305696,
			"target":34962
		},
		{
			"buffer":0,
			"byteLength":19176,
			"byteOffset":458544,
			"target":34963
		}
	],
	"buffers":[
		{
			"byteLength":477720,
			"uri":"SM_Env_Rock_Cliff_03.bin"
		}
	]
}
