{
	"asset":{
		"generator":"Khronos glTF Blender I/O v4.5.47",
		"version":"2.0"
	},
	"scene":0,
	"scenes":[
		{
			"name":"Scene",
			"nodes":[
				1
			]
		}
	],
	"nodes":[
		{
			"mesh":0,
			"name":"SM_Env_Rock_Ground_02"
		},
		{
			"children":[
				0
			],
			"name":"SM_Env_Rock_Ground_02"
		}
	],
	"meshes":[
		{
			"name":"Mesh",
			"primitives":[
				{
					"attributes":{
						"POSITION":0,
						"NORMAL":1,
						"TEXCOORD_0":2,
						"TANGENT":3
					},
					"indices":4
				}
			]
		}
	],
	"accessors":[
		{
			"bufferView":0,
			"componentType":5126,
			"count":1158,
			"max":[
				5.874716758728027,
				1.1557793617248535,
				2.982241153717041
			],
			"min":[
				-6.146035194396973,
				-0.6250625848770142,
				-3.2890477180480957
			],
			"type":"VEC3"
		},
		{
			"bufferView":1,
			"componentType":5126,
			"count":1158,
			"type":"VEC3"
		},
		{
			"bufferView":2,
			"componentType":5126,
			"count":1158,
			"type":"VEC2"
		},
		{
			"bufferView":3,
			"componentType":5126,
			"count":1158,
			"type":"VEC4"
		},
		{
			"bufferView":4,
			"componentType":5123,
			"count":1176,
			"type":"SCALAR"
		}
	],
	"bufferViews":[
		{
			"buffer":0,
			"byteLength":13896,
			"byteOffset":0,
			"target":34962
		},
		{
			"buffer":0,
			"byteLength":13896,
			"byteOffset":13896,
			"target":34962
		},
		{
			"buffer":0,
			"byteLength":9264,
			"byteOffset":27792,
			"target":34962
		},
		{
			"buffer":0,
			"byteLength":18528,
			"byteOffset":37056,
			"target":34962
		},
		{
			"buffer":0,
			"byteLength":2352,
			"byteOffset":55584,
			"target":34963
		}
	],
	"buffers":[
		{
			"byteLength":57936,
			"uri":"SM_Env_Rock_Ground_02.bin"
		}
	]
}
