{
	"asset":{
		"generator":"Khronos glTF Blender I/O v4.5.48",
		"version":"2.0"
	},
	"scene":0,
	"scenes":[
		{
			"name":"Scene",
			"nodes":[
				1
			]
		}
	],
	"nodes":[
		{
			"mesh":0,
			"name":"SM_Env_Tree_Banana_02_LOD0"
		},
		{
			"children":[
				0
			],
			"name":"SM_Env_Tree_Banana_02"
		}
	],
	"meshes":[
		{
			"name":"Mesh",
			"primitives":[
				{
					"attributes":{
						"POSITION":0,
						"NORMAL":1,
						"TEXCOORD_0":2,
						"TEXCOORD_1":3,
						"TANGENT":4,
						"COLOR_0":5
					},
					"indices":6
				}
			]
		}
	],
	"accessors":[
		{
			"bufferView":0,
			"componentType":5126,
			"count":1117,
			"max":[
				2.749779224395752,
				6.077613830566406,
				3.5425689220428467
			],
			"min":[
				-2.188441038131714,
				-0.3290591835975647,
				-1.547674298286438
			],
			"type":"VEC3"
		},
		{
			"bufferView":1,
			"componentType":5126,
			"count":1117,
			"type":"VEC3"
		},
		{
			"bufferView":2,
			"componentType":5126,
			"count":1117,
			"type":"VEC2"
		},
		{
			"bufferView":3,
			"componentType":5126,
			"count":1117,
			"type":"VEC2"
		},
		{
			"bufferView":4,
			"componentType":5126,
			"count":1117,
			"type":"VEC4"
		},
		{
			"bufferView":5,
			"componentType":5123,
			"count":1117,
			"normalized":true,
			"type":"VEC4"
		},
		{
			"bufferView":6,
			"componentType":5123,
			"count":1548,
			"type":"SCALAR"
		}
	],
	"bufferViews":[
		{
			"buffer":0,
			"byteLength":13404,
			"byteOffset":0,
			"target":34962
		},
		{
			"buffer":0,
			"byteLength":13404,
			"byteOffset":13404,
			"target":34962
		},
		{
			"buffer":0,
			"byteLength":8936,
			"byteOffset":26808,
			"target":34962
		},
		{
			"buffer":0,
			"byteLength":8936,
			"byteOffset":35744,
			"target":34962
		},
		{
			"buffer":0,
			"byteLength":17872,
			"byteOffset":44680,
			"target":34962
		},
		{
			"buffer":0,
			"byteLength":8936,
			"byteOffset":62552,
			"target":34962
		},
		{
			"buffer":0,
			"byteLength":3096,
			"byteOffset":71488,
			"target":34963
		}
	],
	"buffers":[
		{
			"byteLength":74584,
			"uri":"SM_Env_Tree_Banana_02.bin"
		}
	]
}
