{
	"asset":{
		"generator":"Khronos glTF Blender I/O v4.5.47",
		"version":"2.0"
	},
	"scene":0,
	"scenes":[
		{
			"name":"Scene",
			"nodes":[
				1
			]
		}
	],
	"nodes":[
		{
			"mesh":0,
			"name":"SM_Env_DriftWood_01"
		},
		{
			"children":[
				0
			],
			"name":"SM_Env_DriftWood_01"
		}
	],
	"meshes":[
		{
			"name":"Mesh",
			"primitives":[
				{
					"attributes":{
						"POSITION":0,
						"NORMAL":1,
						"TEXCOORD_0":2,
						"TANGENT":3,
						"COLOR_0":4
					},
					"indices":5
				}
			]
		}
	],
	"accessors":[
		{
			"bufferView":0,
			"componentType":5126,
			"count":890,
			"max":[
				2.595853328704834,
				0.9411934614181519,
				0.4435741901397705
			],
			"min":[
				-2.030970335006714,
				-0.2696951627731323,
				-1.6087841987609863
			],
			"type":"VEC3"
		},
		{
			"bufferView":1,
			"componentType":5126,
			"count":890,
			"type":"VEC3"
		},
		{
			"bufferView":2,
			"componentType":5126,
			"count":890,
			"type":"VEC2"
		},
		{
			"bufferView":3,
			"componentType":5126,
			"count":890,
			"type":"VEC4"
		},
		{
			"bufferView":4,
			"componentType":5123,
			"count":890,
			"normalized":true,
			"type":"VEC4"
		},
		{
			"bufferView":5,
			"componentType":5123,
			"count":894,
			"type":"SCALAR"
		}
	],
	"bufferViews":[
		{
			"buffer":0,
			"byteLength":10680,
			"byteOffset":0,
			"target":34962
		},
		{
			"buffer":0,
			"byteLength":10680,
			"byteOffset":10680,
			"target":34962
		},
		{
			"buffer":0,
			"byteLength":7120,
			"byteOffset":21360,
			"target":34962
		},
		{
			"buffer":0,
			"byteLength":14240,
			"byteOffset":28480,
			"target":34962
		},
		{
			"buffer":0,
			"byteLength":7120,
			"byteOffset":42720,
			"target":34962
		},
		{
			"buffer":0,
			"byteLength":1788,
			"byteOffset":49840,
			"target":34963
		}
	],
	"buffers":[
		{
			"byteLength":51628,
			"uri":"SM_Env_DriftWood_01.bin"
		}
	]
}
