{
	"asset":{
		"generator":"Khronos glTF Blender I/O v4.5.47",
		"version":"2.0"
	},
	"scene":0,
	"scenes":[
		{
			"name":"Scene",
			"nodes":[
				2
			]
		}
	],
	"nodes":[
		{
			"mesh":0,
			"name":"SM_Env_Tree_Banana_01_LOD0"
		},
		{
			"mesh":1,
			"name":"SM_Env_Tree_Banana_01_Leaves_LOD0"
		},
		{
			"children":[
				0,
				1
			],
			"name":"SM_Env_Tree_Banana_04"
		}
	],
	"meshes":[
		{
			"name":"Mesh",
			"primitives":[
				{
					"attributes":{
						"POSITION":0,
						"NORMAL":1,
						"TEXCOORD_0":2,
						"TEXCOORD_1":3,
						"TANGENT":4,
						"COLOR_0":5
					},
					"indices":6
				}
			]
		},
		{
			"name":"Mesh.001",
			"primitives":[
				{
					"attributes":{
						"POSITION":7,
						"NORMAL":8,
						"TEXCOORD_0":9,
						"TEXCOORD_1":10,
						"TANGENT":11,
						"COLOR_0":12
					},
					"indices":13
				}
			]
		}
	],
	"accessors":[
		{
			"bufferView":0,
			"componentType":5126,
			"count":234,
			"max":[
				0.49248671531677246,
				2.898529529571533,
				0.4847138226032257
			],
			"min":[
				-0.4826820194721222,
				-0.3290586769580841,
				-0.4436088502407074
			],
			"type":"VEC3"
		},
		{
			"bufferView":1,
			"componentType":5126,
			"count":234,
			"type":"VEC3"
		},
		{
			"bufferView":2,
			"componentType":5126,
			"count":234,
			"type":"VEC2"
		},
		{
			"bufferView":3,
			"componentType":5126,
			"count":234,
			"type":"VEC2"
		},
		{
			"bufferView":4,
			"componentType":5126,
			"count":234,
			"type":"VEC4"
		},
		{
			"bufferView":5,
			"componentType":5123,
			"count":234,
			"normalized":true,
			"type":"VEC4"
		},
		{
			"bufferView":6,
			"componentType":5123,
			"count":324,
			"type":"SCALAR"
		},
		{
			"bufferView":7,
			"componentType":5126,
			"count":874,
			"max":[
				2.749779224395752,
				5.544694900512695,
				2.7086901664733887
			],
			"min":[
				-2.188441038131714,
				2.7415196895599365,
				-2.370004415512085
			],
			"type":"VEC3"
		},
		{
			"bufferView":8,
			"componentType":5126,
			"count":874,
			"type":"VEC3"
		},
		{
			"bufferView":9,
			"componentType":5126,
			"count":874,
			"type":"VEC2"
		},
		{
			"bufferView":10,
			"componentType":5126,
			"count":874,
			"type":"VEC2"
		},
		{
			"bufferView":11,
			"componentType":5126,
			"count":874,
			"type":"VEC4"
		},
		{
			"bufferView":12,
			"componentType":5123,
			"count":874,
			"normalized":true,
			"type":"VEC4"
		},
		{
			"bufferView":13,
			"componentType":5123,
			"count":1224,
			"type":"SCALAR"
		}
	],
	"bufferViews":[
		{
			"buffer":0,
			"byteLength":2808,
			"byteOffset":0,
			"target":34962
		},
		{
			"buffer":0,
			"byteLength":2808,
			"byteOffset":2808,
			"target":34962
		},
		{
			"buffer":0,
			"byteLength":1872,
			"byteOffset":5616,
			"target":34962
		},
		{
			"buffer":0,
			"byteLength":1872,
			"byteOffset":7488,
			"target":34962
		},
		{
			"buffer":0,
			"byteLength":3744,
			"byteOffset":9360,
			"target":34962
		},
		{
			"buffer":0,
			"byteLength":1872,
			"byteOffset":13104,
			"target":34962
		},
		{
			"buffer":0,
			"byteLength":648,
			"byteOffset":14976,
			"target":34963
		},
		{
			"buffer":0,
			"byteLength":10488,
			"byteOffset":15624,
			"target":34962
		},
		{
			"buffer":0,
			"byteLength":10488,
			"byteOffset":26112,
			"target":34962
		},
		{
			"buffer":0,
			"byteLength":6992,
			"byteOffset":36600,
			"target":34962
		},
		{
			"buffer":0,
			"byteLength":6992,
			"byteOffset":43592,
			"target":34962
		},
		{
			"buffer":0,
			"byteLength":13984,
			"byteOffset":50584,
			"target":34962
		},
		{
			"buffer":0,
			"byteLength":6992,
			"byteOffset":64568,
			"target":34962
		},
		{
			"buffer":0,
			"byteLength":2448,
			"byteOffset":71560,
			"target":34963
		}
	],
	"buffers":[
		{
			"byteLength":74008,
			"uri":"SM_Env_Tree_Banana_04.bin"
		}
	]
}
