{
	"asset":{
		"generator":"Khronos glTF Blender I/O v4.5.48",
		"version":"2.0"
	},
	"scene":0,
	"scenes":[
		{
			"name":"Scene",
			"nodes":[
				1
			]
		}
	],
	"nodes":[
		{
			"mesh":0,
			"name":"SM_Env_Dock_Stairs_01"
		},
		{
			"children":[
				0
			],
			"name":"SM_Env_Dock_Stairs_01"
		}
	],
	"meshes":[
		{
			"name":"Mesh",
			"primitives":[
				{
					"attributes":{
						"POSITION":0,
						"NORMAL":1,
						"TEXCOORD_0":2,
						"TEXCOORD_1":3
					},
					"indices":4
				}
			]
		}
	],
	"accessors":[
		{
			"bufferView":0,
			"componentType":5126,
			"count":486,
			"max":[
				1.8626147508621216,
				1.8752657175064087,
				1.7589963674545288
			],
			"min":[
				-1.9567980766296387,
				-0.189464271068573,
				-2.1770360469818115
			],
			"type":"VEC3"
		},
		{
			"bufferView":1,
			"componentType":5126,
			"count":486,
			"type":"VEC3"
		},
		{
			"bufferView":2,
			"componentType":5126,
			"count":486,
			"type":"VEC2"
		},
		{
			"bufferView":3,
			"componentType":5126,
			"count":486,
			"type":"VEC2"
		},
		{
			"bufferView":4,
			"componentType":5123,
			"count":840,
			"type":"SCALAR"
		}
	],
	"bufferViews":[
		{
			"buffer":0,
			"byteLength":5832,
			"byteOffset":0,
			"target":34962
		},
		{
			"buffer":0,
			"byteLength":5832,
			"byteOffset":5832,
			"target":34962
		},
		{
			"buffer":0,
			"byteLength":3888,
			"byteOffset":11664,
			"target":34962
		},
		{
			"buffer":0,
			"byteLength":3888,
			"byteOffset":15552,
			"target":34962
		},
		{
			"buffer":0,
			"byteLength":1680,
			"byteOffset":19440,
			"target":34963
		}
	],
	"buffers":[
		{
			"byteLength":21120,
			"uri":"SM_Env_Dock_Stairs_01.bin"
		}
	]
}
