{
	"asset":{
		"generator":"Khronos glTF Blender I/O v4.5.48",
		"version":"2.0"
	},
	"scene":0,
	"scenes":[
		{
			"name":"Scene",
			"nodes":[
				1
			]
		}
	],
	"nodes":[
		{
			"mesh":0,
			"name":"SM_Env_Rock_Cave_01"
		},
		{
			"children":[
				0
			],
			"name":"SM_Env_Rock_Cave_01"
		}
	],
	"meshes":[
		{
			"name":"Mesh",
			"primitives":[
				{
					"attributes":{
						"POSITION":0,
						"NORMAL":1,
						"TEXCOORD_0":2,
						"TANGENT":3
					},
					"indices":4
				}
			]
		}
	],
	"accessors":[
		{
			"bufferView":0,
			"componentType":5126,
			"count":6456,
			"max":[
				10.650634765625,
				9.503976821899414,
				5.377119064331055
			],
			"min":[
				-10.744824409484863,
				-3.344160556793213,
				-5.466386795043945
			],
			"type":"VEC3"
		},
		{
			"bufferView":1,
			"componentType":5126,
			"count":6456,
			"type":"VEC3"
		},
		{
			"bufferView":2,
			"componentType":5126,
			"count":6456,
			"type":"VEC2"
		},
		{
			"bufferView":3,
			"componentType":5126,
			"count":6456,
			"type":"VEC4"
		},
		{
			"bufferView":4,
			"componentType":5123,
			"count":6456,
			"type":"SCALAR"
		}
	],
	"bufferViews":[
		{
			"buffer":0,
			"byteLength":77472,
			"byteOffset":0,
			"target":34962
		},
		{
			"buffer":0,
			"byteLength":77472,
			"byteOffset":77472,
			"target":34962
		},
		{
			"buffer":0,
			"byteLength":51648,
			"byteOffset":154944,
			"target":34962
		},
		{
			"buffer":0,
			"byteLength":103296,
			"byteOffset":206592,
			"target":34962
		},
		{
			"buffer":0,
			"byteLength":12912,
			"byteOffset":309888,
			"target":34963
		}
	],
	"buffers":[
		{
			"byteLength":322800,
			"uri":"SM_Env_Rock_Cave_01.bin"
		}
	]
}
