{
	"asset":{
		"generator":"Khronos glTF Blender I/O v4.5.47",
		"version":"2.0"
	},
	"scene":0,
	"scenes":[
		{
			"name":"Scene",
			"nodes":[
				1
			]
		}
	],
	"nodes":[
		{
			"mesh":0,
			"name":"SM_Env_Vines_02"
		},
		{
			"children":[
				0
			],
			"name":"SM_Env_Vines_02"
		}
	],
	"meshes":[
		{
			"name":"Mesh",
			"primitives":[
				{
					"attributes":{
						"POSITION":0,
						"NORMAL":1,
						"TEXCOORD_0":2,
						"TANGENT":3,
						"COLOR_0":4
					},
					"indices":5
				}
			]
		}
	],
	"accessors":[
		{
			"bufferView":0,
			"componentType":5126,
			"count":386,
			"max":[
				0.2762047052383423,
				0.252685010433197,
				0.22164970636367798
			],
			"min":[
				-0.35618171095848083,
				-1.8890386819839478,
				-0.1482607126235962
			],
			"type":"VEC3"
		},
		{
			"bufferView":1,
			"componentType":5126,
			"count":386,
			"type":"VEC3"
		},
		{
			"bufferView":2,
			"componentType":5126,
			"count":386,
			"type":"VEC2"
		},
		{
			"bufferView":3,
			"componentType":5126,
			"count":386,
			"type":"VEC4"
		},
		{
			"bufferView":4,
			"componentType":5123,
			"count":386,
			"normalized":true,
			"type":"VEC4"
		},
		{
			"bufferView":5,
			"componentType":5123,
			"count":558,
			"type":"SCALAR"
		}
	],
	"bufferViews":[
		{
			"buffer":0,
			"byteLength":4632,
			"byteOffset":0,
			"target":34962
		},
		{
			"buffer":0,
			"byteLength":4632,
			"byteOffset":4632,
			"target":34962
		},
		{
			"buffer":0,
			"byteLength":3088,
			"byteOffset":9264,
			"target":34962
		},
		{
			"buffer":0,
			"byteLength":6176,
			"byteOffset":12352,
			"target":34962
		},
		{
			"buffer":0,
			"byteLength":3088,
			"byteOffset":18528,
			"target":34962
		},
		{
			"buffer":0,
			"byteLength":1116,
			"byteOffset":21616,
			"target":34963
		}
	],
	"buffers":[
		{
			"byteLength":22732,
			"uri":"SM_Env_Vines_02.bin"
		}
	]
}
