{
	"asset":{
		"generator":"Khronos glTF Blender I/O v4.5.48",
		"version":"2.0"
	},
	"scene":0,
	"scenes":[
		{
			"name":"Scene",
			"nodes":[
				1
			]
		}
	],
	"nodes":[
		{
			"mesh":0,
			"name":"SM_Env_Rock_Pile_03"
		},
		{
			"children":[
				0
			],
			"name":"SM_Env_Rock_Pile_03"
		}
	],
	"meshes":[
		{
			"name":"Mesh",
			"primitives":[
				{
					"attributes":{
						"POSITION":0,
						"NORMAL":1,
						"TEXCOORD_0":2,
						"TANGENT":3
					},
					"indices":4
				}
			]
		}
	],
	"accessors":[
		{
			"bufferView":0,
			"componentType":5126,
			"count":2795,
			"max":[
				3.3048534393310547,
				2.0827109813690186,
				2.812333822250366
			],
			"min":[
				-3.399038076400757,
				-0.3846158981323242,
				-2.901601552963257
			],
			"type":"VEC3"
		},
		{
			"bufferView":1,
			"componentType":5126,
			"count":2795,
			"type":"VEC3"
		},
		{
			"bufferView":2,
			"componentType":5126,
			"count":2795,
			"type":"VEC2"
		},
		{
			"bufferView":3,
			"componentType":5126,
			"count":2795,
			"type":"VEC4"
		},
		{
			"bufferView":4,
			"componentType":5123,
			"count":2796,
			"type":"SCALAR"
		}
	],
	"bufferViews":[
		{
			"buffer":0,
			"byteLength":33540,
			"byteOffset":0,
			"target":34962
		},
		{
			"buffer":0,
			"byteLength":33540,
			"byteOffset":33540,
			"target":34962
		},
		{
			"buffer":0,
			"byteLength":22360,
			"byteOffset":67080,
			"target":34962
		},
		{
			"buffer":0,
			"byteLength":44720,
			"byteOffset":89440,
			"target":34962
		},
		{
			"buffer":0,
			"byteLength":5592,
			"byteOffset":134160,
			"target":34963
		}
	],
	"buffers":[
		{
			"byteLength":139752,
			"uri":"SM_Env_Rock_Pile_03.bin"
		}
	]
}
