{
	"asset":{
		"generator":"Khronos glTF Blender I/O v4.5.47",
		"version":"2.0"
	},
	"scene":0,
	"scenes":[
		{
			"name":"Scene",
			"nodes":[
				2
			]
		}
	],
	"nodes":[
		{
			"mesh":0,
			"name":"SM_Env_Tree_Banana_01_LOD0"
		},
		{
			"mesh":1,
			"name":"SM_Env_Tree_Banana_01_Leaves_LOD0"
		},
		{
			"children":[
				0,
				1
			],
			"name":"SM_Env_Tree_Banana_01"
		}
	],
	"meshes":[
		{
			"name":"Mesh",
			"primitives":[
				{
					"attributes":{
						"POSITION":0,
						"NORMAL":1,
						"TEXCOORD_0":2,
						"TEXCOORD_1":3,
						"TANGENT":4,
						"COLOR_0":5
					},
					"indices":6
				}
			]
		},
		{
			"name":"Mesh.003",
			"primitives":[
				{
					"attributes":{
						"POSITION":7,
						"NORMAL":8,
						"TEXCOORD_0":9,
						"TEXCOORD_1":10,
						"TANGENT":11,
						"COLOR_0":12
					},
					"indices":13
				}
			]
		}
	],
	"accessors":[
		{
			"bufferView":0,
			"componentType":5126,
			"count":1118,
			"max":[
				2.749779224395752,
				5.544694900512695,
				2.7086901664733887
			],
			"min":[
				-2.188441038131714,
				-0.3290586769580841,
				-2.370004415512085
			],
			"type":"VEC3"
		},
		{
			"bufferView":1,
			"componentType":5126,
			"count":1118,
			"type":"VEC3"
		},
		{
			"bufferView":2,
			"componentType":5126,
			"count":1118,
			"type":"VEC2"
		},
		{
			"bufferView":3,
			"componentType":5126,
			"count":1118,
			"type":"VEC2"
		},
		{
			"bufferView":4,
			"componentType":5126,
			"count":1118,
			"type":"VEC4"
		},
		{
			"bufferView":5,
			"componentType":5123,
			"count":1118,
			"normalized":true,
			"type":"VEC4"
		},
		{
			"bufferView":6,
			"componentType":5123,
			"count":1548,
			"type":"SCALAR"
		},
		{
			"bufferView":7,
			"componentType":5126,
			"count":874,
			"max":[
				2.749779224395752,
				5.544694900512695,
				2.7086901664733887
			],
			"min":[
				-2.188441038131714,
				2.7415196895599365,
				-2.370004415512085
			],
			"type":"VEC3"
		},
		{
			"bufferView":8,
			"componentType":5126,
			"count":874,
			"type":"VEC3"
		},
		{
			"bufferView":9,
			"componentType":5126,
			"count":874,
			"type":"VEC2"
		},
		{
			"bufferView":10,
			"componentType":5126,
			"count":874,
			"type":"VEC2"
		},
		{
			"bufferView":11,
			"componentType":5126,
			"count":874,
			"type":"VEC4"
		},
		{
			"bufferView":12,
			"componentType":5123,
			"count":874,
			"normalized":true,
			"type":"VEC4"
		},
		{
			"bufferView":13,
			"componentType":5123,
			"count":1224,
			"type":"SCALAR"
		}
	],
	"bufferViews":[
		{
			"buffer":0,
			"byteLength":13416,
			"byteOffset":0,
			"target":34962
		},
		{
			"buffer":0,
			"byteLength":13416,
			"byteOffset":13416,
			"target":34962
		},
		{
			"buffer":0,
			"byteLength":8944,
			"byteOffset":26832,
			"target":34962
		},
		{
			"buffer":0,
			"byteLength":8944,
			"byteOffset":35776,
			"target":34962
		},
		{
			"buffer":0,
			"byteLength":17888,
			"byteOffset":44720,
			"target":34962
		},
		{
			"buffer":0,
			"byteLength":8944,
			"byteOffset":62608,
			"target":34962
		},
		{
			"buffer":0,
			"byteLength":3096,
			"byteOffset":71552,
			"target":34963
		},
		{
			"buffer":0,
			"byteLength":10488,
			"byteOffset":74648,
			"target":34962
		},
		{
			"buffer":0,
			"byteLength":10488,
			"byteOffset":85136,
			"target":34962
		},
		{
			"buffer":0,
			"byteLength":6992,
			"byteOffset":95624,
			"target":34962
		},
		{
			"buffer":0,
			"byteLength":6992,
			"byteOffset":102616,
			"target":34962
		},
		{
			"buffer":0,
			"byteLength":13984,
			"byteOffset":109608,
			"target":34962
		},
		{
			"buffer":0,
			"byteLength":6992,
			"byteOffset":123592,
			"target":34962
		},
		{
			"buffer":0,
			"byteLength":2448,
			"byteOffset":130584,
			"target":34963
		}
	],
	"buffers":[
		{
			"byteLength":133032,
			"uri":"SM_Env_Tree_Banana_01.bin"
		}
	]
}
