{
	"asset":{
		"generator":"Khronos glTF Blender I/O v4.5.47",
		"version":"2.0"
	},
	"scene":0,
	"scenes":[
		{
			"name":"Scene",
			"nodes":[
				1
			]
		}
	],
	"nodes":[
		{
			"mesh":0,
			"name":"SM_Env_Bush_Palm_03_LOD0"
		},
		{
			"children":[
				0
			],
			"name":"SM_Env_Bush_Palm_03"
		}
	],
	"meshes":[
		{
			"name":"Mesh",
			"primitives":[
				{
					"attributes":{
						"POSITION":0,
						"NORMAL":1,
						"TEXCOORD_0":2,
						"TANGENT":3,
						"COLOR_0":4
					},
					"indices":5
				}
			]
		}
	],
	"accessors":[
		{
			"bufferView":0,
			"componentType":5126,
			"count":942,
			"max":[
				1.2759076356887817,
				2.018071413040161,
				1.2713929414749146
			],
			"min":[
				-0.6582942008972168,
				-0.20424839854240417,
				-1.0025529861450195
			],
			"type":"VEC3"
		},
		{
			"bufferView":1,
			"componentType":5126,
			"count":942,
			"type":"VEC3"
		},
		{
			"bufferView":2,
			"componentType":5126,
			"count":942,
			"type":"VEC2"
		},
		{
			"bufferView":3,
			"componentType":5126,
			"count":942,
			"type":"VEC4"
		},
		{
			"bufferView":4,
			"componentType":5123,
			"count":942,
			"normalized":true,
			"type":"VEC4"
		},
		{
			"bufferView":5,
			"componentType":5123,
			"count":1314,
			"type":"SCALAR"
		}
	],
	"bufferViews":[
		{
			"buffer":0,
			"byteLength":11304,
			"byteOffset":0,
			"target":34962
		},
		{
			"buffer":0,
			"byteLength":11304,
			"byteOffset":11304,
			"target":34962
		},
		{
			"buffer":0,
			"byteLength":7536,
			"byteOffset":22608,
			"target":34962
		},
		{
			"buffer":0,
			"byteLength":15072,
			"byteOffset":30144,
			"target":34962
		},
		{
			"buffer":0,
			"byteLength":7536,
			"byteOffset":45216,
			"target":34962
		},
		{
			"buffer":0,
			"byteLength":2628,
			"byteOffset":52752,
			"target":34963
		}
	],
	"buffers":[
		{
			"byteLength":55380,
			"uri":"SM_Env_Bush_Palm_03.bin"
		}
	]
}
