{
	"asset":{
		"generator":"Khronos glTF Blender I/O v4.5.47",
		"version":"2.0"
	},
	"scene":0,
	"scenes":[
		{
			"name":"Scene",
			"nodes":[
				1
			]
		}
	],
	"nodes":[
		{
			"mesh":0,
			"name":"SM_Env_Rock_Pile_01"
		},
		{
			"children":[
				0
			],
			"name":"SM_Env_Rock_Pile_01"
		}
	],
	"meshes":[
		{
			"name":"Mesh",
			"primitives":[
				{
					"attributes":{
						"POSITION":0,
						"NORMAL":1,
						"TEXCOORD_0":2,
						"TANGENT":3
					},
					"indices":4
				}
			]
		}
	],
	"accessors":[
		{
			"bufferView":0,
			"componentType":5126,
			"count":6583,
			"max":[
				6.643054008483887,
				2.2065865993499756,
				5.119887351989746
			],
			"min":[
				-6.737239837646484,
				-1.1321054697036743,
				-5.209159851074219
			],
			"type":"VEC3"
		},
		{
			"bufferView":1,
			"componentType":5126,
			"count":6583,
			"type":"VEC3"
		},
		{
			"bufferView":2,
			"componentType":5126,
			"count":6583,
			"type":"VEC2"
		},
		{
			"bufferView":3,
			"componentType":5126,
			"count":6583,
			"type":"VEC4"
		},
		{
			"bufferView":4,
			"componentType":5123,
			"count":6612,
			"type":"SCALAR"
		}
	],
	"bufferViews":[
		{
			"buffer":0,
			"byteLength":78996,
			"byteOffset":0,
			"target":34962
		},
		{
			"buffer":0,
			"byteLength":78996,
			"byteOffset":78996,
			"target":34962
		},
		{
			"buffer":0,
			"byteLength":52664,
			"byteOffset":157992,
			"target":34962
		},
		{
			"buffer":0,
			"byteLength":105328,
			"byteOffset":210656,
			"target":34962
		},
		{
			"buffer":0,
			"byteLength":13224,
			"byteOffset":315984,
			"target":34963
		}
	],
	"buffers":[
		{
			"byteLength":329208,
			"uri":"SM_Env_Rock_Pile_01.bin"
		}
	]
}
