{
	"asset":{
		"generator":"Khronos glTF Blender I/O v4.5.48",
		"version":"2.0"
	},
	"scene":0,
	"scenes":[
		{
			"name":"Scene",
			"nodes":[
				1
			]
		}
	],
	"nodes":[
		{
			"mesh":0,
			"name":"SM_Env_Flowers_03_LOD0"
		},
		{
			"children":[
				0
			],
			"name":"SM_Env_Flowers_03"
		}
	],
	"meshes":[
		{
			"name":"Mesh",
			"primitives":[
				{
					"attributes":{
						"POSITION":0,
						"NORMAL":1,
						"TEXCOORD_0":2,
						"TANGENT":3,
						"COLOR_0":4
					},
					"indices":5
				}
			]
		}
	],
	"accessors":[
		{
			"bufferView":0,
			"componentType":5126,
			"count":1170,
			"max":[
				0.43918377161026,
				1.2611511945724487,
				0.6549753546714783
			],
			"min":[
				-0.7530755400657654,
				-0.022272616624832153,
				-0.5717976093292236
			],
			"type":"VEC3"
		},
		{
			"bufferView":1,
			"componentType":5126,
			"count":1170,
			"type":"VEC3"
		},
		{
			"bufferView":2,
			"componentType":5126,
			"count":1170,
			"type":"VEC2"
		},
		{
			"bufferView":3,
			"componentType":5126,
			"count":1170,
			"type":"VEC4"
		},
		{
			"bufferView":4,
			"componentType":5123,
			"count":1170,
			"normalized":true,
			"type":"VEC4"
		},
		{
			"bufferView":5,
			"componentType":5123,
			"count":1620,
			"type":"SCALAR"
		}
	],
	"bufferViews":[
		{
			"buffer":0,
			"byteLength":14040,
			"byteOffset":0,
			"target":34962
		},
		{
			"buffer":0,
			"byteLength":14040,
			"byteOffset":14040,
			"target":34962
		},
		{
			"buffer":0,
			"byteLength":9360,
			"byteOffset":28080,
			"target":34962
		},
		{
			"buffer":0,
			"byteLength":18720,
			"byteOffset":37440,
			"target":34962
		},
		{
			"buffer":0,
			"byteLength":9360,
			"byteOffset":56160,
			"target":34962
		},
		{
			"buffer":0,
			"byteLength":3240,
			"byteOffset":65520,
			"target":34963
		}
	],
	"buffers":[
		{
			"byteLength":68760,
			"uri":"SM_Env_Flowers_03.bin"
		}
	]
}
