{
	"asset":{
		"generator":"Khronos glTF Blender I/O v4.5.48",
		"version":"2.0"
	},
	"scene":0,
	"scenes":[
		{
			"name":"Scene",
			"nodes":[
				2
			]
		}
	],
	"nodes":[
		{
			"mesh":0,
			"name":"SM_Env_Bush_02_Branches_LOD0"
		},
		{
			"mesh":1,
			"name":"SM_Env_Bush_02_Leaves_LOD0"
		},
		{
			"children":[
				0,
				1
			],
			"name":"SM_Env_Bush_02"
		}
	],
	"meshes":[
		{
			"name":"Mesh",
			"primitives":[
				{
					"attributes":{
						"POSITION":0,
						"NORMAL":1,
						"TEXCOORD_0":2,
						"TANGENT":3,
						"COLOR_0":4
					},
					"indices":5
				}
			]
		},
		{
			"name":"Mesh.001",
			"primitives":[
				{
					"attributes":{
						"POSITION":6,
						"NORMAL":7,
						"TEXCOORD_0":8,
						"TANGENT":9,
						"COLOR_0":10
					},
					"indices":11
				}
			]
		}
	],
	"accessors":[
		{
			"bufferView":0,
			"componentType":5126,
			"count":42,
			"max":[
				1.6076425313949585,
				1.5848596096038818,
				1.1627745628356934
			],
			"min":[
				-1.4341704845428467,
				-0.23886142671108246,
				-1.578964352607727
			],
			"type":"VEC3"
		},
		{
			"bufferView":1,
			"componentType":5126,
			"count":42,
			"type":"VEC3"
		},
		{
			"bufferView":2,
			"componentType":5126,
			"count":42,
			"type":"VEC2"
		},
		{
			"bufferView":3,
			"componentType":5126,
			"count":42,
			"type":"VEC4"
		},
		{
			"bufferView":4,
			"componentType":5123,
			"count":42,
			"normalized":true,
			"type":"VEC4"
		},
		{
			"bufferView":5,
			"componentType":5123,
			"count":84,
			"type":"SCALAR"
		},
		{
			"bufferView":6,
			"componentType":5126,
			"count":4596,
			"max":[
				2.5627288818359375,
				1.8317179679870605,
				2.1370129585266113
			],
			"min":[
				-2.38553786277771,
				-0.4983344078063965,
				-2.558196783065796
			],
			"type":"VEC3"
		},
		{
			"bufferView":7,
			"componentType":5126,
			"count":4596,
			"type":"VEC3"
		},
		{
			"bufferView":8,
			"componentType":5126,
			"count":4596,
			"type":"VEC2"
		},
		{
			"bufferView":9,
			"componentType":5126,
			"count":4596,
			"type":"VEC4"
		},
		{
			"bufferView":10,
			"componentType":5123,
			"count":4596,
			"normalized":true,
			"type":"VEC4"
		},
		{
			"bufferView":11,
			"componentType":5123,
			"count":6894,
			"type":"SCALAR"
		}
	],
	"bufferViews":[
		{
			"buffer":0,
			"byteLength":504,
			"byteOffset":0,
			"target":34962
		},
		{
			"buffer":0,
			"byteLength":504,
			"byteOffset":504,
			"target":34962
		},
		{
			"buffer":0,
			"byteLength":336,
			"byteOffset":1008,
			"target":34962
		},
		{
			"buffer":0,
			"byteLength":672,
			"byteOffset":1344,
			"target":34962
		},
		{
			"buffer":0,
			"byteLength":336,
			"byteOffset":2016,
			"target":34962
		},
		{
			"buffer":0,
			"byteLength":168,
			"byteOffset":2352,
			"target":34963
		},
		{
			"buffer":0,
			"byteLength":55152,
			"byteOffset":2520,
			"target":34962
		},
		{
			"buffer":0,
			"byteLength":55152,
			"byteOffset":57672,
			"target":34962
		},
		{
			"buffer":0,
			"byteLength":36768,
			"byteOffset":112824,
			"target":34962
		},
		{
			"buffer":0,
			"byteLength":73536,
			"byteOffset":149592,
			"target":34962
		},
		{
			"buffer":0,
			"byteLength":36768,
			"byteOffset":223128,
			"target":34962
		},
		{
			"buffer":0,
			"byteLength":13788,
			"byteOffset":259896,
			"target":34963
		}
	],
	"buffers":[
		{
			"byteLength":273684,
			"uri":"SM_Env_Bush_02.bin"
		}
	]
}
