{
	"asset":{
		"generator":"Khronos glTF Blender I/O v4.5.48",
		"version":"2.0"
	},
	"scene":0,
	"scenes":[
		{
			"name":"Scene",
			"nodes":[
				2
			]
		}
	],
	"nodes":[
		{
			"mesh":0,
			"name":"SM_Env_Tree_Forest_01_Branches_LOD0"
		},
		{
			"mesh":1,
			"name":"SM_Env_Tree_Forest_01_LOD0"
		},
		{
			"children":[
				0,
				1
			],
			"name":"SM_Env_Tree_Forest_01"
		}
	],
	"meshes":[
		{
			"name":"Mesh",
			"primitives":[
				{
					"attributes":{
						"POSITION":0,
						"NORMAL":1,
						"TEXCOORD_0":2,
						"TANGENT":3,
						"COLOR_0":4
					},
					"indices":5
				}
			]
		},
		{
			"name":"Mesh.002",
			"primitives":[
				{
					"attributes":{
						"POSITION":6,
						"NORMAL":7,
						"TEXCOORD_0":8,
						"COLOR_0":9
					},
					"indices":10
				}
			]
		}
	],
	"accessors":[
		{
			"bufferView":0,
			"componentType":5126,
			"count":5220,
			"max":[
				7.133492946624756,
				15.115589141845703,
				8.308755874633789
			],
			"min":[
				-8.215615272521973,
				7.892341136932373,
				-6.260097980499268
			],
			"type":"VEC3"
		},
		{
			"bufferView":1,
			"componentType":5126,
			"count":5220,
			"type":"VEC3"
		},
		{
			"bufferView":2,
			"componentType":5126,
			"count":5220,
			"type":"VEC2"
		},
		{
			"bufferView":3,
			"componentType":5126,
			"count":5220,
			"type":"VEC4"
		},
		{
			"bufferView":4,
			"componentType":5123,
			"count":5220,
			"normalized":true,
			"type":"VEC4"
		},
		{
			"bufferView":5,
			"componentType":5123,
			"count":6612,
			"type":"SCALAR"
		},
		{
			"bufferView":6,
			"componentType":5126,
			"count":33476,
			"max":[
				8.49918270111084,
				16.851150512695312,
				9.041199684143066
			],
			"min":[
				-8.568315505981445,
				-1.097927212715149,
				-7.90601110458374
			],
			"type":"VEC3"
		},
		{
			"bufferView":7,
			"componentType":5126,
			"count":33476,
			"type":"VEC3"
		},
		{
			"bufferView":8,
			"componentType":5126,
			"count":33476,
			"type":"VEC2"
		},
		{
			"bufferView":9,
			"componentType":5123,
			"count":33476,
			"normalized":true,
			"type":"VEC4"
		},
		{
			"bufferView":10,
			"componentType":5123,
			"count":53514,
			"type":"SCALAR"
		}
	],
	"bufferViews":[
		{
			"buffer":0,
			"byteLength":62640,
			"byteOffset":0,
			"target":34962
		},
		{
			"buffer":0,
			"byteLength":62640,
			"byteOffset":62640,
			"target":34962
		},
		{
			"buffer":0,
			"byteLength":41760,
			"byteOffset":125280,
			"target":34962
		},
		{
			"buffer":0,
			"byteLength":83520,
			"byteOffset":167040,
			"target":34962
		},
		{
			"buffer":0,
			"byteLength":41760,
			"byteOffset":250560,
			"target":34962
		},
		{
			"buffer":0,
			"byteLength":13224,
			"byteOffset":292320,
			"target":34963
		},
		{
			"buffer":0,
			"byteLength":401712,
			"byteOffset":305544,
			"target":34962
		},
		{
			"buffer":0,
			"byteLength":401712,
			"byteOffset":707256,
			"target":34962
		},
		{
			"buffer":0,
			"byteLength":267808,
			"byteOffset":1108968,
			"target":34962
		},
		{
			"buffer":0,
			"byteLength":267808,
			"byteOffset":1376776,
			"target":34962
		},
		{
			"buffer":0,
			"byteLength":107028,
			"byteOffset":1644584,
			"target":34963
		}
	],
	"buffers":[
		{
			"byteLength":1751612,
			"uri":"SM_Env_Tree_Forest_01.bin"
		}
	]
}
