{
	"asset":{
		"generator":"Khronos glTF Blender I/O v4.5.47",
		"version":"2.0"
	},
	"scene":0,
	"scenes":[
		{
			"name":"Scene",
			"nodes":[
				1
			]
		}
	],
	"nodes":[
		{
			"mesh":0,
			"name":"SM_Prop_Coral_01"
		},
		{
			"children":[
				0
			],
			"name":"SM_Prop_Coral_01"
		}
	],
	"meshes":[
		{
			"name":"Mesh",
			"primitives":[
				{
					"attributes":{
						"POSITION":0,
						"NORMAL":1,
						"TEXCOORD_0":2,
						"TANGENT":3
					},
					"indices":4
				}
			]
		}
	],
	"accessors":[
		{
			"bufferView":0,
			"componentType":5126,
			"count":812,
			"max":[
				0.13689208030700684,
				0.2735491394996643,
				0.12241619825363159
			],
			"min":[
				-0.11871474981307983,
				-0.003629465587437153,
				-0.13502709567546844
			],
			"type":"VEC3"
		},
		{
			"bufferView":1,
			"componentType":5126,
			"count":812,
			"type":"VEC3"
		},
		{
			"bufferView":2,
			"componentType":5126,
			"count":812,
			"type":"VEC2"
		},
		{
			"bufferView":3,
			"componentType":5126,
			"count":812,
			"type":"VEC4"
		},
		{
			"bufferView":4,
			"componentType":5123,
			"count":1116,
			"type":"SCALAR"
		}
	],
	"bufferViews":[
		{
			"buffer":0,
			"byteLength":9744,
			"byteOffset":0,
			"target":34962
		},
		{
			"buffer":0,
			"byteLength":9744,
			"byteOffset":9744,
			"target":34962
		},
		{
			"buffer":0,
			"byteLength":6496,
			"byteOffset":19488,
			"target":34962
		},
		{
			"buffer":0,
			"byteLength":12992,
			"byteOffset":25984,
			"target":34962
		},
		{
			"buffer":0,
			"byteLength":2232,
			"byteOffset":38976,
			"target":34963
		}
	],
	"buffers":[
		{
			"byteLength":41208,
			"uri":"SM_Prop_Coral_01.bin"
		}
	]
}
