{
	"asset":{
		"generator":"Khronos glTF Blender I/O v4.5.48",
		"version":"2.0"
	},
	"scene":0,
	"scenes":[
		{
			"name":"Scene",
			"nodes":[
				1
			]
		}
	],
	"nodes":[
		{
			"mesh":0,
			"name":"SM_Prop_Raft_01"
		},
		{
			"children":[
				0
			],
			"name":"SM_Prop_Raft_01"
		}
	],
	"meshes":[
		{
			"name":"Mesh",
			"primitives":[
				{
					"attributes":{
						"POSITION":0,
						"NORMAL":1,
						"TEXCOORD_0":2
					},
					"indices":3
				}
			]
		}
	],
	"accessors":[
		{
			"bufferView":0,
			"componentType":5126,
			"count":9824,
			"max":[
				1.3406908512115479,
				1.4231669902801514,
				2.339162588119507
			],
			"min":[
				-1.3406908512115479,
				-0.09589318931102753,
				-2.339162588119507
			],
			"type":"VEC3"
		},
		{
			"bufferView":1,
			"componentType":5126,
			"count":9824,
			"type":"VEC3"
		},
		{
			"bufferView":2,
			"componentType":5126,
			"count":9824,
			"type":"VEC2"
		},
		{
			"bufferView":3,
			"componentType":5123,
			"count":14460,
			"type":"SCALAR"
		}
	],
	"bufferViews":[
		{
			"buffer":0,
			"byteLength":117888,
			"byteOffset":0,
			"target":34962
		},
		{
			"buffer":0,
			"byteLength":117888,
			"byteOffset":117888,
			"target":34962
		},
		{
			"buffer":0,
			"byteLength":78592,
			"byteOffset":235776,
			"target":34962
		},
		{
			"buffer":0,
			"byteLength":28920,
			"byteOffset":314368,
			"target":34963
		}
	],
	"buffers":[
		{
			"byteLength":343288,
			"uri":"SM_Prop_Raft_01.bin"
		}
	]
}
