{
	"asset":{
		"generator":"Khronos glTF Blender I/O v4.5.48",
		"version":"2.0"
	},
	"scene":0,
	"scenes":[
		{
			"name":"Scene",
			"nodes":[
				1
			]
		}
	],
	"nodes":[
		{
			"mesh":0,
			"name":"SM_Prop_Starfish_03"
		},
		{
			"children":[
				0
			],
			"name":"SM_Prop_Starfish_03"
		}
	],
	"meshes":[
		{
			"name":"Mesh",
			"primitives":[
				{
					"attributes":{
						"POSITION":0,
						"NORMAL":1,
						"TEXCOORD_0":2,
						"TANGENT":3
					},
					"indices":4
				}
			]
		}
	],
	"accessors":[
		{
			"bufferView":0,
			"componentType":5126,
			"count":448,
			"max":[
				0.2298344522714615,
				0.04405658319592476,
				0.19612960517406464
			],
			"min":[
				-0.23219573497772217,
				-0.0028309402987360954,
				-0.24328726530075073
			],
			"type":"VEC3"
		},
		{
			"bufferView":1,
			"componentType":5126,
			"count":448,
			"type":"VEC3"
		},
		{
			"bufferView":2,
			"componentType":5126,
			"count":448,
			"type":"VEC2"
		},
		{
			"bufferView":3,
			"componentType":5126,
			"count":448,
			"type":"VEC4"
		},
		{
			"bufferView":4,
			"componentType":5123,
			"count":1185,
			"type":"SCALAR"
		}
	],
	"bufferViews":[
		{
			"buffer":0,
			"byteLength":5376,
			"byteOffset":0,
			"target":34962
		},
		{
			"buffer":0,
			"byteLength":5376,
			"byteOffset":5376,
			"target":34962
		},
		{
			"buffer":0,
			"byteLength":3584,
			"byteOffset":10752,
			"target":34962
		},
		{
			"buffer":0,
			"byteLength":7168,
			"byteOffset":14336,
			"target":34962
		},
		{
			"buffer":0,
			"byteLength":2370,
			"byteOffset":21504,
			"target":34963
		}
	],
	"buffers":[
		{
			"byteLength":23876,
			"uri":"SM_Prop_Starfish_03.bin"
		}
	]
}
