{
	"asset":{
		"generator":"Khronos glTF Blender I/O v4.5.47",
		"version":"2.0"
	},
	"scene":0,
	"scenes":[
		{
			"name":"Scene",
			"nodes":[
				1
			]
		}
	],
	"nodes":[
		{
			"mesh":0,
			"name":"SM_Prop_Tiki_Torch_03"
		},
		{
			"children":[
				0
			],
			"name":"SM_Prop_Tiki_Torch_03"
		}
	],
	"meshes":[
		{
			"name":"Mesh",
			"primitives":[
				{
					"attributes":{
						"POSITION":0,
						"NORMAL":1,
						"TEXCOORD_0":2
					},
					"indices":3
				}
			]
		}
	],
	"accessors":[
		{
			"bufferView":0,
			"componentType":5126,
			"count":1461,
			"max":[
				0.09473252296447754,
				2.133681058883667,
				0.13342469930648804
			],
			"min":[
				-0.09473252296447754,
				-0.036165811121463776,
				-0.09473265707492828
			],
			"type":"VEC3"
		},
		{
			"bufferView":1,
			"componentType":5126,
			"count":1461,
			"type":"VEC3"
		},
		{
			"bufferView":2,
			"componentType":5126,
			"count":1461,
			"type":"VEC2"
		},
		{
			"bufferView":3,
			"componentType":5123,
			"count":2184,
			"type":"SCALAR"
		}
	],
	"bufferViews":[
		{
			"buffer":0,
			"byteLength":17532,
			"byteOffset":0,
			"target":34962
		},
		{
			"buffer":0,
			"byteLength":17532,
			"byteOffset":17532,
			"target":34962
		},
		{
			"buffer":0,
			"byteLength":11688,
			"byteOffset":35064,
			"target":34962
		},
		{
			"buffer":0,
			"byteLength":4368,
			"byteOffset":46752,
			"target":34963
		}
	],
	"buffers":[
		{
			"byteLength":51120,
			"uri":"SM_Prop_Tiki_Torch_03.bin"
		}
	]
}
