{
	"asset":{
		"generator":"Khronos glTF Blender I/O v4.5.48",
		"version":"2.0"
	},
	"scene":0,
	"scenes":[
		{
			"name":"Scene",
			"nodes":[
				1
			]
		}
	],
	"nodes":[
		{
			"mesh":0,
			"name":"SM_Prop_Coral_07"
		},
		{
			"children":[
				0
			],
			"name":"SM_Prop_Coral_07"
		}
	],
	"meshes":[
		{
			"name":"Mesh",
			"primitives":[
				{
					"attributes":{
						"POSITION":0,
						"NORMAL":1,
						"TEXCOORD_0":2,
						"TANGENT":3
					},
					"indices":4
				}
			]
		}
	],
	"accessors":[
		{
			"bufferView":0,
			"componentType":5126,
			"count":227,
			"max":[
				0.17884030938148499,
				0.23992574214935303,
				0.16637353599071503
			],
			"min":[
				-0.17302508652210236,
				2.4351740623984597e-09,
				-0.16637355089187622
			],
			"type":"VEC3"
		},
		{
			"bufferView":1,
			"componentType":5126,
			"count":227,
			"type":"VEC3"
		},
		{
			"bufferView":2,
			"componentType":5126,
			"count":227,
			"type":"VEC2"
		},
		{
			"bufferView":3,
			"componentType":5126,
			"count":227,
			"type":"VEC4"
		},
		{
			"bufferView":4,
			"componentType":5123,
			"count":498,
			"type":"SCALAR"
		}
	],
	"bufferViews":[
		{
			"buffer":0,
			"byteLength":2724,
			"byteOffset":0,
			"target":34962
		},
		{
			"buffer":0,
			"byteLength":2724,
			"byteOffset":2724,
			"target":34962
		},
		{
			"buffer":0,
			"byteLength":1816,
			"byteOffset":5448,
			"target":34962
		},
		{
			"buffer":0,
			"byteLength":3632,
			"byteOffset":7264,
			"target":34962
		},
		{
			"buffer":0,
			"byteLength":996,
			"byteOffset":10896,
			"target":34963
		}
	],
	"buffers":[
		{
			"byteLength":11892,
			"uri":"SM_Prop_Coral_07.bin"
		}
	]
}
