{
	"asset":{
		"generator":"Khronos glTF Blender I/O v4.5.47",
		"version":"2.0"
	},
	"scene":0,
	"scenes":[
		{
			"name":"Scene",
			"nodes":[
				1
			]
		}
	],
	"nodes":[
		{
			"mesh":0,
			"name":"SM_Prop_Whale_Skeleton_Shoulder_01"
		},
		{
			"children":[
				0
			],
			"name":"SM_Prop_Whale_Skeleton_Shoulder_01"
		}
	],
	"meshes":[
		{
			"name":"Mesh",
			"primitives":[
				{
					"attributes":{
						"POSITION":0,
						"NORMAL":1,
						"TEXCOORD_0":2,
						"TANGENT":3
					},
					"indices":4
				}
			]
		}
	],
	"accessors":[
		{
			"bufferView":0,
			"componentType":5126,
			"count":624,
			"max":[
				1.3520361185073853,
				0.32372158765792847,
				2.4967944622039795
			],
			"min":[
				-1.3520361185073853,
				-0.26130211353302,
				-0.7434423565864563
			],
			"type":"VEC3"
		},
		{
			"bufferView":1,
			"componentType":5126,
			"count":624,
			"type":"VEC3"
		},
		{
			"bufferView":2,
			"componentType":5126,
			"count":624,
			"type":"VEC2"
		},
		{
			"bufferView":3,
			"componentType":5126,
			"count":624,
			"type":"VEC4"
		},
		{
			"bufferView":4,
			"componentType":5123,
			"count":906,
			"type":"SCALAR"
		}
	],
	"bufferViews":[
		{
			"buffer":0,
			"byteLength":7488,
			"byteOffset":0,
			"target":34962
		},
		{
			"buffer":0,
			"byteLength":7488,
			"byteOffset":7488,
			"target":34962
		},
		{
			"buffer":0,
			"byteLength":4992,
			"byteOffset":14976,
			"target":34962
		},
		{
			"buffer":0,
			"byteLength":9984,
			"byteOffset":19968,
			"target":34962
		},
		{
			"buffer":0,
			"byteLength":1812,
			"byteOffset":29952,
			"target":34963
		}
	],
	"buffers":[
		{
			"byteLength":31764,
			"uri":"SM_Prop_Whale_Skeleton_Shoulder_01.bin"
		}
	]
}
