{
	"asset":{
		"generator":"Khronos glTF Blender I/O v5.0.21",
		"version":"2.0"
	},
	"scene":0,
	"scenes":[
		{
			"name":"Scene",
			"nodes":[
				1
			]
		}
	],
	"nodes":[
		{
			"mesh":0,
			"name":"SM_Prop_Coconut_01"
		},
		{
			"children":[
				0
			],
			"name":"SM_Prop_Coconut_01"
		}
	],
	"meshes":[
		{
			"name":"Mesh",
			"primitives":[
				{
					"attributes":{
						"POSITION":0,
						"NORMAL":1,
						"TEXCOORD_0":2
					},
					"indices":3
				}
			]
		}
	],
	"accessors":[
		{
			"bufferView":0,
			"componentType":5126,
			"count":171,
			"max":[
				0.14946620166301727,
				0.17188705503940582,
				0.14583450555801392
			],
			"min":[
				-0.1384088546037674,
				-0.12834538519382477,
				-0.1421881765127182
			],
			"type":"VEC3"
		},
		{
			"bufferView":1,
			"componentType":5126,
			"count":171,
			"type":"VEC3"
		},
		{
			"bufferView":2,
			"componentType":5126,
			"count":171,
			"type":"VEC2"
		},
		{
			"bufferView":3,
			"componentType":5123,
			"count":540,
			"type":"SCALAR"
		}
	],
	"bufferViews":[
		{
			"buffer":0,
			"byteLength":2052,
			"byteOffset":0,
			"target":34962
		},
		{
			"buffer":0,
			"byteLength":2052,
			"byteOffset":2052,
			"target":34962
		},
		{
			"buffer":0,
			"byteLength":1368,
			"byteOffset":4104,
			"target":34962
		},
		{
			"buffer":0,
			"byteLength":1080,
			"byteOffset":5472,
			"target":34963
		}
	],
	"buffers":[
		{
			"byteLength":6552,
			"uri":"SM_Prop_Coconut_01.bin"
		}
	]
}
