{
	"asset":{
		"generator":"Khronos glTF Blender I/O v4.5.48",
		"version":"2.0"
	},
	"scene":0,
	"scenes":[
		{
			"name":"Scene",
			"nodes":[
				1
			]
		}
	],
	"nodes":[
		{
			"mesh":0,
			"name":"SM_Prop_Whale_Skeleton_Tail_01"
		},
		{
			"children":[
				0
			],
			"name":"SM_Prop_Whale_Skeleton_Tail_01"
		}
	],
	"meshes":[
		{
			"name":"Mesh",
			"primitives":[
				{
					"attributes":{
						"POSITION":0,
						"NORMAL":1,
						"TEXCOORD_0":2,
						"TANGENT":3
					},
					"indices":4
				}
			]
		}
	],
	"accessors":[
		{
			"bufferView":0,
			"componentType":5126,
			"count":2326,
			"max":[
				5.098866939544678,
				2.6941721439361572,
				4.589471817016602
			],
			"min":[
				-2.8386034965515137,
				3.032182860351895e-07,
				-6.517873287200928
			],
			"type":"VEC3"
		},
		{
			"bufferView":1,
			"componentType":5126,
			"count":2326,
			"type":"VEC3"
		},
		{
			"bufferView":2,
			"componentType":5126,
			"count":2326,
			"type":"VEC2"
		},
		{
			"bufferView":3,
			"componentType":5126,
			"count":2326,
			"type":"VEC4"
		},
		{
			"bufferView":4,
			"componentType":5123,
			"count":3006,
			"type":"SCALAR"
		}
	],
	"bufferViews":[
		{
			"buffer":0,
			"byteLength":27912,
			"byteOffset":0,
			"target":34962
		},
		{
			"buffer":0,
			"byteLength":27912,
			"byteOffset":27912,
			"target":34962
		},
		{
			"buffer":0,
			"byteLength":18608,
			"byteOffset":55824,
			"target":34962
		},
		{
			"buffer":0,
			"byteLength":37216,
			"byteOffset":74432,
			"target":34962
		},
		{
			"buffer":0,
			"byteLength":6012,
			"byteOffset":111648,
			"target":34963
		}
	],
	"buffers":[
		{
			"byteLength":117660,
			"uri":"SM_Prop_Whale_Skeleton_Tail_01.bin"
		}
	]
}
