{
	"asset":{
		"generator":"Khronos glTF Blender I/O v4.5.47",
		"version":"2.0"
	},
	"scene":0,
	"scenes":[
		{
			"name":"Scene",
			"nodes":[
				1
			]
		}
	],
	"nodes":[
		{
			"mesh":0,
			"name":"SM_Prop_Coral_10"
		},
		{
			"children":[
				0
			],
			"name":"SM_Prop_Coral_10"
		}
	],
	"meshes":[
		{
			"name":"Mesh",
			"primitives":[
				{
					"attributes":{
						"POSITION":0,
						"NORMAL":1,
						"TEXCOORD_0":2,
						"TANGENT":3
					},
					"indices":4
				}
			]
		}
	],
	"accessors":[
		{
			"bufferView":0,
			"componentType":5126,
			"count":234,
			"max":[
				0.23350147902965546,
				0.030857598409056664,
				0.20447467267513275
			],
			"min":[
				-0.22612659633159637,
				-0.030857544392347336,
				-0.20085766911506653
			],
			"type":"VEC3"
		},
		{
			"bufferView":1,
			"componentType":5126,
			"count":234,
			"type":"VEC3"
		},
		{
			"bufferView":2,
			"componentType":5126,
			"count":234,
			"type":"VEC2"
		},
		{
			"bufferView":3,
			"componentType":5126,
			"count":234,
			"type":"VEC4"
		},
		{
			"bufferView":4,
			"componentType":5123,
			"count":318,
			"type":"SCALAR"
		}
	],
	"bufferViews":[
		{
			"buffer":0,
			"byteLength":2808,
			"byteOffset":0,
			"target":34962
		},
		{
			"buffer":0,
			"byteLength":2808,
			"byteOffset":2808,
			"target":34962
		},
		{
			"buffer":0,
			"byteLength":1872,
			"byteOffset":5616,
			"target":34962
		},
		{
			"buffer":0,
			"byteLength":3744,
			"byteOffset":7488,
			"target":34962
		},
		{
			"buffer":0,
			"byteLength":636,
			"byteOffset":11232,
			"target":34963
		}
	],
	"buffers":[
		{
			"byteLength":11868,
			"uri":"SM_Prop_Coral_10.bin"
		}
	]
}
