{
	"asset":{
		"generator":"Khronos glTF Blender I/O v4.5.47",
		"version":"2.0"
	},
	"scene":0,
	"scenes":[
		{
			"name":"Scene",
			"nodes":[
				3
			]
		}
	],
	"nodes":[
		{
			"mesh":0,
			"name":"SM_Prop_GiantClam_01_Lid_01",
			"rotation":[
				0.7071068286895752,
				0,
				0,
				0.7071068286895752
			],
			"scale":[
				0.009999999776482582,
				0.009999999776482582,
				0.009999999776482582
			]
		},
		{
			"mesh":1,
			"name":"SM_Prop_GiantClam_01_Pearl_01",
			"rotation":[
				0.7071068286895752,
				0,
				0,
				0.7071068286895752
			],
			"scale":[
				0.009999999776482582,
				0.009999999776482582,
				0.009999999776482582
			]
		},
		{
			"children":[
				0,
				1
			],
			"mesh":2,
			"name":"SM_Prop_GiantClam_01"
		},
		{
			"children":[
				2
			],
			"name":"SM_Prop_GiantClam_01"
		}
	],
	"meshes":[
		{
			"name":"Mesh.002",
			"primitives":[
				{
					"attributes":{
						"POSITION":0,
						"NORMAL":1,
						"TEXCOORD_0":2,
						"TANGENT":3
					},
					"indices":4
				}
			]
		},
		{
			"name":"Mesh.001",
			"primitives":[
				{
					"attributes":{
						"POSITION":5,
						"NORMAL":6,
						"TEXCOORD_0":7,
						"TANGENT":8
					},
					"indices":9
				}
			]
		},
		{
			"name":"Mesh",
			"primitives":[
				{
					"attributes":{
						"POSITION":10,
						"NORMAL":11,
						"TEXCOORD_0":12,
						"TANGENT":13
					},
					"indices":14
				}
			]
		}
	],
	"accessors":[
		{
			"bufferView":0,
			"componentType":5126,
			"count":1230,
			"max":[
				42.94443130493164,
				37.50050735473633,
				-16.09708023071289
			],
			"min":[
				-42.94443130493164,
				-37.83176803588867,
				-44.90847396850586
			],
			"type":"VEC3"
		},
		{
			"bufferView":1,
			"componentType":5126,
			"count":1230,
			"type":"VEC3"
		},
		{
			"bufferView":2,
			"componentType":5126,
			"count":1230,
			"type":"VEC2"
		},
		{
			"bufferView":3,
			"componentType":5126,
			"count":1230,
			"type":"VEC4"
		},
		{
			"bufferView":4,
			"componentType":5123,
			"count":1692,
			"type":"SCALAR"
		},
		{
			"bufferView":5,
			"componentType":5126,
			"count":213,
			"max":[
				12.011650085449219,
				2.4279327392578125,
				-7.296262741088867
			],
			"min":[
				-12.011650085449219,
				-21.595367431640625,
				-31.319562911987305
			],
			"type":"VEC3"
		},
		{
			"bufferView":6,
			"componentType":5126,
			"count":213,
			"type":"VEC3"
		},
		{
			"bufferView":7,
			"componentType":5126,
			"count":213,
			"type":"VEC2"
		},
		{
			"bufferView":8,
			"componentType":5126,
			"count":213,
			"type":"VEC4"
		},
		{
			"bufferView":9,
			"componentType":5123,
			"count":324,
			"type":"SCALAR"
		},
		{
			"bufferView":10,
			"componentType":5126,
			"count":1670,
			"max":[
				0.43360456824302673,
				0.3201195001602173,
				0.3781740665435791
			],
			"min":[
				-0.43360456824302673,
				-7.289199910331945e-09,
				-0.37817415595054626
			],
			"type":"VEC3"
		},
		{
			"bufferView":11,
			"componentType":5126,
			"count":1670,
			"type":"VEC3"
		},
		{
			"bufferView":12,
			"componentType":5126,
			"count":1670,
			"type":"VEC2"
		},
		{
			"bufferView":13,
			"componentType":5126,
			"count":1670,
			"type":"VEC4"
		},
		{
			"bufferView":14,
			"componentType":5123,
			"count":2364,
			"type":"SCALAR"
		}
	],
	"bufferViews":[
		{
			"buffer":0,
			"byteLength":14760,
			"byteOffset":0,
			"target":34962
		},
		{
			"buffer":0,
			"byteLength":14760,
			"byteOffset":14760,
			"target":34962
		},
		{
			"buffer":0,
			"byteLength":9840,
			"byteOffset":29520,
			"target":34962
		},
		{
			"buffer":0,
			"byteLength":19680,
			"byteOffset":39360,
			"target":34962
		},
		{
			"buffer":0,
			"byteLength":3384,
			"byteOffset":59040,
			"target":34963
		},
		{
			"buffer":0,
			"byteLength":2556,
			"byteOffset":62424,
			"target":34962
		},
		{
			"buffer":0,
			"byteLength":2556,
			"byteOffset":64980,
			"target":34962
		},
		{
			"buffer":0,
			"byteLength":1704,
			"byteOffset":67536,
			"target":34962
		},
		{
			"buffer":0,
			"byteLength":3408,
			"byteOffset":69240,
			"target":34962
		},
		{
			"buffer":0,
			"byteLength":648,
			"byteOffset":72648,
			"target":34963
		},
		{
			"buffer":0,
			"byteLength":20040,
			"byteOffset":73296,
			"target":34962
		},
		{
			"buffer":0,
			"byteLength":20040,
			"byteOffset":93336,
			"target":34962
		},
		{
			"buffer":0,
			"byteLength":13360,
			"byteOffset":113376,
			"target":34962
		},
		{
			"buffer":0,
			"byteLength":26720,
			"byteOffset":126736,
			"target":34962
		},
		{
			"buffer":0,
			"byteLength":4728,
			"byteOffset":153456,
			"target":34963
		}
	],
	"buffers":[
		{
			"byteLength":158184,
			"uri":"SM_Prop_GiantClam_01.bin"
		}
	]
}
