{
	"asset":{
		"generator":"Khronos glTF Blender I/O v4.5.48",
		"version":"2.0"
	},
	"scene":0,
	"scenes":[
		{
			"name":"Scene",
			"nodes":[
				1
			]
		}
	],
	"nodes":[
		{
			"mesh":0,
			"name":"SM_Prop_ShipWreck_01"
		},
		{
			"children":[
				0
			],
			"name":"SM_Prop_ShipWreck_01"
		}
	],
	"meshes":[
		{
			"name":"Mesh",
			"primitives":[
				{
					"attributes":{
						"POSITION":0,
						"NORMAL":1,
						"TEXCOORD_0":2
					},
					"indices":3
				}
			]
		}
	],
	"accessors":[
		{
			"bufferView":0,
			"componentType":5126,
			"count":5241,
			"max":[
				4.135033130645752,
				6.409468173980713,
				5.525144100189209
			],
			"min":[
				-4.135033130645752,
				-3.2759353985056805e-07,
				-5.525144577026367
			],
			"type":"VEC3"
		},
		{
			"bufferView":1,
			"componentType":5126,
			"count":5241,
			"type":"VEC3"
		},
		{
			"bufferView":2,
			"componentType":5126,
			"count":5241,
			"type":"VEC2"
		},
		{
			"bufferView":3,
			"componentType":5123,
			"count":7719,
			"type":"SCALAR"
		}
	],
	"bufferViews":[
		{
			"buffer":0,
			"byteLength":62892,
			"byteOffset":0,
			"target":34962
		},
		{
			"buffer":0,
			"byteLength":62892,
			"byteOffset":62892,
			"target":34962
		},
		{
			"buffer":0,
			"byteLength":41928,
			"byteOffset":125784,
			"target":34962
		},
		{
			"buffer":0,
			"byteLength":15438,
			"byteOffset":167712,
			"target":34963
		}
	],
	"buffers":[
		{
			"byteLength":183152,
			"uri":"SM_Prop_ShipWreck_01.bin"
		}
	]
}
