{
	"asset":{
		"generator":"Khronos glTF Blender I/O v4.5.47",
		"version":"2.0"
	},
	"scene":0,
	"scenes":[
		{
			"name":"Scene",
			"nodes":[
				1
			]
		}
	],
	"nodes":[
		{
			"mesh":0,
			"name":"SM_Prop_Barrel_01"
		},
		{
			"children":[
				0
			],
			"name":"SM_Prop_Barrel_01"
		}
	],
	"meshes":[
		{
			"name":"Mesh",
			"primitives":[
				{
					"attributes":{
						"POSITION":0,
						"NORMAL":1,
						"TEXCOORD_0":2
					},
					"indices":3
				}
			]
		}
	],
	"accessors":[
		{
			"bufferView":0,
			"componentType":5126,
			"count":2312,
			"max":[
				0.4291369915008545,
				1.070222020149231,
				0.43969494104385376
			],
			"min":[
				-0.4291369915008545,
				-2.4882446325591445e-08,
				-0.4396950304508209
			],
			"type":"VEC3"
		},
		{
			"bufferView":1,
			"componentType":5126,
			"count":2312,
			"type":"VEC3"
		},
		{
			"bufferView":2,
			"componentType":5126,
			"count":2312,
			"type":"VEC2"
		},
		{
			"bufferView":3,
			"componentType":5123,
			"count":3534,
			"type":"SCALAR"
		}
	],
	"bufferViews":[
		{
			"buffer":0,
			"byteLength":27744,
			"byteOffset":0,
			"target":34962
		},
		{
			"buffer":0,
			"byteLength":27744,
			"byteOffset":27744,
			"target":34962
		},
		{
			"buffer":0,
			"byteLength":18496,
			"byteOffset":55488,
			"target":34962
		},
		{
			"buffer":0,
			"byteLength":7068,
			"byteOffset":73984,
			"target":34963
		}
	],
	"buffers":[
		{
			"byteLength":81052,
			"uri":"SM_Prop_Barrel_01.bin"
		}
	]
}
