{
	"asset":{
		"generator":"Khronos glTF Blender I/O v4.5.47",
		"version":"2.0"
	},
	"scene":0,
	"scenes":[
		{
			"name":"Scene",
			"nodes":[
				1
			]
		}
	],
	"nodes":[
		{
			"mesh":0,
			"name":"SM_Prop_ShipWreck_02"
		},
		{
			"children":[
				0
			],
			"name":"SM_Prop_ShipWreck_02"
		}
	],
	"meshes":[
		{
			"name":"Mesh",
			"primitives":[
				{
					"attributes":{
						"POSITION":0,
						"NORMAL":1,
						"TEXCOORD_0":2
					},
					"indices":3
				}
			]
		}
	],
	"accessors":[
		{
			"bufferView":0,
			"componentType":5126,
			"count":5509,
			"max":[
				4.294387340545654,
				7.106285095214844,
				6.207278728485107
			],
			"min":[
				-4.294387340545654,
				4.1650287130323704e-07,
				-6.207279205322266
			],
			"type":"VEC3"
		},
		{
			"bufferView":1,
			"componentType":5126,
			"count":5509,
			"type":"VEC3"
		},
		{
			"bufferView":2,
			"componentType":5126,
			"count":5509,
			"type":"VEC2"
		},
		{
			"bufferView":3,
			"componentType":5123,
			"count":8001,
			"type":"SCALAR"
		}
	],
	"bufferViews":[
		{
			"buffer":0,
			"byteLength":66108,
			"byteOffset":0,
			"target":34962
		},
		{
			"buffer":0,
			"byteLength":66108,
			"byteOffset":66108,
			"target":34962
		},
		{
			"buffer":0,
			"byteLength":44072,
			"byteOffset":132216,
			"target":34962
		},
		{
			"buffer":0,
			"byteLength":16002,
			"byteOffset":176288,
			"target":34963
		}
	],
	"buffers":[
		{
			"byteLength":192292,
			"uri":"SM_Prop_ShipWreck_02.bin"
		}
	]
}
