{
	"asset":{
		"generator":"Khronos glTF Blender I/O v4.5.47",
		"version":"2.0"
	},
	"scene":0,
	"scenes":[
		{
			"name":"Scene",
			"nodes":[
				2
			]
		}
	],
	"nodes":[
		{
			"mesh":0,
			"name":"SM_Prop_Whale_Skeleton_Skull_01_Jaw_01",
			"rotation":[
				0.7071068286895752,
				0,
				0,
				0.7071068286895752
			],
			"scale":[
				0.009999999776482582,
				0.009999999776482582,
				0.009999999776482582
			]
		},
		{
			"children":[
				0
			],
			"mesh":1,
			"name":"SM_Prop_Whale_Skeleton_Skull_01"
		},
		{
			"children":[
				1
			],
			"name":"SM_Prop_Whale_Skeleton_Skull_01"
		}
	],
	"meshes":[
		{
			"name":"Mesh.001",
			"primitives":[
				{
					"attributes":{
						"POSITION":0,
						"NORMAL":1,
						"TEXCOORD_0":2,
						"TANGENT":3
					},
					"indices":4
				}
			]
		},
		{
			"name":"Mesh",
			"primitives":[
				{
					"attributes":{
						"POSITION":5,
						"NORMAL":6,
						"TEXCOORD_0":7,
						"TANGENT":8
					},
					"indices":9
				}
			]
		}
	],
	"accessors":[
		{
			"bufferView":0,
			"componentType":5126,
			"count":960,
			"max":[
				184.224365234375,
				651.0675048828125,
				101.81111907958984
			],
			"min":[
				-184.224365234375,
				-37.985008239746094,
				-72.03235626220703
			],
			"type":"VEC3"
		},
		{
			"bufferView":1,
			"componentType":5126,
			"count":960,
			"type":"VEC3"
		},
		{
			"bufferView":2,
			"componentType":5126,
			"count":960,
			"type":"VEC2"
		},
		{
			"bufferView":3,
			"componentType":5126,
			"count":960,
			"type":"VEC4"
		},
		{
			"bufferView":4,
			"componentType":5123,
			"count":960,
			"type":"SCALAR"
		},
		{
			"bufferView":5,
			"componentType":5126,
			"count":2422,
			"max":[
				1.9222155809402466,
				2.7755401134490967,
				6.630319595336914
			],
			"min":[
				-1.922216773033142,
				0.7195271253585815,
				-0.8441461324691772
			],
			"type":"VEC3"
		},
		{
			"bufferView":6,
			"componentType":5126,
			"count":2422,
			"type":"VEC3"
		},
		{
			"bufferView":7,
			"componentType":5126,
			"count":2422,
			"type":"VEC2"
		},
		{
			"bufferView":8,
			"componentType":5126,
			"count":2422,
			"type":"VEC4"
		},
		{
			"bufferView":9,
			"componentType":5123,
			"count":2430,
			"type":"SCALAR"
		}
	],
	"bufferViews":[
		{
			"buffer":0,
			"byteLength":11520,
			"byteOffset":0,
			"target":34962
		},
		{
			"buffer":0,
			"byteLength":11520,
			"byteOffset":11520,
			"target":34962
		},
		{
			"buffer":0,
			"byteLength":7680,
			"byteOffset":23040,
			"target":34962
		},
		{
			"buffer":0,
			"byteLength":15360,
			"byteOffset":30720,
			"target":34962
		},
		{
			"buffer":0,
			"byteLength":1920,
			"byteOffset":46080,
			"target":34963
		},
		{
			"buffer":0,
			"byteLength":29064,
			"byteOffset":48000,
			"target":34962
		},
		{
			"buffer":0,
			"byteLength":29064,
			"byteOffset":77064,
			"target":34962
		},
		{
			"buffer":0,
			"byteLength":19376,
			"byteOffset":106128,
			"target":34962
		},
		{
			"buffer":0,
			"byteLength":38752,
			"byteOffset":125504,
			"target":34962
		},
		{
			"buffer":0,
			"byteLength":4860,
			"byteOffset":164256,
			"target":34963
		}
	],
	"buffers":[
		{
			"byteLength":169116,
			"uri":"SM_Prop_Whale_Skeleton_Skull_01.bin"
		}
	]
}
