{
	"asset":{
		"generator":"Khronos glTF Blender I/O v4.5.47",
		"version":"2.0"
	},
	"scene":0,
	"scenes":[
		{
			"name":"Scene",
			"nodes":[
				1
			]
		}
	],
	"nodes":[
		{
			"mesh":0,
			"name":"SM_Prop_Tiki_Torch_01"
		},
		{
			"children":[
				0
			],
			"name":"SM_Prop_Tiki_Torch_01"
		}
	],
	"meshes":[
		{
			"name":"Mesh",
			"primitives":[
				{
					"attributes":{
						"POSITION":0,
						"NORMAL":1,
						"TEXCOORD_0":2,
						"TEXCOORD_1":3,
						"TEXCOORD_2":4
					},
					"indices":5
				}
			]
		}
	],
	"accessors":[
		{
			"bufferView":0,
			"componentType":5126,
			"count":2966,
			"max":[
				0.15902358293533325,
				2.1750075817108154,
				0.14750470221042633
			],
			"min":[
				-0.1612834930419922,
				-0.051660824567079544,
				-0.18483717739582062
			],
			"type":"VEC3"
		},
		{
			"bufferView":1,
			"componentType":5126,
			"count":2966,
			"type":"VEC3"
		},
		{
			"bufferView":2,
			"componentType":5126,
			"count":2966,
			"type":"VEC2"
		},
		{
			"bufferView":3,
			"componentType":5126,
			"count":2966,
			"type":"VEC2"
		},
		{
			"bufferView":4,
			"componentType":5126,
			"count":2966,
			"type":"VEC2"
		},
		{
			"bufferView":5,
			"componentType":5123,
			"count":4002,
			"type":"SCALAR"
		}
	],
	"bufferViews":[
		{
			"buffer":0,
			"byteLength":35592,
			"byteOffset":0,
			"target":34962
		},
		{
			"buffer":0,
			"byteLength":35592,
			"byteOffset":35592,
			"target":34962
		},
		{
			"buffer":0,
			"byteLength":23728,
			"byteOffset":71184,
			"target":34962
		},
		{
			"buffer":0,
			"byteLength":23728,
			"byteOffset":94912,
			"target":34962
		},
		{
			"buffer":0,
			"byteLength":23728,
			"byteOffset":118640,
			"target":34962
		},
		{
			"buffer":0,
			"byteLength":8004,
			"byteOffset":142368,
			"target":34963
		}
	],
	"buffers":[
		{
			"byteLength":150372,
			"uri":"SM_Prop_Tiki_Torch_01.bin"
		}
	]
}
