{
	"asset":{
		"generator":"Khronos glTF Blender I/O v4.5.47",
		"version":"2.0"
	},
	"scene":0,
	"scenes":[
		{
			"name":"Scene",
			"nodes":[
				4
			]
		}
	],
	"nodes":[
		{
			"mesh":0,
			"name":"SM_Prop_Whale_Skeleton_01_Fin_02"
		},
		{
			"mesh":1,
			"name":"SM_Prop_Whale_Skeleton_01_Fin_01"
		},
		{
			"mesh":2,
			"name":"SM_Prop_Whale_Skeleton_01_Head_01"
		},
		{
			"mesh":3,
			"name":"SM_Prop_Whale_Skeleton_01"
		},
		{
			"children":[
				0,
				1,
				2,
				3
			],
			"name":"SM_Prop_Whale_Skeleton_01"
		}
	],
	"meshes":[
		{
			"name":"Mesh.001",
			"primitives":[
				{
					"attributes":{
						"POSITION":0,
						"NORMAL":1,
						"TEXCOORD_0":2,
						"TANGENT":3
					},
					"indices":4
				}
			]
		},
		{
			"name":"Mesh.002",
			"primitives":[
				{
					"attributes":{
						"POSITION":5,
						"NORMAL":6,
						"TEXCOORD_0":7,
						"TANGENT":8
					},
					"indices":9
				}
			]
		},
		{
			"name":"Mesh.003",
			"primitives":[
				{
					"attributes":{
						"POSITION":10,
						"NORMAL":11,
						"TEXCOORD_0":12,
						"TANGENT":13
					},
					"indices":14
				}
			]
		},
		{
			"name":"Mesh",
			"primitives":[
				{
					"attributes":{
						"POSITION":15,
						"NORMAL":16,
						"TEXCOORD_0":17
					},
					"indices":18
				}
			]
		}
	],
	"accessors":[
		{
			"bufferView":0,
			"componentType":5126,
			"count":936,
			"max":[
				7.977596282958984,
				2.6517481803894043,
				5.004532814025879
			],
			"min":[
				1.685494303703308,
				-0.04253586754202843,
				1.936356782913208
			],
			"type":"VEC3"
		},
		{
			"bufferView":1,
			"componentType":5126,
			"count":936,
			"type":"VEC3"
		},
		{
			"bufferView":2,
			"componentType":5126,
			"count":936,
			"type":"VEC2"
		},
		{
			"bufferView":3,
			"componentType":5126,
			"count":936,
			"type":"VEC4"
		},
		{
			"bufferView":4,
			"componentType":5123,
			"count":1344,
			"type":"SCALAR"
		},
		{
			"bufferView":5,
			"componentType":5126,
			"count":618,
			"max":[
				-1.75335693359375,
				2.7629871368408203,
				5.042120456695557
			],
			"min":[
				-4.082758903503418,
				0.33478084206581116,
				2.551063299179077
			],
			"type":"VEC3"
		},
		{
			"bufferView":6,
			"componentType":5126,
			"count":618,
			"type":"VEC3"
		},
		{
			"bufferView":7,
			"componentType":5126,
			"count":618,
			"type":"VEC2"
		},
		{
			"bufferView":8,
			"componentType":5126,
			"count":618,
			"type":"VEC4"
		},
		{
			"bufferView":9,
			"componentType":5123,
			"count":894,
			"type":"SCALAR"
		},
		{
			"bufferView":10,
			"componentType":5126,
			"count":3352,
			"max":[
				2.2936792373657227,
				3.121826171875,
				13.283935546875
			],
			"min":[
				-1.8936083316802979,
				0.02861105091869831,
				5.6744232177734375
			],
			"type":"VEC3"
		},
		{
			"bufferView":11,
			"componentType":5126,
			"count":3352,
			"type":"VEC3"
		},
		{
			"bufferView":12,
			"componentType":5126,
			"count":3352,
			"type":"VEC2"
		},
		{
			"bufferView":13,
			"componentType":5126,
			"count":3352,
			"type":"VEC4"
		},
		{
			"bufferView":14,
			"componentType":5123,
			"count":3360,
			"type":"SCALAR"
		},
		{
			"bufferView":15,
			"componentType":5126,
			"count":17250,
			"max":[
				5.7565598487854,
				4.534235000610352,
				6.574737548828125
			],
			"min":[
				-2.719531297683716,
				-1.6240417957305908,
				-16.352914810180664
			],
			"type":"VEC3"
		},
		{
			"bufferView":16,
			"componentType":5126,
			"count":17250,
			"type":"VEC3"
		},
		{
			"bufferView":17,
			"componentType":5126,
			"count":17250,
			"type":"VEC2"
		},
		{
			"bufferView":18,
			"componentType":5123,
			"count":19590,
			"type":"SCALAR"
		}
	],
	"bufferViews":[
		{
			"buffer":0,
			"byteLength":11232,
			"byteOffset":0,
			"target":34962
		},
		{
			"buffer":0,
			"byteLength":11232,
			"byteOffset":11232,
			"target":34962
		},
		{
			"buffer":0,
			"byteLength":7488,
			"byteOffset":22464,
			"target":34962
		},
		{
			"buffer":0,
			"byteLength":14976,
			"byteOffset":29952,
			"target":34962
		},
		{
			"buffer":0,
			"byteLength":2688,
			"byteOffset":44928,
			"target":34963
		},
		{
			"buffer":0,
			"byteLength":7416,
			"byteOffset":47616,
			"target":34962
		},
		{
			"buffer":0,
			"byteLength":7416,
			"byteOffset":55032,
			"target":34962
		},
		{
			"buffer":0,
			"byteLength":4944,
			"byteOffset":62448,
			"target":34962
		},
		{
			"buffer":0,
			"byteLength":9888,
			"byteOffset":67392,
			"target":34962
		},
		{
			"buffer":0,
			"byteLength":1788,
			"byteOffset":77280,
			"target":34963
		},
		{
			"buffer":0,
			"byteLength":40224,
			"byteOffset":79068,
			"target":34962
		},
		{
			"buffer":0,
			"byteLength":40224,
			"byteOffset":119292,
			"target":34962
		},
		{
			"buffer":0,
			"byteLength":26816,
			"byteOffset":159516,
			"target":34962
		},
		{
			"buffer":0,
			"byteLength":53632,
			"byteOffset":186332,
			"target":34962
		},
		{
			"buffer":0,
			"byteLength":6720,
			"byteOffset":239964,
			"target":34963
		},
		{
			"buffer":0,
			"byteLength":207000,
			"byteOffset":246684,
			"target":34962
		},
		{
			"buffer":0,
			"byteLength":207000,
			"byteOffset":453684,
			"target":34962
		},
		{
			"buffer":0,
			"byteLength":138000,
			"byteOffset":660684,
			"target":34962
		},
		{
			"buffer":0,
			"byteLength":39180,
			"byteOffset":798684,
			"target":34963
		}
	],
	"buffers":[
		{
			"byteLength":837864,
			"uri":"SM_Prop_Whale_Skeleton_01.bin"
		}
	]
}
