{
	"asset":{
		"generator":"Khronos glTF Blender I/O v4.5.48",
		"version":"2.0"
	},
	"scene":0,
	"scenes":[
		{
			"name":"Scene",
			"nodes":[
				1
			]
		}
	],
	"nodes":[
		{
			"mesh":0,
			"name":"SM_Prop_Coral_05"
		},
		{
			"children":[
				0
			],
			"name":"SM_Prop_Coral_05"
		}
	],
	"meshes":[
		{
			"name":"Mesh",
			"primitives":[
				{
					"attributes":{
						"POSITION":0,
						"NORMAL":1,
						"TEXCOORD_0":2,
						"TANGENT":3
					},
					"indices":4
				}
			]
		}
	],
	"accessors":[
		{
			"bufferView":0,
			"componentType":5126,
			"count":1010,
			"max":[
				0.24478183686733246,
				0.4451817274093628,
				0.2367570549249649
			],
			"min":[
				-0.25333327054977417,
				-8.653009331283101e-08,
				-0.21335944533348083
			],
			"type":"VEC3"
		},
		{
			"bufferView":1,
			"componentType":5126,
			"count":1010,
			"type":"VEC3"
		},
		{
			"bufferView":2,
			"componentType":5126,
			"count":1010,
			"type":"VEC2"
		},
		{
			"bufferView":3,
			"componentType":5126,
			"count":1010,
			"type":"VEC4"
		},
		{
			"bufferView":4,
			"componentType":5123,
			"count":3798,
			"type":"SCALAR"
		}
	],
	"bufferViews":[
		{
			"buffer":0,
			"byteLength":12120,
			"byteOffset":0,
			"target":34962
		},
		{
			"buffer":0,
			"byteLength":12120,
			"byteOffset":12120,
			"target":34962
		},
		{
			"buffer":0,
			"byteLength":8080,
			"byteOffset":24240,
			"target":34962
		},
		{
			"buffer":0,
			"byteLength":16160,
			"byteOffset":32320,
			"target":34962
		},
		{
			"buffer":0,
			"byteLength":7596,
			"byteOffset":48480,
			"target":34963
		}
	],
	"buffers":[
		{
			"byteLength":56076,
			"uri":"SM_Prop_Coral_05.bin"
		}
	]
}
