{
	"asset":{
		"generator":"Khronos glTF Blender I/O v4.5.48",
		"version":"2.0"
	},
	"scene":0,
	"scenes":[
		{
			"name":"Scene",
			"nodes":[
				1
			]
		}
	],
	"nodes":[
		{
			"mesh":0,
			"name":"SM_Prop_Barrel_Broken_02"
		},
		{
			"children":[
				0
			],
			"name":"SM_Prop_Barrel_Broken_02"
		}
	],
	"meshes":[
		{
			"name":"Mesh",
			"primitives":[
				{
					"attributes":{
						"POSITION":0,
						"NORMAL":1,
						"TEXCOORD_0":2
					},
					"indices":3
				}
			]
		}
	],
	"accessors":[
		{
			"bufferView":0,
			"componentType":5126,
			"count":1547,
			"max":[
				0.6744466423988342,
				0.6488705277442932,
				1.4056638479232788
			],
			"min":[
				-1.20280921459198,
				-0.024352338165044785,
				-0.7538043260574341
			],
			"type":"VEC3"
		},
		{
			"bufferView":1,
			"componentType":5126,
			"count":1547,
			"type":"VEC3"
		},
		{
			"bufferView":2,
			"componentType":5126,
			"count":1547,
			"type":"VEC2"
		},
		{
			"bufferView":3,
			"componentType":5123,
			"count":2394,
			"type":"SCALAR"
		}
	],
	"bufferViews":[
		{
			"buffer":0,
			"byteLength":18564,
			"byteOffset":0,
			"target":34962
		},
		{
			"buffer":0,
			"byteLength":18564,
			"byteOffset":18564,
			"target":34962
		},
		{
			"buffer":0,
			"byteLength":12376,
			"byteOffset":37128,
			"target":34962
		},
		{
			"buffer":0,
			"byteLength":4788,
			"byteOffset":49504,
			"target":34963
		}
	],
	"buffers":[
		{
			"byteLength":54292,
			"uri":"SM_Prop_Barrel_Broken_02.bin"
		}
	]
}
