{
	"asset":{
		"generator":"Khronos glTF Blender I/O v4.5.47",
		"version":"2.0"
	},
	"scene":0,
	"scenes":[
		{
			"name":"Scene",
			"nodes":[
				1
			]
		}
	],
	"nodes":[
		{
			"mesh":0,
			"name":"SM_Prop_Coconut_01"
		},
		{
			"children":[
				0
			],
			"name":"SM_Prop_Coconut_01"
		}
	],
	"meshes":[
		{
			"name":"Mesh",
			"primitives":[
				{
					"attributes":{
						"POSITION":0,
						"NORMAL":1,
						"TEXCOORD_0":2
					},
					"indices":3
				}
			]
		}
	],
	"accessors":[
		{
			"bufferView":0,
			"componentType":5126,
			"count":393,
			"max":[
				0.14393752813339233,
				0.3002324402332306,
				0.14401136338710785
			],
			"min":[
				-0.14393752813339233,
				-2.6519189622042916e-10,
				-0.14401131868362427
			],
			"type":"VEC3"
		},
		{
			"bufferView":1,
			"componentType":5126,
			"count":393,
			"type":"VEC3"
		},
		{
			"bufferView":2,
			"componentType":5126,
			"count":393,
			"type":"VEC2"
		},
		{
			"bufferView":3,
			"componentType":5123,
			"count":540,
			"type":"SCALAR"
		}
	],
	"bufferViews":[
		{
			"buffer":0,
			"byteLength":4716,
			"byteOffset":0,
			"target":34962
		},
		{
			"buffer":0,
			"byteLength":4716,
			"byteOffset":4716,
			"target":34962
		},
		{
			"buffer":0,
			"byteLength":3144,
			"byteOffset":9432,
			"target":34962
		},
		{
			"buffer":0,
			"byteLength":1080,
			"byteOffset":12576,
			"target":34963
		}
	],
	"buffers":[
		{
			"byteLength":13656,
			"uri":"SM_Prop_Coconut_01.bin"
		}
	]
}
