{
	"asset":{
		"generator":"Khronos glTF Blender I/O v4.5.48",
		"version":"2.0"
	},
	"scene":0,
	"scenes":[
		{
			"name":"Scene",
			"nodes":[
				1
			]
		}
	],
	"nodes":[
		{
			"mesh":0,
			"name":"SM_Prop_PirateFlag_01"
		},
		{
			"children":[
				0
			],
			"name":"SM_Prop_PirateFlag_01"
		}
	],
	"meshes":[
		{
			"name":"Mesh",
			"primitives":[
				{
					"attributes":{
						"POSITION":0,
						"NORMAL":1,
						"TEXCOORD_0":2,
						"TEXCOORD_1":3,
						"COLOR_0":4
					},
					"indices":5
				}
			]
		}
	],
	"accessors":[
		{
			"bufferView":0,
			"componentType":5126,
			"count":6593,
			"max":[
				1.6947768926620483,
				5.388917922973633,
				1.4227135181427002
			],
			"min":[
				-1.291749358177185,
				-0.022532373666763306,
				-1.310397982597351
			],
			"type":"VEC3"
		},
		{
			"bufferView":1,
			"componentType":5126,
			"count":6593,
			"type":"VEC3"
		},
		{
			"bufferView":2,
			"componentType":5126,
			"count":6593,
			"type":"VEC2"
		},
		{
			"bufferView":3,
			"componentType":5126,
			"count":6593,
			"type":"VEC2"
		},
		{
			"bufferView":4,
			"componentType":5123,
			"count":6593,
			"normalized":true,
			"type":"VEC4"
		},
		{
			"bufferView":5,
			"componentType":5123,
			"count":11103,
			"type":"SCALAR"
		}
	],
	"bufferViews":[
		{
			"buffer":0,
			"byteLength":79116,
			"byteOffset":0,
			"target":34962
		},
		{
			"buffer":0,
			"byteLength":79116,
			"byteOffset":79116,
			"target":34962
		},
		{
			"buffer":0,
			"byteLength":52744,
			"byteOffset":158232,
			"target":34962
		},
		{
			"buffer":0,
			"byteLength":52744,
			"byteOffset":210976,
			"target":34962
		},
		{
			"buffer":0,
			"byteLength":52744,
			"byteOffset":263720,
			"target":34962
		},
		{
			"buffer":0,
			"byteLength":22206,
			"byteOffset":316464,
			"target":34963
		}
	],
	"buffers":[
		{
			"byteLength":338672,
			"uri":"SM_Prop_PirateFlag_01.bin"
		}
	]
}
