{
	"asset":{
		"generator":"Khronos glTF Blender I/O v4.5.48",
		"version":"2.0"
	},
	"scene":0,
	"scenes":[
		{
			"name":"Scene",
			"nodes":[
				1
			]
		}
	],
	"nodes":[
		{
			"mesh":0,
			"name":"SM_Prop_Tiki_Torch_02"
		},
		{
			"children":[
				0
			],
			"name":"SM_Prop_Tiki_Torch_02"
		}
	],
	"meshes":[
		{
			"name":"Mesh",
			"primitives":[
				{
					"attributes":{
						"POSITION":0,
						"NORMAL":1,
						"TEXCOORD_0":2,
						"TANGENT":3
					},
					"indices":4
				}
			]
		}
	],
	"accessors":[
		{
			"bufferView":0,
			"componentType":5126,
			"count":1544,
			"max":[
				0.12060234695672989,
				2.254930257797241,
				0.12691381573677063
			],
			"min":[
				-0.12691397964954376,
				-0.051660824567079544,
				-0.12174960970878601
			],
			"type":"VEC3"
		},
		{
			"bufferView":1,
			"componentType":5126,
			"count":1544,
			"type":"VEC3"
		},
		{
			"bufferView":2,
			"componentType":5126,
			"count":1544,
			"type":"VEC2"
		},
		{
			"bufferView":3,
			"componentType":5126,
			"count":1544,
			"type":"VEC4"
		},
		{
			"bufferView":4,
			"componentType":5123,
			"count":2136,
			"type":"SCALAR"
		}
	],
	"bufferViews":[
		{
			"buffer":0,
			"byteLength":18528,
			"byteOffset":0,
			"target":34962
		},
		{
			"buffer":0,
			"byteLength":18528,
			"byteOffset":18528,
			"target":34962
		},
		{
			"buffer":0,
			"byteLength":12352,
			"byteOffset":37056,
			"target":34962
		},
		{
			"buffer":0,
			"byteLength":24704,
			"byteOffset":49408,
			"target":34962
		},
		{
			"buffer":0,
			"byteLength":4272,
			"byteOffset":74112,
			"target":34963
		}
	],
	"buffers":[
		{
			"byteLength":78384,
			"uri":"SM_Prop_Tiki_Torch_02.bin"
		}
	]
}
