{
	"asset":{
		"generator":"Khronos glTF Blender I/O v4.5.47",
		"version":"2.0"
	},
	"scene":0,
	"scenes":[
		{
			"name":"Scene",
			"nodes":[
				1
			]
		}
	],
	"nodes":[
		{
			"mesh":0,
			"name":"SM_Prop_Barrel_Broken_01"
		},
		{
			"children":[
				0
			],
			"name":"SM_Prop_Barrel_Broken_01"
		}
	],
	"meshes":[
		{
			"name":"Mesh",
			"primitives":[
				{
					"attributes":{
						"POSITION":0,
						"NORMAL":1,
						"TEXCOORD_0":2
					},
					"indices":3
				}
			]
		}
	],
	"accessors":[
		{
			"bufferView":0,
			"componentType":5126,
			"count":2747,
			"max":[
				0.4291369915008545,
				0.8632118105888367,
				0.7538042664527893
			],
			"min":[
				-0.4291369915008545,
				6.708432920277119e-09,
				-0.7538042664527893
			],
			"type":"VEC3"
		},
		{
			"bufferView":1,
			"componentType":5126,
			"count":2747,
			"type":"VEC3"
		},
		{
			"bufferView":2,
			"componentType":5126,
			"count":2747,
			"type":"VEC2"
		},
		{
			"bufferView":3,
			"componentType":5123,
			"count":4230,
			"type":"SCALAR"
		}
	],
	"bufferViews":[
		{
			"buffer":0,
			"byteLength":32964,
			"byteOffset":0,
			"target":34962
		},
		{
			"buffer":0,
			"byteLength":32964,
			"byteOffset":32964,
			"target":34962
		},
		{
			"buffer":0,
			"byteLength":21976,
			"byteOffset":65928,
			"target":34962
		},
		{
			"buffer":0,
			"byteLength":8460,
			"byteOffset":87904,
			"target":34963
		}
	],
	"buffers":[
		{
			"byteLength":96364,
			"uri":"SM_Prop_Barrel_Broken_01.bin"
		}
	]
}
