{
	"asset":{
		"generator":"Khronos glTF Blender I/O v4.5.48",
		"version":"2.0"
	},
	"scene":0,
	"scenes":[
		{
			"name":"Scene",
			"nodes":[
				1
			]
		}
	],
	"nodes":[
		{
			"mesh":0,
			"name":"SM_Prop_Starfish_01"
		},
		{
			"children":[
				0
			],
			"name":"SM_Prop_Starfish_01"
		}
	],
	"meshes":[
		{
			"name":"Mesh",
			"primitives":[
				{
					"attributes":{
						"POSITION":0,
						"NORMAL":1,
						"TEXCOORD_0":2,
						"TANGENT":3
					},
					"indices":4
				}
			]
		}
	],
	"accessors":[
		{
			"bufferView":0,
			"componentType":5126,
			"count":320,
			"max":[
				0.09088264405727386,
				0.04340933635830879,
				0.0785592645406723
			],
			"min":[
				-0.09088264405727386,
				-0.0007201384287327528,
				-0.09418617188930511
			],
			"type":"VEC3"
		},
		{
			"bufferView":1,
			"componentType":5126,
			"count":320,
			"type":"VEC3"
		},
		{
			"bufferView":2,
			"componentType":5126,
			"count":320,
			"type":"VEC2"
		},
		{
			"bufferView":3,
			"componentType":5126,
			"count":320,
			"type":"VEC4"
		},
		{
			"bufferView":4,
			"componentType":5123,
			"count":864,
			"type":"SCALAR"
		}
	],
	"bufferViews":[
		{
			"buffer":0,
			"byteLength":3840,
			"byteOffset":0,
			"target":34962
		},
		{
			"buffer":0,
			"byteLength":3840,
			"byteOffset":3840,
			"target":34962
		},
		{
			"buffer":0,
			"byteLength":2560,
			"byteOffset":7680,
			"target":34962
		},
		{
			"buffer":0,
			"byteLength":5120,
			"byteOffset":10240,
			"target":34962
		},
		{
			"buffer":0,
			"byteLength":1728,
			"byteOffset":15360,
			"target":34963
		}
	],
	"buffers":[
		{
			"byteLength":17088,
			"uri":"SM_Prop_Starfish_01.bin"
		}
	]
}
