{
	"asset":{
		"generator":"Khronos glTF Blender I/O v4.5.47",
		"version":"2.0"
	},
	"scene":0,
	"scenes":[
		{
			"name":"Scene",
			"nodes":[
				1
			]
		}
	],
	"nodes":[
		{
			"mesh":0,
			"name":"SM_Prop_Starfish_03"
		},
		{
			"children":[
				0
			],
			"name":"SM_Prop_Starfish_03"
		}
	],
	"meshes":[
		{
			"name":"Mesh",
			"primitives":[
				{
					"attributes":{
						"POSITION":0,
						"NORMAL":1,
						"TEXCOORD_0":2,
						"TANGENT":3
					},
					"indices":4
				}
			]
		}
	],
	"accessors":[
		{
			"bufferView":0,
			"componentType":5126,
			"count":821,
			"max":[
				0.2298344522714615,
				0.04405658319592476,
				0.19612960517406464
			],
			"min":[
				-0.23219573497772217,
				-0.0028309402987360954,
				-0.24328726530075073
			],
			"type":"VEC3"
		},
		{
			"bufferView":1,
			"componentType":5126,
			"count":821,
			"type":"VEC3"
		},
		{
			"bufferView":2,
			"componentType":5126,
			"count":821,
			"type":"VEC2"
		},
		{
			"bufferView":3,
			"componentType":5126,
			"count":821,
			"type":"VEC4"
		},
		{
			"bufferView":4,
			"componentType":5123,
			"count":1185,
			"type":"SCALAR"
		}
	],
	"bufferViews":[
		{
			"buffer":0,
			"byteLength":9852,
			"byteOffset":0,
			"target":34962
		},
		{
			"buffer":0,
			"byteLength":9852,
			"byteOffset":9852,
			"target":34962
		},
		{
			"buffer":0,
			"byteLength":6568,
			"byteOffset":19704,
			"target":34962
		},
		{
			"buffer":0,
			"byteLength":13136,
			"byteOffset":26272,
			"target":34962
		},
		{
			"buffer":0,
			"byteLength":2370,
			"byteOffset":39408,
			"target":34963
		}
	],
	"buffers":[
		{
			"byteLength":41780,
			"uri":"SM_Prop_Starfish_03.bin"
		}
	]
}
