{
	"asset":{
		"generator":"Khronos glTF Blender I/O v4.5.48",
		"version":"2.0"
	},
	"scene":0,
	"scenes":[
		{
			"name":"Scene",
			"nodes":[
				1
			]
		}
	],
	"nodes":[
		{
			"mesh":0,
			"name":"SM_Prop_Coral_09"
		},
		{
			"children":[
				0
			],
			"name":"SM_Prop_Coral_09"
		}
	],
	"meshes":[
		{
			"name":"Mesh",
			"primitives":[
				{
					"attributes":{
						"POSITION":0,
						"NORMAL":1,
						"TEXCOORD_0":2,
						"TANGENT":3
					},
					"indices":4
				}
			]
		}
	],
	"accessors":[
		{
			"bufferView":0,
			"componentType":5126,
			"count":224,
			"max":[
				0.2188374102115631,
				0.019354745745658875,
				0.22495844960212708
			],
			"min":[
				-0.2425263226032257,
				-0.01935470663011074,
				-0.2080351561307907
			],
			"type":"VEC3"
		},
		{
			"bufferView":1,
			"componentType":5126,
			"count":224,
			"type":"VEC3"
		},
		{
			"bufferView":2,
			"componentType":5126,
			"count":224,
			"type":"VEC2"
		},
		{
			"bufferView":3,
			"componentType":5126,
			"count":224,
			"type":"VEC4"
		},
		{
			"bufferView":4,
			"componentType":5123,
			"count":318,
			"type":"SCALAR"
		}
	],
	"bufferViews":[
		{
			"buffer":0,
			"byteLength":2688,
			"byteOffset":0,
			"target":34962
		},
		{
			"buffer":0,
			"byteLength":2688,
			"byteOffset":2688,
			"target":34962
		},
		{
			"buffer":0,
			"byteLength":1792,
			"byteOffset":5376,
			"target":34962
		},
		{
			"buffer":0,
			"byteLength":3584,
			"byteOffset":7168,
			"target":34962
		},
		{
			"buffer":0,
			"byteLength":636,
			"byteOffset":10752,
			"target":34963
		}
	],
	"buffers":[
		{
			"byteLength":11388,
			"uri":"SM_Prop_Coral_09.bin"
		}
	]
}
