{
	"asset":{
		"generator":"Khronos glTF Blender I/O v4.5.47",
		"version":"2.0"
	},
	"scene":0,
	"scenes":[
		{
			"name":"Scene",
			"nodes":[
				1
			]
		}
	],
	"nodes":[
		{
			"mesh":0,
			"name":"SM_Prop_Coconut_02"
		},
		{
			"children":[
				0
			],
			"name":"SM_Prop_Coconut_02"
		}
	],
	"meshes":[
		{
			"name":"Mesh",
			"primitives":[
				{
					"attributes":{
						"POSITION":0,
						"NORMAL":1,
						"TEXCOORD_0":2,
						"TANGENT":3
					},
					"indices":4
				}
			]
		}
	],
	"accessors":[
		{
			"bufferView":0,
			"componentType":5126,
			"count":172,
			"max":[
				0.13900403678417206,
				0.28896161913871765,
				0.13932113349437714
			],
			"min":[
				-0.13900403678417206,
				2.459431824863856e-10,
				-0.13932116329669952
			],
			"type":"VEC3"
		},
		{
			"bufferView":1,
			"componentType":5126,
			"count":172,
			"type":"VEC3"
		},
		{
			"bufferView":2,
			"componentType":5126,
			"count":172,
			"type":"VEC2"
		},
		{
			"bufferView":3,
			"componentType":5126,
			"count":172,
			"type":"VEC4"
		},
		{
			"bufferView":4,
			"componentType":5123,
			"count":228,
			"type":"SCALAR"
		}
	],
	"bufferViews":[
		{
			"buffer":0,
			"byteLength":2064,
			"byteOffset":0,
			"target":34962
		},
		{
			"buffer":0,
			"byteLength":2064,
			"byteOffset":2064,
			"target":34962
		},
		{
			"buffer":0,
			"byteLength":1376,
			"byteOffset":4128,
			"target":34962
		},
		{
			"buffer":0,
			"byteLength":2752,
			"byteOffset":5504,
			"target":34962
		},
		{
			"buffer":0,
			"byteLength":456,
			"byteOffset":8256,
			"target":34963
		}
	],
	"buffers":[
		{
			"byteLength":8712,
			"uri":"SM_Prop_Coconut_02.bin"
		}
	]
}
