{
	"asset":{
		"generator":"Khronos glTF Blender I/O v4.5.47",
		"version":"2.0"
	},
	"scene":0,
	"scenes":[
		{
			"name":"Scene",
			"nodes":[
				1
			]
		}
	],
	"nodes":[
		{
			"mesh":0,
			"name":"SM_Prop_Whale_Skeleton_Ribcage_01"
		},
		{
			"children":[
				0
			],
			"name":"SM_Prop_Whale_Skeleton_Ribcage_01"
		}
	],
	"meshes":[
		{
			"name":"Mesh",
			"primitives":[
				{
					"attributes":{
						"POSITION":0,
						"NORMAL":1,
						"TEXCOORD_0":2,
						"TANGENT":3
					},
					"indices":4
				}
			]
		}
	],
	"accessors":[
		{
			"bufferView":0,
			"componentType":5126,
			"count":7256,
			"max":[
				2.6202244758605957,
				4.937253475189209,
				2.7862424850463867
			],
			"min":[
				-2.7685229778289795,
				-1.342391848564148,
				-2.321796417236328
			],
			"type":"VEC3"
		},
		{
			"bufferView":1,
			"componentType":5126,
			"count":7256,
			"type":"VEC3"
		},
		{
			"bufferView":2,
			"componentType":5126,
			"count":7256,
			"type":"VEC2"
		},
		{
			"bufferView":3,
			"componentType":5126,
			"count":7256,
			"type":"VEC4"
		},
		{
			"bufferView":4,
			"componentType":5123,
			"count":7968,
			"type":"SCALAR"
		}
	],
	"bufferViews":[
		{
			"buffer":0,
			"byteLength":87072,
			"byteOffset":0,
			"target":34962
		},
		{
			"buffer":0,
			"byteLength":87072,
			"byteOffset":87072,
			"target":34962
		},
		{
			"buffer":0,
			"byteLength":58048,
			"byteOffset":174144,
			"target":34962
		},
		{
			"buffer":0,
			"byteLength":116096,
			"byteOffset":232192,
			"target":34962
		},
		{
			"buffer":0,
			"byteLength":15936,
			"byteOffset":348288,
			"target":34963
		}
	],
	"buffers":[
		{
			"byteLength":364224,
			"uri":"SM_Prop_Whale_Skeleton_Ribcage_01.bin"
		}
	]
}
