{
	"asset":{
		"generator":"Khronos glTF Blender I/O v4.5.47",
		"version":"2.0"
	},
	"scene":0,
	"scenes":[
		{
			"name":"Scene",
			"nodes":[
				1
			]
		}
	],
	"nodes":[
		{
			"mesh":0,
			"name":"SM_Prop_Whale_Skeleton_Ribcage_02"
		},
		{
			"children":[
				0
			],
			"name":"SM_Prop_Whale_Skeleton_Ribcage_02"
		}
	],
	"meshes":[
		{
			"name":"Mesh",
			"primitives":[
				{
					"attributes":{
						"POSITION":0,
						"NORMAL":1,
						"TEXCOORD_0":2,
						"TANGENT":3
					},
					"indices":4
				}
			]
		}
	],
	"accessors":[
		{
			"bufferView":0,
			"componentType":5126,
			"count":1994,
			"max":[
				2.691056966781616,
				1.3815841674804688,
				0.0998382717370987
			],
			"min":[
				-2.6590356826782227,
				-4.784930229187012,
				-1.288865327835083
			],
			"type":"VEC3"
		},
		{
			"bufferView":1,
			"componentType":5126,
			"count":1994,
			"type":"VEC3"
		},
		{
			"bufferView":2,
			"componentType":5126,
			"count":1994,
			"type":"VEC2"
		},
		{
			"bufferView":3,
			"componentType":5126,
			"count":1994,
			"type":"VEC4"
		},
		{
			"bufferView":4,
			"componentType":5123,
			"count":2172,
			"type":"SCALAR"
		}
	],
	"bufferViews":[
		{
			"buffer":0,
			"byteLength":23928,
			"byteOffset":0,
			"target":34962
		},
		{
			"buffer":0,
			"byteLength":23928,
			"byteOffset":23928,
			"target":34962
		},
		{
			"buffer":0,
			"byteLength":15952,
			"byteOffset":47856,
			"target":34962
		},
		{
			"buffer":0,
			"byteLength":31904,
			"byteOffset":63808,
			"target":34962
		},
		{
			"buffer":0,
			"byteLength":4344,
			"byteOffset":95712,
			"target":34963
		}
	],
	"buffers":[
		{
			"byteLength":100056,
			"uri":"SM_Prop_Whale_Skeleton_Ribcage_02.bin"
		}
	]
}
