{
	"asset":{
		"generator":"Khronos glTF Blender I/O v4.5.47",
		"version":"2.0"
	},
	"scene":0,
	"scenes":[
		{
			"name":"Scene",
			"nodes":[
				2
			]
		}
	],
	"nodes":[
		{
			"mesh":0,
			"name":"SM_Veh_Outrigger_Canoe_01_Canopy_01",
			"rotation":[
				0.7071068286895752,
				0,
				0,
				0.7071068286895752
			],
			"scale":[
				0.009999999776482582,
				0.009999999776482582,
				0.009999999776482582
			]
		},
		{
			"children":[
				0
			],
			"mesh":1,
			"name":"SM_Veh_Outrigger_Canoe_01"
		},
		{
			"children":[
				1
			],
			"name":"SM_Veh_Outrigger_Canoe_01"
		}
	],
	"meshes":[
		{
			"name":"Mesh.001",
			"primitives":[
				{
					"attributes":{
						"POSITION":0,
						"NORMAL":1,
						"TEXCOORD_0":2
					},
					"indices":3
				}
			]
		},
		{
			"name":"Mesh",
			"primitives":[
				{
					"attributes":{
						"POSITION":4,
						"NORMAL":5,
						"TEXCOORD_0":6
					},
					"indices":7
				}
			]
		}
	],
	"accessors":[
		{
			"bufferView":0,
			"componentType":5126,
			"count":1919,
			"max":[
				148.68292236328125,
				105.03976440429688,
				-16.984527587890625
			],
			"min":[
				-148.68292236328125,
				-104.84578704833984,
				-210.25709533691406
			],
			"type":"VEC3"
		},
		{
			"bufferView":1,
			"componentType":5126,
			"count":1919,
			"type":"VEC3"
		},
		{
			"bufferView":2,
			"componentType":5126,
			"count":1919,
			"type":"VEC2"
		},
		{
			"bufferView":3,
			"componentType":5123,
			"count":2766,
			"type":"SCALAR"
		},
		{
			"bufferView":4,
			"componentType":5126,
			"count":6248,
			"max":[
				1.5835696458816528,
				0.9037132263183594,
				3.4387896060943604
			],
			"min":[
				-1.5835696458816528,
				-0.11760027706623077,
				-3.402757167816162
			],
			"type":"VEC3"
		},
		{
			"bufferView":5,
			"componentType":5126,
			"count":6248,
			"type":"VEC3"
		},
		{
			"bufferView":6,
			"componentType":5126,
			"count":6248,
			"type":"VEC2"
		},
		{
			"bufferView":7,
			"componentType":5123,
			"count":9027,
			"type":"SCALAR"
		}
	],
	"bufferViews":[
		{
			"buffer":0,
			"byteLength":23028,
			"byteOffset":0,
			"target":34962
		},
		{
			"buffer":0,
			"byteLength":23028,
			"byteOffset":23028,
			"target":34962
		},
		{
			"buffer":0,
			"byteLength":15352,
			"byteOffset":46056,
			"target":34962
		},
		{
			"buffer":0,
			"byteLength":5532,
			"byteOffset":61408,
			"target":34963
		},
		{
			"buffer":0,
			"byteLength":74976,
			"byteOffset":66940,
			"target":34962
		},
		{
			"buffer":0,
			"byteLength":74976,
			"byteOffset":141916,
			"target":34962
		},
		{
			"buffer":0,
			"byteLength":49984,
			"byteOffset":216892,
			"target":34962
		},
		{
			"buffer":0,
			"byteLength":18054,
			"byteOffset":266876,
			"target":34963
		}
	],
	"buffers":[
		{
			"byteLength":284932,
			"uri":"SM_Veh_Outrigger_Canoe_01.bin"
		}
	]
}
