{
	"asset":{
		"generator":"Khronos glTF Blender I/O v4.1.63",
		"version":"2.0"
	},
	"scene":0,
	"scenes":[
		{
			"name":"Scene",
			"nodes":[
				39
			]
		}
	],
	"nodes":[
		{
			"name":"FrontFoot.R_end",
			"rotation":[
				2.570451442807098e-07,
				-7.505536814278457e-08,
				7.82307267854776e-08,
				1
			],
			"scale":[
				1,
				0.9999999403953552,
				1
			],
			"translation":[
				2.366346052440349e-08,
				1.5635344982147217,
				1.9984122445748653e-07
			]
		},
		{
			"children":[
				0
			],
			"name":"FrontFoot.R",
			"rotation":[
				0.5777025818824768,
				0.0978977233171463,
				0.1101912409067154,
				0.8028285503387451
			],
			"scale":[
				0.9999999403953552,
				1.0000001192092896,
				1
			],
			"translation":[
				0,
				1.4332643747329712,
				-4.917383193969727e-07
			]
		},
		{
			"children":[
				1
			],
			"name":"FrontLowLeg.R",
			"rotation":[
				-0.36126112937927246,
				-0.0667140930891037,
				-0.16292859613895416,
				0.9156931638717651
			],
			"scale":[
				0.9999999403953552,
				1,
				1
			],
			"translation":[
				-4.470348358154297e-08,
				1.737797498703003,
				-1.214444637298584e-06
			]
		},
		{
			"children":[
				2
			],
			"name":"FrontUpLeg.R",
			"rotation":[
				0.6791583299636841,
				-0.7194548845291138,
				-0.09137366712093353,
				0.11304625123739243
			],
			"scale":[
				1.0000001192092896,
				0.9999999403953552,
				1
			],
			"translation":[
				1.0540024959482253e-06,
				1.4448037147521973,
				2.9165380510676187e-07
			]
		},
		{
			"children":[
				3
			],
			"name":"FrontLeg.R",
			"rotation":[
				-2.276715349580627e-07,
				-5.699129168590389e-09,
				0.7071067690849304,
				0.7071067690849304
			],
			"scale":[
				0.9999999403953552,
				0.9999999403953552,
				1
			],
			"translation":[
				-0.6166150569915771,
				-3.4882612228393555,
				1.6997480392456055
			]
		},
		{
			"name":"BackLowLeg.R_end",
			"rotation":[
				-4.470348002882929e-08,
				2.1854331677673144e-09,
				2.7939561775269794e-09,
				1
			],
			"scale":[
				1,
				0.9999999403953552,
				0.9999999403953552
			],
			"translation":[
				1.129030664515085e-07,
				3.058647632598877,
				6.244874839467229e-09
			]
		},
		{
			"children":[
				5
			],
			"name":"BackLowLeg.R",
			"rotation":[
				-0.22522957623004913,
				0.0070486776530742645,
				0.04010147601366043,
				0.9734545946121216
			],
			"scale":[
				0.9999999403953552,
				1.0000001192092896,
				0.9999999403953552
			],
			"translation":[
				1.471489667892456e-07,
				6.0621209144592285,
				1.341104507446289e-07
			]
		},
		{
			"children":[
				6
			],
			"name":"BackUpLeg.R",
			"rotation":[
				-0.7273890972137451,
				0.6717580556869507,
				-0.09140294045209885,
				0.10626271367073059
			],
			"scale":[
				1.0000001192092896,
				1.0000005960464478,
				1
			],
			"translation":[
				-4.062605682975118e-07,
				2.644801616668701,
				5.340666575648356e-09
			]
		},
		{
			"children":[
				7
			],
			"name":"BackLeg.R",
			"rotation":[
				-2.0660060329191765e-07,
				1.5371833583799344e-08,
				0.7071067690849304,
				0.7071067690849304
			],
			"translation":[
				-0.7843245267868042,
				-4.24061393737793,
				-2.763800621032715
			]
		},
		{
			"name":"FrontFoot.L_end",
			"rotation":[
				1.937152518394214e-07,
				-6.159379495329631e-08,
				7.357409259611813e-08,
				1
			],
			"translation":[
				1.3326325642992742e-07,
				1.563534140586853,
				-3.476952770142816e-07
			]
		},
		{
			"children":[
				9
			],
			"name":"FrontFoot.L",
			"rotation":[
				0.577701985836029,
				-0.09789977222681046,
				-0.11019184440374374,
				0.8028286099433899
			],
			"scale":[
				0.9999999403953552,
				0.9999999403953552,
				0.9999999403953552
			],
			"translation":[
				-1.7881393432617188e-07,
				1.4332627058029175,
				-1.6819685697555542e-06
			]
		},
		{
			"children":[
				10
			],
			"name":"FrontLowLeg.L",
			"rotation":[
				-0.35563093423843384,
				0.09719002991914749,
				0.17487582564353943,
				0.9129617810249329
			],
			"scale":[
				0.9999999403953552,
				0.9999998807907104,
				1
			],
			"translation":[
				-5.960464477539063e-08,
				1.7377983331680298,
				-1.0058283805847168e-06
			]
		},
		{
			"children":[
				11
			],
			"name":"FrontUpLeg.L",
			"rotation":[
				-0.06869254261255264,
				-0.1369568556547165,
				0.6818256378173828,
				0.7152887582778931
			],
			"translation":[
				1.2961252195964335e-06,
				1.4448037147521973,
				-9.254756605514558e-08
			]
		},
		{
			"children":[
				12
			],
			"name":"FrontLeg.L",
			"rotation":[
				-0.7071067690849304,
				-0.7071067690849304,
				9.569193082370475e-08,
				1.3767875373105198e-07
			],
			"scale":[
				0.9999999403953552,
				0.9999997019767761,
				1
			],
			"translation":[
				0.4317176342010498,
				-3.4882612228393555,
				1.6997480392456055
			]
		},
		{
			"name":"BackLowLeg.L_end",
			"rotation":[
				7.078052277620372e-08,
				6.282827591519435e-10,
				-8.381890737041431e-09,
				1
			],
			"scale":[
				1,
				0.9999999403953552,
				1
			],
			"translation":[
				-3.2363143276370465e-08,
				3.058648109436035,
				3.394100644982245e-08
			]
		},
		{
			"children":[
				14
			],
			"name":"BackLowLeg.L",
			"rotation":[
				-0.2256135642528534,
				0.0025400223676115274,
				-0.037881165742874146,
				0.9734768271446228
			],
			"scale":[
				1,
				1.0000001192092896,
				1
			],
			"translation":[
				-2.3399479687213898e-07,
				6.0621209144592285,
				3.4831464290618896e-07
			]
		},
		{
			"children":[
				15
			],
			"name":"BackUpLeg.L",
			"rotation":[
				0.09856298565864563,
				0.09964095056056976,
				0.7264535427093506,
				0.6727721095085144
			],
			"translation":[
				-1.5450287094154191e-07,
				2.644801616668701,
				2.6254895146848867e-08
			]
		},
		{
			"children":[
				16
			],
			"name":"BackLeg.L",
			"rotation":[
				-0.7071067690849304,
				-0.7071067690849304,
				1.3784369912173133e-07,
				5.338507591545749e-08
			],
			"translation":[
				0.5994270443916321,
				-4.24061393737793,
				-2.763800621032715
			]
		},
		{
			"name":"Tail5_end",
			"rotation":[
				1.043081283569336e-06,
				3.510791657390655e-11,
				-2.2977873770368973e-10,
				1
			],
			"translation":[
				1.528369466541335e-07,
				2.0244030952453613,
				-2.582993943178735e-07
			]
		},
		{
			"children":[
				18
			],
			"name":"Tail5",
			"rotation":[
				-0.15721027553081512,
				2.794317078072539e-12,
				-3.72488209166022e-08,
				0.9875651597976685
			],
			"scale":[
				1,
				0.9999998211860657,
				0.9999999403953552
			],
			"translation":[
				-1.2163283713562123e-08,
				2.962148904800415,
				-1.0332329338780255e-06
			]
		},
		{
			"children":[
				19
			],
			"name":"Tail4",
			"rotation":[
				-0.05478440225124359,
				1.1902464081003927e-07,
				-6.58797150165924e-09,
				0.9984982013702393
			],
			"translation":[
				1.2543723837410425e-09,
				4.088046550750732,
				-7.152709713409422e-07
			]
		},
		{
			"children":[
				20
			],
			"name":"Tail3",
			"rotation":[
				0.0889352336525917,
				-1.1873503780179817e-07,
				1.0659268134816102e-08,
				0.9960374236106873
			],
			"translation":[
				-1.4220333355297043e-08,
				3.0456507205963135,
				-6.607078830711544e-07
			]
		},
		{
			"children":[
				21
			],
			"name":"Tail2",
			"rotation":[
				0.09096686542034149,
				1.1871491523152145e-07,
				1.0844113162988833e-08,
				0.9958539605140686
			],
			"translation":[
				1.192055449905638e-07,
				3.359849452972412,
				9.53673918502318e-07
			]
		},
		{
			"children":[
				22
			],
			"name":"Tail1",
			"rotation":[
				-0.07147526741027832,
				-7.134258339647204e-07,
				-5.112307732701993e-08,
				0.9974424242973328
			],
			"scale":[
				1,
				0.9999999403953552,
				0.9999999403953552
			],
			"translation":[
				1.2684820305253197e-08,
				1.7671918869018555,
				-3.4046922792185796e-07
			]
		},
		{
			"children":[
				23
			],
			"name":"Back",
			"rotation":[
				-0.7285066843032837,
				4.899775944977591e-07,
				-5.210683298173535e-07,
				0.685038685798645
			],
			"translation":[
				-0.09684813022613525,
				-3.6115827560424805,
				-2.4924793243408203
			]
		},
		{
			"name":"Head_end",
			"rotation":[
				-1.084990870481306e-07,
				-1.0913892012354154e-10,
				5.4656993597745895e-08,
				1
			],
			"scale":[
				1,
				1,
				0.9999999403953552
			],
			"translation":[
				7.450580596923828e-08,
				4.06137228012085,
				6.854534149169922e-07
			]
		},
		{
			"children":[
				25
			],
			"name":"Head",
			"rotation":[
				-0.2408435046672821,
				-0.2512863874435425,
				0.06363284587860107,
				0.9353076815605164
			],
			"scale":[
				1,
				1,
				0.9999999403953552
			],
			"translation":[
				1.4284159988164902e-07,
				1.8684601783752441,
				-6.585637493117247e-07
			]
		},
		{
			"children":[
				26
			],
			"name":"Neck",
			"rotation":[
				0.017779361456632614,
				-0.024050606414675713,
				-0.031108641996979713,
				0.9990684390068054
			],
			"scale":[
				0.9999998807907104,
				1,
				1
			],
			"translation":[
				1.043081283569336e-07,
				1.9696465730667114,
				1.1809170246124268e-06
			]
		},
		{
			"children":[
				27
			],
			"name":"Shoulders",
			"rotation":[
				-0.07837026566267014,
				0.030337806791067123,
				0.05039310082793236,
				0.9951875805854797
			],
			"scale":[
				1.0000001192092896,
				1,
				1
			],
			"translation":[
				-1.043081283569336e-07,
				3.0423104763031006,
				3.0081719160079956e-07
			]
		},
		{
			"children":[
				28
			],
			"name":"Torso",
			"rotation":[
				0.25308308005332947,
				-0.0007148977601900697,
				-0.021277019754052162,
				0.9672102332115173
			],
			"scale":[
				1,
				1.0000001192092896,
				1
			],
			"translation":[
				-2.005927655091e-07,
				2.0746612548828125,
				-1.8426787846692605e-06
			]
		},
		{
			"children":[
				29
			],
			"name":"Hips",
			"rotation":[
				2.127495832837667e-07,
				0.735313892364502,
				0.677726686000824,
				2.308271547235563e-07
			],
			"scale":[
				1,
				1.0000003576278687,
				1
			],
			"translation":[
				-0.09684813022613525,
				-3.7776927947998047,
				-1.732104778289795
			]
		},
		{
			"children":[
				4,
				8,
				13,
				17,
				24,
				30
			],
			"name":"Body",
			"translation":[
				0.09244859218597412,
				13.318069458007812,
				3.1285996437072754
			]
		},
		{
			"name":"BackFoot.R_end",
			"rotation":[
				-3.026789485716108e-09,
				0,
				6.9518179326164345e-15,
				1
			],
			"translation":[
				9.454424798605032e-08,
				3,
				-4.546123477666697e-08
			]
		},
		{
			"children":[
				32
			],
			"name":"BackFoot.R",
			"rotation":[
				0.7071067690849304,
				-8.120283609969192e-07,
				-8.120283609969192e-07,
				0.7071067690849304
			],
			"translation":[
				-2.897568702697754,
				0.2585115432739258,
				-0.826845645904541
			]
		},
		{
			"name":"BackFoot.L_end",
			"rotation":[
				-3.026789485716108e-09,
				0,
				9.838382550048791e-15,
				1
			],
			"translation":[
				2.0777406462002546e-08,
				3,
				5.00320709306834e-08
			]
		},
		{
			"children":[
				34
			],
			"name":"BackFoot.L",
			"rotation":[
				0.7071067690849304,
				-1.1492031717352802e-06,
				-1.1492031717352802e-06,
				0.7071067690849304
			],
			"translation":[
				2.897569179534912,
				0.2585115432739258,
				-0.826845645904541
			]
		},
		{
			"children":[
				31,
				33,
				35
			],
			"name":"root",
			"rotation":[
				-0.7071067690849304,
				0,
				0,
				0.7071067690849304
			],
			"translation":[
				0,
				0.03389882296323776,
				-4.064099456968506e-08
			]
		},
		{
			"mesh":0,
			"name":"Trex",
			"skin":0
		},
		{
			"children":[
				37,
				36
			],
			"name":"Armature",
			"rotation":[
				0.7071068286895752,
				0,
				0,
				0.7071068286895752
			]
		},
		{
			"children":[
				38
			],
			"name":"trex",
			"translation":[
				-1.0793094635009766,
				1.5688385963439941,
				0.8958587646484375
			]
		}
	],
	"meshes":[
		{
			"name":"Cylinder",
			"primitives":[
				{
					"attributes":{
						"POSITION":0,
						"NORMAL":1,
						"TEXCOORD_0":2,
						"JOINTS_0":3,
						"WEIGHTS_0":4
					},
					"indices":5
				}
			]
		}
	],
	"skins":[
		{
			"inverseBindMatrices":6,
			"joints":[
				36,
				31,
				4,
				3,
				2,
				1,
				0,
				8,
				7,
				6,
				5,
				13,
				12,
				11,
				10,
				9,
				17,
				16,
				15,
				14,
				24,
				23,
				22,
				21,
				20,
				19,
				18,
				30,
				29,
				28,
				27,
				26,
				25,
				33,
				32,
				35,
				34
			],
			"name":"Armature"
		}
	],
	"accessors":[
		{
			"bufferView":0,
			"componentType":5126,
			"count":3304,
			"max":[
				3.976836681365967,
				15.221186637878418,
				14.427828788757324
			],
			"min":[
				-3.976837635040283,
				-0.003810341702774167,
				-16.601747512817383
			],
			"type":"VEC3"
		},
		{
			"bufferView":1,
			"componentType":5126,
			"count":3304,
			"type":"VEC3"
		},
		{
			"bufferView":2,
			"componentType":5126,
			"count":3304,
			"type":"VEC2"
		},
		{
			"bufferView":3,
			"componentType":5121,
			"count":3304,
			"type":"VEC4"
		},
		{
			"bufferView":4,
			"componentType":5126,
			"count":3304,
			"type":"VEC4"
		},
		{
			"bufferView":5,
			"componentType":5123,
			"count":5460,
			"type":"SCALAR"
		},
		{
			"bufferView":6,
			"componentType":5126,
			"count":37,
			"type":"MAT4"
		}
	],
	"bufferViews":[
		{
			"buffer":0,
			"byteLength":39648,
			"byteOffset":0,
			"target":34962
		},
		{
			"buffer":0,
			"byteLength":39648,
			"byteOffset":39648,
			"target":34962
		},
		{
			"buffer":0,
			"byteLength":26432,
			"byteOffset":79296,
			"target":34962
		},
		{
			"buffer":0,
			"byteLength":13216,
			"byteOffset":105728,
			"target":34962
		},
		{
			"buffer":0,
			"byteLength":52864,
			"byteOffset":118944,
			"target":34962
		},
		{
			"buffer":0,
			"byteLength":10920,
			"byteOffset":171808,
			"target":34963
		},
		{
			"buffer":0,
			"byteLength":2368,
			"byteOffset":182728
		}
	],
	"buffers":[
		{
			"byteLength":185096,
			"uri":"trex.bin"
		}
	]
}
