{
	"asset":{
		"generator":"Khronos glTF Blender I/O v5.2.40",
		"version":"2.0"
	},
	"scene":0,
	"scenes":[
		{
			"name":"Scene",
			"nodes":[
				39
			]
		}
	],
	"nodes":[
		{
			"name":"BackFoot.L_end",
			"translation":[
				1.133986984314106e-07,
				3,
				-8.330971468240023e-10
			]
		},
		{
			"children":[
				0
			],
			"name":"BackFoot.L",
			"rotation":[
				0.7071067690849304,
				-1.1492031717352802e-06,
				-1.1492031717352802e-06,
				0.7071067690849304
			],
			"translation":[
				2.897569179534912,
				0.2585115432739258,
				-0.826845645904541
			]
		},
		{
			"name":"BackFoot.R_end",
			"translation":[
				-1.1690264045682852e-07,
				3,
				9.110863175010309e-09
			]
		},
		{
			"children":[
				2
			],
			"name":"BackFoot.R",
			"rotation":[
				0.7071067690849304,
				-8.120283609969192e-07,
				-8.120283609969192e-07,
				0.7071067690849304
			],
			"translation":[
				-2.897568702697754,
				0.2585115432739258,
				-0.826845645904541
			]
		},
		{
			"name":"Tail5_end",
			"rotation":[
				1.0281801223754883e-06,
				3.51083606631164e-11,
				-2.2977877933705315e-10,
				1
			],
			"translation":[
				1.5927525964798406e-10,
				2.0244040489196777,
				4.7578853923369024e-07
			]
		},
		{
			"children":[
				4
			],
			"name":"Tail5",
			"rotation":[
				-0.15721026062965393,
				2.793867351011392e-12,
				-3.724879604760645e-08,
				0.9875652194023132
			],
			"scale":[
				1,
				0.9999999403953552,
				0.9999999403953552
			],
			"translation":[
				-2.771400886558695e-10,
				2.9621505737304688,
				2.3736966170417872e-07
			]
		},
		{
			"children":[
				5
			],
			"name":"Tail4",
			"rotation":[
				-0.054784514009952545,
				1.1902464081003927e-07,
				-6.5879697253024005e-09,
				0.9984982013702393
			],
			"scale":[
				1,
				0.9999999403953552,
				1
			],
			"translation":[
				-4.433672526338306e-11,
				4.088046550750732,
				4.7683710135970614e-07
			]
		},
		{
			"children":[
				6
			],
			"name":"Tail3",
			"rotation":[
				0.08893533051013947,
				-1.1873503780179817e-07,
				1.0659259253031905e-08,
				0.9960374236106873
			],
			"scale":[
				1,
				1,
				0.9999999403953552
			],
			"translation":[
				5.828404425756162e-10,
				3.0456509590148926,
				-1.3272523347040988e-06
			]
		},
		{
			"children":[
				7
			],
			"name":"Tail2",
			"rotation":[
				0.09096688032150269,
				1.187149223369488e-07,
				1.0844082076744144e-08,
				0.9958539605140686
			],
			"scale":[
				1,
				1.0000001192092896,
				1
			],
			"translation":[
				4.6463813352382033e-10,
				3.359849691390991,
				3.5762786865234375e-07
			]
		},
		{
			"children":[
				8
			],
			"name":"Tail1",
			"rotation":[
				-0.07147528231143951,
				-7.134257202778826e-07,
				-5.1123056010737855e-08,
				0.997442364692688
			],
			"scale":[
				1,
				0.9999999403953552,
				1
			],
			"translation":[
				-8.608751045358076e-09,
				1.7671912908554077,
				-6.395929403879563e-07
			]
		},
		{
			"children":[
				9
			],
			"name":"Back",
			"rotation":[
				-0.7285066843032837,
				4.899774808109214e-07,
				-5.210682729739347e-07,
				0.6850387454032898
			],
			"scale":[
				1,
				0.9999999403953552,
				0.9999999403953552
			],
			"translation":[
				-0.09684813022613525,
				-3.6115827560424805,
				-2.492479085922241
			]
		},
		{
			"name":"BackLowLeg.L_end",
			"rotation":[
				7.823110337312755e-08,
				6.282830367076997e-10,
				-4.656597774044258e-09,
				1
			],
			"scale":[
				1,
				0.9999999403953552,
				1
			],
			"translation":[
				-1.7886692660340486e-07,
				3.0586483478546143,
				-1.4228248801373411e-08
			]
		},
		{
			"children":[
				11
			],
			"name":"BackLowLeg.L",
			"rotation":[
				-0.2256135642528534,
				0.002540020737797022,
				-0.037881165742874146,
				0.9734768271446228
			],
			"scale":[
				1,
				1.0000001192092896,
				1
			],
			"translation":[
				2.3189932107925415e-07,
				6.062121391296387,
				3.725290298461914e-08
			]
		},
		{
			"children":[
				12
			],
			"name":"BackUpLeg.L",
			"rotation":[
				0.09856298565864563,
				0.09964095056056976,
				0.7264535427093506,
				0.6727721095085144
			],
			"translation":[
				-4.762153338333519e-08,
				2.644801616668701,
				-1.964650664376677e-08
			]
		},
		{
			"children":[
				13
			],
			"name":"BackLeg.L",
			"rotation":[
				-0.7071067690849304,
				-0.7071067690849304,
				1.3784369912173133e-07,
				5.338507591545749e-08
			],
			"translation":[
				0.5994270443916321,
				-4.24061393737793,
				-2.7638001441955566
			]
		},
		{
			"name":"BackLowLeg.R_end",
			"rotation":[
				-2.9802315282267955e-08,
				2.185434055945734e-09,
				5.122270607671453e-09,
				1
			],
			"scale":[
				1,
				0.9999998807907104,
				0.9999999403953552
			],
			"translation":[
				6.708178545977717e-08,
				3.0586471557617188,
				6.587239909094933e-08
			]
		},
		{
			"children":[
				15
			],
			"name":"BackLowLeg.R",
			"rotation":[
				-0.22522960603237152,
				0.007048672530800104,
				0.040101468563079834,
				0.9734545946121216
			],
			"scale":[
				1,
				1.0000001192092896,
				1
			],
			"translation":[
				-2.0489096641540527e-07,
				6.0621209144592285,
				2.7567148208618164e-07
			]
		},
		{
			"children":[
				16
			],
			"name":"BackUpLeg.R",
			"rotation":[
				-0.7273890376091003,
				0.6717581152915955,
				-0.09140297770500183,
				0.10626270622015
			],
			"scale":[
				1.0000001192092896,
				1.0000005960464478,
				1
			],
			"translation":[
				-1.251579533345648e-07,
				2.644801616668701,
				-3.164245754305739e-09
			]
		},
		{
			"children":[
				17
			],
			"name":"BackLeg.R",
			"rotation":[
				-2.0660060329191765e-07,
				1.537184246558354e-08,
				0.7071067690849304,
				0.7071067690849304
			],
			"translation":[
				-0.784324586391449,
				-4.24061393737793,
				-2.7638001441955566
			]
		},
		{
			"name":"FrontFoot.L_end",
			"rotation":[
				3.799797809733718e-07,
				-6.159379495329631e-08,
				8.940619977693132e-08,
				1
			],
			"translation":[
				4.993808033759706e-08,
				1.5635343790054321,
				3.0079445423325524e-07
			]
		},
		{
			"children":[
				19
			],
			"name":"FrontFoot.L",
			"rotation":[
				0.5777018666267395,
				-0.09789977222681046,
				-0.11019187420606613,
				0.8028287291526794
			],
			"scale":[
				0.9999999403953552,
				1,
				1
			],
			"translation":[
				-2.980232238769531e-07,
				1.4332633018493652,
				-1.1585652828216553e-06
			]
		},
		{
			"children":[
				20
			],
			"name":"FrontLowLeg.L",
			"rotation":[
				-0.3556308150291443,
				0.09719002991914749,
				0.17487579584121704,
				0.9129618406295776
			],
			"scale":[
				0.9999999403953552,
				0.9999999403953552,
				0.9999999403953552
			],
			"translation":[
				1.1920928955078125e-07,
				1.7377970218658447,
				1.341104507446289e-07
			]
		},
		{
			"children":[
				21
			],
			"name":"FrontUpLeg.L",
			"rotation":[
				-0.06869253516197205,
				-0.13695688545703888,
				0.6818256378173828,
				0.7152887582778931
			],
			"translation":[
				2.887124708195188e-07,
				1.4448038339614868,
				-6.615266556764254e-08
			]
		},
		{
			"children":[
				22
			],
			"name":"FrontLeg.L",
			"rotation":[
				-0.7071067690849304,
				-0.7071067690849304,
				9.569193082370475e-08,
				1.3767875373105198e-07
			],
			"scale":[
				0.9999999403953552,
				0.9999997019767761,
				1
			],
			"translation":[
				0.4317176342010498,
				-3.4882612228393555,
				1.6997482776641846
			]
		},
		{
			"name":"FrontFoot.R_end",
			"rotation":[
				3.427268211453338e-07,
				-7.505538235363929e-08,
				7.636798216026364e-08,
				1
			],
			"translation":[
				-3.1555646273773164e-07,
				1.563533902168274,
				-1.474797954870155e-07
			]
		},
		{
			"children":[
				24
			],
			"name":"FrontFoot.R",
			"rotation":[
				0.5777024626731873,
				0.09789776057004929,
				0.11019118875265121,
				0.8028286099433899
			],
			"scale":[
				0.9999999403953552,
				1,
				1
			],
			"translation":[
				5.960464477539063e-08,
				1.433265209197998,
				-2.2351741790771484e-07
			]
		},
		{
			"children":[
				25
			],
			"name":"FrontLowLeg.R",
			"rotation":[
				-0.3612609803676605,
				-0.06671410799026489,
				-0.1629285365343094,
				0.9156932234764099
			],
			"scale":[
				0.9999999403953552,
				0.9999998807907104,
				1
			],
			"translation":[
				-3.129243850708008e-07,
				1.737796425819397,
				3.3527612686157227e-08
			]
		},
		{
			"children":[
				26
			],
			"name":"FrontUpLeg.R",
			"rotation":[
				0.6791583299636841,
				-0.7194548845291138,
				-0.09137367457151413,
				0.11304627358913422
			],
			"scale":[
				1.0000001192092896,
				1,
				1
			],
			"translation":[
				1.33468358853861e-06,
				1.4448035955429077,
				8.745465720494394e-07
			]
		},
		{
			"children":[
				27
			],
			"name":"FrontLeg.R",
			"rotation":[
				-2.2767157759062684e-07,
				-5.699098970524119e-09,
				0.7071067690849304,
				0.7071067690849304
			],
			"scale":[
				0.9999999403953552,
				0.9999999403953552,
				1
			],
			"translation":[
				-0.6166150569915771,
				-3.4882612228393555,
				1.6997482776641846
			]
		},
		{
			"name":"Head_end",
			"rotation":[
				-1.3213139915535521e-08,
				1.4268153769592118e-08,
				1.5046680346131325e-08,
				1
			],
			"scale":[
				1,
				1,
				0.9999998807907104
			],
			"translation":[
				6.28642737865448e-07,
				4.061373233795166,
				-1.5064142644405365e-06
			]
		},
		{
			"children":[
				29
			],
			"name":"Head",
			"rotation":[
				-0.24084345996379852,
				-0.2512863576412201,
				0.06363283097743988,
				0.9353076815605164
			],
			"translation":[
				9.340328688267618e-08,
				1.8684592247009277,
				4.509377333761222e-07
			]
		},
		{
			"children":[
				30
			],
			"name":"Neck",
			"rotation":[
				0.017779294401407242,
				-0.024050595238804817,
				-0.031108656898140907,
				0.9990684390068054
			],
			"scale":[
				1,
				0.9999999403953552,
				1.0000001192092896
			],
			"translation":[
				1.8719583749771118e-07,
				1.9696471691131592,
				1.2489617802202702e-06
			]
		},
		{
			"children":[
				31
			],
			"name":"Shoulders",
			"rotation":[
				-0.07837023586034775,
				0.030337797477841377,
				0.050393108278512955,
				0.9951875805854797
			],
			"scale":[
				1.0000001192092896,
				0.9999999403953552,
				1.0000001192092896
			],
			"translation":[
				-1.4901161193847656e-08,
				3.042310953140259,
				2.5029294192790985e-07
			]
		},
		{
			"children":[
				32
			],
			"name":"Torso",
			"rotation":[
				0.25308310985565186,
				-0.0007148980512283742,
				-0.02127702161669731,
				0.9672102332115173
			],
			"scale":[
				1,
				1.0000001192092896,
				1.0000001192092896
			],
			"translation":[
				9.466134542890359e-09,
				2.0746612548828125,
				-2.237936314486433e-06
			]
		},
		{
			"children":[
				33
			],
			"name":"Hips",
			"rotation":[
				2.127495832837667e-07,
				0.735313892364502,
				0.677726686000824,
				2.308271547235563e-07
			],
			"scale":[
				1,
				1.0000003576278687,
				1
			],
			"translation":[
				-0.09684813022613525,
				-3.7776927947998047,
				-1.7321045398712158
			]
		},
		{
			"children":[
				10,
				14,
				18,
				23,
				28,
				34
			],
			"name":"Body",
			"translation":[
				0.09244859963655472,
				13.318069458007812,
				3.1285994052886963
			]
		},
		{
			"children":[
				1,
				3,
				35
			],
			"name":"root",
			"translation":[
				0,
				0,
				0.03389883041381836
			]
		},
		{
			"mesh":0,
			"name":"Trex",
			"skin":0
		},
		{
			"children":[
				37,
				36
			],
			"name":"Armature"
		},
		{
			"children":[
				38
			],
			"name":"trex"
		}
	],
	"meshes":[
		{
			"name":"Cylinder",
			"primitives":[
				{
					"attributes":{
						"POSITION":0,
						"NORMAL":1,
						"TEXCOORD_0":2,
						"JOINTS_0":3,
						"WEIGHTS_0":4
					},
					"indices":5
				}
			]
		}
	],
	"skins":[
		{
			"inverseBindMatrices":6,
			"joints":[
				36,
				1,
				0,
				3,
				2,
				35,
				10,
				9,
				8,
				7,
				6,
				5,
				4,
				14,
				13,
				12,
				11,
				18,
				17,
				16,
				15,
				23,
				22,
				21,
				20,
				19,
				28,
				27,
				26,
				25,
				24,
				34,
				33,
				32,
				31,
				30,
				29
			],
			"name":"Armature"
		}
	],
	"accessors":[
		{
			"bufferView":0,
			"componentType":5126,
			"count":1826,
			"max":[
				3.976836681365967,
				15.221186637878418,
				14.427828788757324
			],
			"min":[
				-3.976837635040283,
				-0.003810341702774167,
				-16.601747512817383
			],
			"type":"VEC3"
		},
		{
			"bufferView":1,
			"componentType":5126,
			"count":1826,
			"type":"VEC3"
		},
		{
			"bufferView":2,
			"componentType":5126,
			"count":1826,
			"type":"VEC2"
		},
		{
			"bufferView":3,
			"componentType":5121,
			"count":1826,
			"type":"VEC4"
		},
		{
			"bufferView":4,
			"componentType":5126,
			"count":1826,
			"type":"VEC4"
		},
		{
			"bufferView":5,
			"componentType":5123,
			"count":5460,
			"type":"SCALAR"
		},
		{
			"bufferView":6,
			"componentType":5126,
			"count":37,
			"type":"MAT4"
		}
	],
	"bufferViews":[
		{
			"buffer":0,
			"byteLength":21912,
			"byteOffset":0,
			"target":34962
		},
		{
			"buffer":0,
			"byteLength":21912,
			"byteOffset":21912,
			"target":34962
		},
		{
			"buffer":0,
			"byteLength":14608,
			"byteOffset":43824,
			"target":34962
		},
		{
			"buffer":0,
			"byteLength":7304,
			"byteOffset":58432,
			"target":34962
		},
		{
			"buffer":0,
			"byteLength":29216,
			"byteOffset":65736,
			"target":34962
		},
		{
			"buffer":0,
			"byteLength":10920,
			"byteOffset":94952,
			"target":34963
		},
		{
			"buffer":0,
			"byteLength":2368,
			"byteOffset":105872
		}
	],
	"buffers":[
		{
			"byteLength":108240,
			"uri":"trex.bin"
		}
	]
}
