{
	"asset":{
		"generator":"Khronos glTF Blender I/O v5.0.21",
		"version":"2.0"
	},
	"scene":0,
	"scenes":[
		{
			"name":"Scene",
			"nodes":[
				3
			]
		}
	],
	"nodes":[
		{
			"name":"Bone"
		},
		{
			"mesh":0,
			"name":"Mesh_0",
			"skin":0
		},
		{
			"children":[
				1,
				0
			],
			"name":"Armature"
		},
		{
			"children":[
				2
			],
			"name":"ufo"
		}
	],
	"animations":[
		{
			"channels":[
				{
					"sampler":0,
					"target":{
						"node":0,
						"path":"translation"
					}
				},
				{
					"sampler":1,
					"target":{
						"node":0,
						"path":"rotation"
					}
				},
				{
					"sampler":2,
					"target":{
						"node":0,
						"path":"scale"
					}
				}
			],
			"name":"Action",
			"samplers":[
				{
					"input":8,
					"interpolation":"LINEAR",
					"output":9
				},
				{
					"input":8,
					"interpolation":"LINEAR",
					"output":10
				},
				{
					"input":8,
					"interpolation":"LINEAR",
					"output":11
				}
			]
		}
	],
	"meshes":[
		{
			"name":"Mesh_0",
			"primitives":[
				{
					"attributes":{
						"POSITION":0,
						"NORMAL":1,
						"TEXCOORD_0":2,
						"TANGENT":3,
						"JOINTS_0":4,
						"WEIGHTS_0":5
					},
					"indices":6
				}
			]
		}
	],
	"skins":[
		{
			"inverseBindMatrices":7,
			"joints":[
				0
			],
			"name":"Armature"
		}
	],
	"accessors":[
		{
			"bufferView":0,
			"componentType":5126,
			"count":6617,
			"max":[
				50.029850006103516,
				25.445716857910156,
				50.04770278930664
			],
			"min":[
				-50.147151947021484,
				-14.57663631439209,
				-50.13465118408203
			],
			"type":"VEC3"
		},
		{
			"bufferView":1,
			"componentType":5126,
			"count":6617,
			"type":"VEC3"
		},
		{
			"bufferView":2,
			"componentType":5126,
			"count":6617,
			"type":"VEC2"
		},
		{
			"bufferView":3,
			"componentType":5126,
			"count":6617,
			"type":"VEC4"
		},
		{
			"bufferView":4,
			"componentType":5121,
			"count":6617,
			"type":"VEC4"
		},
		{
			"bufferView":5,
			"componentType":5126,
			"count":6617,
			"type":"VEC4"
		},
		{
			"bufferView":6,
			"componentType":5123,
			"count":30000,
			"type":"SCALAR"
		},
		{
			"bufferView":7,
			"componentType":5126,
			"count":1,
			"type":"MAT4"
		},
		{
			"bufferView":8,
			"componentType":5126,
			"count":30,
			"max":[
				1.25
			],
			"min":[
				0.041666666666666664
			],
			"type":"SCALAR"
		},
		{
			"bufferView":9,
			"componentType":5126,
			"count":30,
			"type":"VEC3"
		},
		{
			"bufferView":10,
			"componentType":5126,
			"count":30,
			"type":"VEC4"
		},
		{
			"bufferView":11,
			"componentType":5126,
			"count":30,
			"type":"VEC3"
		}
	],
	"bufferViews":[
		{
			"buffer":0,
			"byteLength":79404,
			"byteOffset":0,
			"target":34962
		},
		{
			"buffer":0,
			"byteLength":79404,
			"byteOffset":79404,
			"target":34962
		},
		{
			"buffer":0,
			"byteLength":52936,
			"byteOffset":158808,
			"target":34962
		},
		{
			"buffer":0,
			"byteLength":105872,
			"byteOffset":211744,
			"target":34962
		},
		{
			"buffer":0,
			"byteLength":26468,
			"byteOffset":317616,
			"target":34962
		},
		{
			"buffer":0,
			"byteLength":105872,
			"byteOffset":344084,
			"target":34962
		},
		{
			"buffer":0,
			"byteLength":60000,
			"byteOffset":449956,
			"target":34963
		},
		{
			"buffer":0,
			"byteLength":64,
			"byteOffset":509956
		},
		{
			"buffer":0,
			"byteLength":120,
			"byteOffset":510020
		},
		{
			"buffer":0,
			"byteLength":360,
			"byteOffset":510140
		},
		{
			"buffer":0,
			"byteLength":480,
			"byteOffset":510500
		},
		{
			"buffer":0,
			"byteLength":360,
			"byteOffset":510980
		}
	],
	"buffers":[
		{
			"byteLength":511340,
			"uri":"ufo.bin"
		}
	]
}
