{
	"asset":{
		"generator":"Khronos glTF Blender I/O v4.3.47",
		"version":"2.0"
	},
	"scene":0,
	"scenes":[
		{
			"name":"Scene",
			"nodes":[
				1
			]
		}
	],
	"nodes":[
		{
			"mesh":0,
			"name":"PP_Birch_Tree_05.001"
		},
		{
			"children":[
				0
			],
			"name":"birch_tree_00"
		}
	],
	"meshes":[
		{
			"name":"Scene.1809",
			"primitives":[
				{
					"attributes":{
						"POSITION":0,
						"NORMAL":1,
						"TEXCOORD_0":2,
						"TANGENT":3
					},
					"indices":4
				}
			]
		}
	],
	"accessors":[
		{
			"bufferView":0,
			"componentType":5126,
			"count":1624,
			"max":[
				2.469370126724243,
				7.976036071777344,
				1.5571234226226807
			],
			"min":[
				-2.3215746879577637,
				1.430511474609375e-06,
				-2.1166234016418457
			],
			"type":"VEC3"
		},
		{
			"bufferView":1,
			"componentType":5126,
			"count":1624,
			"type":"VEC3"
		},
		{
			"bufferView":2,
			"componentType":5126,
			"count":1624,
			"type":"VEC2"
		},
		{
			"bufferView":3,
			"componentType":5126,
			"count":1624,
			"type":"VEC4"
		},
		{
			"bufferView":4,
			"componentType":5123,
			"count":4542,
			"type":"SCALAR"
		}
	],
	"bufferViews":[
		{
			"buffer":0,
			"byteLength":19488,
			"byteOffset":0,
			"target":34962
		},
		{
			"buffer":0,
			"byteLength":19488,
			"byteOffset":19488,
			"target":34962
		},
		{
			"buffer":0,
			"byteLength":12992,
			"byteOffset":38976,
			"target":34962
		},
		{
			"buffer":0,
			"byteLength":25984,
			"byteOffset":51968,
			"target":34962
		},
		{
			"buffer":0,
			"byteLength":9084,
			"byteOffset":77952,
			"target":34963
		}
	],
	"buffers":[
		{
			"byteLength":87036,
			"uri":"birch_tree_00.bin"
		}
	]
}
