{
	"asset":{
		"generator":"Khronos glTF Blender I/O v4.2.70",
		"version":"2.0"
	},
	"scene":0,
	"scenes":[
		{
			"name":"Scene",
			"nodes":[
				1
			]
		}
	],
	"nodes":[
		{
			"mesh":0,
			"name":"PP_Birch_Tree_05.001"
		},
		{
			"children":[
				0
			],
			"name":"birch_tree_00"
		}
	],
	"meshes":[
		{
			"name":"Scene.1809",
			"primitives":[
				{
					"attributes":{
						"POSITION":0,
						"NORMAL":1,
						"TEXCOORD_0":2,
						"TANGENT":3
					},
					"indices":4
				}
			]
		}
	],
	"accessors":[
		{
			"bufferView":0,
			"componentType":5126,
			"count":4128,
			"max":[
				2.5999739170074463,
				8.25235366821289,
				1.674391746520996
			],
			"min":[
				-2.3912670612335205,
				1.430511474609375e-06,
				-2.669218063354492
			],
			"type":"VEC3"
		},
		{
			"bufferView":1,
			"componentType":5126,
			"count":4128,
			"type":"VEC3"
		},
		{
			"bufferView":2,
			"componentType":5126,
			"count":4128,
			"type":"VEC2"
		},
		{
			"bufferView":3,
			"componentType":5126,
			"count":4128,
			"type":"VEC4"
		},
		{
			"bufferView":4,
			"componentType":5123,
			"count":4560,
			"type":"SCALAR"
		}
	],
	"bufferViews":[
		{
			"buffer":0,
			"byteLength":49536,
			"byteOffset":0,
			"target":34962
		},
		{
			"buffer":0,
			"byteLength":49536,
			"byteOffset":49536,
			"target":34962
		},
		{
			"buffer":0,
			"byteLength":33024,
			"byteOffset":99072,
			"target":34962
		},
		{
			"buffer":0,
			"byteLength":66048,
			"byteOffset":132096,
			"target":34962
		},
		{
			"buffer":0,
			"byteLength":9120,
			"byteOffset":198144,
			"target":34963
		}
	],
	"buffers":[
		{
			"byteLength":207264,
			"uri":"birch_tree_00.bin"
		}
	]
}
