{
	"asset":{
		"generator":"Khronos glTF Blender I/O v4.5.48",
		"version":"2.0"
	},
	"scene":0,
	"scenes":[
		{
			"name":"Scene",
			"nodes":[
				1
			]
		}
	],
	"nodes":[
		{
			"mesh":0,
			"name":"PP_Birch_Tree_06.001"
		},
		{
			"children":[
				0
			],
			"name":"birch_tree_01"
		}
	],
	"meshes":[
		{
			"name":"Scene.1810",
			"primitives":[
				{
					"attributes":{
						"POSITION":0,
						"NORMAL":1,
						"TEXCOORD_0":2,
						"TANGENT":3
					},
					"indices":4
				}
			]
		}
	],
	"accessors":[
		{
			"bufferView":0,
			"componentType":5126,
			"count":5652,
			"max":[
				2.840977668762207,
				8.664878845214844,
				2.3986282348632812
			],
			"min":[
				-2.8718180656433105,
				0.20569507777690887,
				-2.541747570037842
			],
			"type":"VEC3"
		},
		{
			"bufferView":1,
			"componentType":5126,
			"count":5652,
			"type":"VEC3"
		},
		{
			"bufferView":2,
			"componentType":5126,
			"count":5652,
			"type":"VEC2"
		},
		{
			"bufferView":3,
			"componentType":5126,
			"count":5652,
			"type":"VEC4"
		},
		{
			"bufferView":4,
			"componentType":5123,
			"count":5652,
			"type":"SCALAR"
		}
	],
	"bufferViews":[
		{
			"buffer":0,
			"byteLength":67824,
			"byteOffset":0,
			"target":34962
		},
		{
			"buffer":0,
			"byteLength":67824,
			"byteOffset":67824,
			"target":34962
		},
		{
			"buffer":0,
			"byteLength":45216,
			"byteOffset":135648,
			"target":34962
		},
		{
			"buffer":0,
			"byteLength":90432,
			"byteOffset":180864,
			"target":34962
		},
		{
			"buffer":0,
			"byteLength":11304,
			"byteOffset":271296,
			"target":34963
		}
	],
	"buffers":[
		{
			"byteLength":282600,
			"uri":"birch_tree_01.bin"
		}
	]
}
