{
	"asset":{
		"generator":"Khronos glTF Blender I/O v4.1.63",
		"version":"2.0"
	},
	"scene":0,
	"scenes":[
		{
			"name":"Scene",
			"nodes":[
				1
			]
		}
	],
	"nodes":[
		{
			"mesh":0,
			"name":"PP_Birch_Tree_06.001"
		},
		{
			"children":[
				0
			],
			"name":"birch_tree_01"
		}
	],
	"meshes":[
		{
			"name":"Scene.1810",
			"primitives":[
				{
					"attributes":{
						"POSITION":0,
						"NORMAL":1,
						"TEXCOORD_0":2,
						"TANGENT":3
					},
					"indices":4
				}
			]
		}
	],
	"accessors":[
		{
			"bufferView":0,
			"componentType":5126,
			"count":4910,
			"max":[
				2.9656667709350586,
				8.86366081237793,
				2.4980297088623047
			],
			"min":[
				-2.925245523452759,
				1.9073486328125e-06,
				-2.6659703254699707
			],
			"type":"VEC3"
		},
		{
			"bufferView":1,
			"componentType":5126,
			"count":4910,
			"type":"VEC3"
		},
		{
			"bufferView":2,
			"componentType":5126,
			"count":4910,
			"type":"VEC2"
		},
		{
			"bufferView":3,
			"componentType":5126,
			"count":4910,
			"type":"VEC4"
		},
		{
			"bufferView":4,
			"componentType":5123,
			"count":5670,
			"type":"SCALAR"
		}
	],
	"bufferViews":[
		{
			"buffer":0,
			"byteLength":58920,
			"byteOffset":0,
			"target":34962
		},
		{
			"buffer":0,
			"byteLength":58920,
			"byteOffset":58920,
			"target":34962
		},
		{
			"buffer":0,
			"byteLength":39280,
			"byteOffset":117840,
			"target":34962
		},
		{
			"buffer":0,
			"byteLength":78560,
			"byteOffset":157120,
			"target":34962
		},
		{
			"buffer":0,
			"byteLength":11340,
			"byteOffset":235680,
			"target":34963
		}
	],
	"buffers":[
		{
			"byteLength":247020,
			"uri":"birch_tree_01.bin"
		}
	]
}
