{
	"asset":{
		"generator":"Khronos glTF Blender I/O v4.5.48",
		"version":"2.0"
	},
	"scene":0,
	"scenes":[
		{
			"name":"Scene",
			"nodes":[
				1
			]
		}
	],
	"nodes":[
		{
			"mesh":0,
			"name":"bush_01",
			"scale":[
				0.009999999776482582,
				0.009999999776482582,
				0.009999999776482582
			]
		},
		{
			"children":[
				0
			],
			"name":"bush_01"
		}
	],
	"meshes":[
		{
			"name":"bush_01",
			"primitives":[
				{
					"attributes":{
						"POSITION":0,
						"NORMAL":1,
						"TEXCOORD_0":2,
						"TEXCOORD_1":3,
						"TANGENT":4
					},
					"indices":5
				}
			]
		}
	],
	"accessors":[
		{
			"bufferView":0,
			"componentType":5126,
			"count":23,
			"max":[
				135.23899841308594,
				67.58324432373047,
				148.11582946777344
			],
			"min":[
				-166.5901336669922,
				-1.9352036714553833,
				-130.97531127929688
			],
			"type":"VEC3"
		},
		{
			"bufferView":1,
			"componentType":5126,
			"count":23,
			"type":"VEC3"
		},
		{
			"bufferView":2,
			"componentType":5126,
			"count":23,
			"type":"VEC2"
		},
		{
			"bufferView":3,
			"componentType":5126,
			"count":23,
			"type":"VEC2"
		},
		{
			"bufferView":4,
			"componentType":5126,
			"count":23,
			"type":"VEC4"
		},
		{
			"bufferView":5,
			"componentType":5123,
			"count":57,
			"type":"SCALAR"
		}
	],
	"bufferViews":[
		{
			"buffer":0,
			"byteLength":276,
			"byteOffset":0,
			"target":34962
		},
		{
			"buffer":0,
			"byteLength":276,
			"byteOffset":276,
			"target":34962
		},
		{
			"buffer":0,
			"byteLength":184,
			"byteOffset":552,
			"target":34962
		},
		{
			"buffer":0,
			"byteLength":184,
			"byteOffset":736,
			"target":34962
		},
		{
			"buffer":0,
			"byteLength":368,
			"byteOffset":920,
			"target":34962
		},
		{
			"buffer":0,
			"byteLength":114,
			"byteOffset":1288,
			"target":34963
		}
	],
	"buffers":[
		{
			"byteLength":1404,
			"uri":"bush_01.bin"
		}
	]
}
