{
	"asset":{
		"generator":"Khronos glTF Blender I/O v4.5.48",
		"version":"2.0"
	},
	"scene":0,
	"scenes":[
		{
			"name":"Scene",
			"nodes":[
				1
			]
		}
	],
	"nodes":[
		{
			"mesh":0,
			"name":"bush_02",
			"scale":[
				0.009999999776482582,
				0.009999999776482582,
				0.009999999776482582
			]
		},
		{
			"children":[
				0
			],
			"name":"bush_02"
		}
	],
	"meshes":[
		{
			"name":"bush_02",
			"primitives":[
				{
					"attributes":{
						"POSITION":0,
						"NORMAL":1,
						"TEXCOORD_0":2,
						"TEXCOORD_1":3,
						"TANGENT":4
					},
					"indices":5
				}
			]
		}
	],
	"accessors":[
		{
			"bufferView":0,
			"componentType":5126,
			"count":336,
			"max":[
				89.13497161865234,
				73.04222869873047,
				83.86590576171875
			],
			"min":[
				-92.32259368896484,
				-0.15458154678344727,
				-92.40482330322266
			],
			"type":"VEC3"
		},
		{
			"bufferView":1,
			"componentType":5126,
			"count":336,
			"type":"VEC3"
		},
		{
			"bufferView":2,
			"componentType":5126,
			"count":336,
			"type":"VEC2"
		},
		{
			"bufferView":3,
			"componentType":5126,
			"count":336,
			"type":"VEC2"
		},
		{
			"bufferView":4,
			"componentType":5126,
			"count":336,
			"type":"VEC4"
		},
		{
			"bufferView":5,
			"componentType":5123,
			"count":336,
			"type":"SCALAR"
		}
	],
	"bufferViews":[
		{
			"buffer":0,
			"byteLength":4032,
			"byteOffset":0,
			"target":34962
		},
		{
			"buffer":0,
			"byteLength":4032,
			"byteOffset":4032,
			"target":34962
		},
		{
			"buffer":0,
			"byteLength":2688,
			"byteOffset":8064,
			"target":34962
		},
		{
			"buffer":0,
			"byteLength":2688,
			"byteOffset":10752,
			"target":34962
		},
		{
			"buffer":0,
			"byteLength":5376,
			"byteOffset":13440,
			"target":34962
		},
		{
			"buffer":0,
			"byteLength":672,
			"byteOffset":18816,
			"target":34963
		}
	],
	"buffers":[
		{
			"byteLength":19488,
			"uri":"bush_02.bin"
		}
	]
}
