{
	"asset":{
		"generator":"Khronos glTF Blender I/O v4.4.56",
		"version":"2.0"
	},
	"scene":0,
	"scenes":[
		{
			"name":"Scene",
			"nodes":[
				1
			]
		}
	],
	"nodes":[
		{
			"mesh":0,
			"name":"cloud_02"
		},
		{
			"children":[
				0
			],
			"name":"cloud_02"
		}
	],
	"meshes":[
		{
			"name":"Cube.003",
			"primitives":[
				{
					"attributes":{
						"POSITION":0,
						"NORMAL":1,
						"TEXCOORD_0":2,
						"TANGENT":3
					},
					"indices":4
				}
			]
		}
	],
	"accessors":[
		{
			"bufferView":0,
			"componentType":5126,
			"count":66,
			"max":[
				2.7129757404327393,
				1.5219948291778564,
				0.9859771728515625
			],
			"min":[
				-2.465372323989868,
				-0.8583657741546631,
				-1.4487463235855103
			],
			"type":"VEC3"
		},
		{
			"bufferView":1,
			"componentType":5126,
			"count":66,
			"type":"VEC3"
		},
		{
			"bufferView":2,
			"componentType":5126,
			"count":66,
			"type":"VEC2"
		},
		{
			"bufferView":3,
			"componentType":5126,
			"count":66,
			"type":"VEC4"
		},
		{
			"bufferView":4,
			"componentType":5123,
			"count":276,
			"type":"SCALAR"
		}
	],
	"bufferViews":[
		{
			"buffer":0,
			"byteLength":792,
			"byteOffset":0,
			"target":34962
		},
		{
			"buffer":0,
			"byteLength":792,
			"byteOffset":792,
			"target":34962
		},
		{
			"buffer":0,
			"byteLength":528,
			"byteOffset":1584,
			"target":34962
		},
		{
			"buffer":0,
			"byteLength":1056,
			"byteOffset":2112,
			"target":34962
		},
		{
			"buffer":0,
			"byteLength":552,
			"byteOffset":3168,
			"target":34963
		}
	],
	"buffers":[
		{
			"byteLength":3720,
			"uri":"cloud_02.bin"
		}
	]
}
