{
	"asset":{
		"generator":"Khronos glTF Blender I/O v4.4.56",
		"version":"2.0"
	},
	"scene":0,
	"scenes":[
		{
			"name":"Scene",
			"nodes":[
				1
			]
		}
	],
	"nodes":[
		{
			"mesh":0,
			"name":"PP_Daffodil_03.001"
		},
		{
			"children":[
				0
			],
			"name":"daffodil"
		}
	],
	"meshes":[
		{
			"name":"Scene.1811",
			"primitives":[
				{
					"attributes":{
						"POSITION":0,
						"NORMAL":1,
						"TEXCOORD_0":2,
						"TANGENT":3
					},
					"indices":4
				}
			]
		}
	],
	"accessors":[
		{
			"bufferView":0,
			"componentType":5126,
			"count":931,
			"max":[
				0.05583813041448593,
				0.3202264606952667,
				0.07685041427612305
			],
			"min":[
				-0.04159972071647644,
				-0.00120621919631958,
				-0.03336727246642113
			],
			"type":"VEC3"
		},
		{
			"bufferView":1,
			"componentType":5126,
			"count":931,
			"type":"VEC3"
		},
		{
			"bufferView":2,
			"componentType":5126,
			"count":931,
			"type":"VEC2"
		},
		{
			"bufferView":3,
			"componentType":5126,
			"count":931,
			"type":"VEC4"
		},
		{
			"bufferView":4,
			"componentType":5123,
			"count":2544,
			"type":"SCALAR"
		}
	],
	"bufferViews":[
		{
			"buffer":0,
			"byteLength":11172,
			"byteOffset":0,
			"target":34962
		},
		{
			"buffer":0,
			"byteLength":11172,
			"byteOffset":11172,
			"target":34962
		},
		{
			"buffer":0,
			"byteLength":7448,
			"byteOffset":22344,
			"target":34962
		},
		{
			"buffer":0,
			"byteLength":14896,
			"byteOffset":29792,
			"target":34962
		},
		{
			"buffer":0,
			"byteLength":5088,
			"byteOffset":44688,
			"target":34963
		}
	],
	"buffers":[
		{
			"byteLength":49776,
			"uri":"daffodil.bin"
		}
	]
}
