{
	"asset":{
		"generator":"Khronos glTF Blender I/O v4.2.69",
		"version":"2.0"
	},
	"scene":0,
	"scenes":[
		{
			"name":"Scene",
			"nodes":[
				1
			]
		}
	],
	"nodes":[
		{
			"mesh":0,
			"name":"desert_ground"
		},
		{
			"children":[
				0
			],
			"name":"desert_ground"
		}
	],
	"meshes":[
		{
			"name":"Plane.002",
			"primitives":[
				{
					"attributes":{
						"POSITION":0,
						"NORMAL":1,
						"TEXCOORD_0":2,
						"TANGENT":3,
						"COLOR_0":4
					},
					"indices":5
				}
			]
		}
	],
	"accessors":[
		{
			"bufferView":0,
			"componentType":5126,
			"count":6072,
			"max":[
				99.98526000976562,
				0.00023412704467773438,
				57.36331558227539
			],
			"min":[
				-100.01475524902344,
				0.00023412704467773438,
				-51.44999313354492
			],
			"type":"VEC3"
		},
		{
			"bufferView":1,
			"componentType":5126,
			"count":6072,
			"type":"VEC3"
		},
		{
			"bufferView":2,
			"componentType":5126,
			"count":6072,
			"type":"VEC2"
		},
		{
			"bufferView":3,
			"componentType":5126,
			"count":6072,
			"type":"VEC4"
		},
		{
			"bufferView":4,
			"componentType":5123,
			"count":6072,
			"normalized":true,
			"type":"VEC4"
		},
		{
			"bufferView":5,
			"componentType":5123,
			"count":22104,
			"type":"SCALAR"
		}
	],
	"bufferViews":[
		{
			"buffer":0,
			"byteLength":72864,
			"byteOffset":0,
			"target":34962
		},
		{
			"buffer":0,
			"byteLength":72864,
			"byteOffset":72864,
			"target":34962
		},
		{
			"buffer":0,
			"byteLength":48576,
			"byteOffset":145728,
			"target":34962
		},
		{
			"buffer":0,
			"byteLength":97152,
			"byteOffset":194304,
			"target":34962
		},
		{
			"buffer":0,
			"byteLength":48576,
			"byteOffset":291456,
			"target":34962
		},
		{
			"buffer":0,
			"byteLength":44208,
			"byteOffset":340032,
			"target":34963
		}
	],
	"buffers":[
		{
			"byteLength":384240,
			"uri":"desert_ground.bin"
		}
	]
}
