{
	"asset":{
		"generator":"Khronos glTF Blender I/O v4.5.48",
		"version":"2.0"
	},
	"scene":0,
	"scenes":[
		{
			"name":"Scene",
			"nodes":[
				1
			]
		}
	],
	"nodes":[
		{
			"mesh":0,
			"name":"desert_ground"
		},
		{
			"children":[
				0
			],
			"name":"desert_ground"
		}
	],
	"meshes":[
		{
			"name":"Plane.002",
			"primitives":[
				{
					"attributes":{
						"POSITION":0,
						"NORMAL":1,
						"TEXCOORD_0":2,
						"TANGENT":3,
						"COLOR_0":4
					},
					"indices":5
				}
			]
		}
	],
	"accessors":[
		{
			"bufferView":0,
			"componentType":5126,
			"count":6952,
			"max":[
				99.98526000976562,
				0.00023412704467773438,
				57.36331558227539
			],
			"min":[
				-100.01475524902344,
				-9.999765396118164,
				-51.44999313354492
			],
			"type":"VEC3"
		},
		{
			"bufferView":1,
			"componentType":5126,
			"count":6952,
			"type":"VEC3"
		},
		{
			"bufferView":2,
			"componentType":5126,
			"count":6952,
			"type":"VEC2"
		},
		{
			"bufferView":3,
			"componentType":5126,
			"count":6952,
			"type":"VEC4"
		},
		{
			"bufferView":4,
			"componentType":5123,
			"count":6952,
			"normalized":true,
			"type":"VEC4"
		},
		{
			"bufferView":5,
			"componentType":5123,
			"count":23520,
			"type":"SCALAR"
		}
	],
	"bufferViews":[
		{
			"buffer":0,
			"byteLength":83424,
			"byteOffset":0,
			"target":34962
		},
		{
			"buffer":0,
			"byteLength":83424,
			"byteOffset":83424,
			"target":34962
		},
		{
			"buffer":0,
			"byteLength":55616,
			"byteOffset":166848,
			"target":34962
		},
		{
			"buffer":0,
			"byteLength":111232,
			"byteOffset":222464,
			"target":34962
		},
		{
			"buffer":0,
			"byteLength":55616,
			"byteOffset":333696,
			"target":34962
		},
		{
			"buffer":0,
			"byteLength":47040,
			"byteOffset":389312,
			"target":34963
		}
	],
	"buffers":[
		{
			"byteLength":436352,
			"uri":"desert_ground.bin"
		}
	]
}
