{
	"asset":{
		"generator":"Khronos glTF Blender I/O v4.4.56",
		"version":"2.0"
	},
	"scene":0,
	"scenes":[
		{
			"name":"Scene",
			"nodes":[
				1
			]
		}
	],
	"nodes":[
		{
			"mesh":0,
			"name":"fern",
			"scale":[
				0.009999999776482582,
				0.009999999776482582,
				0.009999999776482582
			]
		},
		{
			"children":[
				0
			],
			"name":"fern"
		}
	],
	"meshes":[
		{
			"name":"fern",
			"primitives":[
				{
					"attributes":{
						"POSITION":0,
						"NORMAL":1,
						"TEXCOORD_0":2,
						"TEXCOORD_1":3,
						"TANGENT":4
					},
					"indices":5
				}
			]
		}
	],
	"accessors":[
		{
			"bufferView":0,
			"componentType":5126,
			"count":117,
			"max":[
				134.05455017089844,
				99.87049102783203,
				149.30381774902344
			],
			"min":[
				-135.3151397705078,
				-0.05732083320617676,
				-158.84326171875
			],
			"type":"VEC3"
		},
		{
			"bufferView":1,
			"componentType":5126,
			"count":117,
			"type":"VEC3"
		},
		{
			"bufferView":2,
			"componentType":5126,
			"count":117,
			"type":"VEC2"
		},
		{
			"bufferView":3,
			"componentType":5126,
			"count":117,
			"type":"VEC2"
		},
		{
			"bufferView":4,
			"componentType":5126,
			"count":117,
			"type":"VEC4"
		},
		{
			"bufferView":5,
			"componentType":5123,
			"count":378,
			"type":"SCALAR"
		}
	],
	"bufferViews":[
		{
			"buffer":0,
			"byteLength":1404,
			"byteOffset":0,
			"target":34962
		},
		{
			"buffer":0,
			"byteLength":1404,
			"byteOffset":1404,
			"target":34962
		},
		{
			"buffer":0,
			"byteLength":936,
			"byteOffset":2808,
			"target":34962
		},
		{
			"buffer":0,
			"byteLength":936,
			"byteOffset":3744,
			"target":34962
		},
		{
			"buffer":0,
			"byteLength":1872,
			"byteOffset":4680,
			"target":34962
		},
		{
			"buffer":0,
			"byteLength":756,
			"byteOffset":6552,
			"target":34963
		}
	],
	"buffers":[
		{
			"byteLength":7308,
			"uri":"fern.bin"
		}
	]
}
