{
	"asset":{
		"generator":"Khronos glTF Blender I/O v4.5.48",
		"version":"2.0"
	},
	"scene":0,
	"scenes":[
		{
			"name":"Scene",
			"nodes":[
				1
			]
		}
	],
	"nodes":[
		{
			"mesh":0,
			"name":"fern",
			"scale":[
				0.009999999776482582,
				0.009999999776482582,
				0.009999999776482582
			]
		},
		{
			"children":[
				0
			],
			"name":"fern"
		}
	],
	"meshes":[
		{
			"name":"fern",
			"primitives":[
				{
					"attributes":{
						"POSITION":0,
						"NORMAL":1,
						"TEXCOORD_0":2,
						"TEXCOORD_1":3,
						"TANGENT":4
					},
					"indices":5
				}
			]
		}
	],
	"accessors":[
		{
			"bufferView":0,
			"componentType":5126,
			"count":378,
			"max":[
				134.05455017089844,
				99.87049102783203,
				149.30381774902344
			],
			"min":[
				-135.3151397705078,
				-0.05732083320617676,
				-158.84326171875
			],
			"type":"VEC3"
		},
		{
			"bufferView":1,
			"componentType":5126,
			"count":378,
			"type":"VEC3"
		},
		{
			"bufferView":2,
			"componentType":5126,
			"count":378,
			"type":"VEC2"
		},
		{
			"bufferView":3,
			"componentType":5126,
			"count":378,
			"type":"VEC2"
		},
		{
			"bufferView":4,
			"componentType":5126,
			"count":378,
			"type":"VEC4"
		},
		{
			"bufferView":5,
			"componentType":5123,
			"count":378,
			"type":"SCALAR"
		}
	],
	"bufferViews":[
		{
			"buffer":0,
			"byteLength":4536,
			"byteOffset":0,
			"target":34962
		},
		{
			"buffer":0,
			"byteLength":4536,
			"byteOffset":4536,
			"target":34962
		},
		{
			"buffer":0,
			"byteLength":3024,
			"byteOffset":9072,
			"target":34962
		},
		{
			"buffer":0,
			"byteLength":3024,
			"byteOffset":12096,
			"target":34962
		},
		{
			"buffer":0,
			"byteLength":6048,
			"byteOffset":15120,
			"target":34962
		},
		{
			"buffer":0,
			"byteLength":756,
			"byteOffset":21168,
			"target":34963
		}
	],
	"buffers":[
		{
			"byteLength":21924,
			"uri":"fern.bin"
		}
	]
}
