{
	"asset":{
		"generator":"Khronos glTF Blender I/O v4.4.56",
		"version":"2.0"
	},
	"scene":0,
	"scenes":[
		{
			"name":"Scene",
			"nodes":[
				1
			]
		}
	],
	"nodes":[
		{
			"mesh":0,
			"name":"flower_01",
			"scale":[
				0.009999999776482582,
				0.009999999776482582,
				0.009999999776482582
			]
		},
		{
			"children":[
				0
			],
			"name":"flower_01"
		}
	],
	"meshes":[
		{
			"name":"flower_01",
			"primitives":[
				{
					"attributes":{
						"POSITION":0,
						"NORMAL":1,
						"TEXCOORD_0":2,
						"TEXCOORD_1":3,
						"TANGENT":4
					},
					"indices":5
				}
			]
		}
	],
	"accessors":[
		{
			"bufferView":0,
			"componentType":5126,
			"count":201,
			"max":[
				67.86815643310547,
				59.275028228759766,
				70.9309310913086
			],
			"min":[
				-78.89166259765625,
				-0.004235291853547096,
				-79.41049194335938
			],
			"type":"VEC3"
		},
		{
			"bufferView":1,
			"componentType":5126,
			"count":201,
			"type":"VEC3"
		},
		{
			"bufferView":2,
			"componentType":5126,
			"count":201,
			"type":"VEC2"
		},
		{
			"bufferView":3,
			"componentType":5126,
			"count":201,
			"type":"VEC2"
		},
		{
			"bufferView":4,
			"componentType":5126,
			"count":201,
			"type":"VEC4"
		},
		{
			"bufferView":5,
			"componentType":5123,
			"count":882,
			"type":"SCALAR"
		}
	],
	"bufferViews":[
		{
			"buffer":0,
			"byteLength":2412,
			"byteOffset":0,
			"target":34962
		},
		{
			"buffer":0,
			"byteLength":2412,
			"byteOffset":2412,
			"target":34962
		},
		{
			"buffer":0,
			"byteLength":1608,
			"byteOffset":4824,
			"target":34962
		},
		{
			"buffer":0,
			"byteLength":1608,
			"byteOffset":6432,
			"target":34962
		},
		{
			"buffer":0,
			"byteLength":3216,
			"byteOffset":8040,
			"target":34962
		},
		{
			"buffer":0,
			"byteLength":1764,
			"byteOffset":11256,
			"target":34963
		}
	],
	"buffers":[
		{
			"byteLength":13020,
			"uri":"flower_01.bin"
		}
	]
}
