{
	"asset":{
		"generator":"Khronos glTF Blender I/O v4.1.63",
		"version":"2.0"
	},
	"scene":0,
	"scenes":[
		{
			"name":"Scene",
			"nodes":[
				1
			]
		}
	],
	"nodes":[
		{
			"mesh":0,
			"name":"PP_Forest_Mountain_Moss_01.001"
		},
		{
			"children":[
				0
			],
			"name":"forest_mountain_00"
		}
	],
	"meshes":[
		{
			"name":"Scene.1812",
			"primitives":[
				{
					"attributes":{
						"POSITION":0,
						"NORMAL":1,
						"TEXCOORD_0":2,
						"TANGENT":3
					},
					"indices":4
				}
			]
		}
	],
	"accessors":[
		{
			"bufferView":0,
			"componentType":5126,
			"count":5150,
			"max":[
				15.766101837158203,
				20.892494201660156,
				14.643678665161133
			],
			"min":[
				-19.71771812438965,
				-0.049727439880371094,
				-20.088186264038086
			],
			"type":"VEC3"
		},
		{
			"bufferView":1,
			"componentType":5126,
			"count":5150,
			"type":"VEC3"
		},
		{
			"bufferView":2,
			"componentType":5126,
			"count":5150,
			"type":"VEC2"
		},
		{
			"bufferView":3,
			"componentType":5126,
			"count":5150,
			"type":"VEC4"
		},
		{
			"bufferView":4,
			"componentType":5123,
			"count":5490,
			"type":"SCALAR"
		}
	],
	"bufferViews":[
		{
			"buffer":0,
			"byteLength":61800,
			"byteOffset":0,
			"target":34962
		},
		{
			"buffer":0,
			"byteLength":61800,
			"byteOffset":61800,
			"target":34962
		},
		{
			"buffer":0,
			"byteLength":41200,
			"byteOffset":123600,
			"target":34962
		},
		{
			"buffer":0,
			"byteLength":82400,
			"byteOffset":164800,
			"target":34962
		},
		{
			"buffer":0,
			"byteLength":10980,
			"byteOffset":247200,
			"target":34963
		}
	],
	"buffers":[
		{
			"byteLength":258180,
			"uri":"forest_mountain_00.bin"
		}
	]
}
