{
	"asset":{
		"generator":"Khronos glTF Blender I/O v4.1.63",
		"version":"2.0"
	},
	"scene":0,
	"scenes":[
		{
			"name":"Scene",
			"nodes":[
				1
			]
		}
	],
	"nodes":[
		{
			"mesh":0,
			"name":"PP_Forest_Mountain_Moss_02.001"
		},
		{
			"children":[
				0
			],
			"name":"forest_mountain_01"
		}
	],
	"meshes":[
		{
			"name":"Scene.1814",
			"primitives":[
				{
					"attributes":{
						"POSITION":0,
						"NORMAL":1,
						"TEXCOORD_0":2,
						"TANGENT":3
					},
					"indices":4
				}
			]
		}
	],
	"accessors":[
		{
			"bufferView":0,
			"componentType":5126,
			"count":5490,
			"max":[
				21.033203125,
				21.19725799560547,
				20.885723114013672
			],
			"min":[
				-19.382381439208984,
				-0.09832000732421875,
				-19.52971839904785
			],
			"type":"VEC3"
		},
		{
			"bufferView":1,
			"componentType":5126,
			"count":5490,
			"type":"VEC3"
		},
		{
			"bufferView":2,
			"componentType":5126,
			"count":5490,
			"type":"VEC2"
		},
		{
			"bufferView":3,
			"componentType":5126,
			"count":5490,
			"type":"VEC4"
		},
		{
			"bufferView":4,
			"componentType":5123,
			"count":5838,
			"type":"SCALAR"
		}
	],
	"bufferViews":[
		{
			"buffer":0,
			"byteLength":65880,
			"byteOffset":0,
			"target":34962
		},
		{
			"buffer":0,
			"byteLength":65880,
			"byteOffset":65880,
			"target":34962
		},
		{
			"buffer":0,
			"byteLength":43920,
			"byteOffset":131760,
			"target":34962
		},
		{
			"buffer":0,
			"byteLength":87840,
			"byteOffset":175680,
			"target":34962
		},
		{
			"buffer":0,
			"byteLength":11676,
			"byteOffset":263520,
			"target":34963
		}
	],
	"buffers":[
		{
			"byteLength":275196,
			"uri":"forest_mountain_01.bin"
		}
	]
}
