{
	"asset":{
		"generator":"Khronos glTF Blender I/O v4.4.56",
		"version":"2.0"
	},
	"scene":0,
	"scenes":[
		{
			"name":"Scene",
			"nodes":[
				1
			]
		}
	],
	"nodes":[
		{
			"mesh":0,
			"name":"PP_Grass_15.001"
		},
		{
			"children":[
				0
			],
			"name":"grass_01"
		}
	],
	"meshes":[
		{
			"name":"Scene.1808",
			"primitives":[
				{
					"attributes":{
						"POSITION":0,
						"NORMAL":1,
						"TEXCOORD_0":2,
						"TANGENT":3
					},
					"indices":4
				}
			]
		}
	],
	"accessors":[
		{
			"bufferView":0,
			"componentType":5126,
			"count":488,
			"max":[
				0.19382424652576447,
				0.40160486102104187,
				0.11141213029623032
			],
			"min":[
				-0.2148679941892624,
				-0.017515957355499268,
				-0.2580065429210663
			],
			"type":"VEC3"
		},
		{
			"bufferView":1,
			"componentType":5126,
			"count":488,
			"type":"VEC3"
		},
		{
			"bufferView":2,
			"componentType":5126,
			"count":488,
			"type":"VEC2"
		},
		{
			"bufferView":3,
			"componentType":5126,
			"count":488,
			"type":"VEC4"
		},
		{
			"bufferView":4,
			"componentType":5123,
			"count":1602,
			"type":"SCALAR"
		}
	],
	"bufferViews":[
		{
			"buffer":0,
			"byteLength":5856,
			"byteOffset":0,
			"target":34962
		},
		{
			"buffer":0,
			"byteLength":5856,
			"byteOffset":5856,
			"target":34962
		},
		{
			"buffer":0,
			"byteLength":3904,
			"byteOffset":11712,
			"target":34962
		},
		{
			"buffer":0,
			"byteLength":7808,
			"byteOffset":15616,
			"target":34962
		},
		{
			"buffer":0,
			"byteLength":3204,
			"byteOffset":23424,
			"target":34963
		}
	],
	"buffers":[
		{
			"byteLength":26628,
			"uri":"grass_01.bin"
		}
	]
}
