{
	"asset":{
		"generator":"Khronos glTF Blender I/O v4.5.48",
		"version":"2.0"
	},
	"scene":0,
	"scenes":[
		{
			"name":"Scene",
			"nodes":[
				1
			]
		}
	],
	"nodes":[
		{
			"mesh":0,
			"name":"PP_Grass_11.001"
		},
		{
			"children":[
				0
			],
			"name":"grass_00"
		}
	],
	"meshes":[
		{
			"name":"Scene.1815",
			"primitives":[
				{
					"attributes":{
						"POSITION":0,
						"NORMAL":1,
						"TEXCOORD_0":2,
						"TANGENT":3
					},
					"indices":4
				}
			]
		}
	],
	"accessors":[
		{
			"bufferView":0,
			"componentType":5126,
			"count":1320,
			"max":[
				0.1722337156534195,
				0.40187281370162964,
				0.19408725202083588
			],
			"min":[
				-0.1658729761838913,
				-0.006384521722793579,
				-0.195427805185318
			],
			"type":"VEC3"
		},
		{
			"bufferView":1,
			"componentType":5126,
			"count":1320,
			"type":"VEC3"
		},
		{
			"bufferView":2,
			"componentType":5126,
			"count":1320,
			"type":"VEC2"
		},
		{
			"bufferView":3,
			"componentType":5126,
			"count":1320,
			"type":"VEC4"
		},
		{
			"bufferView":4,
			"componentType":5123,
			"count":1320,
			"type":"SCALAR"
		}
	],
	"bufferViews":[
		{
			"buffer":0,
			"byteLength":15840,
			"byteOffset":0,
			"target":34962
		},
		{
			"buffer":0,
			"byteLength":15840,
			"byteOffset":15840,
			"target":34962
		},
		{
			"buffer":0,
			"byteLength":10560,
			"byteOffset":31680,
			"target":34962
		},
		{
			"buffer":0,
			"byteLength":21120,
			"byteOffset":42240,
			"target":34962
		},
		{
			"buffer":0,
			"byteLength":2640,
			"byteOffset":63360,
			"target":34963
		}
	],
	"buffers":[
		{
			"byteLength":66000,
			"uri":"grass_00.bin"
		}
	]
}
