{
	"asset":{
		"generator":"Khronos glTF Blender I/O v4.1.63",
		"version":"2.0"
	},
	"scene":0,
	"scenes":[
		{
			"name":"Scene",
			"nodes":[
				1
			]
		}
	],
	"nodes":[
		{
			"mesh":0,
			"name":"PP_Hyacinth_04.001"
		},
		{
			"children":[
				0
			],
			"name":"hyacinth"
		}
	],
	"meshes":[
		{
			"name":"Scene.1816",
			"primitives":[
				{
					"attributes":{
						"POSITION":0,
						"NORMAL":1,
						"TEXCOORD_0":2,
						"TANGENT":3
					},
					"indices":4
				}
			]
		}
	],
	"accessors":[
		{
			"bufferView":0,
			"componentType":5126,
			"count":4196,
			"max":[
				0.06462607532739639,
				0.3493518829345703,
				0.05373173952102661
			],
			"min":[
				-0.03662370890378952,
				-0.002778977155685425,
				-0.06468457728624344
			],
			"type":"VEC3"
		},
		{
			"bufferView":1,
			"componentType":5126,
			"count":4196,
			"type":"VEC3"
		},
		{
			"bufferView":2,
			"componentType":5126,
			"count":4196,
			"type":"VEC2"
		},
		{
			"bufferView":3,
			"componentType":5126,
			"count":4196,
			"type":"VEC4"
		},
		{
			"bufferView":4,
			"componentType":5123,
			"count":5388,
			"type":"SCALAR"
		}
	],
	"bufferViews":[
		{
			"buffer":0,
			"byteLength":50352,
			"byteOffset":0,
			"target":34962
		},
		{
			"buffer":0,
			"byteLength":50352,
			"byteOffset":50352,
			"target":34962
		},
		{
			"buffer":0,
			"byteLength":33568,
			"byteOffset":100704,
			"target":34962
		},
		{
			"buffer":0,
			"byteLength":67136,
			"byteOffset":134272,
			"target":34962
		},
		{
			"buffer":0,
			"byteLength":10776,
			"byteOffset":201408,
			"target":34963
		}
	],
	"buffers":[
		{
			"byteLength":212184,
			"uri":"hyacinth.bin"
		}
	]
}
