{
	"asset":{
		"generator":"Khronos glTF Blender I/O v4.1.63",
		"version":"2.0"
	},
	"scene":0,
	"scenes":[
		{
			"name":"Scene",
			"nodes":[
				1
			]
		}
	],
	"nodes":[
		{
			"mesh":0,
			"name":"landscape_00",
			"scale":[
				1,
				1,
				1.3388029336929321
			]
		},
		{
			"children":[
				0
			],
			"name":"landscape_00"
		}
	],
	"meshes":[
		{
			"name":"mountain",
			"primitives":[
				{
					"attributes":{
						"POSITION":0,
						"NORMAL":1,
						"TEXCOORD_0":2,
						"TANGENT":3
					},
					"indices":4
				}
			]
		}
	],
	"accessors":[
		{
			"bufferView":0,
			"componentType":5126,
			"count":18652,
			"max":[
				100.03890991210938,
				39.093082427978516,
				25.485816955566406
			],
			"min":[
				-100.09494018554688,
				-0.39573952555656433,
				-30.71592903137207
			],
			"type":"VEC3"
		},
		{
			"bufferView":1,
			"componentType":5126,
			"count":18652,
			"type":"VEC3"
		},
		{
			"bufferView":2,
			"componentType":5126,
			"count":18652,
			"type":"VEC2"
		},
		{
			"bufferView":3,
			"componentType":5126,
			"count":18652,
			"type":"VEC4"
		},
		{
			"bufferView":4,
			"componentType":5123,
			"count":18666,
			"type":"SCALAR"
		}
	],
	"bufferViews":[
		{
			"buffer":0,
			"byteLength":223824,
			"byteOffset":0,
			"target":34962
		},
		{
			"buffer":0,
			"byteLength":223824,
			"byteOffset":223824,
			"target":34962
		},
		{
			"buffer":0,
			"byteLength":149216,
			"byteOffset":447648,
			"target":34962
		},
		{
			"buffer":0,
			"byteLength":298432,
			"byteOffset":596864,
			"target":34962
		},
		{
			"buffer":0,
			"byteLength":37332,
			"byteOffset":895296,
			"target":34963
		}
	],
	"buffers":[
		{
			"byteLength":932628,
			"uri":"landscape_00.bin"
		}
	]
}
