{
	"asset":{
		"generator":"Khronos glTF Blender I/O v4.4.56",
		"version":"2.0"
	},
	"scene":0,
	"scenes":[
		{
			"name":"Scene",
			"nodes":[
				1
			]
		}
	],
	"nodes":[
		{
			"mesh":0,
			"name":"leaves_00",
			"scale":[
				0.009999999776482582,
				0.009999999776482582,
				0.009999999776482582
			]
		},
		{
			"children":[
				0
			],
			"name":"leaves_00"
		}
	],
	"meshes":[
		{
			"name":"leaves_00",
			"primitives":[
				{
					"attributes":{
						"POSITION":0,
						"NORMAL":1,
						"TEXCOORD_0":2,
						"TEXCOORD_1":3,
						"TANGENT":4
					},
					"indices":5
				}
			]
		}
	],
	"accessors":[
		{
			"bufferView":0,
			"componentType":5126,
			"count":6,
			"max":[
				71.99999237060547,
				-0.001514046685770154,
				15.75847053527832
			],
			"min":[
				-71.99999237060547,
				-226.10855102539062,
				4.616373189492151e-06
			],
			"type":"VEC3"
		},
		{
			"bufferView":1,
			"componentType":5126,
			"count":6,
			"type":"VEC3"
		},
		{
			"bufferView":2,
			"componentType":5126,
			"count":6,
			"type":"VEC2"
		},
		{
			"bufferView":3,
			"componentType":5126,
			"count":6,
			"type":"VEC2"
		},
		{
			"bufferView":4,
			"componentType":5126,
			"count":6,
			"type":"VEC4"
		},
		{
			"bufferView":5,
			"componentType":5123,
			"count":12,
			"type":"SCALAR"
		}
	],
	"bufferViews":[
		{
			"buffer":0,
			"byteLength":72,
			"byteOffset":0,
			"target":34962
		},
		{
			"buffer":0,
			"byteLength":72,
			"byteOffset":72,
			"target":34962
		},
		{
			"buffer":0,
			"byteLength":48,
			"byteOffset":144,
			"target":34962
		},
		{
			"buffer":0,
			"byteLength":48,
			"byteOffset":192,
			"target":34962
		},
		{
			"buffer":0,
			"byteLength":96,
			"byteOffset":240,
			"target":34962
		},
		{
			"buffer":0,
			"byteLength":24,
			"byteOffset":336,
			"target":34963
		}
	],
	"buffers":[
		{
			"byteLength":360,
			"uri":"leaves_00.bin"
		}
	]
}
