{
	"asset":{
		"generator":"Khronos glTF Blender I/O v4.1.63",
		"version":"2.0"
	},
	"scene":0,
	"scenes":[
		{
			"name":"Scene",
			"nodes":[
				1
			]
		}
	],
	"nodes":[
		{
			"mesh":0,
			"name":"PP_Mushroom_Fantasy_Orange_10.001"
		},
		{
			"children":[
				0
			],
			"name":"mushroom_orange_01"
		}
	],
	"meshes":[
		{
			"name":"Scene.1823",
			"primitives":[
				{
					"attributes":{
						"POSITION":0,
						"NORMAL":1,
						"TEXCOORD_0":2,
						"TANGENT":3
					},
					"indices":4
				}
			]
		}
	],
	"accessors":[
		{
			"bufferView":0,
			"componentType":5126,
			"count":1424,
			"max":[
				0.0994231253862381,
				0.39903467893600464,
				0.10518234968185425
			],
			"min":[
				-0.17402233183383942,
				2.0116567611694336e-06,
				-0.10997021943330765
			],
			"type":"VEC3"
		},
		{
			"bufferView":1,
			"componentType":5126,
			"count":1424,
			"type":"VEC3"
		},
		{
			"bufferView":2,
			"componentType":5126,
			"count":1424,
			"type":"VEC2"
		},
		{
			"bufferView":3,
			"componentType":5126,
			"count":1424,
			"type":"VEC4"
		},
		{
			"bufferView":4,
			"componentType":5123,
			"count":1980,
			"type":"SCALAR"
		}
	],
	"bufferViews":[
		{
			"buffer":0,
			"byteLength":17088,
			"byteOffset":0,
			"target":34962
		},
		{
			"buffer":0,
			"byteLength":17088,
			"byteOffset":17088,
			"target":34962
		},
		{
			"buffer":0,
			"byteLength":11392,
			"byteOffset":34176,
			"target":34962
		},
		{
			"buffer":0,
			"byteLength":22784,
			"byteOffset":45568,
			"target":34962
		},
		{
			"buffer":0,
			"byteLength":3960,
			"byteOffset":68352,
			"target":34963
		}
	],
	"buffers":[
		{
			"byteLength":72312,
			"uri":"mushroom_orange_01.bin"
		}
	]
}
