{
	"asset":{
		"generator":"Khronos glTF Blender I/O v4.5.48",
		"version":"2.0"
	},
	"scene":0,
	"scenes":[
		{
			"name":"Scene",
			"nodes":[
				1
			]
		}
	],
	"nodes":[
		{
			"mesh":0,
			"name":"Mushroom_2",
			"scale":[
				0.009999999776482582,
				0.009999999776482582,
				0.009999999776482582
			]
		},
		{
			"children":[
				0
			],
			"name":"mushroom_01"
		}
	],
	"meshes":[
		{
			"name":"Mushroom_2",
			"primitives":[
				{
					"attributes":{
						"POSITION":0,
						"NORMAL":1,
						"TEXCOORD_0":2,
						"TEXCOORD_1":3,
						"TANGENT":4
					},
					"indices":5
				}
			]
		}
	],
	"accessors":[
		{
			"bufferView":0,
			"componentType":5126,
			"count":456,
			"max":[
				35.998714447021484,
				116.06831359863281,
				39.93239212036133
			],
			"min":[
				-40.69358825683594,
				0.3822872042655945,
				-40.01673889160156
			],
			"type":"VEC3"
		},
		{
			"bufferView":1,
			"componentType":5126,
			"count":456,
			"type":"VEC3"
		},
		{
			"bufferView":2,
			"componentType":5126,
			"count":456,
			"type":"VEC2"
		},
		{
			"bufferView":3,
			"componentType":5126,
			"count":456,
			"type":"VEC2"
		},
		{
			"bufferView":4,
			"componentType":5126,
			"count":456,
			"type":"VEC4"
		},
		{
			"bufferView":5,
			"componentType":5123,
			"count":456,
			"type":"SCALAR"
		}
	],
	"bufferViews":[
		{
			"buffer":0,
			"byteLength":5472,
			"byteOffset":0,
			"target":34962
		},
		{
			"buffer":0,
			"byteLength":5472,
			"byteOffset":5472,
			"target":34962
		},
		{
			"buffer":0,
			"byteLength":3648,
			"byteOffset":10944,
			"target":34962
		},
		{
			"buffer":0,
			"byteLength":3648,
			"byteOffset":14592,
			"target":34962
		},
		{
			"buffer":0,
			"byteLength":7296,
			"byteOffset":18240,
			"target":34962
		},
		{
			"buffer":0,
			"byteLength":912,
			"byteOffset":25536,
			"target":34963
		}
	],
	"buffers":[
		{
			"byteLength":26448,
			"uri":"mushroom_01.bin"
		}
	]
}
