{
	"asset":{
		"generator":"Khronos glTF Blender I/O v4.1.63",
		"version":"2.0"
	},
	"scene":0,
	"scenes":[
		{
			"name":"Scene",
			"nodes":[
				1
			]
		}
	],
	"nodes":[
		{
			"mesh":0,
			"name":"PP_Mushroom_Fantasy_Orange_09.001"
		},
		{
			"children":[
				0
			],
			"name":"mushroom_orange_00"
		}
	],
	"meshes":[
		{
			"name":"Scene.1822",
			"primitives":[
				{
					"attributes":{
						"POSITION":0,
						"NORMAL":1,
						"TEXCOORD_0":2,
						"TANGENT":3
					},
					"indices":4
				}
			]
		}
	],
	"accessors":[
		{
			"bufferView":0,
			"componentType":5126,
			"count":1364,
			"max":[
				0.1088787168264389,
				0.36718279123306274,
				0.10637005418539047
			],
			"min":[
				-0.10338316112756729,
				-0.00014334917068481445,
				-0.09603442251682281
			],
			"type":"VEC3"
		},
		{
			"bufferView":1,
			"componentType":5126,
			"count":1364,
			"type":"VEC3"
		},
		{
			"bufferView":2,
			"componentType":5126,
			"count":1364,
			"type":"VEC2"
		},
		{
			"bufferView":3,
			"componentType":5126,
			"count":1364,
			"type":"VEC4"
		},
		{
			"bufferView":4,
			"componentType":5123,
			"count":1782,
			"type":"SCALAR"
		}
	],
	"bufferViews":[
		{
			"buffer":0,
			"byteLength":16368,
			"byteOffset":0,
			"target":34962
		},
		{
			"buffer":0,
			"byteLength":16368,
			"byteOffset":16368,
			"target":34962
		},
		{
			"buffer":0,
			"byteLength":10912,
			"byteOffset":32736,
			"target":34962
		},
		{
			"buffer":0,
			"byteLength":21824,
			"byteOffset":43648,
			"target":34962
		},
		{
			"buffer":0,
			"byteLength":3564,
			"byteOffset":65472,
			"target":34963
		}
	],
	"buffers":[
		{
			"byteLength":69036,
			"uri":"mushroom_orange_00.bin"
		}
	]
}
