{
	"asset":{
		"generator":"Khronos glTF Blender I/O v4.1.63",
		"version":"2.0"
	},
	"scene":0,
	"scenes":[
		{
			"name":"Scene",
			"nodes":[
				1
			]
		}
	],
	"nodes":[
		{
			"mesh":0,
			"name":"PP_Mushroom_Fantasy_Purple_08.001"
		},
		{
			"children":[
				0
			],
			"name":"mushroom_purple_01"
		}
	],
	"meshes":[
		{
			"name":"Scene.1825",
			"primitives":[
				{
					"attributes":{
						"POSITION":0,
						"NORMAL":1,
						"TEXCOORD_0":2,
						"TANGENT":3
					},
					"indices":4
				}
			]
		}
	],
	"accessors":[
		{
			"bufferView":0,
			"componentType":5126,
			"count":884,
			"max":[
				0.07717440277338028,
				0.2937425374984741,
				0.06562233716249466
			],
			"min":[
				-0.06821423023939133,
				1.5497207641601562e-06,
				-0.081094890832901
			],
			"type":"VEC3"
		},
		{
			"bufferView":1,
			"componentType":5126,
			"count":884,
			"type":"VEC3"
		},
		{
			"bufferView":2,
			"componentType":5126,
			"count":884,
			"type":"VEC2"
		},
		{
			"bufferView":3,
			"componentType":5126,
			"count":884,
			"type":"VEC4"
		},
		{
			"bufferView":4,
			"componentType":5123,
			"count":1248,
			"type":"SCALAR"
		}
	],
	"bufferViews":[
		{
			"buffer":0,
			"byteLength":10608,
			"byteOffset":0,
			"target":34962
		},
		{
			"buffer":0,
			"byteLength":10608,
			"byteOffset":10608,
			"target":34962
		},
		{
			"buffer":0,
			"byteLength":7072,
			"byteOffset":21216,
			"target":34962
		},
		{
			"buffer":0,
			"byteLength":14144,
			"byteOffset":28288,
			"target":34962
		},
		{
			"buffer":0,
			"byteLength":2496,
			"byteOffset":42432,
			"target":34963
		}
	],
	"buffers":[
		{
			"byteLength":44928,
			"uri":"mushroom_purple_01.bin"
		}
	]
}
