{
	"asset":{
		"generator":"Khronos glTF Blender I/O v4.1.63",
		"version":"2.0"
	},
	"scene":0,
	"scenes":[
		{
			"name":"Scene",
			"nodes":[
				1
			]
		}
	],
	"nodes":[
		{
			"mesh":0,
			"name":"PP_Mushroom_Fantasy_Purple_05.001"
		},
		{
			"children":[
				0
			],
			"name":"mushroom_purple_00"
		}
	],
	"meshes":[
		{
			"name":"Scene.1824",
			"primitives":[
				{
					"attributes":{
						"POSITION":0,
						"NORMAL":1,
						"TEXCOORD_0":2,
						"TANGENT":3
					},
					"indices":4
				}
			]
		}
	],
	"accessors":[
		{
			"bufferView":0,
			"componentType":5126,
			"count":1408,
			"max":[
				0.14650656282901764,
				0.29795706272125244,
				0.07824043929576874
			],
			"min":[
				-0.07069006562232971,
				-4.693865776062012e-06,
				-0.07290273159742355
			],
			"type":"VEC3"
		},
		{
			"bufferView":1,
			"componentType":5126,
			"count":1408,
			"type":"VEC3"
		},
		{
			"bufferView":2,
			"componentType":5126,
			"count":1408,
			"type":"VEC2"
		},
		{
			"bufferView":3,
			"componentType":5126,
			"count":1408,
			"type":"VEC4"
		},
		{
			"bufferView":4,
			"componentType":5123,
			"count":1872,
			"type":"SCALAR"
		}
	],
	"bufferViews":[
		{
			"buffer":0,
			"byteLength":16896,
			"byteOffset":0,
			"target":34962
		},
		{
			"buffer":0,
			"byteLength":16896,
			"byteOffset":16896,
			"target":34962
		},
		{
			"buffer":0,
			"byteLength":11264,
			"byteOffset":33792,
			"target":34962
		},
		{
			"buffer":0,
			"byteLength":22528,
			"byteOffset":45056,
			"target":34962
		},
		{
			"buffer":0,
			"byteLength":3744,
			"byteOffset":67584,
			"target":34963
		}
	],
	"buffers":[
		{
			"byteLength":71328,
			"uri":"mushroom_purple_00.bin"
		}
	]
}
