{
	"asset":{
		"generator":"Khronos glTF Blender I/O v4.4.56",
		"version":"2.0"
	},
	"scene":0,
	"scenes":[
		{
			"name":"Scene",
			"nodes":[
				1
			]
		}
	],
	"nodes":[
		{
			"mesh":0,
			"name":"Mushroom_4",
			"scale":[
				0.009999999776482582,
				0.009999999776482582,
				0.009999999776482582
			]
		},
		{
			"children":[
				0
			],
			"name":"mushroom_03"
		}
	],
	"meshes":[
		{
			"name":"Mushroom_4",
			"primitives":[
				{
					"attributes":{
						"POSITION":0,
						"NORMAL":1,
						"TEXCOORD_0":2,
						"TEXCOORD_1":3,
						"TANGENT":4
					},
					"indices":5
				}
			]
		}
	],
	"accessors":[
		{
			"bufferView":0,
			"componentType":5126,
			"count":102,
			"max":[
				44.2596549987793,
				84.44844055175781,
				46.54840850830078
			],
			"min":[
				-51.641502380371094,
				0.3822869062423706,
				-51.903377532958984
			],
			"type":"VEC3"
		},
		{
			"bufferView":1,
			"componentType":5126,
			"count":102,
			"type":"VEC3"
		},
		{
			"bufferView":2,
			"componentType":5126,
			"count":102,
			"type":"VEC2"
		},
		{
			"bufferView":3,
			"componentType":5126,
			"count":102,
			"type":"VEC2"
		},
		{
			"bufferView":4,
			"componentType":5126,
			"count":102,
			"type":"VEC4"
		},
		{
			"bufferView":5,
			"componentType":5123,
			"count":456,
			"type":"SCALAR"
		}
	],
	"bufferViews":[
		{
			"buffer":0,
			"byteLength":1224,
			"byteOffset":0,
			"target":34962
		},
		{
			"buffer":0,
			"byteLength":1224,
			"byteOffset":1224,
			"target":34962
		},
		{
			"buffer":0,
			"byteLength":816,
			"byteOffset":2448,
			"target":34962
		},
		{
			"buffer":0,
			"byteLength":816,
			"byteOffset":3264,
			"target":34962
		},
		{
			"buffer":0,
			"byteLength":1632,
			"byteOffset":4080,
			"target":34962
		},
		{
			"buffer":0,
			"byteLength":912,
			"byteOffset":5712,
			"target":34963
		}
	],
	"buffers":[
		{
			"byteLength":6624,
			"uri":"mushroom_03.bin"
		}
	]
}
