{
	"asset":{
		"generator":"Khronos glTF Blender I/O v4.4.56",
		"version":"2.0"
	},
	"scene":0,
	"scenes":[
		{
			"name":"Scene",
			"nodes":[
				1
			]
		}
	],
	"nodes":[
		{
			"mesh":0,
			"name":"Mushroom_1",
			"scale":[
				0.009999999776482582,
				0.009999999776482582,
				0.009999999776482582
			]
		},
		{
			"children":[
				0
			],
			"name":"mushroom_00"
		}
	],
	"meshes":[
		{
			"name":"Mushroom_1",
			"primitives":[
				{
					"attributes":{
						"POSITION":0,
						"NORMAL":1,
						"TEXCOORD_0":2,
						"TEXCOORD_1":3,
						"TANGENT":4
					},
					"indices":5
				}
			]
		}
	],
	"accessors":[
		{
			"bufferView":0,
			"componentType":5126,
			"count":101,
			"max":[
				46.9335823059082,
				96.95243835449219,
				51.798194885253906
			],
			"min":[
				-53.23102569580078,
				0.3822868764400482,
				-50.75822830200195
			],
			"type":"VEC3"
		},
		{
			"bufferView":1,
			"componentType":5126,
			"count":101,
			"type":"VEC3"
		},
		{
			"bufferView":2,
			"componentType":5126,
			"count":101,
			"type":"VEC2"
		},
		{
			"bufferView":3,
			"componentType":5126,
			"count":101,
			"type":"VEC2"
		},
		{
			"bufferView":4,
			"componentType":5126,
			"count":101,
			"type":"VEC4"
		},
		{
			"bufferView":5,
			"componentType":5123,
			"count":456,
			"type":"SCALAR"
		}
	],
	"bufferViews":[
		{
			"buffer":0,
			"byteLength":1212,
			"byteOffset":0,
			"target":34962
		},
		{
			"buffer":0,
			"byteLength":1212,
			"byteOffset":1212,
			"target":34962
		},
		{
			"buffer":0,
			"byteLength":808,
			"byteOffset":2424,
			"target":34962
		},
		{
			"buffer":0,
			"byteLength":808,
			"byteOffset":3232,
			"target":34962
		},
		{
			"buffer":0,
			"byteLength":1616,
			"byteOffset":4040,
			"target":34962
		},
		{
			"buffer":0,
			"byteLength":912,
			"byteOffset":5656,
			"target":34963
		}
	],
	"buffers":[
		{
			"byteLength":6568,
			"uri":"mushroom_00.bin"
		}
	]
}
