{
	"asset":{
		"generator":"Khronos glTF Blender I/O v4.5.48",
		"version":"2.0"
	},
	"scene":0,
	"scenes":[
		{
			"name":"Scene",
			"nodes":[
				1
			]
		}
	],
	"nodes":[
		{
			"mesh":0,
			"name":"Mushroom_3",
			"scale":[
				0.009999999776482582,
				0.009999999776482582,
				0.009999999776482582
			]
		},
		{
			"children":[
				0
			],
			"name":"mushroom_02"
		}
	],
	"meshes":[
		{
			"name":"Mushroom_3",
			"primitives":[
				{
					"attributes":{
						"POSITION":0,
						"NORMAL":1,
						"TEXCOORD_0":2,
						"TEXCOORD_1":3,
						"TANGENT":4
					},
					"indices":5
				}
			]
		}
	],
	"accessors":[
		{
			"bufferView":0,
			"componentType":5126,
			"count":447,
			"max":[
				31.949256896972656,
				74.26927185058594,
				33.167640686035156
			],
			"min":[
				-34.1352424621582,
				0.3822872042655945,
				-33.167659759521484
			],
			"type":"VEC3"
		},
		{
			"bufferView":1,
			"componentType":5126,
			"count":447,
			"type":"VEC3"
		},
		{
			"bufferView":2,
			"componentType":5126,
			"count":447,
			"type":"VEC2"
		},
		{
			"bufferView":3,
			"componentType":5126,
			"count":447,
			"type":"VEC2"
		},
		{
			"bufferView":4,
			"componentType":5126,
			"count":447,
			"type":"VEC4"
		},
		{
			"bufferView":5,
			"componentType":5123,
			"count":456,
			"type":"SCALAR"
		}
	],
	"bufferViews":[
		{
			"buffer":0,
			"byteLength":5364,
			"byteOffset":0,
			"target":34962
		},
		{
			"buffer":0,
			"byteLength":5364,
			"byteOffset":5364,
			"target":34962
		},
		{
			"buffer":0,
			"byteLength":3576,
			"byteOffset":10728,
			"target":34962
		},
		{
			"buffer":0,
			"byteLength":3576,
			"byteOffset":14304,
			"target":34962
		},
		{
			"buffer":0,
			"byteLength":7152,
			"byteOffset":17880,
			"target":34962
		},
		{
			"buffer":0,
			"byteLength":912,
			"byteOffset":25032,
			"target":34963
		}
	],
	"buffers":[
		{
			"byteLength":25944,
			"uri":"mushroom_02.bin"
		}
	]
}
