{
	"asset":{
		"generator":"Khronos glTF Blender I/O v4.4.56",
		"version":"2.0"
	},
	"scene":0,
	"scenes":[
		{
			"name":"Scene",
			"nodes":[
				1
			]
		}
	],
	"nodes":[
		{
			"mesh":0,
			"name":"PP_Mushroom_Fantasy_Orange_09.001"
		},
		{
			"children":[
				0
			],
			"name":"mushroom_orange_00"
		}
	],
	"meshes":[
		{
			"name":"Scene.1822",
			"primitives":[
				{
					"attributes":{
						"POSITION":0,
						"NORMAL":1,
						"TEXCOORD_0":2,
						"TANGENT":3
					},
					"indices":4
				}
			]
		}
	],
	"accessors":[
		{
			"bufferView":0,
			"componentType":5126,
			"count":607,
			"max":[
				0.1088787168264389,
				0.36718279123306274,
				0.10637005418539047
			],
			"min":[
				-0.10338316112756729,
				-0.00014334917068481445,
				-0.09603442251682281
			],
			"type":"VEC3"
		},
		{
			"bufferView":1,
			"componentType":5126,
			"count":607,
			"type":"VEC3"
		},
		{
			"bufferView":2,
			"componentType":5126,
			"count":607,
			"type":"VEC2"
		},
		{
			"bufferView":3,
			"componentType":5126,
			"count":607,
			"type":"VEC4"
		},
		{
			"bufferView":4,
			"componentType":5123,
			"count":1782,
			"type":"SCALAR"
		}
	],
	"bufferViews":[
		{
			"buffer":0,
			"byteLength":7284,
			"byteOffset":0,
			"target":34962
		},
		{
			"buffer":0,
			"byteLength":7284,
			"byteOffset":7284,
			"target":34962
		},
		{
			"buffer":0,
			"byteLength":4856,
			"byteOffset":14568,
			"target":34962
		},
		{
			"buffer":0,
			"byteLength":9712,
			"byteOffset":19424,
			"target":34962
		},
		{
			"buffer":0,
			"byteLength":3564,
			"byteOffset":29136,
			"target":34963
		}
	],
	"buffers":[
		{
			"byteLength":32700,
			"uri":"mushroom_orange_00.bin"
		}
	]
}
