{
	"asset":{
		"generator":"Khronos glTF Blender I/O v4.5.47",
		"version":"2.0"
	},
	"scene":0,
	"scenes":[
		{
			"name":"Scene",
			"nodes":[
				1
			]
		}
	],
	"nodes":[
		{
			"mesh":0,
			"name":"Pine_tree",
			"scale":[
				0.009999999776482582,
				0.009999999776482582,
				0.009999999776482582
			]
		},
		{
			"children":[
				0
			],
			"name":"pine_tree_00"
		}
	],
	"meshes":[
		{
			"name":"Pine_tree",
			"primitives":[
				{
					"attributes":{
						"POSITION":0,
						"NORMAL":1,
						"TEXCOORD_0":2,
						"TEXCOORD_1":3,
						"TANGENT":4
					},
					"indices":5
				}
			]
		}
	],
	"accessors":[
		{
			"bufferView":0,
			"componentType":5126,
			"count":581,
			"max":[
				373.3655090332031,
				1305.9432373046875,
				422.50408935546875
			],
			"min":[
				-376.6894836425781,
				-1.171885371208191,
				-439.56866455078125
			],
			"type":"VEC3"
		},
		{
			"bufferView":1,
			"componentType":5126,
			"count":581,
			"type":"VEC3"
		},
		{
			"bufferView":2,
			"componentType":5126,
			"count":581,
			"type":"VEC2"
		},
		{
			"bufferView":3,
			"componentType":5126,
			"count":581,
			"type":"VEC2"
		},
		{
			"bufferView":4,
			"componentType":5126,
			"count":581,
			"type":"VEC4"
		},
		{
			"bufferView":5,
			"componentType":5123,
			"count":1788,
			"type":"SCALAR"
		}
	],
	"bufferViews":[
		{
			"buffer":0,
			"byteLength":6972,
			"byteOffset":0,
			"target":34962
		},
		{
			"buffer":0,
			"byteLength":6972,
			"byteOffset":6972,
			"target":34962
		},
		{
			"buffer":0,
			"byteLength":4648,
			"byteOffset":13944,
			"target":34962
		},
		{
			"buffer":0,
			"byteLength":4648,
			"byteOffset":18592,
			"target":34962
		},
		{
			"buffer":0,
			"byteLength":9296,
			"byteOffset":23240,
			"target":34962
		},
		{
			"buffer":0,
			"byteLength":3576,
			"byteOffset":32536,
			"target":34963
		}
	],
	"buffers":[
		{
			"byteLength":36112,
			"uri":"pine_tree_00.bin"
		}
	]
}
