{
	"asset":{
		"generator":"Khronos glTF Blender I/O v4.4.56",
		"version":"2.0"
	},
	"scene":0,
	"scenes":[
		{
			"name":"Scene",
			"nodes":[
				1
			]
		}
	],
	"nodes":[
		{
			"mesh":0,
			"name":"Pine_tree_2",
			"scale":[
				0.009999999776482582,
				0.009999999776482582,
				0.009999999776482582
			]
		},
		{
			"children":[
				0
			],
			"name":"pine_tree_01"
		}
	],
	"meshes":[
		{
			"name":"Pine_tree_2",
			"primitives":[
				{
					"attributes":{
						"POSITION":0,
						"NORMAL":1,
						"TEXCOORD_0":2,
						"TEXCOORD_1":3,
						"TANGENT":4
					},
					"indices":5
				}
			]
		}
	],
	"accessors":[
		{
			"bufferView":0,
			"componentType":5126,
			"count":474,
			"max":[
				239.5215301513672,
				826.0291137695312,
				219.56790161132812
			],
			"min":[
				-246.6605224609375,
				-17.56277847290039,
				-240.63311767578125
			],
			"type":"VEC3"
		},
		{
			"bufferView":1,
			"componentType":5126,
			"count":474,
			"type":"VEC3"
		},
		{
			"bufferView":2,
			"componentType":5126,
			"count":474,
			"type":"VEC2"
		},
		{
			"bufferView":3,
			"componentType":5126,
			"count":474,
			"type":"VEC2"
		},
		{
			"bufferView":4,
			"componentType":5126,
			"count":474,
			"type":"VEC4"
		},
		{
			"bufferView":5,
			"componentType":5123,
			"count":1593,
			"type":"SCALAR"
		}
	],
	"bufferViews":[
		{
			"buffer":0,
			"byteLength":5688,
			"byteOffset":0,
			"target":34962
		},
		{
			"buffer":0,
			"byteLength":5688,
			"byteOffset":5688,
			"target":34962
		},
		{
			"buffer":0,
			"byteLength":3792,
			"byteOffset":11376,
			"target":34962
		},
		{
			"buffer":0,
			"byteLength":3792,
			"byteOffset":15168,
			"target":34962
		},
		{
			"buffer":0,
			"byteLength":7584,
			"byteOffset":18960,
			"target":34962
		},
		{
			"buffer":0,
			"byteLength":3186,
			"byteOffset":26544,
			"target":34963
		}
	],
	"buffers":[
		{
			"byteLength":29732,
			"uri":"pine_tree_01.bin"
		}
	]
}
