{
	"asset":{
		"generator":"Khronos glTF Blender I/O v4.5.48",
		"version":"2.0"
	},
	"scene":0,
	"scenes":[
		{
			"name":"Scene",
			"nodes":[
				1
			]
		}
	],
	"nodes":[
		{
			"mesh":0,
			"name":"Rock_3",
			"scale":[
				0.009999999776482582,
				0.009999999776482582,
				0.009999999776482582
			]
		},
		{
			"children":[
				0
			],
			"name":"rock_02"
		}
	],
	"meshes":[
		{
			"name":"Rock_3",
			"primitives":[
				{
					"attributes":{
						"POSITION":0,
						"NORMAL":1,
						"TEXCOORD_0":2,
						"TEXCOORD_1":3,
						"TANGENT":4
					},
					"indices":5
				}
			]
		}
	],
	"accessors":[
		{
			"bufferView":0,
			"componentType":5126,
			"count":113,
			"max":[
				233.06808471679688,
				379.646240234375,
				209.78125
			],
			"min":[
				-233.06808471679688,
				-0.062255859375,
				-209.78125
			],
			"type":"VEC3"
		},
		{
			"bufferView":1,
			"componentType":5126,
			"count":113,
			"type":"VEC3"
		},
		{
			"bufferView":2,
			"componentType":5126,
			"count":113,
			"type":"VEC2"
		},
		{
			"bufferView":3,
			"componentType":5126,
			"count":113,
			"type":"VEC2"
		},
		{
			"bufferView":4,
			"componentType":5126,
			"count":113,
			"type":"VEC4"
		},
		{
			"bufferView":5,
			"componentType":5123,
			"count":531,
			"type":"SCALAR"
		}
	],
	"bufferViews":[
		{
			"buffer":0,
			"byteLength":1356,
			"byteOffset":0,
			"target":34962
		},
		{
			"buffer":0,
			"byteLength":1356,
			"byteOffset":1356,
			"target":34962
		},
		{
			"buffer":0,
			"byteLength":904,
			"byteOffset":2712,
			"target":34962
		},
		{
			"buffer":0,
			"byteLength":904,
			"byteOffset":3616,
			"target":34962
		},
		{
			"buffer":0,
			"byteLength":1808,
			"byteOffset":4520,
			"target":34962
		},
		{
			"buffer":0,
			"byteLength":1062,
			"byteOffset":6328,
			"target":34963
		}
	],
	"buffers":[
		{
			"byteLength":7392,
			"uri":"rock_02.bin"
		}
	]
}
