{
	"asset":{
		"generator":"Khronos glTF Blender I/O v4.5.48",
		"version":"2.0"
	},
	"scene":0,
	"scenes":[
		{
			"name":"Scene",
			"nodes":[
				1
			]
		}
	],
	"nodes":[
		{
			"mesh":0,
			"name":"Rock_4",
			"scale":[
				0.009999999776482582,
				0.009999999776482582,
				0.009999999776482582
			]
		},
		{
			"children":[
				0
			],
			"name":"rock_03"
		}
	],
	"meshes":[
		{
			"name":"Rock_4",
			"primitives":[
				{
					"attributes":{
						"POSITION":0,
						"NORMAL":1,
						"TEXCOORD_0":2,
						"TEXCOORD_1":3,
						"TANGENT":4
					},
					"indices":5
				}
			]
		}
	],
	"accessors":[
		{
			"bufferView":0,
			"componentType":5126,
			"count":513,
			"max":[
				265.0670471191406,
				265.267822265625,
				239.4639129638672
			],
			"min":[
				-302.050537109375,
				-0.0272216796875,
				-207.44580078125
			],
			"type":"VEC3"
		},
		{
			"bufferView":1,
			"componentType":5126,
			"count":513,
			"type":"VEC3"
		},
		{
			"bufferView":2,
			"componentType":5126,
			"count":513,
			"type":"VEC2"
		},
		{
			"bufferView":3,
			"componentType":5126,
			"count":513,
			"type":"VEC2"
		},
		{
			"bufferView":4,
			"componentType":5126,
			"count":513,
			"type":"VEC4"
		},
		{
			"bufferView":5,
			"componentType":5123,
			"count":513,
			"type":"SCALAR"
		}
	],
	"bufferViews":[
		{
			"buffer":0,
			"byteLength":6156,
			"byteOffset":0,
			"target":34962
		},
		{
			"buffer":0,
			"byteLength":6156,
			"byteOffset":6156,
			"target":34962
		},
		{
			"buffer":0,
			"byteLength":4104,
			"byteOffset":12312,
			"target":34962
		},
		{
			"buffer":0,
			"byteLength":4104,
			"byteOffset":16416,
			"target":34962
		},
		{
			"buffer":0,
			"byteLength":8208,
			"byteOffset":20520,
			"target":34962
		},
		{
			"buffer":0,
			"byteLength":1026,
			"byteOffset":28728,
			"target":34963
		}
	],
	"buffers":[
		{
			"byteLength":29756,
			"uri":"rock_03.bin"
		}
	]
}
