{
	"asset":{
		"generator":"Khronos glTF Blender I/O v4.3.47",
		"version":"2.0"
	},
	"scene":0,
	"scenes":[
		{
			"name":"Scene",
			"nodes":[
				1
			]
		}
	],
	"nodes":[
		{
			"mesh":0,
			"name":"PP_Rock_Moss_Grown_09.001"
		},
		{
			"children":[
				0
			],
			"name":"rock_forest_grown_00"
		}
	],
	"meshes":[
		{
			"name":"Scene.1826",
			"primitives":[
				{
					"attributes":{
						"POSITION":0,
						"NORMAL":1,
						"TEXCOORD_0":2,
						"TANGENT":3
					},
					"indices":4
				}
			]
		}
	],
	"accessors":[
		{
			"bufferView":0,
			"componentType":5126,
			"count":543,
			"max":[
				1.9012850522994995,
				2.709113597869873,
				1.9484933614730835
			],
			"min":[
				-1.4620176553726196,
				-0.032564759254455566,
				-1.9100561141967773
			],
			"type":"VEC3"
		},
		{
			"bufferView":1,
			"componentType":5126,
			"count":543,
			"type":"VEC3"
		},
		{
			"bufferView":2,
			"componentType":5126,
			"count":543,
			"type":"VEC2"
		},
		{
			"bufferView":3,
			"componentType":5126,
			"count":543,
			"type":"VEC4"
		},
		{
			"bufferView":4,
			"componentType":5123,
			"count":1482,
			"type":"SCALAR"
		}
	],
	"bufferViews":[
		{
			"buffer":0,
			"byteLength":6516,
			"byteOffset":0,
			"target":34962
		},
		{
			"buffer":0,
			"byteLength":6516,
			"byteOffset":6516,
			"target":34962
		},
		{
			"buffer":0,
			"byteLength":4344,
			"byteOffset":13032,
			"target":34962
		},
		{
			"buffer":0,
			"byteLength":8688,
			"byteOffset":17376,
			"target":34962
		},
		{
			"buffer":0,
			"byteLength":2964,
			"byteOffset":26064,
			"target":34963
		}
	],
	"buffers":[
		{
			"byteLength":29028,
			"uri":"rock_forest_grown_00.bin"
		}
	]
}
