{
	"asset":{
		"generator":"Khronos glTF Blender I/O v4.1.63",
		"version":"2.0"
	},
	"scene":0,
	"scenes":[
		{
			"name":"Scene",
			"nodes":[
				1
			]
		}
	],
	"nodes":[
		{
			"mesh":0,
			"name":"PP_Rock_Pile_Forest_Moss_10.001"
		},
		{
			"children":[
				0
			],
			"name":"rock_forest_moss_01"
		}
	],
	"meshes":[
		{
			"name":"Scene.1829",
			"primitives":[
				{
					"attributes":{
						"POSITION":0,
						"NORMAL":1,
						"TEXCOORD_0":2,
						"TANGENT":3
					},
					"indices":4
				}
			]
		}
	],
	"accessors":[
		{
			"bufferView":0,
			"componentType":5126,
			"count":1192,
			"max":[
				2.3791663646698,
				3.7511467933654785,
				2.446967363357544
			],
			"min":[
				-2.6804916858673096,
				-0.13693666458129883,
				-2.7556746006011963
			],
			"type":"VEC3"
		},
		{
			"bufferView":1,
			"componentType":5126,
			"count":1192,
			"type":"VEC3"
		},
		{
			"bufferView":2,
			"componentType":5126,
			"count":1192,
			"type":"VEC2"
		},
		{
			"bufferView":3,
			"componentType":5126,
			"count":1192,
			"type":"VEC4"
		},
		{
			"bufferView":4,
			"componentType":5123,
			"count":1584,
			"type":"SCALAR"
		}
	],
	"bufferViews":[
		{
			"buffer":0,
			"byteLength":14304,
			"byteOffset":0,
			"target":34962
		},
		{
			"buffer":0,
			"byteLength":14304,
			"byteOffset":14304,
			"target":34962
		},
		{
			"buffer":0,
			"byteLength":9536,
			"byteOffset":28608,
			"target":34962
		},
		{
			"buffer":0,
			"byteLength":19072,
			"byteOffset":38144,
			"target":34962
		},
		{
			"buffer":0,
			"byteLength":3168,
			"byteOffset":57216,
			"target":34963
		}
	],
	"buffers":[
		{
			"byteLength":60384,
			"uri":"rock_forest_moss_01.bin"
		}
	]
}
