{
	"asset":{
		"generator":"Khronos glTF Blender I/O v4.1.63",
		"version":"2.0"
	},
	"scene":0,
	"scenes":[
		{
			"name":"Scene",
			"nodes":[
				1
			]
		}
	],
	"nodes":[
		{
			"mesh":0,
			"name":"PP_Rock_Pile_Forest_Moss_05.001"
		},
		{
			"children":[
				0
			],
			"name":"rock_forest_moss_00"
		}
	],
	"meshes":[
		{
			"name":"Scene.1828",
			"primitives":[
				{
					"attributes":{
						"POSITION":0,
						"NORMAL":1,
						"TEXCOORD_0":2,
						"TANGENT":3
					},
					"indices":4
				}
			]
		}
	],
	"accessors":[
		{
			"bufferView":0,
			"componentType":5126,
			"count":1323,
			"max":[
				2.3455655574798584,
				5.524333953857422,
				1.5504968166351318
			],
			"min":[
				-2.2622780799865723,
				-0.05003929138183594,
				-2.4711854457855225
			],
			"type":"VEC3"
		},
		{
			"bufferView":1,
			"componentType":5126,
			"count":1323,
			"type":"VEC3"
		},
		{
			"bufferView":2,
			"componentType":5126,
			"count":1323,
			"type":"VEC2"
		},
		{
			"bufferView":3,
			"componentType":5126,
			"count":1323,
			"type":"VEC4"
		},
		{
			"bufferView":4,
			"componentType":5123,
			"count":1728,
			"type":"SCALAR"
		}
	],
	"bufferViews":[
		{
			"buffer":0,
			"byteLength":15876,
			"byteOffset":0,
			"target":34962
		},
		{
			"buffer":0,
			"byteLength":15876,
			"byteOffset":15876,
			"target":34962
		},
		{
			"buffer":0,
			"byteLength":10584,
			"byteOffset":31752,
			"target":34962
		},
		{
			"buffer":0,
			"byteLength":21168,
			"byteOffset":42336,
			"target":34962
		},
		{
			"buffer":0,
			"byteLength":3456,
			"byteOffset":63504,
			"target":34963
		}
	],
	"buffers":[
		{
			"byteLength":66960,
			"uri":"rock_forest_moss_00.bin"
		}
	]
}
