{
	"asset":{
		"generator":"Khronos glTF Blender I/O v4.5.47",
		"version":"2.0"
	},
	"scene":0,
	"scenes":[
		{
			"name":"Scene",
			"nodes":[
				1
			]
		}
	],
	"nodes":[
		{
			"mesh":0,
			"name":"Rock_1",
			"scale":[
				0.009999999776482582,
				0.009999999776482582,
				0.009999999776482582
			]
		},
		{
			"children":[
				0
			],
			"name":"rock_00"
		}
	],
	"meshes":[
		{
			"name":"Rock_1",
			"primitives":[
				{
					"attributes":{
						"POSITION":0,
						"NORMAL":1,
						"TEXCOORD_0":2,
						"TEXCOORD_1":3,
						"TANGENT":4
					},
					"indices":5
				}
			]
		}
	],
	"accessors":[
		{
			"bufferView":0,
			"componentType":5126,
			"count":34,
			"max":[
				156.56887817382812,
				174.54981994628906,
				171.02490234375
			],
			"min":[
				-156.56887817382812,
				-0.02950439415872097,
				-171.02490234375
			],
			"type":"VEC3"
		},
		{
			"bufferView":1,
			"componentType":5126,
			"count":34,
			"type":"VEC3"
		},
		{
			"bufferView":2,
			"componentType":5126,
			"count":34,
			"type":"VEC2"
		},
		{
			"bufferView":3,
			"componentType":5126,
			"count":34,
			"type":"VEC2"
		},
		{
			"bufferView":4,
			"componentType":5126,
			"count":34,
			"type":"VEC4"
		},
		{
			"bufferView":5,
			"componentType":5123,
			"count":177,
			"type":"SCALAR"
		}
	],
	"bufferViews":[
		{
			"buffer":0,
			"byteLength":408,
			"byteOffset":0,
			"target":34962
		},
		{
			"buffer":0,
			"byteLength":408,
			"byteOffset":408,
			"target":34962
		},
		{
			"buffer":0,
			"byteLength":272,
			"byteOffset":816,
			"target":34962
		},
		{
			"buffer":0,
			"byteLength":272,
			"byteOffset":1088,
			"target":34962
		},
		{
			"buffer":0,
			"byteLength":544,
			"byteOffset":1360,
			"target":34962
		},
		{
			"buffer":0,
			"byteLength":354,
			"byteOffset":1904,
			"target":34963
		}
	],
	"buffers":[
		{
			"byteLength":2260,
			"uri":"rock_00.bin"
		}
	]
}
