{
	"asset":{
		"generator":"Khronos glTF Blender I/O v4.4.56",
		"version":"2.0"
	},
	"scene":0,
	"scenes":[
		{
			"name":"Scene",
			"nodes":[
				1
			]
		}
	],
	"nodes":[
		{
			"mesh":0,
			"name":"Rock_2",
			"scale":[
				0.009999999776482582,
				0.009999999776482582,
				0.009999999776482582
			]
		},
		{
			"children":[
				0
			],
			"name":"rock_01"
		}
	],
	"meshes":[
		{
			"name":"Rock_2",
			"primitives":[
				{
					"attributes":{
						"POSITION":0,
						"NORMAL":1,
						"TEXCOORD_0":2,
						"TEXCOORD_1":3,
						"TANGENT":4
					},
					"indices":5
				}
			]
		}
	],
	"accessors":[
		{
			"bufferView":0,
			"componentType":5126,
			"count":187,
			"max":[
				330.9619140625,
				692.7053833007812,
				233.0345001220703
			],
			"min":[
				-342.5111083984375,
				-0.10973019897937775,
				-302.08746337890625
			],
			"type":"VEC3"
		},
		{
			"bufferView":1,
			"componentType":5126,
			"count":187,
			"type":"VEC3"
		},
		{
			"bufferView":2,
			"componentType":5126,
			"count":187,
			"type":"VEC2"
		},
		{
			"bufferView":3,
			"componentType":5126,
			"count":187,
			"type":"VEC2"
		},
		{
			"bufferView":4,
			"componentType":5126,
			"count":187,
			"type":"VEC4"
		},
		{
			"bufferView":5,
			"componentType":5123,
			"count":912,
			"type":"SCALAR"
		}
	],
	"bufferViews":[
		{
			"buffer":0,
			"byteLength":2244,
			"byteOffset":0,
			"target":34962
		},
		{
			"buffer":0,
			"byteLength":2244,
			"byteOffset":2244,
			"target":34962
		},
		{
			"buffer":0,
			"byteLength":1496,
			"byteOffset":4488,
			"target":34962
		},
		{
			"buffer":0,
			"byteLength":1496,
			"byteOffset":5984,
			"target":34962
		},
		{
			"buffer":0,
			"byteLength":2992,
			"byteOffset":7480,
			"target":34962
		},
		{
			"buffer":0,
			"byteLength":1824,
			"byteOffset":10472,
			"target":34963
		}
	],
	"buffers":[
		{
			"byteLength":12296,
			"uri":"rock_01.bin"
		}
	]
}
