{
	"asset":{
		"generator":"Khronos glTF Blender I/O v4.1.63",
		"version":"2.0"
	},
	"scene":0,
	"scenes":[
		{
			"name":"Scene",
			"nodes":[
				1
			]
		}
	],
	"nodes":[
		{
			"mesh":0,
			"name":"PP_Rock_Moss_Grown_11.001"
		},
		{
			"children":[
				0
			],
			"name":"rock_forest_grown_01"
		}
	],
	"meshes":[
		{
			"name":"Scene.1827",
			"primitives":[
				{
					"attributes":{
						"POSITION":0,
						"NORMAL":1,
						"TEXCOORD_0":2,
						"TANGENT":3
					},
					"indices":4
				}
			]
		}
	],
	"accessors":[
		{
			"bufferView":0,
			"componentType":5126,
			"count":920,
			"max":[
				2.258746862411499,
				2.352015256881714,
				2.590378761291504
			],
			"min":[
				-1.8213961124420166,
				-0.07850396633148193,
				-2.010491371154785
			],
			"type":"VEC3"
		},
		{
			"bufferView":1,
			"componentType":5126,
			"count":920,
			"type":"VEC3"
		},
		{
			"bufferView":2,
			"componentType":5126,
			"count":920,
			"type":"VEC2"
		},
		{
			"bufferView":3,
			"componentType":5126,
			"count":920,
			"type":"VEC4"
		},
		{
			"bufferView":4,
			"componentType":5123,
			"count":1128,
			"type":"SCALAR"
		}
	],
	"bufferViews":[
		{
			"buffer":0,
			"byteLength":11040,
			"byteOffset":0,
			"target":34962
		},
		{
			"buffer":0,
			"byteLength":11040,
			"byteOffset":11040,
			"target":34962
		},
		{
			"buffer":0,
			"byteLength":7360,
			"byteOffset":22080,
			"target":34962
		},
		{
			"buffer":0,
			"byteLength":14720,
			"byteOffset":29440,
			"target":34962
		},
		{
			"buffer":0,
			"byteLength":2256,
			"byteOffset":44160,
			"target":34963
		}
	],
	"buffers":[
		{
			"byteLength":46416,
			"uri":"rock_forest_grown_01.bin"
		}
	]
}
