{
	"asset":{
		"generator":"Khronos glTF Blender I/O v4.5.48",
		"version":"2.0"
	},
	"scene":0,
	"scenes":[
		{
			"name":"Scene",
			"nodes":[
				2
			]
		}
	],
	"nodes":[
		{
			"mesh":0,
			"name":"Tree_01_LOD2"
		},
		{
			"mesh":1,
			"name":"Tree_01_LOD2.001"
		},
		{
			"children":[
				0,
				1
			],
			"name":"stylized_tree_00"
		}
	],
	"meshes":[
		{
			"name":"Tree_01_zb.926",
			"primitives":[
				{
					"attributes":{
						"POSITION":0,
						"NORMAL":1,
						"TEXCOORD_0":2,
						"TANGENT":3,
						"COLOR_0":4
					},
					"indices":5
				}
			]
		},
		{
			"name":"Tree_01_zb.001",
			"primitives":[
				{
					"attributes":{
						"POSITION":6,
						"NORMAL":7,
						"TEXCOORD_0":8,
						"TANGENT":9,
						"COLOR_0":10
					},
					"indices":11
				}
			]
		}
	],
	"accessors":[
		{
			"bufferView":0,
			"componentType":5126,
			"count":1897,
			"max":[
				5.1519317626953125,
				11.722965240478516,
				4.705631256103516
			],
			"min":[
				-5.7621636390686035,
				2.6200878620147705,
				-5.491706371307373
			],
			"type":"VEC3"
		},
		{
			"bufferView":1,
			"componentType":5126,
			"count":1897,
			"type":"VEC3"
		},
		{
			"bufferView":2,
			"componentType":5126,
			"count":1897,
			"type":"VEC2"
		},
		{
			"bufferView":3,
			"componentType":5126,
			"count":1897,
			"type":"VEC4"
		},
		{
			"bufferView":4,
			"componentType":5123,
			"count":1897,
			"normalized":true,
			"type":"VEC4"
		},
		{
			"bufferView":5,
			"componentType":5123,
			"count":2289,
			"type":"SCALAR"
		},
		{
			"bufferView":6,
			"componentType":5126,
			"count":720,
			"max":[
				1.7851701974868774,
				6.093249320983887,
				0.39551031589508057
			],
			"min":[
				-1.8067514896392822,
				-0.043315377086400986,
				-0.5756987929344177
			],
			"type":"VEC3"
		},
		{
			"bufferView":7,
			"componentType":5126,
			"count":720,
			"type":"VEC3"
		},
		{
			"bufferView":8,
			"componentType":5126,
			"count":720,
			"type":"VEC2"
		},
		{
			"bufferView":9,
			"componentType":5126,
			"count":720,
			"type":"VEC4"
		},
		{
			"bufferView":10,
			"componentType":5123,
			"count":720,
			"normalized":true,
			"type":"VEC4"
		},
		{
			"bufferView":11,
			"componentType":5123,
			"count":720,
			"type":"SCALAR"
		}
	],
	"bufferViews":[
		{
			"buffer":0,
			"byteLength":22764,
			"byteOffset":0,
			"target":34962
		},
		{
			"buffer":0,
			"byteLength":22764,
			"byteOffset":22764,
			"target":34962
		},
		{
			"buffer":0,
			"byteLength":15176,
			"byteOffset":45528,
			"target":34962
		},
		{
			"buffer":0,
			"byteLength":30352,
			"byteOffset":60704,
			"target":34962
		},
		{
			"buffer":0,
			"byteLength":15176,
			"byteOffset":91056,
			"target":34962
		},
		{
			"buffer":0,
			"byteLength":4578,
			"byteOffset":106232,
			"target":34963
		},
		{
			"buffer":0,
			"byteLength":8640,
			"byteOffset":110812,
			"target":34962
		},
		{
			"buffer":0,
			"byteLength":8640,
			"byteOffset":119452,
			"target":34962
		},
		{
			"buffer":0,
			"byteLength":5760,
			"byteOffset":128092,
			"target":34962
		},
		{
			"buffer":0,
			"byteLength":11520,
			"byteOffset":133852,
			"target":34962
		},
		{
			"buffer":0,
			"byteLength":5760,
			"byteOffset":145372,
			"target":34962
		},
		{
			"buffer":0,
			"byteLength":1440,
			"byteOffset":151132,
			"target":34963
		}
	],
	"buffers":[
		{
			"byteLength":152572,
			"uri":"stylized_tree_00.bin"
		}
	]
}
