{
	"asset":{
		"generator":"Khronos glTF Blender I/O v4.1.63",
		"version":"2.0"
	},
	"scene":0,
	"scenes":[
		{
			"name":"Scene",
			"nodes":[
				1
			]
		}
	],
	"nodes":[
		{
			"mesh":0,
			"name":"PP_Sunflower_04.001"
		},
		{
			"children":[
				0
			],
			"name":"sunflower"
		}
	],
	"meshes":[
		{
			"name":"Scene.1830",
			"primitives":[
				{
					"attributes":{
						"POSITION":0,
						"NORMAL":1,
						"TEXCOORD_0":2,
						"TANGENT":3
					},
					"indices":4
				}
			]
		}
	],
	"accessors":[
		{
			"bufferView":0,
			"componentType":5126,
			"count":4044,
			"max":[
				0.1268526166677475,
				0.4465164542198181,
				0.16476522386074066
			],
			"min":[
				-0.11932355910539627,
				-0.0011849632719531655,
				-0.05920246243476868
			],
			"type":"VEC3"
		},
		{
			"bufferView":1,
			"componentType":5126,
			"count":4044,
			"type":"VEC3"
		},
		{
			"bufferView":2,
			"componentType":5126,
			"count":4044,
			"type":"VEC2"
		},
		{
			"bufferView":3,
			"componentType":5126,
			"count":4044,
			"type":"VEC4"
		},
		{
			"bufferView":4,
			"componentType":5123,
			"count":4662,
			"type":"SCALAR"
		}
	],
	"bufferViews":[
		{
			"buffer":0,
			"byteLength":48528,
			"byteOffset":0,
			"target":34962
		},
		{
			"buffer":0,
			"byteLength":48528,
			"byteOffset":48528,
			"target":34962
		},
		{
			"buffer":0,
			"byteLength":32352,
			"byteOffset":97056,
			"target":34962
		},
		{
			"buffer":0,
			"byteLength":64704,
			"byteOffset":129408,
			"target":34962
		},
		{
			"buffer":0,
			"byteLength":9324,
			"byteOffset":194112,
			"target":34963
		}
	],
	"buffers":[
		{
			"byteLength":203436,
			"uri":"sunflower.bin"
		}
	]
}
