{
	"asset":{
		"generator":"Khronos glTF Blender I/O v4.4.56",
		"version":"2.0"
	},
	"scene":0,
	"scenes":[
		{
			"name":"Scene",
			"nodes":[
				1
			]
		}
	],
	"nodes":[
		{
			"mesh":0,
			"name":"Tree_2_1",
			"scale":[
				0.009999999776482582,
				0.009999999776482582,
				0.009999999776482582
			]
		},
		{
			"children":[
				0
			],
			"name":"tree_04"
		}
	],
	"meshes":[
		{
			"name":"Tree_2_1",
			"primitives":[
				{
					"attributes":{
						"POSITION":0,
						"NORMAL":1,
						"TEXCOORD_0":2,
						"TEXCOORD_1":3,
						"TANGENT":4
					},
					"indices":5
				}
			]
		}
	],
	"accessors":[
		{
			"bufferView":0,
			"componentType":5126,
			"count":599,
			"max":[
				451.7832946777344,
				771.2413940429688,
				329.1589660644531
			],
			"min":[
				-440.5572509765625,
				-13.57187557220459,
				-318.3177490234375
			],
			"type":"VEC3"
		},
		{
			"bufferView":1,
			"componentType":5126,
			"count":599,
			"type":"VEC3"
		},
		{
			"bufferView":2,
			"componentType":5126,
			"count":599,
			"type":"VEC2"
		},
		{
			"bufferView":3,
			"componentType":5126,
			"count":599,
			"type":"VEC2"
		},
		{
			"bufferView":4,
			"componentType":5126,
			"count":599,
			"type":"VEC4"
		},
		{
			"bufferView":5,
			"componentType":5123,
			"count":2400,
			"type":"SCALAR"
		}
	],
	"bufferViews":[
		{
			"buffer":0,
			"byteLength":7188,
			"byteOffset":0,
			"target":34962
		},
		{
			"buffer":0,
			"byteLength":7188,
			"byteOffset":7188,
			"target":34962
		},
		{
			"buffer":0,
			"byteLength":4792,
			"byteOffset":14376,
			"target":34962
		},
		{
			"buffer":0,
			"byteLength":4792,
			"byteOffset":19168,
			"target":34962
		},
		{
			"buffer":0,
			"byteLength":9584,
			"byteOffset":23960,
			"target":34962
		},
		{
			"buffer":0,
			"byteLength":4800,
			"byteOffset":33544,
			"target":34963
		}
	],
	"buffers":[
		{
			"byteLength":38344,
			"uri":"tree_04.bin"
		}
	]
}
