{
	"asset":{
		"generator":"Khronos glTF Blender I/O v4.5.48",
		"version":"2.0"
	},
	"scene":0,
	"scenes":[
		{
			"name":"Scene",
			"nodes":[
				1
			]
		}
	],
	"nodes":[
		{
			"mesh":0,
			"name":"Tree_2",
			"scale":[
				0.009999999776482582,
				0.009999999776482582,
				0.009999999776482582
			]
		},
		{
			"children":[
				0
			],
			"name":"tree_03"
		}
	],
	"meshes":[
		{
			"name":"Tree_2",
			"primitives":[
				{
					"attributes":{
						"POSITION":0,
						"NORMAL":1,
						"TEXCOORD_0":2,
						"TEXCOORD_1":3,
						"TANGENT":4
					},
					"indices":5
				}
			]
		}
	],
	"accessors":[
		{
			"bufferView":0,
			"componentType":5126,
			"count":526,
			"max":[
				431.7818908691406,
				707.2722778320312,
				239.79794311523438
			],
			"min":[
				-412.7488708496094,
				-12.484768867492676,
				-233.744384765625
			],
			"type":"VEC3"
		},
		{
			"bufferView":1,
			"componentType":5126,
			"count":526,
			"type":"VEC3"
		},
		{
			"bufferView":2,
			"componentType":5126,
			"count":526,
			"type":"VEC2"
		},
		{
			"bufferView":3,
			"componentType":5126,
			"count":526,
			"type":"VEC2"
		},
		{
			"bufferView":4,
			"componentType":5126,
			"count":526,
			"type":"VEC4"
		},
		{
			"bufferView":5,
			"componentType":5123,
			"count":2181,
			"type":"SCALAR"
		}
	],
	"bufferViews":[
		{
			"buffer":0,
			"byteLength":6312,
			"byteOffset":0,
			"target":34962
		},
		{
			"buffer":0,
			"byteLength":6312,
			"byteOffset":6312,
			"target":34962
		},
		{
			"buffer":0,
			"byteLength":4208,
			"byteOffset":12624,
			"target":34962
		},
		{
			"buffer":0,
			"byteLength":4208,
			"byteOffset":16832,
			"target":34962
		},
		{
			"buffer":0,
			"byteLength":8416,
			"byteOffset":21040,
			"target":34962
		},
		{
			"buffer":0,
			"byteLength":4362,
			"byteOffset":29456,
			"target":34963
		}
	],
	"buffers":[
		{
			"byteLength":33820,
			"uri":"tree_03.bin"
		}
	]
}
