{
	"asset":{
		"generator":"Khronos glTF Blender I/O v4.1.63",
		"version":"2.0"
	},
	"scene":0,
	"scenes":[
		{
			"name":"Scene",
			"nodes":[
				1
			]
		}
	],
	"nodes":[
		{
			"mesh":0,
			"name":"PP_Tree_10.001"
		},
		{
			"children":[
				0
			],
			"name":"tree_00"
		}
	],
	"meshes":[
		{
			"name":"Scene.1813",
			"primitives":[
				{
					"attributes":{
						"POSITION":0,
						"NORMAL":1,
						"TEXCOORD_0":2,
						"TANGENT":3
					},
					"indices":4
				}
			]
		}
	],
	"accessors":[
		{
			"bufferView":0,
			"componentType":5126,
			"count":3165,
			"max":[
				1.4561927318572998,
				6.163532733917236,
				1.9490073919296265
			],
			"min":[
				-2.0977556705474854,
				1.1920928955078125e-06,
				-1.7628250122070312
			],
			"type":"VEC3"
		},
		{
			"bufferView":1,
			"componentType":5126,
			"count":3165,
			"type":"VEC3"
		},
		{
			"bufferView":2,
			"componentType":5126,
			"count":3165,
			"type":"VEC2"
		},
		{
			"bufferView":3,
			"componentType":5126,
			"count":3165,
			"type":"VEC4"
		},
		{
			"bufferView":4,
			"componentType":5123,
			"count":4728,
			"type":"SCALAR"
		}
	],
	"bufferViews":[
		{
			"buffer":0,
			"byteLength":37980,
			"byteOffset":0,
			"target":34962
		},
		{
			"buffer":0,
			"byteLength":37980,
			"byteOffset":37980,
			"target":34962
		},
		{
			"buffer":0,
			"byteLength":25320,
			"byteOffset":75960,
			"target":34962
		},
		{
			"buffer":0,
			"byteLength":50640,
			"byteOffset":101280,
			"target":34962
		},
		{
			"buffer":0,
			"byteLength":9456,
			"byteOffset":151920,
			"target":34963
		}
	],
	"buffers":[
		{
			"byteLength":161376,
			"uri":"tree_00.bin"
		}
	]
}
