{
	"asset":{
		"generator":"Khronos glTF Blender I/O v4.5.48",
		"version":"2.0"
	},
	"scene":0,
	"scenes":[
		{
			"name":"Scene",
			"nodes":[
				1
			]
		}
	],
	"nodes":[
		{
			"mesh":0,
			"name":"Tree_1",
			"scale":[
				0.009999999776482582,
				0.009999999776482582,
				0.009999999776482582
			]
		},
		{
			"children":[
				0
			],
			"name":"tree_02"
		}
	],
	"meshes":[
		{
			"name":"Tree_1",
			"primitives":[
				{
					"attributes":{
						"POSITION":0,
						"NORMAL":1,
						"TEXCOORD_0":2,
						"TEXCOORD_1":3,
						"TANGENT":4
					},
					"indices":5
				}
			]
		}
	],
	"accessors":[
		{
			"bufferView":0,
			"componentType":5126,
			"count":2253,
			"max":[
				540.5551147460938,
				955.9194946289062,
				420.7621154785156
			],
			"min":[
				-565.7238159179688,
				-40.248451232910156,
				-392.4130554199219
			],
			"type":"VEC3"
		},
		{
			"bufferView":1,
			"componentType":5126,
			"count":2253,
			"type":"VEC3"
		},
		{
			"bufferView":2,
			"componentType":5126,
			"count":2253,
			"type":"VEC2"
		},
		{
			"bufferView":3,
			"componentType":5126,
			"count":2253,
			"type":"VEC2"
		},
		{
			"bufferView":4,
			"componentType":5126,
			"count":2253,
			"type":"VEC4"
		},
		{
			"bufferView":5,
			"componentType":5123,
			"count":2253,
			"type":"SCALAR"
		}
	],
	"bufferViews":[
		{
			"buffer":0,
			"byteLength":27036,
			"byteOffset":0,
			"target":34962
		},
		{
			"buffer":0,
			"byteLength":27036,
			"byteOffset":27036,
			"target":34962
		},
		{
			"buffer":0,
			"byteLength":18024,
			"byteOffset":54072,
			"target":34962
		},
		{
			"buffer":0,
			"byteLength":18024,
			"byteOffset":72096,
			"target":34962
		},
		{
			"buffer":0,
			"byteLength":36048,
			"byteOffset":90120,
			"target":34962
		},
		{
			"buffer":0,
			"byteLength":4506,
			"byteOffset":126168,
			"target":34963
		}
	],
	"buffers":[
		{
			"byteLength":130676,
			"uri":"tree_02.bin"
		}
	]
}
