{
	"asset":{
		"generator":"Khronos glTF Blender I/O v4.5.48",
		"version":"2.0"
	},
	"scene":0,
	"scenes":[
		{
			"name":"Scene",
			"nodes":[
				1
			]
		}
	],
	"nodes":[
		{
			"mesh":0,
			"name":"PP_Tree_02.001"
		},
		{
			"children":[
				0
			],
			"name":"tree_01"
		}
	],
	"meshes":[
		{
			"name":"Scene.1831",
			"primitives":[
				{
					"attributes":{
						"POSITION":0,
						"NORMAL":1,
						"TEXCOORD_0":2,
						"TANGENT":3
					},
					"indices":4
				}
			]
		}
	],
	"accessors":[
		{
			"bufferView":0,
			"componentType":5126,
			"count":5095,
			"max":[
				1.815767765045166,
				7.074272155761719,
				2.1935558319091797
			],
			"min":[
				-2.458409309387207,
				1.9073486328125e-06,
				-1.762821912765503
			],
			"type":"VEC3"
		},
		{
			"bufferView":1,
			"componentType":5126,
			"count":5095,
			"type":"VEC3"
		},
		{
			"bufferView":2,
			"componentType":5126,
			"count":5095,
			"type":"VEC2"
		},
		{
			"bufferView":3,
			"componentType":5126,
			"count":5095,
			"type":"VEC4"
		},
		{
			"bufferView":4,
			"componentType":5123,
			"count":5112,
			"type":"SCALAR"
		}
	],
	"bufferViews":[
		{
			"buffer":0,
			"byteLength":61140,
			"byteOffset":0,
			"target":34962
		},
		{
			"buffer":0,
			"byteLength":61140,
			"byteOffset":61140,
			"target":34962
		},
		{
			"buffer":0,
			"byteLength":40760,
			"byteOffset":122280,
			"target":34962
		},
		{
			"buffer":0,
			"byteLength":81520,
			"byteOffset":163040,
			"target":34962
		},
		{
			"buffer":0,
			"byteLength":10224,
			"byteOffset":244560,
			"target":34963
		}
	],
	"buffers":[
		{
			"byteLength":254784,
			"uri":"tree_01.bin"
		}
	]
}
