{
	"asset":{
		"generator":"Khronos glTF Blender I/O v4.4.56",
		"version":"2.0"
	},
	"scene":0,
	"scenes":[
		{
			"name":"Scene",
			"nodes":[
				1
			]
		}
	],
	"nodes":[
		{
			"mesh":0,
			"name":"Tree_4",
			"scale":[
				0.009999999776482582,
				0.009999999776482582,
				0.009999999776482582
			]
		},
		{
			"children":[
				0
			],
			"name":"tree_05"
		}
	],
	"meshes":[
		{
			"name":"Tree_4",
			"primitives":[
				{
					"attributes":{
						"POSITION":0,
						"NORMAL":1,
						"TEXCOORD_0":2,
						"TEXCOORD_1":3,
						"TANGENT":4
					},
					"indices":5
				}
			]
		}
	],
	"accessors":[
		{
			"bufferView":0,
			"componentType":5126,
			"count":559,
			"max":[
				525.3477172851562,
				938.8482666015625,
				438.5778503417969
			],
			"min":[
				-550.0708618164062,
				-39.35294723510742,
				-414.9355163574219
			],
			"type":"VEC3"
		},
		{
			"bufferView":1,
			"componentType":5126,
			"count":559,
			"type":"VEC3"
		},
		{
			"bufferView":2,
			"componentType":5126,
			"count":559,
			"type":"VEC2"
		},
		{
			"bufferView":3,
			"componentType":5126,
			"count":559,
			"type":"VEC2"
		},
		{
			"bufferView":4,
			"componentType":5126,
			"count":559,
			"type":"VEC4"
		},
		{
			"bufferView":5,
			"componentType":5123,
			"count":2301,
			"type":"SCALAR"
		}
	],
	"bufferViews":[
		{
			"buffer":0,
			"byteLength":6708,
			"byteOffset":0,
			"target":34962
		},
		{
			"buffer":0,
			"byteLength":6708,
			"byteOffset":6708,
			"target":34962
		},
		{
			"buffer":0,
			"byteLength":4472,
			"byteOffset":13416,
			"target":34962
		},
		{
			"buffer":0,
			"byteLength":4472,
			"byteOffset":17888,
			"target":34962
		},
		{
			"buffer":0,
			"byteLength":8944,
			"byteOffset":22360,
			"target":34962
		},
		{
			"buffer":0,
			"byteLength":4602,
			"byteOffset":31304,
			"target":34963
		}
	],
	"buffers":[
		{
			"byteLength":35908,
			"uri":"tree_05.bin"
		}
	]
}
