{
	"asset":{
		"generator":"Khronos glTF Blender I/O v5.0.21",
		"version":"2.0"
	},
	"scene":0,
	"scenes":[
		{
			"name":"Scene",
			"nodes":[
				1
			]
		}
	],
	"nodes":[
		{
			"mesh":0,
			"name":"landscape_00",
			"scale":[
				46.242431640625,
				46.242431640625,
				46.242431640625
			]
		},
		{
			"children":[
				0
			],
			"name":"landscape_00"
		}
	],
	"meshes":[
		{
			"name":"Plane.002",
			"primitives":[
				{
					"attributes":{
						"POSITION":0,
						"NORMAL":1,
						"TEXCOORD_0":2,
						"TANGENT":3,
						"COLOR_0":4
					},
					"indices":5
				}
			]
		}
	],
	"accessors":[
		{
			"bufferView":0,
			"componentType":5126,
			"count":4301,
			"max":[
				0.9895836114883423,
				0.1503247767686844,
				0.9895833730697632
			],
			"min":[
				-0.9895836114883423,
				0,
				-0.9896280765533447
			],
			"type":"VEC3"
		},
		{
			"bufferView":1,
			"componentType":5126,
			"count":4301,
			"type":"VEC3"
		},
		{
			"bufferView":2,
			"componentType":5126,
			"count":4301,
			"type":"VEC2"
		},
		{
			"bufferView":3,
			"componentType":5126,
			"count":4301,
			"type":"VEC4"
		},
		{
			"bufferView":4,
			"componentType":5123,
			"count":4301,
			"normalized":true,
			"type":"VEC4"
		},
		{
			"bufferView":5,
			"componentType":5123,
			"count":25032,
			"type":"SCALAR"
		}
	],
	"bufferViews":[
		{
			"buffer":0,
			"byteLength":51612,
			"byteOffset":0,
			"target":34962
		},
		{
			"buffer":0,
			"byteLength":51612,
			"byteOffset":51612,
			"target":34962
		},
		{
			"buffer":0,
			"byteLength":34408,
			"byteOffset":103224,
			"target":34962
		},
		{
			"buffer":0,
			"byteLength":68816,
			"byteOffset":137632,
			"target":34962
		},
		{
			"buffer":0,
			"byteLength":34408,
			"byteOffset":206448,
			"target":34962
		},
		{
			"buffer":0,
			"byteLength":50064,
			"byteOffset":240856,
			"target":34963
		}
	],
	"buffers":[
		{
			"byteLength":290920,
			"uri":"landscape_00.bin"
		}
	]
}
