{
	"asset":{
		"generator":"Khronos glTF Blender I/O v4.5.48",
		"version":"2.0"
	},
	"scene":0,
	"scenes":[
		{
			"name":"Scene",
			"nodes":[
				1
			]
		}
	],
	"nodes":[
		{
			"mesh":0,
			"name":"landscape_cave",
			"scale":[
				50,
				50,
				50
			]
		},
		{
			"children":[
				0
			],
			"name":"landscape_cave_ceil"
		}
	],
	"meshes":[
		{
			"name":"Plane.001",
			"primitives":[
				{
					"attributes":{
						"POSITION":0,
						"NORMAL":1,
						"TEXCOORD_0":2,
						"TANGENT":3,
						"COLOR_0":4
					},
					"indices":5
				}
			]
		}
	],
	"accessors":[
		{
			"bufferView":0,
			"componentType":5126,
			"count":1404,
			"max":[
				0.748455822467804,
				0.10099077969789505,
				0.49800801277160645
			],
			"min":[
				-0.5935086011886597,
				-0.2002568244934082,
				-0.5262665152549744
			],
			"type":"VEC3"
		},
		{
			"bufferView":1,
			"componentType":5126,
			"count":1404,
			"type":"VEC3"
		},
		{
			"bufferView":2,
			"componentType":5126,
			"count":1404,
			"type":"VEC2"
		},
		{
			"bufferView":3,
			"componentType":5126,
			"count":1404,
			"type":"VEC4"
		},
		{
			"bufferView":4,
			"componentType":5123,
			"count":1404,
			"normalized":true,
			"type":"VEC4"
		},
		{
			"bufferView":5,
			"componentType":5123,
			"count":6456,
			"type":"SCALAR"
		}
	],
	"bufferViews":[
		{
			"buffer":0,
			"byteLength":16848,
			"byteOffset":0,
			"target":34962
		},
		{
			"buffer":0,
			"byteLength":16848,
			"byteOffset":16848,
			"target":34962
		},
		{
			"buffer":0,
			"byteLength":11232,
			"byteOffset":33696,
			"target":34962
		},
		{
			"buffer":0,
			"byteLength":22464,
			"byteOffset":44928,
			"target":34962
		},
		{
			"buffer":0,
			"byteLength":11232,
			"byteOffset":67392,
			"target":34962
		},
		{
			"buffer":0,
			"byteLength":12912,
			"byteOffset":78624,
			"target":34963
		}
	],
	"buffers":[
		{
			"byteLength":91536,
			"uri":"landscape_cave_ceil.bin"
		}
	]
}
