{
	"asset":{
		"generator":"Khronos glTF Blender I/O v4.5.48",
		"version":"2.0"
	},
	"scene":0,
	"scenes":[
		{
			"name":"Scene",
			"nodes":[
				1
			]
		}
	],
	"nodes":[
		{
			"mesh":0,
			"name":"landscape_cave",
			"scale":[
				50,
				50,
				50
			]
		},
		{
			"children":[
				0
			],
			"name":"landscape_cave"
		}
	],
	"meshes":[
		{
			"name":"Plane.001",
			"primitives":[
				{
					"attributes":{
						"POSITION":0,
						"NORMAL":1,
						"TEXCOORD_0":2,
						"TANGENT":3,
						"COLOR_0":4
					},
					"indices":5
				}
			]
		}
	],
	"accessors":[
		{
			"bufferView":0,
			"componentType":5126,
			"count":975,
			"max":[
				1.046565055847168,
				0.20077665150165558,
				0.863554835319519
			],
			"min":[
				-0.7112134695053101,
				-0.006569862365722656,
				-0.718096911907196
			],
			"type":"VEC3"
		},
		{
			"bufferView":1,
			"componentType":5126,
			"count":975,
			"type":"VEC3"
		},
		{
			"bufferView":2,
			"componentType":5126,
			"count":975,
			"type":"VEC2"
		},
		{
			"bufferView":3,
			"componentType":5126,
			"count":975,
			"type":"VEC4"
		},
		{
			"bufferView":4,
			"componentType":5123,
			"count":975,
			"normalized":true,
			"type":"VEC4"
		},
		{
			"bufferView":5,
			"componentType":5123,
			"count":5418,
			"type":"SCALAR"
		}
	],
	"bufferViews":[
		{
			"buffer":0,
			"byteLength":11700,
			"byteOffset":0,
			"target":34962
		},
		{
			"buffer":0,
			"byteLength":11700,
			"byteOffset":11700,
			"target":34962
		},
		{
			"buffer":0,
			"byteLength":7800,
			"byteOffset":23400,
			"target":34962
		},
		{
			"buffer":0,
			"byteLength":15600,
			"byteOffset":31200,
			"target":34962
		},
		{
			"buffer":0,
			"byteLength":7800,
			"byteOffset":46800,
			"target":34962
		},
		{
			"buffer":0,
			"byteLength":10836,
			"byteOffset":54600,
			"target":34963
		}
	],
	"buffers":[
		{
			"byteLength":65436,
			"uri":"landscape_cave.bin"
		}
	]
}
