{
	"asset":{
		"generator":"Khronos glTF Blender I/O v4.5.48",
		"version":"2.0"
	},
	"scene":0,
	"scenes":[
		{
			"name":"Scene",
			"nodes":[
				1
			]
		}
	],
	"nodes":[
		{
			"mesh":0,
			"name":"landscape_00",
			"scale":[
				46.242431640625,
				46.242431640625,
				46.242431640625
			]
		},
		{
			"children":[
				0
			],
			"name":"landscape_00"
		}
	],
	"meshes":[
		{
			"name":"Plane.002",
			"primitives":[
				{
					"attributes":{
						"POSITION":0,
						"NORMAL":1,
						"TEXCOORD_0":2,
						"TANGENT":3,
						"COLOR_0":4
					},
					"indices":5
				}
			]
		}
	],
	"accessors":[
		{
			"bufferView":0,
			"componentType":5126,
			"count":13703,
			"max":[
				1.0000001192092896,
				0.08152230083942413,
				1.0000001192092896
			],
			"min":[
				-1.0000001192092896,
				0,
				-1.0000001192092896
			],
			"type":"VEC3"
		},
		{
			"bufferView":1,
			"componentType":5126,
			"count":13703,
			"type":"VEC3"
		},
		{
			"bufferView":2,
			"componentType":5126,
			"count":13703,
			"type":"VEC2"
		},
		{
			"bufferView":3,
			"componentType":5126,
			"count":13703,
			"type":"VEC4"
		},
		{
			"bufferView":4,
			"componentType":5123,
			"count":13703,
			"normalized":true,
			"type":"VEC4"
		},
		{
			"bufferView":5,
			"componentType":5123,
			"count":24576,
			"type":"SCALAR"
		}
	],
	"bufferViews":[
		{
			"buffer":0,
			"byteLength":164436,
			"byteOffset":0,
			"target":34962
		},
		{
			"buffer":0,
			"byteLength":164436,
			"byteOffset":164436,
			"target":34962
		},
		{
			"buffer":0,
			"byteLength":109624,
			"byteOffset":328872,
			"target":34962
		},
		{
			"buffer":0,
			"byteLength":219248,
			"byteOffset":438496,
			"target":34962
		},
		{
			"buffer":0,
			"byteLength":109624,
			"byteOffset":657744,
			"target":34962
		},
		{
			"buffer":0,
			"byteLength":49152,
			"byteOffset":767368,
			"target":34963
		}
	],
	"buffers":[
		{
			"byteLength":816520,
			"uri":"landscape_00.bin"
		}
	]
}
