{
	"asset":{
		"generator":"Khronos glTF Blender I/O v5.0.21",
		"version":"2.0"
	},
	"scene":0,
	"scenes":[
		{
			"name":"Scene",
			"nodes":[
				1
			]
		}
	],
	"nodes":[
		{
			"mesh":0,
			"name":"Plane"
		},
		{
			"children":[
				0
			],
			"name":"landscape_cave"
		}
	],
	"meshes":[
		{
			"name":"Plane",
			"primitives":[
				{
					"attributes":{
						"POSITION":0,
						"NORMAL":1,
						"TEXCOORD_0":2,
						"TANGENT":3,
						"COLOR_0":4
					},
					"indices":5
				}
			]
		}
	],
	"accessors":[
		{
			"bufferView":0,
			"componentType":5126,
			"count":4489,
			"max":[
				10.000000953674316,
				0,
				10.000001907348633
			],
			"min":[
				-10.000000953674316,
				-1,
				-10.000000953674316
			],
			"type":"VEC3"
		},
		{
			"bufferView":1,
			"componentType":5126,
			"count":4489,
			"type":"VEC3"
		},
		{
			"bufferView":2,
			"componentType":5126,
			"count":4489,
			"type":"VEC2"
		},
		{
			"bufferView":3,
			"componentType":5126,
			"count":4489,
			"type":"VEC4"
		},
		{
			"bufferView":4,
			"componentType":5123,
			"count":4489,
			"normalized":true,
			"type":"VEC4"
		},
		{
			"bufferView":5,
			"componentType":5123,
			"count":24576,
			"type":"SCALAR"
		}
	],
	"bufferViews":[
		{
			"buffer":0,
			"byteLength":53868,
			"byteOffset":0,
			"target":34962
		},
		{
			"buffer":0,
			"byteLength":53868,
			"byteOffset":53868,
			"target":34962
		},
		{
			"buffer":0,
			"byteLength":35912,
			"byteOffset":107736,
			"target":34962
		},
		{
			"buffer":0,
			"byteLength":71824,
			"byteOffset":143648,
			"target":34962
		},
		{
			"buffer":0,
			"byteLength":35912,
			"byteOffset":215472,
			"target":34962
		},
		{
			"buffer":0,
			"byteLength":49152,
			"byteOffset":251384,
			"target":34963
		}
	],
	"buffers":[
		{
			"byteLength":300536,
			"uri":"landscape_cave.bin"
		}
	]
}
