{
	"asset":{
		"generator":"Khronos glTF Blender I/O v4.5.47",
		"version":"2.0"
	},
	"scene":0,
	"scenes":[
		{
			"name":"Scene",
			"nodes":[
				1
			]
		}
	],
	"nodes":[
		{
			"mesh":0,
			"name":"mountain_00",
			"scale":[
				100,
				100,
				100
			],
			"translation":[
				2.1110057830810547,
				8.288578987121582,
				4.273780822753906
			]
		},
		{
			"children":[
				0
			],
			"name":"mountain_00"
		}
	],
	"meshes":[
		{
			"name":"Plane",
			"primitives":[
				{
					"attributes":{
						"POSITION":0,
						"NORMAL":1,
						"TEXCOORD_0":2,
						"TANGENT":3,
						"COLOR_0":4
					},
					"indices":5
				}
			]
		}
	],
	"accessors":[
		{
			"bufferView":0,
			"componentType":5126,
			"count":8070,
			"max":[
				1.0050711631774902,
				0.9060482382774353,
				1.010738730430603
			],
			"min":[
				-1.0066996812820435,
				0.011472387239336967,
				-1.0114779472351074
			],
			"type":"VEC3"
		},
		{
			"bufferView":1,
			"componentType":5126,
			"count":8070,
			"type":"VEC3"
		},
		{
			"bufferView":2,
			"componentType":5126,
			"count":8070,
			"type":"VEC2"
		},
		{
			"bufferView":3,
			"componentType":5126,
			"count":8070,
			"type":"VEC4"
		},
		{
			"bufferView":4,
			"componentType":5123,
			"count":8070,
			"normalized":true,
			"type":"VEC4"
		},
		{
			"bufferView":5,
			"componentType":5123,
			"count":47490,
			"type":"SCALAR"
		}
	],
	"bufferViews":[
		{
			"buffer":0,
			"byteLength":96840,
			"byteOffset":0,
			"target":34962
		},
		{
			"buffer":0,
			"byteLength":96840,
			"byteOffset":96840,
			"target":34962
		},
		{
			"buffer":0,
			"byteLength":64560,
			"byteOffset":193680,
			"target":34962
		},
		{
			"buffer":0,
			"byteLength":129120,
			"byteOffset":258240,
			"target":34962
		},
		{
			"buffer":0,
			"byteLength":64560,
			"byteOffset":387360,
			"target":34962
		},
		{
			"buffer":0,
			"byteLength":94980,
			"byteOffset":451920,
			"target":34963
		}
	],
	"buffers":[
		{
			"byteLength":546900,
			"uri":"mountain_00.bin"
		}
	]
}
