{
	"asset":{
		"generator":"Khronos glTF Blender I/O v4.1.63",
		"version":"2.0"
	},
	"scene":0,
	"scenes":[
		{
			"name":"Scene",
			"nodes":[
				38
			]
		}
	],
	"nodes":[
		{
			"name":"FrontFoot.R_end",
			"rotation":[
				1.7508875771454768e-07,
				-7.505536814278457e-08,
				1.1641509445325937e-07,
				1
			],
			"translation":[
				-6.450238743127557e-08,
				0.5211775898933411,
				-1.2861329423685675e-07
			]
		},
		{
			"children":[
				0
			],
			"name":"FrontFoot.R",
			"rotation":[
				0.5777024030685425,
				0.09789776802062988,
				0.11019112914800644,
				0.8028287291526794
			],
			"scale":[
				1,
				1,
				0.9999999403953552
			],
			"translation":[
				-2.9802322387695312e-08,
				0.47775498032569885,
				1.695007085800171e-07
			]
		},
		{
			"children":[
				1
			],
			"name":"FrontLowLeg.R",
			"rotation":[
				-0.3612607419490814,
				-0.06671417504549026,
				-0.16292862594127655,
				0.9156932830810547
			],
			"scale":[
				1,
				1.0000001192092896,
				1
			],
			"translation":[
				1.4156103134155273e-07,
				0.5792652368545532,
				1.0710209608078003e-07
			]
		},
		{
			"children":[
				2
			],
			"name":"FrontUpLeg.R",
			"rotation":[
				0.6791582703590393,
				-0.7194549441337585,
				-0.09137372672557831,
				0.11304638534784317
			],
			"scale":[
				0.9999999403953552,
				0.9999998807907104,
				0.9999998211860657
			],
			"translation":[
				1.8084121222727845e-07,
				0.48160117864608765,
				2.183915910336509e-07
			]
		},
		{
			"children":[
				3
			],
			"name":"FrontLeg.R",
			"rotation":[
				-2.860142558347434e-07,
				-6.404180652452851e-08,
				0.7071067690849304,
				0.7071067690849304
			],
			"translation":[
				-0.20553836226463318,
				-1.1627542972564697,
				0.566582977771759
			]
		},
		{
			"name":"BackLowLeg.R_end",
			"rotation":[
				-1.862645504502325e-08,
				2.1854211773586485e-09,
				5.1222719399390826e-09,
				1
			],
			"scale":[
				0.9999999403953552,
				1,
				1
			],
			"translation":[
				1.813064187672353e-07,
				1.0195494890213013,
				1.4848410501144826e-08
			]
		},
		{
			"children":[
				5
			],
			"name":"BackLowLeg.R",
			"rotation":[
				-0.22522951662540436,
				0.00704868184402585,
				0.040101468563079834,
				0.9734545946121216
			],
			"scale":[
				0.9999998807907104,
				1,
				1
			],
			"translation":[
				4.936009645462036e-08,
				2.020707607269287,
				4.842877388000488e-08
			]
		},
		{
			"children":[
				6
			],
			"name":"BackUpLeg.R",
			"rotation":[
				-0.7273890972137451,
				0.6717580556869507,
				-0.0914030373096466,
				0.10626271367073059
			],
			"scale":[
				0.9999999403953552,
				0.9999999403953552,
				1.0000001192092896
			],
			"translation":[
				1.7504748939245474e-07,
				0.881600558757782,
				1.7536194718559273e-10
			]
		},
		{
			"children":[
				7
			],
			"name":"BackLeg.R",
			"rotation":[
				-2.0660060329191765e-07,
				1.537184246558354e-08,
				0.7071067690849304,
				0.7071067690849304
			],
			"translation":[
				-0.26144152879714966,
				-1.4135386943817139,
				-0.9212666153907776
			]
		},
		{
			"name":"FrontFoot.L_end",
			"rotation":[
				1.3783576946480025e-07,
				-6.159396548355289e-08,
				6.23982714387239e-08,
				1
			],
			"translation":[
				-7.247876965266187e-09,
				0.5211775898933411,
				-6.012446647218894e-07
			]
		},
		{
			"children":[
				9
			],
			"name":"FrontFoot.L",
			"rotation":[
				0.5777021646499634,
				-0.09789983928203583,
				-0.11019180715084076,
				0.8028285503387451
			],
			"scale":[
				1,
				1,
				1.0000001192092896
			],
			"translation":[
				0,
				0.4777543544769287,
				1.862645149230957e-07
			]
		},
		{
			"children":[
				10
			],
			"name":"FrontLowLeg.L",
			"rotation":[
				-0.35563087463378906,
				0.0971899926662445,
				0.1748756617307663,
				0.9129618406295776
			],
			"scale":[
				1.0000001192092896,
				1.0000001192092896,
				1
			],
			"translation":[
				1.043081283569336e-07,
				0.5792655348777771,
				3.3155083656311035e-07
			]
		},
		{
			"children":[
				11
			],
			"name":"FrontUpLeg.L",
			"rotation":[
				-0.0686926543712616,
				-0.13695694506168365,
				0.6818257570266724,
				0.7152886390686035
			],
			"scale":[
				0.9999999403953552,
				0.9999999403953552,
				1
			],
			"translation":[
				-4.885202997684246e-08,
				0.4816012680530548,
				-6.60498926663422e-08
			]
		},
		{
			"children":[
				12
			],
			"name":"FrontLeg.L",
			"rotation":[
				-0.7071067690849304,
				-0.7071067690849304,
				1.2808354199478345e-07,
				2.2197248483735166e-07
			],
			"translation":[
				0.1439058780670166,
				-1.1627542972564697,
				0.566582977771759
			]
		},
		{
			"name":"BackLowLeg.L_end",
			"rotation":[
				7.078051567077637e-08,
				6.282926956480139e-10,
				-5.820746995510717e-09,
				1
			],
			"scale":[
				1,
				1.0000001192092896,
				1
			],
			"translation":[
				1.2257154935468861e-07,
				1.0195492506027222,
				-1.217043177348387e-08
			]
		},
		{
			"children":[
				14
			],
			"name":"BackLowLeg.L",
			"rotation":[
				-0.22561362385749817,
				0.0025400216691195965,
				-0.03788117691874504,
				0.9734768271446228
			],
			"scale":[
				0.9999999403953552,
				1.0000001192092896,
				1
			],
			"translation":[
				-1.4062970876693726e-07,
				2.02070689201355,
				-1.5366822481155396e-07
			]
		},
		{
			"children":[
				15
			],
			"name":"BackUpLeg.L",
			"rotation":[
				0.09856298565864563,
				0.09964094310998917,
				0.7264536023139954,
				0.6727721095085144
			],
			"scale":[
				1,
				1.0000001192092896,
				1.0000001192092896
			],
			"translation":[
				2.0089287033897563e-07,
				0.881600558757782,
				7.122253009583801e-09
			]
		},
		{
			"children":[
				16
			],
			"name":"BackLeg.L",
			"rotation":[
				-0.7071067690849304,
				-0.7071067690849304,
				1.3784369912173133e-07,
				5.338507591545749e-08
			],
			"translation":[
				0.1998090147972107,
				-1.4135386943817139,
				-0.9212666153907776
			]
		},
		{
			"name":"Tail5_end",
			"rotation":[
				5.140900611877441e-07,
				3.50932616299815e-11,
				-2.586557634742803e-10,
				1
			],
			"scale":[
				1,
				1,
				1.0000001192092896
			],
			"translation":[
				-5.260858415567782e-11,
				0.6748010516166687,
				-7.156052674872626e-07
			]
		},
		{
			"children":[
				18
			],
			"name":"Tail5",
			"rotation":[
				-0.15720996260643005,
				7.2364900530197396e-12,
				-3.7220814874672215e-08,
				0.9875652194023132
			],
			"scale":[
				1,
				1.0000001192092896,
				1
			],
			"translation":[
				1.4409806681214832e-11,
				0.9873833060264587,
				4.1688286955832154e-07
			]
		},
		{
			"children":[
				19
			],
			"name":"Tail4",
			"rotation":[
				-0.05478452146053314,
				1.1902539398533918e-07,
				-6.5738450238939095e-09,
				0.9984982013702393
			],
			"scale":[
				1,
				1.0000001192092896,
				1.0000001192092896
			],
			"translation":[
				9.638870951400591e-11,
				1.3626822233200073,
				-2.0872192862952943e-14
			]
		},
		{
			"children":[
				20
			],
			"name":"Tail3",
			"rotation":[
				0.08893539756536484,
				-1.1873378014115588e-07,
				1.0645092807237688e-08,
				0.9960373640060425
			],
			"scale":[
				0.9999999403953552,
				0.9999997615814209,
				0.9999997615814209
			],
			"translation":[
				-7.778222510523847e-11,
				1.0152167081832886,
				8.533203299521119e-08
			]
		},
		{
			"children":[
				21
			],
			"name":"Tail2",
			"rotation":[
				0.09096676111221313,
				1.1871493654780352e-07,
				1.0844080300387304e-08,
				0.9958539605140686
			],
			"scale":[
				1,
				1.000000238418579,
				1
			],
			"translation":[
				-7.056037611835597e-13,
				1.1199499368667603,
				-4.172325134277344e-07
			]
		},
		{
			"children":[
				22
			],
			"name":"Tail1",
			"rotation":[
				-0.07147517055273056,
				-7.134259476515581e-07,
				-5.1122999167318994e-08,
				0.997442364692688
			],
			"scale":[
				1,
				1,
				1.0000001192092896
			],
			"translation":[
				-3.0271465334408276e-09,
				0.5890638828277588,
				-3.8394011880882317e-07
			]
		},
		{
			"children":[
				23
			],
			"name":"Back",
			"rotation":[
				-0.7285068035125732,
				4.899775944977591e-07,
				-5.210684435041912e-07,
				0.6850386261940002
			],
			"scale":[
				1,
				0.9999999403953552,
				0.9999999403953552
			],
			"translation":[
				-0.03228271007537842,
				-1.2038617134094238,
				-0.8308262228965759
			]
		},
		{
			"name":"Head_end",
			"rotation":[
				-1.6763808119435453e-08,
				6.9921948231410624e-09,
				1.0797521987626624e-08,
				1
			],
			"scale":[
				1,
				0.9999999403953552,
				0.9999999403953552
			],
			"translation":[
				2.2584572434425354e-08,
				1.3537908792495728,
				-5.37605956196785e-07
			]
		},
		{
			"children":[
				25
			],
			"name":"Head",
			"rotation":[
				-0.24084320664405823,
				-0.25128641724586487,
				0.0636327862739563,
				0.9353077411651611
			],
			"translation":[
				3.1107447284739465e-08,
				0.6228204965591431,
				3.4900946843663405e-07
			]
		},
		{
			"children":[
				26
			],
			"name":"Neck",
			"rotation":[
				0.017778929322957993,
				-0.024050598964095116,
				-0.03110864944756031,
				0.9990684390068054
			],
			"scale":[
				0.9999999403953552,
				1.0000001192092896,
				1
			],
			"translation":[
				5.8673322200775146e-08,
				0.6565490961074829,
				-6.07542460784316e-08
			]
		},
		{
			"children":[
				27
			],
			"name":"Shoulders",
			"rotation":[
				-0.07837016135454178,
				0.03033781610429287,
				0.05039310082793236,
				0.9951875805854797
			],
			"scale":[
				1.0000001192092896,
				0.9999998807907104,
				1.0000001192092896
			],
			"translation":[
				0,
				1.0141032934188843,
				-1.5494879335165024e-07
			]
		},
		{
			"children":[
				28
			],
			"name":"Torso",
			"rotation":[
				0.25308313965797424,
				-0.0007148994482122362,
				-0.021277019754052162,
				0.9672102928161621
			],
			"scale":[
				1.0000001192092896,
				1,
				1
			],
			"translation":[
				3.0777549397953408e-09,
				0.6915537118911743,
				-7.683305511818617e-07
			]
		},
		{
			"children":[
				29
			],
			"name":"Hips",
			"rotation":[
				2.127495974946214e-07,
				0.7353138327598572,
				0.6777268052101135,
				2.308271405127016e-07
			],
			"scale":[
				1,
				1.000000238418579,
				1
			],
			"translation":[
				-0.03228271007537842,
				-1.259231686592102,
				-0.5773680210113525
			]
		},
		{
			"children":[
				4,
				8,
				13,
				17,
				24,
				30
			],
			"name":"Body",
			"rotation":[
				7.105427357601002e-15,
				0,
				0,
				1
			],
			"translation":[
				0.030816201120615005,
				4.439356803894043,
				1.0428664684295654
			]
		},
		{
			"name":"BackFoot.R_end",
			"rotation":[
				7.105427357601002e-15,
				0,
				0,
				1
			],
			"translation":[
				-1.9099141823630816e-08,
				1,
				1.3619910532725044e-08
			]
		},
		{
			"children":[
				32
			],
			"name":"BackFoot.R",
			"rotation":[
				0.7071067690849304,
				-8.120283609969192e-07,
				-8.120283609969192e-07,
				0.7071067690849304
			],
			"translation":[
				-0.9658562541007996,
				0.08617044240236282,
				-0.27561524510383606
			]
		},
		{
			"name":"BackFoot.L_end",
			"rotation":[
				7.105427357601002e-15,
				-1.1368683772161603e-13,
				-1.3552527156068805e-20,
				1
			],
			"translation":[
				7.753626363182775e-08,
				1,
				1.278885974898003e-08
			]
		},
		{
			"children":[
				34
			],
			"name":"BackFoot.L",
			"rotation":[
				0.7071067690849304,
				-1.1492031717352802e-06,
				-1.1492031717352802e-06,
				0.7071067690849304
			],
			"translation":[
				0.9658564329147339,
				0.08617044240236282,
				-0.27561524510383606
			]
		},
		{
			"children":[
				31,
				33,
				35
			],
			"name":"root",
			"rotation":[
				7.105427357601002e-15,
				0,
				0,
				1
			],
			"translation":[
				0,
				0,
				0.011299610137939453
			]
		},
		{
			"mesh":0,
			"name":"Trex",
			"skin":0
		},
		{
			"children":[
				37,
				36
			],
			"name":"Armature",
			"scale":[
				3,
				3,
				3
			]
		}
	],
	"materials":[
		{
			"doubleSided":true,
			"name":"Green",
			"pbrMetallicRoughness":{
				"baseColorFactor":[
					0.07338398694992065,
					0.08713791519403458,
					0.06873802840709686,
					0
				],
				"metallicFactor":0,
				"roughnessFactor":0.690034806728363
			}
		},
		{
			"doubleSided":true,
			"name":"Black",
			"pbrMetallicRoughness":{
				"baseColorFactor":[
					0.005604149773716927,
					0.005604149773716927,
					0.005604149773716927,
					0
				],
				"metallicFactor":0,
				"roughnessFactor":0.690034806728363
			}
		},
		{
			"doubleSided":true,
			"name":"LightGreen",
			"pbrMetallicRoughness":{
				"baseColorFactor":[
					0.29568755626678467,
					0.27920764684677124,
					0.15962249040603638,
					0
				],
				"metallicFactor":0,
				"roughnessFactor":0.690034806728363
			}
		},
		{
			"doubleSided":true,
			"name":"Red",
			"pbrMetallicRoughness":{
				"baseColorFactor":[
					0.3031940162181854,
					0.05684477090835571,
					0.07047437131404877,
					0
				],
				"metallicFactor":0,
				"roughnessFactor":0.690034806728363
			}
		},
		{
			"doubleSided":true,
			"name":"LightYellow",
			"pbrMetallicRoughness":{
				"baseColorFactor":[
					0.6151733994483948,
					0.37042054533958435,
					0.14201292395591736,
					0
				],
				"metallicFactor":0,
				"roughnessFactor":0.690034806728363
			}
		}
	],
	"meshes":[
		{
			"name":"Cylinder",
			"primitives":[
				{
					"attributes":{
						"POSITION":0,
						"NORMAL":1,
						"JOINTS_0":2,
						"WEIGHTS_0":3
					},
					"indices":4,
					"material":0
				},
				{
					"attributes":{
						"POSITION":5,
						"NORMAL":6,
						"JOINTS_0":7,
						"WEIGHTS_0":8
					},
					"indices":9,
					"material":1
				},
				{
					"attributes":{
						"POSITION":10,
						"NORMAL":11,
						"JOINTS_0":12,
						"WEIGHTS_0":13
					},
					"indices":14,
					"material":2
				},
				{
					"attributes":{
						"POSITION":15,
						"NORMAL":16,
						"JOINTS_0":17,
						"WEIGHTS_0":18
					},
					"indices":19,
					"material":3
				},
				{
					"attributes":{
						"POSITION":20,
						"NORMAL":21,
						"JOINTS_0":22,
						"WEIGHTS_0":23
					},
					"indices":24,
					"material":4
				}
			]
		}
	],
	"skins":[
		{
			"inverseBindMatrices":25,
			"joints":[
				36,
				31,
				4,
				3,
				2,
				1,
				0,
				8,
				7,
				6,
				5,
				13,
				12,
				11,
				10,
				9,
				17,
				16,
				15,
				14,
				24,
				23,
				22,
				21,
				20,
				19,
				18,
				30,
				29,
				28,
				27,
				26,
				25,
				33,
				32,
				35,
				34
			],
			"name":"Armature"
		}
	],
	"accessors":[
		{
			"bufferView":0,
			"componentType":5126,
			"count":1814,
			"max":[
				3.976836681365967,
				15.221189498901367,
				14.427824974060059
			],
			"min":[
				-3.976837635040283,
				-0.0038097654469311237,
				-16.60175132751465
			],
			"type":"VEC3"
		},
		{
			"bufferView":1,
			"componentType":5126,
			"count":1814,
			"type":"VEC3"
		},
		{
			"bufferView":2,
			"componentType":5121,
			"count":1814,
			"type":"VEC4"
		},
		{
			"bufferView":3,
			"componentType":5126,
			"count":1814,
			"type":"VEC4"
		},
		{
			"bufferView":4,
			"componentType":5123,
			"count":2982,
			"type":"SCALAR"
		},
		{
			"bufferView":5,
			"componentType":5126,
			"count":280,
			"max":[
				3.959672451019287,
				6.286713600158691,
				6.617801666259766
			],
			"min":[
				-3.9596736431121826,
				0.057730503380298615,
				1.2405673265457153
			],
			"type":"VEC3"
		},
		{
			"bufferView":6,
			"componentType":5126,
			"count":280,
			"type":"VEC3"
		},
		{
			"bufferView":7,
			"componentType":5121,
			"count":280,
			"type":"VEC4"
		},
		{
			"bufferView":8,
			"componentType":5126,
			"count":280,
			"type":"VEC4"
		},
		{
			"bufferView":9,
			"componentType":5123,
			"count":360,
			"type":"SCALAR"
		},
		{
			"bufferView":10,
			"componentType":5126,
			"count":260,
			"max":[
				2.434725046157837,
				12.6604585647583,
				13.875588417053223
			],
			"min":[
				-2.434725761413574,
				5.860262393951416,
				-16.45125389099121
			],
			"type":"VEC3"
		},
		{
			"bufferView":11,
			"componentType":5126,
			"count":260,
			"type":"VEC3"
		},
		{
			"bufferView":12,
			"componentType":5121,
			"count":260,
			"type":"VEC4"
		},
		{
			"bufferView":13,
			"componentType":5126,
			"count":260,
			"type":"VEC4"
		},
		{
			"bufferView":14,
			"componentType":5123,
			"count":468,
			"type":"SCALAR"
		},
		{
			"bufferView":15,
			"componentType":5126,
			"count":266,
			"max":[
				1.6597317457199097,
				13.157279968261719,
				14.173028945922852
			],
			"min":[
				-1.6597309112548828,
				12.045835494995117,
				9.072239875793457
			],
			"type":"VEC3"
		},
		{
			"bufferView":16,
			"componentType":5126,
			"count":266,
			"type":"VEC3"
		},
		{
			"bufferView":17,
			"componentType":5121,
			"count":266,
			"type":"VEC4"
		},
		{
			"bufferView":18,
			"componentType":5126,
			"count":266,
			"type":"VEC4"
		},
		{
			"bufferView":19,
			"componentType":5123,
			"count":726,
			"type":"SCALAR"
		},
		{
			"bufferView":20,
			"componentType":5126,
			"count":652,
			"max":[
				1.3218445777893066,
				13.131070137023926,
				14.274521827697754
			],
			"min":[
				-1.3218448162078857,
				12.037398338317871,
				10.4722318649292
			],
			"type":"VEC3"
		},
		{
			"bufferView":21,
			"componentType":5126,
			"count":652,
			"type":"VEC3"
		},
		{
			"bufferView":22,
			"componentType":5121,
			"count":652,
			"type":"VEC4"
		},
		{
			"bufferView":23,
			"componentType":5126,
			"count":652,
			"type":"VEC4"
		},
		{
			"bufferView":24,
			"componentType":5123,
			"count":924,
			"type":"SCALAR"
		},
		{
			"bufferView":25,
			"componentType":5126,
			"count":37,
			"type":"MAT4"
		}
	],
	"bufferViews":[
		{
			"buffer":0,
			"byteLength":21768,
			"byteOffset":0,
			"target":34962
		},
		{
			"buffer":0,
			"byteLength":21768,
			"byteOffset":21768,
			"target":34962
		},
		{
			"buffer":0,
			"byteLength":7256,
			"byteOffset":43536,
			"target":34962
		},
		{
			"buffer":0,
			"byteLength":29024,
			"byteOffset":50792,
			"target":34962
		},
		{
			"buffer":0,
			"byteLength":5964,
			"byteOffset":79816,
			"target":34963
		},
		{
			"buffer":0,
			"byteLength":3360,
			"byteOffset":85780,
			"target":34962
		},
		{
			"buffer":0,
			"byteLength":3360,
			"byteOffset":89140,
			"target":34962
		},
		{
			"buffer":0,
			"byteLength":1120,
			"byteOffset":92500,
			"target":34962
		},
		{
			"buffer":0,
			"byteLength":4480,
			"byteOffset":93620,
			"target":34962
		},
		{
			"buffer":0,
			"byteLength":720,
			"byteOffset":98100,
			"target":34963
		},
		{
			"buffer":0,
			"byteLength":3120,
			"byteOffset":98820,
			"target":34962
		},
		{
			"buffer":0,
			"byteLength":3120,
			"byteOffset":101940,
			"target":34962
		},
		{
			"buffer":0,
			"byteLength":1040,
			"byteOffset":105060,
			"target":34962
		},
		{
			"buffer":0,
			"byteLength":4160,
			"byteOffset":106100,
			"target":34962
		},
		{
			"buffer":0,
			"byteLength":936,
			"byteOffset":110260,
			"target":34963
		},
		{
			"buffer":0,
			"byteLength":3192,
			"byteOffset":111196,
			"target":34962
		},
		{
			"buffer":0,
			"byteLength":3192,
			"byteOffset":114388,
			"target":34962
		},
		{
			"buffer":0,
			"byteLength":1064,
			"byteOffset":117580,
			"target":34962
		},
		{
			"buffer":0,
			"byteLength":4256,
			"byteOffset":118644,
			"target":34962
		},
		{
			"buffer":0,
			"byteLength":1452,
			"byteOffset":122900,
			"target":34963
		},
		{
			"buffer":0,
			"byteLength":7824,
			"byteOffset":124352,
			"target":34962
		},
		{
			"buffer":0,
			"byteLength":7824,
			"byteOffset":132176,
			"target":34962
		},
		{
			"buffer":0,
			"byteLength":2608,
			"byteOffset":140000,
			"target":34962
		},
		{
			"buffer":0,
			"byteLength":10432,
			"byteOffset":142608,
			"target":34962
		},
		{
			"buffer":0,
			"byteLength":1848,
			"byteOffset":153040,
			"target":34963
		},
		{
			"buffer":0,
			"byteLength":2368,
			"byteOffset":154888
		}
	],
	"buffers":[
		{
			"byteLength":157256,
			"uri":"trex.bin"
		}
	]
}
