{
	"asset":{
		"generator":"Khronos glTF Blender I/O v4.1.63",
		"version":"2.0"
	},
	"scene":0,
	"scenes":[
		{
			"name":"Scene",
			"nodes":[
				39
			]
		}
	],
	"nodes":[
		{
			"name":"FrontFoot.R_end",
			"rotation":[
				1.7508875771454768e-07,
				-7.505536814278457e-08,
				1.1641509445325937e-07,
				1
			],
			"translation":[
				-3.005686721735401e-08,
				0.5211777687072754,
				-2.2499357044125645e-07
			]
		},
		{
			"children":[
				0
			],
			"name":"FrontFoot.R",
			"rotation":[
				0.5777024030685425,
				0.09789776802062988,
				0.11019112914800644,
				0.8028287291526794
			],
			"scale":[
				1,
				1,
				0.9999999403953552
			],
			"translation":[
				5.21540641784668e-08,
				0.47775495052337646,
				2.6868656277656555e-07
			]
		},
		{
			"children":[
				1
			],
			"name":"FrontLowLeg.R",
			"rotation":[
				-0.3612607419490814,
				-0.06671417504549026,
				-0.16292862594127655,
				0.9156932830810547
			],
			"scale":[
				1,
				1.0000001192092896,
				1
			],
			"translation":[
				6.426125764846802e-08,
				0.5792655944824219,
				2.3405300453305244e-07
			]
		},
		{
			"children":[
				2
			],
			"name":"FrontUpLeg.R",
			"rotation":[
				0.6791582703590393,
				-0.7194549441337585,
				-0.09137372672557831,
				0.11304638534784317
			],
			"scale":[
				0.9999999403953552,
				0.9999998807907104,
				0.9999998211860657
			],
			"translation":[
				8.855070632307616e-08,
				0.48160114884376526,
				1.0792546589755148e-07
			]
		},
		{
			"children":[
				3
			],
			"name":"FrontLeg.R",
			"rotation":[
				-2.860142558347434e-07,
				-6.404180652452851e-08,
				0.7071067690849304,
				0.7071067690849304
			],
			"translation":[
				-0.2055383324623108,
				-1.162753701210022,
				0.5665827393531799
			]
		},
		{
			"name":"BackLowLeg.R_end",
			"rotation":[
				-1.862645504502325e-08,
				2.1854211773586485e-09,
				5.1222719399390826e-09,
				1
			],
			"scale":[
				0.9999999403953552,
				1,
				1
			],
			"translation":[
				4.779276707722602e-08,
				1.0195494890213013,
				-6.919530193272294e-08
			]
		},
		{
			"children":[
				5
			],
			"name":"BackLowLeg.R",
			"rotation":[
				-0.22522951662540436,
				0.00704868184402585,
				0.040101468563079834,
				0.9734545946121216
			],
			"scale":[
				0.9999998807907104,
				1,
				1
			],
			"translation":[
				-6.239861249923706e-08,
				2.020707130432129,
				3.4458935260772705e-08
			]
		},
		{
			"children":[
				6
			],
			"name":"BackUpLeg.R",
			"rotation":[
				-0.7273890972137451,
				0.6717580556869507,
				-0.0914030373096466,
				0.10626271367073059
			],
			"scale":[
				0.9999999403953552,
				0.9999999403953552,
				1.0000001192092896
			],
			"translation":[
				3.2117546311383194e-07,
				0.881600558757782,
				-2.8653488470808952e-09
			]
		},
		{
			"children":[
				7
			],
			"name":"BackLeg.R",
			"rotation":[
				-2.0660060329191765e-07,
				1.537184246558354e-08,
				0.7071067690849304,
				0.7071067690849304
			],
			"translation":[
				-0.26144149899482727,
				-1.4135380983352661,
				-0.9212667346000671
			]
		},
		{
			"name":"FrontFoot.L_end",
			"rotation":[
				1.3783576946480025e-07,
				-6.159396548355289e-08,
				6.23982714387239e-08,
				1
			],
			"translation":[
				-3.611955889937235e-08,
				0.5211779475212097,
				-3.95775487049832e-07
			]
		},
		{
			"children":[
				9
			],
			"name":"FrontFoot.L",
			"rotation":[
				0.5777021646499634,
				-0.09789983928203583,
				-0.11019180715084076,
				0.8028285503387451
			],
			"scale":[
				1,
				1,
				1.0000001192092896
			],
			"translation":[
				0,
				0.4777543246746063,
				3.0174851417541504e-07
			]
		},
		{
			"children":[
				10
			],
			"name":"FrontLowLeg.L",
			"rotation":[
				-0.35563087463378906,
				0.0971899926662445,
				0.1748756617307663,
				0.9129618406295776
			],
			"scale":[
				1.0000001192092896,
				1.0000001192092896,
				1
			],
			"translation":[
				2.1606683731079102e-07,
				0.5792652368545532,
				-5.21540641784668e-08
			]
		},
		{
			"children":[
				11
			],
			"name":"FrontUpLeg.L",
			"rotation":[
				-0.0686926543712616,
				-0.13695694506168365,
				0.6818257570266724,
				0.7152886390686035
			],
			"scale":[
				0.9999999403953552,
				0.9999999403953552,
				1
			],
			"translation":[
				2.138744292778938e-07,
				0.4816012382507324,
				-1.0622787982583759e-07
			]
		},
		{
			"children":[
				12
			],
			"name":"FrontLeg.L",
			"rotation":[
				-0.7071067690849304,
				-0.7071067690849304,
				1.2808354199478345e-07,
				2.2197248483735166e-07
			],
			"translation":[
				0.1439058780670166,
				-1.162753701210022,
				0.5665827393531799
			]
		},
		{
			"name":"BackLowLeg.L_end",
			"rotation":[
				7.078051567077637e-08,
				6.282926956480139e-10,
				-5.820746995510717e-09,
				1
			],
			"scale":[
				1,
				1.0000001192092896,
				1
			],
			"translation":[
				-3.767819833910835e-09,
				1.0195491313934326,
				3.004709014930995e-08
			]
		},
		{
			"children":[
				14
			],
			"name":"BackLowLeg.L",
			"rotation":[
				-0.22561362385749817,
				0.0025400216691195965,
				-0.03788117691874504,
				0.9734768271446228
			],
			"scale":[
				0.9999999403953552,
				1.0000001192092896,
				1
			],
			"translation":[
				-1.2759119272232056e-07,
				2.02070689201355,
				-1.3224780559539795e-07
			]
		},
		{
			"children":[
				15
			],
			"name":"BackUpLeg.L",
			"rotation":[
				0.09856298565864563,
				0.09964094310998917,
				0.7264536023139954,
				0.6727721095085144
			],
			"scale":[
				1,
				1.0000001192092896,
				1.0000001192092896
			],
			"translation":[
				1.901867534570556e-07,
				0.8816006183624268,
				5.327819962985814e-09
			]
		},
		{
			"children":[
				16
			],
			"name":"BackLeg.L",
			"rotation":[
				-0.7071067690849304,
				-0.7071067690849304,
				1.3784369912173133e-07,
				5.338507591545749e-08
			],
			"translation":[
				0.19980907440185547,
				-1.4135380983352661,
				-0.9212667346000671
			]
		},
		{
			"name":"Tail5_end",
			"rotation":[
				5.140900611877441e-07,
				3.50932616299815e-11,
				-2.586557634742803e-10,
				1
			],
			"scale":[
				1,
				1,
				1.0000001192092896
			],
			"translation":[
				-3.9621085079488694e-08,
				0.6748013496398926,
				-4.3496464741110685e-07
			]
		},
		{
			"children":[
				18
			],
			"name":"Tail5",
			"rotation":[
				-0.15720996260643005,
				7.2364900530197396e-12,
				-3.7220814874672215e-08,
				0.9875652194023132
			],
			"scale":[
				1,
				1.0000001192092896,
				1
			],
			"translation":[
				-9.564274705553544e-09,
				0.9873839020729065,
				-1.9650032356821612e-07
			]
		},
		{
			"children":[
				19
			],
			"name":"Tail4",
			"rotation":[
				-0.05478452146053314,
				1.1902539398533918e-07,
				-6.5738450238939095e-09,
				0.9984982013702393
			],
			"scale":[
				1,
				1.0000001192092896,
				1.0000001192092896
			],
			"translation":[
				3.9897596337823416e-10,
				1.362682580947876,
				1.1921885345600458e-07
			]
		},
		{
			"children":[
				20
			],
			"name":"Tail3",
			"rotation":[
				0.08893539756536484,
				-1.1873378014115588e-07,
				1.0645092807237688e-08,
				0.9960373640060425
			],
			"scale":[
				0.9999999403953552,
				0.9999997615814209,
				0.9999997615814209
			],
			"translation":[
				3.1410593237524154e-08,
				1.0152170658111572,
				-8.474128776470025e-08
			]
		},
		{
			"children":[
				21
			],
			"name":"Tail2",
			"rotation":[
				0.09096676111221313,
				1.1871493654780352e-07,
				1.0844080300387304e-08,
				0.9958539605140686
			],
			"scale":[
				1,
				1.000000238418579,
				1
			],
			"translation":[
				-5.960538373983582e-08,
				1.1199500560760498,
				-4.1723220078893064e-07
			]
		},
		{
			"children":[
				22
			],
			"name":"Tail1",
			"rotation":[
				-0.07147517055273056,
				-7.134259476515581e-07,
				-5.1122999167318994e-08,
				0.997442364692688
			],
			"scale":[
				1,
				1,
				1.0000001192092896
			],
			"translation":[
				1.9279141838524083e-08,
				0.5890639424324036,
				-3.668878889584448e-07
			]
		},
		{
			"children":[
				23
			],
			"name":"Back",
			"rotation":[
				-0.7285068035125732,
				4.899775944977591e-07,
				-5.210684435041912e-07,
				0.6850386261940002
			],
			"scale":[
				1,
				0.9999999403953552,
				0.9999999403953552
			],
			"translation":[
				-0.03228271007537842,
				-1.203861117362976,
				-0.8308264017105103
			]
		},
		{
			"name":"Head_end",
			"rotation":[
				-1.6763808119435453e-08,
				6.9921948231410624e-09,
				1.0797521987626624e-08,
				1
			],
			"scale":[
				1,
				0.9999999403953552,
				0.9999999403953552
			],
			"translation":[
				-2.384185791015625e-07,
				1.3537908792495728,
				-7.003545761108398e-07
			]
		},
		{
			"children":[
				25
			],
			"name":"Head",
			"rotation":[
				-0.24084320664405823,
				-0.25128641724586487,
				0.0636327862739563,
				0.9353077411651611
			],
			"translation":[
				1.3531143849832006e-07,
				0.6228203773498535,
				5.146348485141061e-07
			]
		},
		{
			"children":[
				26
			],
			"name":"Neck",
			"rotation":[
				0.017778929322957993,
				-0.024050598964095116,
				-0.03110864944756031,
				0.9990684390068054
			],
			"scale":[
				0.9999999403953552,
				1.0000001192092896,
				1
			],
			"translation":[
				-7.450580596923828e-09,
				0.6565496325492859,
				1.30385160446167e-07
			]
		},
		{
			"children":[
				27
			],
			"name":"Shoulders",
			"rotation":[
				-0.07837016135454178,
				0.03033781610429287,
				0.05039310082793236,
				0.9951875805854797
			],
			"scale":[
				1.0000001192092896,
				0.9999998807907104,
				1.0000001192092896
			],
			"translation":[
				-8.940696716308594e-08,
				1.0141031742095947,
				1.434236764907837e-07
			]
		},
		{
			"children":[
				28
			],
			"name":"Torso",
			"rotation":[
				0.25308313965797424,
				-0.0007148994482122362,
				-0.021277019754052162,
				0.9672102928161621
			],
			"scale":[
				1.0000001192092896,
				1,
				1
			],
			"translation":[
				4.0632158970765886e-08,
				0.6915538311004639,
				-4.12026423646239e-07
			]
		},
		{
			"children":[
				29
			],
			"name":"Hips",
			"rotation":[
				2.127495974946214e-07,
				0.7353138327598572,
				0.6777268052101135,
				2.308271405127016e-07
			],
			"scale":[
				1,
				1.000000238418579,
				1
			],
			"translation":[
				-0.03228271007537842,
				-1.2592310905456543,
				-0.5773681998252869
			]
		},
		{
			"children":[
				4,
				8,
				13,
				17,
				24,
				30
			],
			"name":"Body",
			"rotation":[
				7.105427357601002e-15,
				0,
				0,
				1
			],
			"translation":[
				0.030816197395324707,
				4.439356803894043,
				1.0428664684295654
			]
		},
		{
			"name":"BackFoot.R_end",
			"rotation":[
				7.105427357601002e-15,
				0,
				0,
				1
			],
			"translation":[
				-2.30846608495483e-09,
				0.9999999403953552,
				-4.401359277039774e-09
			]
		},
		{
			"children":[
				32
			],
			"name":"BackFoot.R",
			"rotation":[
				0.7071067690849304,
				-8.120283609969192e-07,
				-8.120283609969192e-07,
				0.7071067690849304
			],
			"translation":[
				-0.9658563137054443,
				0.08617044240236282,
				-0.27561530470848083
			]
		},
		{
			"name":"BackFoot.L_end",
			"rotation":[
				7.105427357601002e-15,
				-1.1368683772161603e-13,
				-1.3552527156068805e-20,
				1
			],
			"translation":[
				2.3014388172981626e-09,
				0.9999999403953552,
				-2.941222376762198e-09
			]
		},
		{
			"children":[
				34
			],
			"name":"BackFoot.L",
			"rotation":[
				0.7071067690849304,
				-1.1492031717352802e-06,
				-1.1492031717352802e-06,
				0.7071067690849304
			],
			"translation":[
				0.9658563733100891,
				0.08617044240236282,
				-0.27561530470848083
			]
		},
		{
			"children":[
				31,
				33,
				35
			],
			"name":"root",
			"rotation":[
				7.105427357601002e-15,
				0,
				0,
				1
			],
			"translation":[
				-5.960464477539063e-08,
				-4.5636028289663955e-09,
				0.011299625970423222
			]
		},
		{
			"mesh":0,
			"name":"Trex",
			"skin":0
		},
		{
			"children":[
				37,
				36
			],
			"name":"Armature",
			"scale":[
				3,
				3,
				3
			]
		},
		{
			"children":[
				38
			],
			"name":"trex",
			"translation":[
				2.031855583190918,
				0.2894868850708008,
				-2.4193572998046875
			]
		}
	],
	"meshes":[
		{
			"name":"Cylinder",
			"primitives":[
				{
					"attributes":{
						"POSITION":0,
						"NORMAL":1,
						"TEXCOORD_0":2,
						"JOINTS_0":3,
						"WEIGHTS_0":4
					},
					"indices":5
				}
			]
		}
	],
	"skins":[
		{
			"inverseBindMatrices":6,
			"joints":[
				36,
				31,
				4,
				3,
				2,
				1,
				0,
				8,
				7,
				6,
				5,
				13,
				12,
				11,
				10,
				9,
				17,
				16,
				15,
				14,
				24,
				23,
				22,
				21,
				20,
				19,
				18,
				30,
				29,
				28,
				27,
				26,
				25,
				33,
				32,
				35,
				34
			],
			"name":"Armature"
		}
	],
	"accessors":[
		{
			"bufferView":0,
			"componentType":5126,
			"count":3304,
			"max":[
				3.976836681365967,
				15.221189498901367,
				14.427824974060059
			],
			"min":[
				-3.976837635040283,
				-0.0038097654469311237,
				-16.60175132751465
			],
			"type":"VEC3"
		},
		{
			"bufferView":1,
			"componentType":5126,
			"count":3304,
			"type":"VEC3"
		},
		{
			"bufferView":2,
			"componentType":5126,
			"count":3304,
			"type":"VEC2"
		},
		{
			"bufferView":3,
			"componentType":5121,
			"count":3304,
			"type":"VEC4"
		},
		{
			"bufferView":4,
			"componentType":5126,
			"count":3304,
			"type":"VEC4"
		},
		{
			"bufferView":5,
			"componentType":5123,
			"count":5460,
			"type":"SCALAR"
		},
		{
			"bufferView":6,
			"componentType":5126,
			"count":37,
			"type":"MAT4"
		}
	],
	"bufferViews":[
		{
			"buffer":0,
			"byteLength":39648,
			"byteOffset":0,
			"target":34962
		},
		{
			"buffer":0,
			"byteLength":39648,
			"byteOffset":39648,
			"target":34962
		},
		{
			"buffer":0,
			"byteLength":26432,
			"byteOffset":79296,
			"target":34962
		},
		{
			"buffer":0,
			"byteLength":13216,
			"byteOffset":105728,
			"target":34962
		},
		{
			"buffer":0,
			"byteLength":52864,
			"byteOffset":118944,
			"target":34962
		},
		{
			"buffer":0,
			"byteLength":10920,
			"byteOffset":171808,
			"target":34963
		},
		{
			"buffer":0,
			"byteLength":2368,
			"byteOffset":182728
		}
	],
	"buffers":[
		{
			"byteLength":185096,
			"uri":"trex.bin"
		}
	]
}
