{
	"asset":{
		"generator":"Khronos glTF Blender I/O v4.1.63",
		"version":"2.0"
	},
	"scene":0,
	"scenes":[
		{
			"name":"Scene",
			"nodes":[
				69
			]
		}
	],
	"nodes":[
		{
			"name":"Head_end",
			"rotation":[
				-1.4901161193847656e-07,
				6.394884621840902e-14,
				2.288447209508604e-13,
				1
			],
			"translation":[
				7.704947790898586e-14,
				0.5551561713218689,
				5.960464477539063e-08
			]
		},
		{
			"children":[
				0
			],
			"name":"Head",
			"rotation":[
				-0.28969743847846985,
				7.756801423397519e-09,
				4.6015864541004703e-07,
				0.9571183323860168
			],
			"scale":[
				1,
				0.9999999403953552,
				0.9999999403953552
			],
			"translation":[
				9.938716516444401e-13,
				0.33700937032699585,
				3.552713678800501e-15
			]
		},
		{
			"name":"Ear4.L_end",
			"rotation":[
				5.066395374342392e-07,
				1.7508864402770996e-07,
				6.891787052154541e-07,
				1
			],
			"scale":[
				1,
				0.9999998807907104,
				0.9999999403953552
			],
			"translation":[
				4.470348358154297e-08,
				0.11073758453130722,
				4.470348358154297e-08
			]
		},
		{
			"children":[
				2
			],
			"name":"Ear4.L",
			"rotation":[
				-0.08169025182723999,
				-0.035096343606710434,
				-0.08370441198348999,
				0.992516279220581
			],
			"scale":[
				1,
				1,
				0.9999999403953552
			],
			"translation":[
				-2.5331974029541016e-07,
				0.09376668184995651,
				7.450580596923828e-08
			]
		},
		{
			"children":[
				3
			],
			"name":"Ear3.L",
			"rotation":[
				0.026069991290569305,
				-0.02251608483493328,
				-0.02825826220214367,
				0.9990069270133972
			],
			"scale":[
				0.9999998807907104,
				0.9999997615814209,
				0.9999998807907104
			],
			"translation":[
				-1.4901161193847656e-07,
				0.08098960667848587,
				-8.940696716308594e-08
			]
		},
		{
			"children":[
				4
			],
			"name":"Ear2.L",
			"rotation":[
				-0.07329629361629486,
				0.48965856432914734,
				0.049418702721595764,
				0.8674214482307434
			],
			"scale":[
				1,
				1,
				0.9999998807907104
			],
			"translation":[
				5.960464477539063e-08,
				0.13886260986328125,
				1.126900315284729e-07
			]
		},
		{
			"children":[
				5
			],
			"name":"Ear1.L",
			"rotation":[
				0.43575605750083923,
				-0.02652946673333645,
				0.10636036098003387,
				0.8933646082878113
			],
			"scale":[
				1,
				1,
				0.9999999403953552
			],
			"translation":[
				-0.22781041264533997,
				0.4202269911766052,
				0.1650596410036087
			]
		},
		{
			"name":"Ear4.R_end",
			"rotation":[
				1.3299286365509033e-06,
				-1.687556505203247e-06,
				-9.015202522277832e-07,
				1
			],
			"translation":[
				0,
				0.11073730140924454,
				7.450580596923828e-08
			]
		},
		{
			"children":[
				7
			],
			"name":"Ear4.R",
			"rotation":[
				-0.08168895542621613,
				0.03509681299328804,
				0.08370111137628555,
				0.9925166368484497
			],
			"scale":[
				0.9999999403953552,
				1,
				0.9999998807907104
			],
			"translation":[
				-8.940696716308594e-08,
				0.09376809746026993,
				-5.960464477539063e-08
			]
		},
		{
			"children":[
				8
			],
			"name":"Ear3.R",
			"rotation":[
				0.02606508508324623,
				0.022518683224916458,
				0.028265561908483505,
				0.9990068078041077
			],
			"scale":[
				1,
				1,
				1.0000001192092896
			],
			"translation":[
				-4.470348358154297e-08,
				0.08098922669887543,
				-1.1920928955078125e-07
			]
		},
		{
			"children":[
				9
			],
			"name":"Ear2.R",
			"rotation":[
				-0.07329202443361282,
				-0.4896606206893921,
				-0.04942050203680992,
				0.8674205541610718
			],
			"scale":[
				0.9999999403953552,
				1,
				1
			],
			"translation":[
				-1.4901161193847656e-08,
				0.1388626992702484,
				1.9371509552001953e-07
			]
		},
		{
			"children":[
				10
			],
			"name":"Ear1.R",
			"rotation":[
				0.43575581908226013,
				0.02653110958635807,
				-0.10636112838983536,
				0.8933646082878113
			],
			"scale":[
				0.9999999403953552,
				0.9999998807907104,
				1
			],
			"translation":[
				0.22781094908714294,
				0.4202268719673157,
				0.165058895945549
			]
		},
		{
			"children":[
				1,
				6,
				11
			],
			"name":"Neck3",
			"rotation":[
				-0.01988946460187435,
				-1.1316720360809995e-07,
				6.949795405830628e-09,
				0.9998022317886353
			],
			"translation":[
				6.545874953189923e-13,
				0.1815171241760254,
				5.960464477539063e-08
			]
		},
		{
			"children":[
				12
			],
			"name":"Neck2",
			"rotation":[
				0.028795547783374786,
				3.306092821730999e-08,
				-5.742359476812453e-09,
				0.9995853304862976
			],
			"scale":[
				1,
				0.9999999403953552,
				1
			],
			"translation":[
				-1.6324719354088302e-12,
				0.2657744288444519,
				2.3841856489070778e-07
			]
		},
		{
			"children":[
				13
			],
			"name":"Neck1",
			"rotation":[
				0.07622084021568298,
				2.4038474748522276e-06,
				-3.008705959928193e-07,
				0.9970909953117371
			],
			"translation":[
				2.3813173655184983e-11,
				0.294816255569458,
				-2.3841860752327193e-07
			]
		},
		{
			"children":[
				14
			],
			"name":"Torso3",
			"rotation":[
				0.10591405630111694,
				2.0924453565385193e-05,
				-2.8945644316991093e-06,
				0.9943752884864807
			],
			"scale":[
				1,
				0.9999999403953552,
				1
			],
			"translation":[
				-3.2599201116312315e-11,
				0.5849336385726929,
				2.1234153280147439e-07
			]
		},
		{
			"name":"FrontLowerLeg.L_end",
			"rotation":[
				5.2154362606415816e-08,
				1.527425652625425e-08,
				1.6140901948347164e-08,
				1
			],
			"scale":[
				1,
				0.9999999403953552,
				1
			],
			"translation":[
				1.5443987422258942e-08,
				0.923179030418396,
				-5.154026894160779e-08
			]
		},
		{
			"children":[
				16
			],
			"name":"FrontLowerLeg.L",
			"rotation":[
				-5.863611249878886e-07,
				0.9644415974617004,
				-0.26429593563079834,
				2.142280663974816e-06
			],
			"scale":[
				1,
				1.0000005960464478,
				1
			],
			"translation":[
				2.581235492016276e-08,
				0.3595564067363739,
				-3.27998463944823e-08
			]
		},
		{
			"children":[
				17
			],
			"name":"FrontUpperLeg.L",
			"rotation":[
				-0.7427646517753601,
				-0.6522461771965027,
				0.09979823231697083,
				0.11364834755659103
			],
			"scale":[
				0.9999998807907104,
				0.9999995827674866,
				1
			],
			"translation":[
				1.1850147529912647e-07,
				0.10450869798660278,
				2.726247316786612e-08
			]
		},
		{
			"children":[
				18
			],
			"name":"FrontShoulder.L",
			"rotation":[
				-0.4509012997150421,
				0.513503909111023,
				0.548591673374176,
				0.48171454668045044
			],
			"scale":[
				1,
				0.9999998807907104,
				1
			],
			"translation":[
				-0.22307975590229034,
				0.7070832848548889,
				-0.37175124883651733
			]
		},
		{
			"name":"FrontLowerLeg.R_end",
			"rotation":[
				4.097838512961971e-08,
				-7.798828960403625e-08,
				-3.228206679750656e-08,
				1
			],
			"translation":[
				6.839670163572009e-09,
				0.9231789708137512,
				-6.074651537346654e-08
			]
		},
		{
			"children":[
				20
			],
			"name":"FrontLowerLeg.R",
			"rotation":[
				-5.09576693730196e-07,
				-0.9644415974617004,
				0.2642960846424103,
				2.142280663974816e-06
			],
			"scale":[
				1,
				1.0000001192092896,
				0.9999999403953552
			],
			"translation":[
				-2.133140242221998e-08,
				0.35955628752708435,
				5.363347099773819e-09
			]
		},
		{
			"children":[
				21
			],
			"name":"FrontUpperLeg.R",
			"rotation":[
				-0.7427647113800049,
				0.6522461175918579,
				-0.09979806840419769,
				0.11364835500717163
			],
			"scale":[
				0.9999998211860657,
				0.9999996423721313,
				0.9999999403953552
			],
			"translation":[
				-7.310578098440601e-08,
				0.10450872778892517,
				-1.7181925215936644e-08
			]
		},
		{
			"children":[
				22
			],
			"name":"FrontShoulder.R",
			"rotation":[
				-0.4509279131889343,
				-0.5134807229042053,
				-0.5485698580741882,
				0.4817392826080322
			],
			"scale":[
				1,
				0.9999999403953552,
				0.9999999403953552
			],
			"translation":[
				0.22304381430149078,
				0.7070832848548889,
				-0.3717727065086365
			]
		},
		{
			"children":[
				15,
				19,
				23
			],
			"name":"Torso2",
			"rotation":[
				-0.005965901538729668,
				-2.069322727038525e-05,
				1.6409798320182745e-07,
				0.9999822378158569
			],
			"translation":[
				2.818592581554924e-12,
				0.390051931142807,
				-2.0489094865183688e-08
			]
		},
		{
			"children":[
				24
			],
			"name":"Torso",
			"rotation":[
				-3.339150964620785e-07,
				0.9975399374961853,
				-0.07010040432214737,
				2.2158005776873324e-06
			],
			"scale":[
				1,
				1.0000003576278687,
				0.9999999403953552
			],
			"translation":[
				-6.963318810448982e-13,
				0.5209779143333435,
				-4.0046870708465576e-07
			]
		},
		{
			"name":"BackLowerLeg.L_end",
			"rotation":[
				8.94070240065048e-08,
				2.5982480167385802e-08,
				-2.2903677177055215e-08,
				1
			],
			"scale":[
				1,
				0.9999999403953552,
				1
			],
			"translation":[
				1.3786007002636325e-08,
				0.6506050229072571,
				8.005599738680758e-08
			]
		},
		{
			"children":[
				26
			],
			"name":"BackLowerLeg.L",
			"rotation":[
				-3.7401707686512964e-07,
				0.7724236845970154,
				-0.6351075768470764,
				7.949572022880602e-07
			],
			"scale":[
				1,
				1.0000004768371582,
				1
			],
			"translation":[
				2.230137852166081e-09,
				1.018167495727539,
				-3.4749078281492984e-08
			]
		},
		{
			"children":[
				27
			],
			"name":"BackUpperLeg.L",
			"rotation":[
				0.7018142938613892,
				-1.1727000526207121e-07,
				4.548012668692536e-07,
				0.7123599648475647
			],
			"translation":[
				5.109242806611292e-09,
				0.4906662702560425,
				3.922886548934912e-08
			]
		},
		{
			"children":[
				28
			],
			"name":"BackLeg.L",
			"rotation":[
				0.7186681032180786,
				0.6462615728378296,
				0.17160186171531677,
				0.19082720577716827
			],
			"scale":[
				0.9999998807907104,
				0.9999998211860657,
				1.0000001192092896
			],
			"translation":[
				5.272192993288627e-08,
				0.1276533007621765,
				2.0526684352262237e-08
			]
		},
		{
			"children":[
				29
			],
			"name":"BackShoulder.L",
			"rotation":[
				-0.5743374824523926,
				-0.5164710879325867,
				-0.4246850311756134,
				0.47226762771606445
			],
			"scale":[
				0.9999998807907104,
				0.9999997615814209,
				0.9999999403953552
			],
			"translation":[
				0.21449971199035645,
				0.07522463798522949,
				0.22570167481899261
			]
		},
		{
			"name":"BackLowerLeg.R_end",
			"rotation":[
				-7.450609906811678e-09,
				6.277142006183567e-08,
				2.2903520857653348e-08,
				1
			],
			"translation":[
				-2.9543272717091895e-08,
				0.6506047248840332,
				-2.8342867608444067e-08
			]
		},
		{
			"children":[
				31
			],
			"name":"BackLowerLeg.R",
			"rotation":[
				-3.9213810509863833e-07,
				-0.7724235653877258,
				0.6351077556610107,
				7.028767754491128e-07
			],
			"scale":[
				1,
				1.000000238418579,
				1
			],
			"translation":[
				3.104105417151004e-09,
				1.0181673765182495,
				-3.5807751430638746e-08
			]
		},
		{
			"children":[
				32
			],
			"name":"BackUpperLeg.R",
			"rotation":[
				0.7018146514892578,
				6.652580708532696e-08,
				-1.8128990575405624e-07,
				0.7123596668243408
			],
			"scale":[
				1,
				0.9999999403953552,
				0.9999999403953552
			],
			"translation":[
				-1.1029456459255016e-08,
				0.49066630005836487,
				-5.1575952397797664e-09
			]
		},
		{
			"children":[
				33
			],
			"name":"BackLeg.R",
			"rotation":[
				0.7186680436134338,
				-0.6462615132331848,
				-0.17160196602344513,
				0.19082754850387573
			],
			"scale":[
				1,
				1.0000001192092896,
				0.9999999403953552
			],
			"translation":[
				-8.945215768108028e-08,
				0.12765325605869293,
				-1.540333016691875e-08
			]
		},
		{
			"children":[
				34
			],
			"name":"BackShoulder.R",
			"rotation":[
				-0.5743363499641418,
				0.5164722800254822,
				0.4246865510940552,
				0.4722663462162018
			],
			"scale":[
				1.0000001192092896,
				1,
				0.9999999403953552
			],
			"translation":[
				-0.2144985795021057,
				0.07522463798522949,
				0.22570276260375977
			]
		},
		{
			"name":"Tail8_end",
			"rotation":[
				2.0116567611694336e-07,
				-4.6629367034256575e-14,
				4.218847493575595e-14,
				1
			],
			"translation":[
				-7.105427357601002e-15,
				0.27166932821273804,
				1.1920928955078125e-07
			]
		},
		{
			"children":[
				36
			],
			"name":"Tail8",
			"rotation":[
				0.039274975657463074,
				1.1931513199670007e-07,
				4.071055048626704e-09,
				0.9992284774780273
			],
			"scale":[
				1,
				0.9999998211860657,
				0.9999999403953552
			],
			"translation":[
				-1.5543122344752192e-15,
				0.2626589238643646,
				1.1920928955078125e-07
			]
		},
		{
			"children":[
				37
			],
			"name":"Tail7",
			"rotation":[
				0.03565333038568497,
				3.7166228428198167e-10,
				1.135133320673276e-09,
				0.9993642568588257
			],
			"scale":[
				1,
				1,
				0.9999999403953552
			],
			"translation":[
				-5.861977570020827e-14,
				0.21816584467887878,
				2.682209014892578e-07
			]
		},
		{
			"children":[
				38
			],
			"name":"Tail6",
			"rotation":[
				0.07228335738182068,
				-1.1911036779110873e-07,
				-1.5334850056447635e-09,
				0.9973841309547424
			],
			"translation":[
				6.52811138479592e-14,
				0.29533517360687256,
				1.1920928955078125e-07
			]
		},
		{
			"children":[
				39
			],
			"name":"Tail5",
			"rotation":[
				0.07309392094612122,
				1.1872687366576429e-07,
				8.634673420715444e-09,
				0.99732506275177
			],
			"translation":[
				1.4915846335838978e-13,
				0.23953494429588318,
				-6.258487701416016e-07
			]
		},
		{
			"children":[
				40
			],
			"name":"Tail4",
			"rotation":[
				-0.019920652732253075,
				1.1886375972380847e-07,
				7.76977238103882e-09,
				0.9998015761375427
			],
			"scale":[
				1,
				1.0000001192092896,
				1.0000001192092896
			],
			"translation":[
				-3.907985046680551e-14,
				0.35762935876846313,
				6.556510925292969e-07
			]
		},
		{
			"children":[
				41
			],
			"name":"Tail3",
			"rotation":[
				-0.026616230607032776,
				-8.959684660858613e-10,
				2.322075154381764e-08,
				0.9996457099914551
			],
			"translation":[
				-2.398081733190338e-14,
				0.3501651883125305,
				-2.868473529815674e-07
			]
		},
		{
			"children":[
				42
			],
			"name":"Tail2",
			"rotation":[
				-0.32039397954940796,
				-5.855099072249459e-09,
				5.0711477683762496e-08,
				0.9472844004631042
			],
			"scale":[
				1,
				0.9999999403953552,
				0.9999998807907104
			],
			"translation":[
				2.9887203822909214e-13,
				0.19720202684402466,
				1.7763568394002505e-15
			]
		},
		{
			"children":[
				43
			],
			"name":"Tail1",
			"rotation":[
				-0.9785727262496948,
				2.392828832853411e-07,
				1.348407636214688e-06,
				0.20590157806873322
			],
			"scale":[
				1,
				1,
				0.9999995827674866
			],
			"translation":[
				3.6670414260697726e-07,
				-0.14503750205039978,
				0.1464240550994873
			]
		},
		{
			"children":[
				25,
				30,
				35,
				44
			],
			"name":"Back",
			"rotation":[
				0.7724030017852783,
				-7.980557370501629e-07,
				-9.736966148921056e-07,
				0.6351327896118164
			],
			"scale":[
				1,
				0.9999999403953552,
				0.9999999403953552
			],
			"translation":[
				-2.09007477991463e-09,
				1.5116288661956787,
				-0.6388040781021118
			]
		},
		{
			"name":"PoleTargetBack.L_end",
			"rotation":[
				-4.330254625983798e-07,
				0,
				-1.0324131550750251e-13,
				1
			],
			"translation":[
				6.873399627238541e-09,
				0.26206570863723755,
				2.146018118764914e-08
			]
		},
		{
			"children":[
				46
			],
			"name":"PoleTargetBack.L",
			"rotation":[
				4.5488332034437917e-07,
				1.1920928955078125e-07,
				5.422631744675388e-14,
				1
			],
			"translation":[
				0.21702849864959717,
				0.34705018997192383,
				3.6577656269073486
			]
		},
		{
			"name":"PoleTarget.L_end",
			"rotation":[
				-4.5565423079096945e-07,
				0,
				0,
				1
			],
			"translation":[
				0,
				0.24964666366577148,
				-6.923744422238087e-08
			]
		},
		{
			"children":[
				48
			],
			"name":"PoleTarget.L",
			"rotation":[
				4.775120601152594e-07,
				0,
				0,
				1
			],
			"translation":[
				0.21728317439556122,
				0.3490040898323059,
				3.36970853805542
			]
		},
		{
			"name":"PoleTargetBack.R_end",
			"rotation":[
				-4.330254625983798e-07,
				0,
				1.0324131550750251e-13,
				1
			],
			"translation":[
				-6.873399627238541e-09,
				0.26206570863723755,
				2.146018118764914e-08
			]
		},
		{
			"children":[
				50
			],
			"name":"PoleTargetBack.R",
			"rotation":[
				4.5488332034437917e-07,
				-1.1920928955078125e-07,
				-5.422631744675388e-14,
				1
			],
			"translation":[
				-0.21702849864959717,
				0.34705018997192383,
				3.6577656269073486
			]
		},
		{
			"name":"PoleTarget.R_end",
			"rotation":[
				-4.5565423079096945e-07,
				0,
				0,
				1
			],
			"translation":[
				0,
				0.24964666366577148,
				-6.923744422238087e-08
			]
		},
		{
			"children":[
				52
			],
			"name":"PoleTarget.R",
			"rotation":[
				4.775120601152594e-07,
				0,
				0,
				1
			],
			"translation":[
				-0.21728317439556122,
				0.3490040898323059,
				3.36970853805542
			]
		},
		{
			"children":[
				45,
				47,
				49,
				51,
				53
			],
			"name":"Body",
			"rotation":[
				-0.7071067690849304,
				0,
				0,
				0.7071067690849304
			],
			"translation":[
				0,
				0.0009059100993908942,
				-0.47243887186050415
			]
		},
		{
			"name":"FFB.L_end",
			"rotation":[
				7.610161389948189e-09,
				1.4267698134062812e-10,
				-1.6993856002305366e-14,
				1
			],
			"translation":[
				-2.5227405942018777e-08,
				0.14329569041728973,
				1.5234036254696548e-09
			]
		},
		{
			"children":[
				55
			],
			"name":"FFB.L",
			"rotation":[
				-5.333186550160463e-07,
				0.9291375279426575,
				-0.36973437666893005,
				7.347187533923716e-07
			],
			"scale":[
				1,
				1.0000007152557373,
				1.0000001192092896
			],
			"translation":[
				4.3611052547021245e-09,
				0.19661608338356018,
				3.826208683221921e-08
			]
		},
		{
			"children":[
				56
			],
			"name":"IKBackLeg.L",
			"rotation":[
				0.3697344958782196,
				-3.0275182894001773e-07,
				-1.2047495090428129e-07,
				0.9291374683380127
			],
			"translation":[
				0.341435968875885,
				-1.0240508317947388,
				-0.2038632333278656
			]
		},
		{
			"name":"FF.L_end",
			"rotation":[
				4.842890888312468e-08,
				1.1960910342168063e-06,
				9.658511146426463e-08,
				1
			],
			"translation":[
				-3.485325805741013e-09,
				0.1542796939611435,
				1.4975626072555315e-08
			]
		},
		{
			"children":[
				58
			],
			"name":"FF.L",
			"rotation":[
				-1.1425501043049735e-06,
				0.9377080202102661,
				-0.3474244177341461,
				1.9711146705958527e-06
			],
			"scale":[
				1,
				0.9999997615814209,
				1
			],
			"translation":[
				2.3276932381577353e-08,
				0.1881791055202484,
				1.0957705853797961e-08
			]
		},
		{
			"children":[
				59
			],
			"name":"IKFrontLeg.L",
			"rotation":[
				0.4252745807170868,
				-4.027995714750432e-07,
				-1.8926874645330827e-07,
				0.9050644040107727
			],
			"scale":[
				1,
				1,
				1.000000238418579
			],
			"translation":[
				0.326694130897522,
				1.047857642173767,
				-0.21649134159088135
			]
		},
		{
			"name":"FFB.R_end",
			"rotation":[
				7.610161389948189e-09,
				-1.4267698134062812e-10,
				1.6993856002305366e-14,
				1
			],
			"translation":[
				2.5227405942018777e-08,
				0.14329569041728973,
				1.5234036254696548e-09
			]
		},
		{
			"children":[
				61
			],
			"name":"FFB.R",
			"rotation":[
				-5.333186550160463e-07,
				-0.9291375279426575,
				0.36973437666893005,
				7.347187533923716e-07
			],
			"scale":[
				1,
				1.0000007152557373,
				1.0000001192092896
			],
			"translation":[
				-4.3611052547021245e-09,
				0.19661608338356018,
				3.826208683221921e-08
			]
		},
		{
			"children":[
				62
			],
			"name":"IKBackLeg.R",
			"rotation":[
				0.3697344958782196,
				3.0275182894001773e-07,
				1.2047495090428129e-07,
				0.9291374683380127
			],
			"translation":[
				-0.341435968875885,
				-1.0240508317947388,
				-0.2038632333278656
			]
		},
		{
			"name":"FF.R_end",
			"rotation":[
				4.842890888312468e-08,
				-1.1960910342168063e-06,
				-9.658511146426463e-08,
				1
			],
			"translation":[
				3.485325805741013e-09,
				0.1542796939611435,
				1.4975626072555315e-08
			]
		},
		{
			"children":[
				64
			],
			"name":"FF.R",
			"rotation":[
				-1.1425501043049735e-06,
				-0.9377080202102661,
				0.3474244177341461,
				1.9711146705958527e-06
			],
			"scale":[
				1,
				0.9999997615814209,
				1
			],
			"translation":[
				-2.3276932381577353e-08,
				0.1881791055202484,
				1.0957705853797961e-08
			]
		},
		{
			"children":[
				65
			],
			"name":"IKFrontLeg.R",
			"rotation":[
				0.4252745807170868,
				4.027995714750432e-07,
				1.8926874645330827e-07,
				0.9050644040107727
			],
			"scale":[
				1,
				1,
				1.000000238418579
			],
			"translation":[
				-0.326694130897522,
				1.047857642173767,
				-0.21649134159088135
			]
		},
		{
			"mesh":0,
			"name":"Wolf",
			"skin":0
		},
		{
			"children":[
				67,
				54,
				57,
				60,
				63,
				66
			],
			"name":"AnimalArmature",
			"rotation":[
				0.7071068286895752,
				0,
				0,
				0.7071068286895752
			]
		},
		{
			"children":[
				68
			],
			"name":"wolf"
		}
	],
	"meshes":[
		{
			"name":"Cube.001",
			"primitives":[
				{
					"attributes":{
						"POSITION":0,
						"NORMAL":1,
						"TEXCOORD_0":2,
						"JOINTS_0":3,
						"WEIGHTS_0":4
					},
					"indices":5
				}
			]
		}
	],
	"skins":[
		{
			"inverseBindMatrices":6,
			"joints":[
				54,
				45,
				25,
				24,
				15,
				14,
				13,
				12,
				1,
				0,
				6,
				5,
				4,
				3,
				2,
				11,
				10,
				9,
				8,
				7,
				19,
				18,
				17,
				16,
				23,
				22,
				21,
				20,
				30,
				29,
				28,
				27,
				26,
				35,
				34,
				33,
				32,
				31,
				44,
				43,
				42,
				41,
				40,
				39,
				38,
				37,
				36,
				47,
				46,
				49,
				48,
				51,
				50,
				53,
				52,
				57,
				56,
				55,
				60,
				59,
				58,
				63,
				62,
				61,
				66,
				65,
				64
			],
			"name":"AnimalArmature"
		}
	],
	"accessors":[
		{
			"bufferView":0,
			"componentType":5126,
			"count":3932,
			"max":[
				0.5325999855995178,
				2.670809507369995,
				2.5611913204193115
			],
			"min":[
				-0.5325998663902283,
				-0.010202649049460888,
				-2.9918971061706543
			],
			"type":"VEC3"
		},
		{
			"bufferView":1,
			"componentType":5126,
			"count":3932,
			"type":"VEC3"
		},
		{
			"bufferView":2,
			"componentType":5126,
			"count":3932,
			"type":"VEC2"
		},
		{
			"bufferView":3,
			"componentType":5121,
			"count":3932,
			"type":"VEC4"
		},
		{
			"bufferView":4,
			"componentType":5126,
			"count":3932,
			"type":"VEC4"
		},
		{
			"bufferView":5,
			"componentType":5123,
			"count":5886,
			"type":"SCALAR"
		},
		{
			"bufferView":6,
			"componentType":5126,
			"count":67,
			"type":"MAT4"
		}
	],
	"bufferViews":[
		{
			"buffer":0,
			"byteLength":47184,
			"byteOffset":0,
			"target":34962
		},
		{
			"buffer":0,
			"byteLength":47184,
			"byteOffset":47184,
			"target":34962
		},
		{
			"buffer":0,
			"byteLength":31456,
			"byteOffset":94368,
			"target":34962
		},
		{
			"buffer":0,
			"byteLength":15728,
			"byteOffset":125824,
			"target":34962
		},
		{
			"buffer":0,
			"byteLength":62912,
			"byteOffset":141552,
			"target":34962
		},
		{
			"buffer":0,
			"byteLength":11772,
			"byteOffset":204464,
			"target":34963
		},
		{
			"buffer":0,
			"byteLength":4288,
			"byteOffset":216236
		}
	],
	"buffers":[
		{
			"byteLength":220524,
			"uri":"wolf.bin"
		}
	]
}
