{
	"asset":{
		"generator":"Khronos glTF Blender I/O v4.5.47",
		"version":"2.0"
	},
	"scene":0,
	"scenes":[
		{
			"name":"Scene",
			"nodes":[
				1
			]
		}
	],
	"nodes":[
		{
			"mesh":0,
			"name":"crystal_01",
			"scale":[
				0.009999999776482582,
				0.009999999776482582,
				0.009999999776482582
			]
		},
		{
			"children":[
				0
			],
			"name":"crystal_01"
		}
	],
	"meshes":[
		{
			"name":"crystal_01",
			"primitives":[
				{
					"attributes":{
						"POSITION":0,
						"NORMAL":1,
						"TEXCOORD_0":2,
						"TEXCOORD_1":3,
						"TANGENT":4
					},
					"indices":5
				}
			]
		}
	],
	"accessors":[
		{
			"bufferView":0,
			"componentType":5126,
			"count":39,
			"max":[
				43.917701721191406,
				171.84678649902344,
				62.57477569580078
			],
			"min":[
				-45.41660690307617,
				-0.013708176091313362,
				-21.347633361816406
			],
			"type":"VEC3"
		},
		{
			"bufferView":1,
			"componentType":5126,
			"count":39,
			"type":"VEC3"
		},
		{
			"bufferView":2,
			"componentType":5126,
			"count":39,
			"type":"VEC2"
		},
		{
			"bufferView":3,
			"componentType":5126,
			"count":39,
			"type":"VEC2"
		},
		{
			"bufferView":4,
			"componentType":5126,
			"count":39,
			"type":"VEC4"
		},
		{
			"bufferView":5,
			"componentType":5123,
			"count":45,
			"type":"SCALAR"
		}
	],
	"bufferViews":[
		{
			"buffer":0,
			"byteLength":468,
			"byteOffset":0,
			"target":34962
		},
		{
			"buffer":0,
			"byteLength":468,
			"byteOffset":468,
			"target":34962
		},
		{
			"buffer":0,
			"byteLength":312,
			"byteOffset":936,
			"target":34962
		},
		{
			"buffer":0,
			"byteLength":312,
			"byteOffset":1248,
			"target":34962
		},
		{
			"buffer":0,
			"byteLength":624,
			"byteOffset":1560,
			"target":34962
		},
		{
			"buffer":0,
			"byteLength":90,
			"byteOffset":2184,
			"target":34963
		}
	],
	"buffers":[
		{
			"byteLength":2276,
			"uri":"crystal_01.bin"
		}
	]
}
