{
	"asset":{
		"generator":"Khronos glTF Blender I/O v4.4.56",
		"version":"2.0"
	},
	"scene":0,
	"scenes":[
		{
			"name":"Scene",
			"nodes":[
				1
			]
		}
	],
	"nodes":[
		{
			"mesh":0,
			"name":"crystal_04",
			"scale":[
				0.009999999776482582,
				0.009999999776482582,
				0.009999999776482582
			]
		},
		{
			"children":[
				0
			],
			"name":"crystal_04"
		}
	],
	"meshes":[
		{
			"name":"crystal_04",
			"primitives":[
				{
					"attributes":{
						"POSITION":0,
						"NORMAL":1,
						"TEXCOORD_0":2,
						"TEXCOORD_1":3,
						"TANGENT":4
					},
					"indices":5
				}
			]
		}
	],
	"accessors":[
		{
			"bufferView":0,
			"componentType":5126,
			"count":52,
			"max":[
				43.53623962402344,
				162.48411560058594,
				28.038816452026367
			],
			"min":[
				-49.383453369140625,
				-4.608360541169532e-06,
				-52.713497161865234
			],
			"type":"VEC3"
		},
		{
			"bufferView":1,
			"componentType":5126,
			"count":52,
			"type":"VEC3"
		},
		{
			"bufferView":2,
			"componentType":5126,
			"count":52,
			"type":"VEC2"
		},
		{
			"bufferView":3,
			"componentType":5126,
			"count":52,
			"type":"VEC2"
		},
		{
			"bufferView":4,
			"componentType":5126,
			"count":52,
			"type":"VEC4"
		},
		{
			"bufferView":5,
			"componentType":5123,
			"count":66,
			"type":"SCALAR"
		}
	],
	"bufferViews":[
		{
			"buffer":0,
			"byteLength":624,
			"byteOffset":0,
			"target":34962
		},
		{
			"buffer":0,
			"byteLength":624,
			"byteOffset":624,
			"target":34962
		},
		{
			"buffer":0,
			"byteLength":416,
			"byteOffset":1248,
			"target":34962
		},
		{
			"buffer":0,
			"byteLength":416,
			"byteOffset":1664,
			"target":34962
		},
		{
			"buffer":0,
			"byteLength":832,
			"byteOffset":2080,
			"target":34962
		},
		{
			"buffer":0,
			"byteLength":132,
			"byteOffset":2912,
			"target":34963
		}
	],
	"buffers":[
		{
			"byteLength":3044,
			"uri":"crystal_04.bin"
		}
	]
}
