{
	"asset":{
		"generator":"Khronos glTF Blender I/O v4.5.47",
		"version":"2.0"
	},
	"scene":0,
	"scenes":[
		{
			"name":"Scene",
			"nodes":[
				1
			]
		}
	],
	"nodes":[
		{
			"mesh":0,
			"name":"log_00",
			"scale":[
				0.009999999776482582,
				0.009999999776482582,
				0.009999999776482582
			]
		},
		{
			"children":[
				0
			],
			"name":"log_00"
		}
	],
	"meshes":[
		{
			"name":"Log",
			"primitives":[
				{
					"attributes":{
						"POSITION":0,
						"NORMAL":1,
						"TEXCOORD_0":2,
						"TEXCOORD_1":3,
						"TANGENT":4
					},
					"indices":5
				}
			]
		}
	],
	"accessors":[
		{
			"bufferView":0,
			"componentType":5126,
			"count":237,
			"max":[
				158.11534118652344,
				58.404762268066406,
				66.26618957519531
			],
			"min":[
				-158.11526489257812,
				-58.40479278564453,
				-66.2662353515625
			],
			"type":"VEC3"
		},
		{
			"bufferView":1,
			"componentType":5126,
			"count":237,
			"type":"VEC3"
		},
		{
			"bufferView":2,
			"componentType":5126,
			"count":237,
			"type":"VEC2"
		},
		{
			"bufferView":3,
			"componentType":5126,
			"count":237,
			"type":"VEC2"
		},
		{
			"bufferView":4,
			"componentType":5126,
			"count":237,
			"type":"VEC4"
		},
		{
			"bufferView":5,
			"componentType":5123,
			"count":720,
			"type":"SCALAR"
		}
	],
	"bufferViews":[
		{
			"buffer":0,
			"byteLength":2844,
			"byteOffset":0,
			"target":34962
		},
		{
			"buffer":0,
			"byteLength":2844,
			"byteOffset":2844,
			"target":34962
		},
		{
			"buffer":0,
			"byteLength":1896,
			"byteOffset":5688,
			"target":34962
		},
		{
			"buffer":0,
			"byteLength":1896,
			"byteOffset":7584,
			"target":34962
		},
		{
			"buffer":0,
			"byteLength":3792,
			"byteOffset":9480,
			"target":34962
		},
		{
			"buffer":0,
			"byteLength":1440,
			"byteOffset":13272,
			"target":34963
		}
	],
	"buffers":[
		{
			"byteLength":14712,
			"uri":"log_00.bin"
		}
	]
}
