{
	"asset":{
		"generator":"Khronos glTF Blender I/O v4.5.48",
		"version":"2.0"
	},
	"scene":0,
	"scenes":[
		{
			"name":"Scene",
			"nodes":[
				1
			]
		}
	],
	"nodes":[
		{
			"mesh":0,
			"name":"Log_2",
			"scale":[
				0.009999999776482582,
				0.009999999776482582,
				0.009999999776482582
			]
		},
		{
			"children":[
				0
			],
			"name":"log_02"
		}
	],
	"meshes":[
		{
			"name":"Log_2",
			"primitives":[
				{
					"attributes":{
						"POSITION":0,
						"NORMAL":1,
						"TEXCOORD_0":2,
						"TEXCOORD_1":3,
						"TANGENT":4
					},
					"indices":5
				}
			]
		}
	],
	"accessors":[
		{
			"bufferView":0,
			"componentType":5126,
			"count":60,
			"max":[
				86.209716796875,
				14.26585578918457,
				26.91478729248047
			],
			"min":[
				-79.3285903930664,
				-14.265854835510254,
				-33.08523941040039
			],
			"type":"VEC3"
		},
		{
			"bufferView":1,
			"componentType":5126,
			"count":60,
			"type":"VEC3"
		},
		{
			"bufferView":2,
			"componentType":5126,
			"count":60,
			"type":"VEC2"
		},
		{
			"bufferView":3,
			"componentType":5126,
			"count":60,
			"type":"VEC2"
		},
		{
			"bufferView":4,
			"componentType":5126,
			"count":60,
			"type":"VEC4"
		},
		{
			"bufferView":5,
			"componentType":5123,
			"count":60,
			"type":"SCALAR"
		}
	],
	"bufferViews":[
		{
			"buffer":0,
			"byteLength":720,
			"byteOffset":0,
			"target":34962
		},
		{
			"buffer":0,
			"byteLength":720,
			"byteOffset":720,
			"target":34962
		},
		{
			"buffer":0,
			"byteLength":480,
			"byteOffset":1440,
			"target":34962
		},
		{
			"buffer":0,
			"byteLength":480,
			"byteOffset":1920,
			"target":34962
		},
		{
			"buffer":0,
			"byteLength":960,
			"byteOffset":2400,
			"target":34962
		},
		{
			"buffer":0,
			"byteLength":120,
			"byteOffset":3360,
			"target":34963
		}
	],
	"buffers":[
		{
			"byteLength":3480,
			"uri":"log_02.bin"
		}
	]
}
