{
	"asset":{
		"generator":"Khronos glTF Blender I/O v4.4.56",
		"version":"2.0"
	},
	"scene":0,
	"scenes":[
		{
			"name":"Scene",
			"nodes":[
				1
			]
		}
	],
	"nodes":[
		{
			"mesh":0,
			"name":"Log_1",
			"scale":[
				0.009999999776482582,
				0.009999999776482582,
				0.009999999776482582
			]
		},
		{
			"children":[
				0
			],
			"name":"log_01"
		}
	],
	"meshes":[
		{
			"name":"Log_1",
			"primitives":[
				{
					"attributes":{
						"POSITION":0,
						"NORMAL":1,
						"TEXCOORD_0":2,
						"TEXCOORD_1":3,
						"TANGENT":4
					},
					"indices":5
				}
			]
		}
	],
	"accessors":[
		{
			"bufferView":0,
			"componentType":5126,
			"count":53,
			"max":[
				124.57785034179688,
				32.6403923034668,
				27.957632064819336
			],
			"min":[
				-117.69672393798828,
				-32.64039993286133,
				-34.128089904785156
			],
			"type":"VEC3"
		},
		{
			"bufferView":1,
			"componentType":5126,
			"count":53,
			"type":"VEC3"
		},
		{
			"bufferView":2,
			"componentType":5126,
			"count":53,
			"type":"VEC2"
		},
		{
			"bufferView":3,
			"componentType":5126,
			"count":53,
			"type":"VEC2"
		},
		{
			"bufferView":4,
			"componentType":5126,
			"count":53,
			"type":"VEC4"
		},
		{
			"bufferView":5,
			"componentType":5123,
			"count":168,
			"type":"SCALAR"
		}
	],
	"bufferViews":[
		{
			"buffer":0,
			"byteLength":636,
			"byteOffset":0,
			"target":34962
		},
		{
			"buffer":0,
			"byteLength":636,
			"byteOffset":636,
			"target":34962
		},
		{
			"buffer":0,
			"byteLength":424,
			"byteOffset":1272,
			"target":34962
		},
		{
			"buffer":0,
			"byteLength":424,
			"byteOffset":1696,
			"target":34962
		},
		{
			"buffer":0,
			"byteLength":848,
			"byteOffset":2120,
			"target":34962
		},
		{
			"buffer":0,
			"byteLength":336,
			"byteOffset":2968,
			"target":34963
		}
	],
	"buffers":[
		{
			"byteLength":3304,
			"uri":"log_01.bin"
		}
	]
}
