{
	"asset":{
		"generator":"Khronos glTF Blender I/O v4.4.56",
		"version":"2.0"
	},
	"scene":0,
	"scenes":[
		{
			"name":"Scene",
			"nodes":[
				1
			]
		}
	],
	"nodes":[
		{
			"mesh":0,
			"name":"Log_3",
			"scale":[
				0.009999999776482582,
				0.009999999776482582,
				0.009999999776482582
			]
		},
		{
			"children":[
				0
			],
			"name":"log_03"
		}
	],
	"meshes":[
		{
			"name":"Log_3",
			"primitives":[
				{
					"attributes":{
						"POSITION":0,
						"NORMAL":1,
						"TEXCOORD_0":2,
						"TEXCOORD_1":3,
						"TANGENT":4
					},
					"indices":5
				}
			]
		}
	],
	"accessors":[
		{
			"bufferView":0,
			"componentType":5126,
			"count":26,
			"max":[
				95.94056701660156,
				15.23774528503418,
				11.914788246154785
			],
			"min":[
				-89.05944061279297,
				-15.237751960754395,
				-18.085243225097656
			],
			"type":"VEC3"
		},
		{
			"bufferView":1,
			"componentType":5126,
			"count":26,
			"type":"VEC3"
		},
		{
			"bufferView":2,
			"componentType":5126,
			"count":26,
			"type":"VEC2"
		},
		{
			"bufferView":3,
			"componentType":5126,
			"count":26,
			"type":"VEC2"
		},
		{
			"bufferView":4,
			"componentType":5126,
			"count":26,
			"type":"VEC4"
		},
		{
			"bufferView":5,
			"componentType":5123,
			"count":48,
			"type":"SCALAR"
		}
	],
	"bufferViews":[
		{
			"buffer":0,
			"byteLength":312,
			"byteOffset":0,
			"target":34962
		},
		{
			"buffer":0,
			"byteLength":312,
			"byteOffset":312,
			"target":34962
		},
		{
			"buffer":0,
			"byteLength":208,
			"byteOffset":624,
			"target":34962
		},
		{
			"buffer":0,
			"byteLength":208,
			"byteOffset":832,
			"target":34962
		},
		{
			"buffer":0,
			"byteLength":416,
			"byteOffset":1040,
			"target":34962
		},
		{
			"buffer":0,
			"byteLength":96,
			"byteOffset":1456,
			"target":34963
		}
	],
	"buffers":[
		{
			"byteLength":1552,
			"uri":"log_03.bin"
		}
	]
}
