{
	"asset":{
		"generator":"Khronos glTF Blender I/O v4.5.48",
		"version":"2.0"
	},
	"scene":0,
	"scenes":[
		{
			"name":"Scene",
			"nodes":[
				1
			]
		}
	],
	"nodes":[
		{
			"mesh":0,
			"name":"Mine",
			"scale":[
				0.009999999776482582,
				0.009999999776482582,
				0.009999999776482582
			]
		},
		{
			"children":[
				0
			],
			"name":"mine"
		}
	],
	"meshes":[
		{
			"name":"Mine",
			"primitives":[
				{
					"attributes":{
						"POSITION":0,
						"NORMAL":1,
						"TEXCOORD_0":2,
						"TEXCOORD_1":3,
						"TANGENT":4
					},
					"indices":5
				}
			]
		}
	],
	"accessors":[
		{
			"bufferView":0,
			"componentType":5126,
			"count":1746,
			"max":[
				516.2147216796875,
				710.86328125,
				430.3905029296875
			],
			"min":[
				-512.8304443359375,
				-0.025442123413085938,
				-418.1651306152344
			],
			"type":"VEC3"
		},
		{
			"bufferView":1,
			"componentType":5126,
			"count":1746,
			"type":"VEC3"
		},
		{
			"bufferView":2,
			"componentType":5126,
			"count":1746,
			"type":"VEC2"
		},
		{
			"bufferView":3,
			"componentType":5126,
			"count":1746,
			"type":"VEC2"
		},
		{
			"bufferView":4,
			"componentType":5126,
			"count":1746,
			"type":"VEC4"
		},
		{
			"bufferView":5,
			"componentType":5123,
			"count":1746,
			"type":"SCALAR"
		}
	],
	"bufferViews":[
		{
			"buffer":0,
			"byteLength":20952,
			"byteOffset":0,
			"target":34962
		},
		{
			"buffer":0,
			"byteLength":20952,
			"byteOffset":20952,
			"target":34962
		},
		{
			"buffer":0,
			"byteLength":13968,
			"byteOffset":41904,
			"target":34962
		},
		{
			"buffer":0,
			"byteLength":13968,
			"byteOffset":55872,
			"target":34962
		},
		{
			"buffer":0,
			"byteLength":27936,
			"byteOffset":69840,
			"target":34962
		},
		{
			"buffer":0,
			"byteLength":3492,
			"byteOffset":97776,
			"target":34963
		}
	],
	"buffers":[
		{
			"byteLength":101268,
			"uri":"mine.bin"
		}
	]
}
