{
	"asset":{
		"generator":"Khronos glTF Blender I/O v5.1.19",
		"version":"2.0"
	},
	"scene":0,
	"scenes":[
		{
			"name":"Scene",
			"nodes":[
				1
			]
		}
	],
	"nodes":[
		{
			"mesh":0,
			"name":"Mesh_0"
		},
		{
			"children":[
				0
			],
			"name":"stage_ufo"
		}
	],
	"meshes":[
		{
			"name":"Mesh_0",
			"primitives":[
				{
					"attributes":{
						"POSITION":0,
						"NORMAL":1,
						"TEXCOORD_0":2,
						"TANGENT":3
					},
					"indices":4
				}
			]
		}
	],
	"accessors":[
		{
			"bufferView":0,
			"componentType":5126,
			"count":6617,
			"max":[
				50.029850006103516,
				25.676496505737305,
				50.04770278930664
			],
			"min":[
				-50.147151947021484,
				-0.12713122367858887,
				-50.13465118408203
			],
			"type":"VEC3"
		},
		{
			"bufferView":1,
			"componentType":5126,
			"count":6617,
			"type":"VEC3"
		},
		{
			"bufferView":2,
			"componentType":5126,
			"count":6617,
			"type":"VEC2"
		},
		{
			"bufferView":3,
			"componentType":5126,
			"count":6617,
			"type":"VEC4"
		},
		{
			"bufferView":4,
			"componentType":5123,
			"count":30000,
			"type":"SCALAR"
		}
	],
	"bufferViews":[
		{
			"buffer":0,
			"byteLength":79404,
			"byteOffset":0,
			"target":34962
		},
		{
			"buffer":0,
			"byteLength":79404,
			"byteOffset":79404,
			"target":34962
		},
		{
			"buffer":0,
			"byteLength":52936,
			"byteOffset":158808,
			"target":34962
		},
		{
			"buffer":0,
			"byteLength":105872,
			"byteOffset":211744,
			"target":34962
		},
		{
			"buffer":0,
			"byteLength":60000,
			"byteOffset":317616,
			"target":34963
		}
	],
	"buffers":[
		{
			"byteLength":377616,
			"uri":"stage_ufo.bin"
		}
	]
}
