{
	"asset":{
		"generator":"Khronos glTF Blender I/O v4.5.48",
		"version":"2.0"
	},
	"scene":0,
	"scenes":[
		{
			"name":"Scene",
			"nodes":[
				1
			]
		}
	],
	"nodes":[
		{
			"mesh":0,
			"name":"Stump",
			"scale":[
				0.009999999776482582,
				0.009999999776482582,
				0.009999999776482582
			]
		},
		{
			"children":[
				0
			],
			"name":"stump_00"
		}
	],
	"meshes":[
		{
			"name":"Stump",
			"primitives":[
				{
					"attributes":{
						"POSITION":0,
						"NORMAL":1,
						"TEXCOORD_0":2,
						"TEXCOORD_1":3,
						"TANGENT":4
					},
					"indices":5
				}
			]
		}
	],
	"accessors":[
		{
			"bufferView":0,
			"componentType":5126,
			"count":966,
			"max":[
				94.94444274902344,
				127.28491973876953,
				87.19456481933594
			],
			"min":[
				-93.22505187988281,
				-1.0689542293548584,
				-82.01705169677734
			],
			"type":"VEC3"
		},
		{
			"bufferView":1,
			"componentType":5126,
			"count":966,
			"type":"VEC3"
		},
		{
			"bufferView":2,
			"componentType":5126,
			"count":966,
			"type":"VEC2"
		},
		{
			"bufferView":3,
			"componentType":5126,
			"count":966,
			"type":"VEC2"
		},
		{
			"bufferView":4,
			"componentType":5126,
			"count":966,
			"type":"VEC4"
		},
		{
			"bufferView":5,
			"componentType":5123,
			"count":966,
			"type":"SCALAR"
		}
	],
	"bufferViews":[
		{
			"buffer":0,
			"byteLength":11592,
			"byteOffset":0,
			"target":34962
		},
		{
			"buffer":0,
			"byteLength":11592,
			"byteOffset":11592,
			"target":34962
		},
		{
			"buffer":0,
			"byteLength":7728,
			"byteOffset":23184,
			"target":34962
		},
		{
			"buffer":0,
			"byteLength":7728,
			"byteOffset":30912,
			"target":34962
		},
		{
			"buffer":0,
			"byteLength":15456,
			"byteOffset":38640,
			"target":34962
		},
		{
			"buffer":0,
			"byteLength":1932,
			"byteOffset":54096,
			"target":34963
		}
	],
	"buffers":[
		{
			"byteLength":56028,
			"uri":"stump_00.bin"
		}
	]
}
