{
	"asset":{
		"generator":"Khronos glTF Blender I/O v4.4.56",
		"version":"2.0"
	},
	"scene":0,
	"scenes":[
		{
			"name":"Scene",
			"nodes":[
				51
			]
		}
	],
	"nodes":[
		{
			"name":"backToes3_L",
			"rotation":[
				1.7264031981767403e-08,
				5.628454591288801e-09,
				-0.08812563121318817,
				0.9961093664169312
			],
			"scale":[
				1,
				0.9999998807907104,
				1
			],
			"translation":[
				-15.002324104309082,
				1.1856302080559544e-05,
				-9.397172107128426e-06
			]
		},
		{
			"children":[
				0
			],
			"name":"backToes2_L",
			"rotation":[
				0.6427782773971558,
				-0.005920285824686289,
				0.11856352537870407,
				0.7567983269691467
			],
			"scale":[
				1.0000001192092896,
				1.0000001192092896,
				1
			],
			"translation":[
				-6.863295555114746,
				-3.814697265625e-06,
				2.002716064453125e-05
			]
		},
		{
			"children":[
				1
			],
			"name":"backToes1_L",
			"rotation":[
				-0.6527466773986816,
				-0.2650904059410095,
				0.1678384393453598,
				0.6895499229431152
			],
			"translation":[
				-10.051671981811523,
				9.5367431640625e-06,
				2.384185791015625e-06
			]
		},
		{
			"children":[
				2
			],
			"name":"backAnkle_L",
			"rotation":[
				0.0340668149292469,
				0.07623212039470673,
				0.49616649746894836,
				0.8642030358314514
			],
			"scale":[
				1.0000001192092896,
				1,
				0.9999999403953552
			],
			"translation":[
				-100.64781188964844,
				-3.7146593967918307e-05,
				-1.768034417182207e-05
			]
		},
		{
			"children":[
				3
			],
			"name":"backKnee_L",
			"rotation":[
				2.6066173219874145e-08,
				-2.664341991476249e-08,
				-0.3104323446750641,
				0.950595498085022
			],
			"scale":[
				1.0000001192092896,
				1.0000001192092896,
				1
			],
			"translation":[
				-104.13575744628906,
				5.309888001647778e-05,
				-3.4299606340937316e-05
			]
		},
		{
			"children":[
				4
			],
			"name":"backHip_L",
			"rotation":[
				0.67946857213974,
				-0.7337046265602112,
				5.129844993234656e-08,
				5.5393158504557505e-08
			],
			"translation":[
				76.3711166381836,
				65.25102233886719,
				70.79000091552734
			]
		},
		{
			"name":"backToes3_R",
			"rotation":[
				-6.67651960384319e-08,
				-2.4379531282647804e-07,
				-0.08812554180622101,
				0.9961094260215759
			],
			"scale":[
				1,
				0.9999999403953552,
				0.9999999403953552
			],
			"translation":[
				15.002323150634766,
				7.515285687986761e-06,
				3.799224941758439e-06
			]
		},
		{
			"children":[
				6
			],
			"name":"backToes2_R",
			"rotation":[
				0.642778754234314,
				-0.005920771975070238,
				0.11856382340192795,
				0.7567979097366333
			],
			"scale":[
				1.0000001192092896,
				1.0000001192092896,
				1
			],
			"translation":[
				6.863315582275391,
				1.239776611328125e-05,
				-3.62396240234375e-05
			]
		},
		{
			"children":[
				7
			],
			"name":"backToes1_R",
			"rotation":[
				-0.6527466177940369,
				-0.2650905251502991,
				0.16783803701400757,
				0.6895501017570496
			],
			"scale":[
				1,
				0.9999999403953552,
				0.9999999403953552
			],
			"translation":[
				10.051631927490234,
				1.049041748046875e-05,
				-1.0251998901367188e-05
			]
		},
		{
			"children":[
				8
			],
			"name":"backAnkle_R",
			"rotation":[
				0.03406676650047302,
				0.07623214274644852,
				0.49616608023643494,
				0.8642033338546753
			],
			"scale":[
				1.0000001192092896,
				1,
				0.9999998211860657
			],
			"translation":[
				100.64778900146484,
				1.6259167750831693e-05,
				-1.0050946912087966e-05
			]
		},
		{
			"children":[
				9
			],
			"name":"backKnee_R",
			"rotation":[
				-2.6066178548944663e-08,
				2.6643411032978292e-08,
				-0.3104323446750641,
				0.950595498085022
			],
			"scale":[
				0.9999999403953552,
				1,
				1
			],
			"translation":[
				104.1357192993164,
				1.685925599304028e-05,
				-1.9040811821469106e-05
			]
		},
		{
			"children":[
				10
			],
			"name":"backHip_R",
			"rotation":[
				0.7337046265602112,
				0.67946857213974,
				-5.539315139913015e-08,
				5.129844993234656e-08
			],
			"scale":[
				1.0000001192092896,
				1,
				1
			],
			"translation":[
				76.37110137939453,
				65.25102233886719,
				-70.79002380371094
			]
		},
		{
			"name":"frontToes3_L",
			"rotation":[
				1.5385621943142525e-10,
				7.050101658023777e-08,
				0.10563449561595917,
				0.9944050312042236
			],
			"scale":[
				0.9999999403953552,
				0.9999999403953552,
				1
			],
			"translation":[
				-8.993069648742676,
				-4.98180124850478e-05,
				-1.2780814358848147e-05
			]
		},
		{
			"children":[
				12
			],
			"name":"frontToes2_L",
			"rotation":[
				0.9851491451263428,
				-0.1717006415128708,
				-1.4565611650141363e-07,
				1.296292584385128e-08
			],
			"scale":[
				1.000002384185791,
				1.000000238418579,
				0.9999999403953552
			],
			"translation":[
				-9.931220054626465,
				1.0432868293719366e-05,
				-1.1783708032453433e-05
			]
		},
		{
			"children":[
				13
			],
			"name":"frontToes1_L",
			"rotation":[
				-8.984552835045179e-08,
				1.8746460384022612e-08,
				-0.3689468204975128,
				0.929450511932373
			],
			"scale":[
				0.9999998807907104,
				1,
				0.9999999403953552
			],
			"translation":[
				-10.388031005859375,
				-9.955263521987945e-06,
				-4.549035566014936e-06
			]
		},
		{
			"children":[
				14
			],
			"name":"frontAnkle_L",
			"rotation":[
				-0.9885221719741821,
				0.15107598900794983,
				1.8603003582029487e-07,
				1.1405945521403282e-08
			],
			"scale":[
				1.000002145767212,
				1.000000238418579,
				0.9999999403953552
			],
			"translation":[
				-62.09381866455078,
				9.167201824311633e-06,
				6.827328434155788e-06
			]
		},
		{
			"children":[
				15
			],
			"name":"frontKnee_L",
			"rotation":[
				5.045336592957028e-08,
				6.320610701493479e-09,
				0.421630322933197,
				0.9067677855491638
			],
			"scale":[
				1,
				0.9999999403953552,
				0.9999999403953552
			],
			"translation":[
				-84.3464584350586,
				1.3564119399234187e-05,
				8.977073775895406e-06
			]
		},
		{
			"children":[
				16
			],
			"name":"frontHip_L",
			"rotation":[
				-6.018586873324239e-08,
				3.284160499106292e-08,
				-0.43178698420524597,
				0.9019756317138672
			],
			"scale":[
				1,
				1.0000001192092896,
				1
			],
			"translation":[
				-38.13791275024414,
				1.7810893041314557e-05,
				1.916912333399523e-05
			]
		},
		{
			"children":[
				17
			],
			"name":"frontRump_L",
			"rotation":[
				-0.18100401759147644,
				0.9834823608398438,
				1.3665424347664157e-08,
				7.42508561302202e-08
			],
			"scale":[
				0.9999999403953552,
				0.9999997019767761,
				1
			],
			"translation":[
				24.190570831298828,
				25.146629333496094,
				50.78660202026367
			]
		},
		{
			"name":"frontToes3_R",
			"rotation":[
				1.2021503792425392e-09,
				2.0380760190619185e-07,
				0.10563483834266663,
				0.9944049715995789
			],
			"translation":[
				8.993082046508789,
				3.410530189285055e-05,
				4.503508534980938e-07
			]
		},
		{
			"children":[
				19
			],
			"name":"frontToes2_R",
			"rotation":[
				-0.9851492643356323,
				0.171700119972229,
				2.1305259778614527e-08,
				3.3431213353196654e-08
			],
			"scale":[
				1.0000007152557373,
				1.000000238418579,
				1
			],
			"translation":[
				9.93125057220459,
				5.620924639515579e-05,
				7.551438102382235e-06
			]
		},
		{
			"children":[
				20
			],
			"name":"frontToes1_R",
			"rotation":[
				3.124246816810228e-08,
				8.216470348543226e-08,
				-0.3689485788345337,
				0.9294497966766357
			],
			"scale":[
				0.9999999403953552,
				0.9999999403953552,
				0.9999999403953552
			],
			"translation":[
				10.38798713684082,
				2.2469674149760976e-05,
				-1.0665002037058002e-06
			]
		},
		{
			"children":[
				21
			],
			"name":"frontAnkle_R",
			"rotation":[
				-0.9885221719741821,
				0.15107609331607819,
				-7.095250964539446e-08,
				1.1405931310548567e-08
			],
			"scale":[
				0.9999996423721313,
				0.9999998807907104,
				1
			],
			"translation":[
				62.09378433227539,
				-6.091589966672473e-06,
				1.4472894690698013e-05
			]
		},
		{
			"children":[
				22
			],
			"name":"frontKnee_R",
			"rotation":[
				-3.788233060575408e-10,
				7.909621047019755e-08,
				0.4216304421424866,
				0.9067677855491638
			],
			"scale":[
				0.9999999403953552,
				0.9999998807907104,
				0.9999998807907104
			],
			"translation":[
				84.34645080566406,
				4.1784798668231815e-05,
				-9.265382686862722e-06
			]
		},
		{
			"children":[
				23
			],
			"name":"frontHip_R",
			"rotation":[
				-6.315676870372045e-08,
				3.426385575266977e-08,
				-0.4317871034145355,
				0.9019755721092224
			],
			"scale":[
				0.9999999403953552,
				1,
				0.9999999403953552
			],
			"translation":[
				38.13792037963867,
				-1.2625946510524955e-06,
				-1.2739596058963798e-05
			]
		},
		{
			"children":[
				24
			],
			"name":"frontRump_R",
			"rotation":[
				0.9834823608398438,
				0.18100395798683167,
				-7.42508561302202e-08,
				1.3665419906772058e-08
			],
			"scale":[
				0.9999997019767761,
				1,
				1
			],
			"translation":[
				24.190582275390625,
				25.14664077758789,
				-50.78660202026367
			]
		},
		{
			"name":"JawEnd_M",
			"rotation":[
				4.987869976937195e-15,
				7.187133002726099e-15,
				-4.842877743271856e-08,
				1
			],
			"scale":[
				0.9999999403953552,
				1,
				0.9999999403953552
			],
			"translation":[
				48.421836853027344,
				-4.1961669921875e-05,
				-1.35792453670458e-11
			]
		},
		{
			"name":"Tongue_End_M",
			"rotation":[
				-2.401565579702395e-14,
				-1.02007140222475e-15,
				5.2154067731180476e-08,
				1
			],
			"scale":[
				1,
				0.9999999403953552,
				1
			],
			"translation":[
				9.101399421691895,
				-1.52587890625e-05,
				-5.664331850785409e-13
			]
		},
		{
			"children":[
				27
			],
			"name":"Tongue_M",
			"rotation":[
				2.7430591096624067e-14,
				-4.423634649233267e-14,
				-0.04482929781079292,
				0.9989947080612183
			],
			"scale":[
				1,
				1,
				0.9999999403953552
			],
			"translation":[
				41.733158111572266,
				-6.594200134277344,
				-9.705104775381557e-12
			]
		},
		{
			"children":[
				26,
				28
			],
			"name":"Jaw_M",
			"rotation":[
				3.822481549341938e-16,
				8.393989781138762e-15,
				0.35390350222587585,
				0.9352819323539734
			],
			"scale":[
				1,
				0.9999999403953552,
				1
			],
			"translation":[
				-5.182769775390625,
				11.273712158203125,
				-2.786283356814856e-12
			]
		},
		{
			"children":[
				29
			],
			"name":"Head_M",
			"rotation":[
				-1.3809876941268343e-14,
				3.88715582888121e-14,
				-0.24083773791790009,
				0.9705653786659241
			],
			"scale":[
				1.0000001192092896,
				1,
				1.0000001192092896
			],
			"translation":[
				18.158992767333984,
				2.6702880859375e-05,
				-2.1289933357926394e-11
			]
		},
		{
			"children":[
				30
			],
			"name":"Neck4_M",
			"rotation":[
				-9.154896418316245e-15,
				-3.1455711990767236e-15,
				0.059851113706827164,
				0.9982073307037354
			],
			"scale":[
				1,
				1,
				0.9999998807907104
			],
			"translation":[
				24.826732635498047,
				-7.629394076502649e-06,
				-5.739410249144816e-12
			]
		},
		{
			"children":[
				31
			],
			"name":"Neck3_M",
			"rotation":[
				1.3138732079577293e-14,
				-5.550037697216875e-15,
				-0.014029070734977722,
				0.9999015927314758
			],
			"scale":[
				1,
				0.9999999403953552,
				0.9999999403953552
			],
			"translation":[
				28.96980857849121,
				-3.0517578125e-05,
				-6.42596913180693e-12
			]
		},
		{
			"children":[
				32
			],
			"name":"Neck2_M",
			"rotation":[
				-1.8078440186650082e-15,
				-1.1468443882205778e-15,
				-0.004319062922149897,
				0.999990701675415
			],
			"scale":[
				1.0000001192092896,
				1.0000001192092896,
				1
			],
			"translation":[
				28.939531326293945,
				4.57763671875e-05,
				-4.300708660726071e-12
			]
		},
		{
			"children":[
				33
			],
			"name":"Neck1_M",
			"rotation":[
				-2.962694879940389e-15,
				1.0279204065607024e-16,
				-0.36729955673217773,
				0.9301027059555054
			],
			"scale":[
				1,
				1.0000001192092896,
				1.0000001192092896
			],
			"translation":[
				34.33811569213867,
				-7.629394076502649e-06,
				-6.374011561616211e-12
			]
		},
		{
			"children":[
				34
			],
			"name":"Neck_M",
			"rotation":[
				-4.223525233026807e-15,
				-5.8669597331132816e-15,
				-0.10292591899633408,
				0.9946890473365784
			],
			"scale":[
				1,
				0.9999999403953552,
				1
			],
			"translation":[
				39.892330169677734,
				-7.629394076502649e-06,
				-5.8947404249498625e-12
			]
		},
		{
			"children":[
				18,
				25,
				35
			],
			"name":"Chest_M",
			"rotation":[
				8.002797990602968e-16,
				-2.6838797975497694e-15,
				0.20458388328552246,
				0.9788490533828735
			],
			"scale":[
				1,
				1.0000001192092896,
				1.0000001192092896
			],
			"translation":[
				45.191741943359375,
				2.2737367544323206e-13,
				8.535705128820403e-12
			]
		},
		{
			"children":[
				36
			],
			"name":"Spine1Part2_M",
			"rotation":[
				9.823120498646926e-16,
				5.2777428626959826e-15,
				-4.470348358154297e-08,
				1
			],
			"translation":[
				45.191734313964844,
				-7.62939453125e-06,
				-3.864029755884513e-12
			]
		},
		{
			"children":[
				37
			],
			"name":"Spine1Part1_M",
			"rotation":[
				1.8316731730536398e-15,
				5.17447980554679e-15,
				2.9802317058624794e-08,
				1
			],
			"scale":[
				1.0000001192092896,
				1.000000238418579,
				1.0000001192092896
			],
			"translation":[
				45.19172668457031,
				-4.00543212890625e-05,
				-3.827252750832066e-12
			]
		},
		{
			"children":[
				38
			],
			"name":"Spine1_M",
			"rotation":[
				5.610953765684563e-16,
				5.420542029691217e-15,
				0.17881402373313904,
				0.9838829040527344
			],
			"scale":[
				1,
				1.0000001192092896,
				1
			],
			"translation":[
				41.828163146972656,
				-1.52587890625e-05,
				-2.046363729510392e-12
			]
		},
		{
			"children":[
				39
			],
			"name":"RootPart2_M",
			"rotation":[
				8.881784197001252e-16,
				-1.5692677658292963e-15,
				3.537653822302501e-30,
				1
			],
			"translation":[
				41.828182220458984,
				-1.5258792700478807e-05,
				-5.684344054485146e-13
			]
		},
		{
			"children":[
				40
			],
			"name":"RootPart1_M",
			"rotation":[
				8.881784197001252e-16,
				-1.5686040096360042e-15,
				0,
				1
			],
			"translation":[
				41.82819747924805,
				-3.814697265625e-05,
				-9.0949502703358e-13
			]
		},
		{
			"name":"Tail5_M",
			"rotation":[
				4.742970904914046e-09,
				-8.964375838589177e-15,
				-0.054252997040748596,
				0.9985272288322449
			],
			"scale":[
				0.9999998807907104,
				1,
				1
			],
			"translation":[
				49.638885498046875,
				3.814698175119702e-06,
				4.339577571954578e-06
			]
		},
		{
			"children":[
				42
			],
			"name":"Tail4_M",
			"rotation":[
				1.0128362148975611e-08,
				1.715745872200164e-14,
				-0.11585504561662674,
				0.9932661652565002
			],
			"scale":[
				1,
				0.9999999403953552,
				0.9999998807907104
			],
			"translation":[
				59.950565338134766,
				3.0517578125e-05,
				5.241048256721115e-06
			]
		},
		{
			"children":[
				43
			],
			"name":"Tail3_M",
			"rotation":[
				6.458350743088204e-09,
				-3.144973405574199e-15,
				-0.07387486100196838,
				0.9972675442695618
			],
			"scale":[
				1,
				1,
				0.9999999403953552
			],
			"translation":[
				47.33110046386719,
				1.52587890625e-05,
				4.137813903071219e-06
			]
		},
		{
			"children":[
				44
			],
			"name":"Tail2_M",
			"rotation":[
				1.5106949025067706e-09,
				4.441555325298326e-15,
				-0.017280152067542076,
				0.9998506903648376
			],
			"scale":[
				0.9999998807907104,
				0.9999998807907104,
				0.9999999403953552
			],
			"translation":[
				49.97153091430664,
				3.814697720372351e-06,
				4.368645932117943e-06
			]
		},
		{
			"children":[
				45
			],
			"name":"Tail1_M",
			"rotation":[
				-3.299310824544932e-09,
				-3.177433782752814e-08,
				0.02767661213874817,
				0.9996169805526733
			],
			"scale":[
				0.9999999403953552,
				1,
				1
			],
			"translation":[
				64.33726501464844,
				-5.7220458984375e-05,
				9.714651241665706e-06
			]
		},
		{
			"children":[
				46
			],
			"name":"Tail0_M",
			"rotation":[
				-0.23823076486587524,
				-0.9712085723876953,
				-1.798593096680179e-08,
				7.332421603223338e-08
			],
			"scale":[
				1,
				0.9999999403953552,
				1
			],
			"translation":[
				-63.67700958251953,
				57.04689407348633,
				2.9558577807620168e-12
			]
		},
		{
			"children":[
				5,
				11,
				41,
				47
			],
			"name":"root",
			"rotation":[
				4.0730171235736634e-08,
				0,
				0,
				1
			]
		},
		{
			"mesh":0,
			"name":"Stegosaurus",
			"skin":0
		},
		{
			"children":[
				49,
				48
			],
			"name":"Armature",
			"scale":[
				0.009999989531934261,
				0.009999990463256836,
				0.009999990463256836
			]
		},
		{
			"children":[
				50
			],
			"name":"base"
		}
	],
	"meshes":[
		{
			"name":"Scene",
			"primitives":[
				{
					"attributes":{
						"POSITION":0,
						"NORMAL":1,
						"TEXCOORD_0":2,
						"TANGENT":3,
						"JOINTS_0":4,
						"WEIGHTS_0":5
					},
					"indices":6
				}
			]
		}
	],
	"skins":[
		{
			"inverseBindMatrices":7,
			"joints":[
				48,
				5,
				4,
				3,
				2,
				1,
				0,
				11,
				10,
				9,
				8,
				7,
				6,
				41,
				40,
				39,
				38,
				37,
				36,
				18,
				17,
				16,
				15,
				14,
				13,
				12,
				25,
				24,
				23,
				22,
				21,
				20,
				19,
				35,
				34,
				33,
				32,
				31,
				30,
				29,
				26,
				28,
				27,
				47,
				46,
				45,
				44,
				43,
				42
			],
			"name":"Armature"
		}
	],
	"accessors":[
		{
			"bufferView":0,
			"componentType":5126,
			"count":6854,
			"max":[
				4.702874183654785,
				2.7679965496063232,
				0.9548702836036682
			],
			"min":[
				-4.245746612548828,
				-1.5156315565109253,
				-0.9548707604408264
			],
			"type":"VEC3"
		},
		{
			"bufferView":1,
			"componentType":5126,
			"count":6854,
			"type":"VEC3"
		},
		{
			"bufferView":2,
			"componentType":5126,
			"count":6854,
			"type":"VEC2"
		},
		{
			"bufferView":3,
			"componentType":5126,
			"count":6854,
			"type":"VEC4"
		},
		{
			"bufferView":4,
			"componentType":5121,
			"count":6854,
			"type":"VEC4"
		},
		{
			"bufferView":5,
			"componentType":5126,
			"count":6854,
			"type":"VEC4"
		},
		{
			"bufferView":6,
			"componentType":5123,
			"count":36072,
			"type":"SCALAR"
		},
		{
			"bufferView":7,
			"componentType":5126,
			"count":49,
			"type":"MAT4"
		}
	],
	"bufferViews":[
		{
			"buffer":0,
			"byteLength":82248,
			"byteOffset":0,
			"target":34962
		},
		{
			"buffer":0,
			"byteLength":82248,
			"byteOffset":82248,
			"target":34962
		},
		{
			"buffer":0,
			"byteLength":54832,
			"byteOffset":164496,
			"target":34962
		},
		{
			"buffer":0,
			"byteLength":109664,
			"byteOffset":219328,
			"target":34962
		},
		{
			"buffer":0,
			"byteLength":27416,
			"byteOffset":328992,
			"target":34962
		},
		{
			"buffer":0,
			"byteLength":109664,
			"byteOffset":356408,
			"target":34962
		},
		{
			"buffer":0,
			"byteLength":72144,
			"byteOffset":466072,
			"target":34963
		},
		{
			"buffer":0,
			"byteLength":3136,
			"byteOffset":538216
		}
	],
	"buffers":[
		{
			"byteLength":541352,
			"uri":"base.bin"
		}
	]
}
